<?xml version="1.0" encoding="UTF-8" standalone="no"?>
<!DOCTYPE svg PUBLIC "-//W3C//DTD SVG 1.1//EN"
 "http://www.w3.org/Graphics/SVG/1.1/DTD/svg11.dtd">
<!-- Generated by graphviz version 2.43.0 (0)
 -->
<!-- Title: D Pages: 1 -->
<svg width="408pt" height="195pt"
 viewBox="0.00 0.00 407.58 194.50" xmlns="http://www.w3.org/2000/svg" xmlns:xlink="http://www.w3.org/1999/xlink">
<g id="graph0" class="graph" transform="scale(1 1) rotate(0) translate(4 190.5)">
<title>D</title>
<polygon fill="white" stroke="transparent" points="-4,4 -4,-190.5 403.58,-190.5 403.58,4 -4,4"/>
<text text-anchor="middle" x="199.79" y="-6.8" font-family="Helvetica,sans-Serif" font-size="9.00">[ example ]</text>
<!-- P -->
<g id="node1" class="node">
<title>P</title>
<ellipse fill="#eeeeee" stroke="black" cx="143.79" cy="-112.5" rx="31.58" ry="18"/>
<text text-anchor="middle" x="143.79" y="-110" font-family="Helvetica,sans-Serif" font-size="10.00">Process</text>
</g>
<!-- P2 -->
<g id="node2" class="node">
<title>P2</title>
<ellipse fill="#eeeeee" stroke="black" cx="337.58" cy="-168.5" rx="31.58" ry="18"/>
<text text-anchor="middle" x="337.58" y="-166" font-family="Helvetica,sans-Serif" font-size="10.00">Process</text>
</g>
<!-- P&#45;&gt;P2 -->
<g id="edge2" class="edge">
<title>P&#45;&gt;P2</title>
<path fill="none" stroke="gray" stroke-dasharray="5,2" d="M166.04,-125.51C174.38,-130.16 184.19,-135.09 193.58,-138.5 227.13,-150.68 267,-158.53 296.11,-163.14"/>
<polygon fill="gray" stroke="gray" points="295.9,-166.65 306.31,-164.69 296.95,-159.73 295.9,-166.65"/>
<text text-anchor="middle" x="225.58" y="-158.5" font-family="Times,serif" font-style="italic" font-size="10.00">signal</text>
</g>
<!-- S -->
<g id="node4" class="node">
<title>S</title>
<polygon fill="black" stroke="transparent" points="322.58,-121.5 322.58,-125.5 352.58,-125.5 352.58,-121.5 322.58,-121.5"/>
<text text-anchor="start" x="324.58" y="-109.5" font-family="Helvetica,sans-Serif" font-size="10.00">Store</text>
<polygon fill="black" stroke="transparent" points="322.58,-98.5 322.58,-102.5 352.58,-102.5 352.58,-98.5 322.58,-98.5"/>
</g>
<!-- P&#45;&gt;S -->
<g id="edge3" class="edge">
<title>P&#45;&gt;S</title>
<path fill="none" stroke="gray" d="M185.76,-112.5C219.81,-112.5 267.8,-112.5 300.44,-112.5"/>
<polygon fill="gray" stroke="gray" points="185.6,-109 175.6,-112.5 185.6,-116 185.6,-109"/>
<polygon fill="gray" stroke="gray" points="300.46,-116 310.46,-112.5 300.46,-109 300.46,-116"/>
<text text-anchor="middle" x="225.58" y="-126.5" font-family="Times,serif" font-style="italic" font-size="10.00">bidirectional</text>
<text text-anchor="middle" x="225.58" y="-115.5" font-family="Times,serif" font-style="italic" font-size="10.00">flow</text>
</g>
<!-- C -->
<g id="node5" class="node">
<title>C</title>
<polygon fill="black" stroke="transparent" points="335.58,-40.5 335.58,-68.5 339.58,-68.5 339.58,-40.5 335.58,-40.5"/>
<text text-anchor="start" x="317.58" y="-28.5" font-family="Helvetica,sans-Serif" font-size="10.00">Channel</text>
</g>
<!-- P&#45;&gt;C -->
<g id="edge4" class="edge">
<title>P&#45;&gt;C:c</title>
<path fill="none" stroke="gray" d="M166.06,-99.55C174.41,-94.91 184.22,-89.97 193.58,-86.5 250.35,-65.46 325.16,-55.88 335.4,-54.64"/>
<text text-anchor="middle" x="225.58" y="-100.5" font-family="Times,serif" font-style="italic" font-size="10.00">undirected</text>
<text text-anchor="middle" x="225.58" y="-89.5" font-family="Times,serif" font-style="italic" font-size="10.00">flow</text>
</g>
<!-- E -->
<g id="node3" class="node">
<title>E</title>
<polygon fill="none" stroke="black" points="54,-130.5 0,-130.5 0,-94.5 54,-94.5 54,-130.5"/>
<text text-anchor="middle" x="27" y="-110" font-family="Helvetica,sans-Serif" font-size="10.00">Entity</text>
</g>
<!-- E&#45;&gt;P -->
<g id="edge1" class="edge">
<title>E&#45;&gt;P</title>
<path fill="none" stroke="gray" d="M54.05,-112.5C68.16,-112.5 85.91,-112.5 101.82,-112.5"/>
<polygon fill="gray" stroke="gray" points="101.96,-116 111.96,-112.5 101.96,-109 101.96,-116"/>
<text text-anchor="middle" x="83" y="-115.5" font-family="Times,serif" font-style="italic" font-size="10.00">flow</text>
</g>
</g>
</svg>
