<?xml version="1.0" encoding="UTF-8" standalone="no"?>
<!DOCTYPE svg PUBLIC "-//W3C//DTD SVG 1.1//EN"
 "http://www.w3.org/Graphics/SVG/1.1/DTD/svg11.dtd">
<!-- Generated by graphviz version 2.43.0 (0)
 -->
<!-- Title: D Pages: 1 -->
<svg width="394pt" height="205pt"
 viewBox="0.00 0.00 394.40 204.50" xmlns="http://www.w3.org/2000/svg" xmlns:xlink="http://www.w3.org/1999/xlink">
<g id="graph0" class="graph" transform="scale(1 1) rotate(0) translate(4 200.5)">
<title>D</title>
<polygon fill="white" stroke="transparent" points="-4,4 -4,-200.5 390.4,-200.5 390.4,4 -4,4"/>
<text text-anchor="middle" x="193.2" y="-6.8" font-family="Helvetica,sans-Serif" font-size="9.00" fill="#000060">&#45; example &#45;</text>
<!-- P -->
<g id="node1" class="node">
<title>P</title>
<ellipse fill="#eeeeee" stroke="black" cx="140.2" cy="-122.5" rx="31.4" ry="18"/>
<text text-anchor="middle" x="140.2" y="-120" font-family="Helvetica,sans-Serif" font-size="10.00">Process</text>
</g>
<!-- P2 -->
<g id="node2" class="node">
<title>P2</title>
<ellipse fill="#eeeeee" stroke="black" cx="324.4" cy="-178.5" rx="31.4" ry="18"/>
<text text-anchor="middle" x="324.4" y="-176" font-family="Helvetica,sans-Serif" font-size="10.00">Process</text>
</g>
<!-- P&#45;&gt;P2 -->
<g id="edge2" class="edge">
<title>P&#45;&gt;P2</title>
<path fill="none" stroke="gray" stroke-dasharray="5,2" d="M162.2,-135.45C170.44,-140.1 180.14,-145.04 189.4,-148.5 220.29,-160.04 256.92,-167.87 284.07,-172.63"/>
<polygon fill="gray" stroke="gray" points="283.54,-176.08 293.98,-174.3 284.7,-169.18 283.54,-176.08"/>
<text text-anchor="middle" x="216.9" y="-166.5" font-family="Times,serif" font-style="italic" font-size="10.00">signal</text>
</g>
<!-- S -->
<g id="node4" class="node">
<title>S</title>
<polygon fill="black" stroke="transparent" points="310.4,-131.5 310.4,-135.5 338.4,-135.5 338.4,-131.5 310.4,-131.5"/>
<text text-anchor="start" x="312.4" y="-119.5" font-family="Helvetica,sans-Serif" font-size="10.00">Store</text>
<polygon fill="black" stroke="transparent" points="310.4,-108.5 310.4,-112.5 338.4,-112.5 338.4,-108.5 310.4,-108.5"/>
</g>
<!-- P&#45;&gt;S -->
<g id="edge3" class="edge">
<title>P&#45;&gt;S</title>
<path fill="none" stroke="gray" d="M182.12,-122.5C213.64,-122.5 256.81,-122.5 287.1,-122.5"/>
<polygon fill="gray" stroke="gray" points="181.7,-119 171.7,-122.5 181.7,-126 181.7,-119"/>
<polygon fill="gray" stroke="gray" points="287.24,-126 297.24,-122.5 287.24,-119 287.24,-126"/>
<text text-anchor="middle" x="216.9" y="-136.5" font-family="Times,serif" font-style="italic" font-size="10.00">bidirectional</text>
<text text-anchor="middle" x="216.9" y="-125.5" font-family="Times,serif" font-style="italic" font-size="10.00">flow</text>
</g>
<!-- C -->
<g id="node5" class="node">
<title>C</title>
<polygon fill="black" stroke="transparent" points="322.4,-50.5 322.4,-78.5 326.4,-78.5 326.4,-50.5 322.4,-50.5"/>
<text text-anchor="start" x="305.9" y="-38.5" font-family="Helvetica,sans-Serif" font-size="10.00">Channel</text>
</g>
<!-- P&#45;&gt;C -->
<g id="edge4" class="edge">
<title>P&#45;&gt;C:c</title>
<path fill="none" stroke="gray" d="M162.23,-109.62C170.47,-104.98 180.16,-100.03 189.4,-96.5 242.58,-76.2 312.7,-65.99 322.29,-64.65"/>
<text text-anchor="middle" x="216.9" y="-110.5" font-family="Times,serif" font-style="italic" font-size="10.00">undirected</text>
<text text-anchor="middle" x="216.9" y="-99.5" font-family="Times,serif" font-style="italic" font-size="10.00">flow</text>
</g>
<!-- E -->
<g id="node3" class="node">
<title>E</title>
<polygon fill="none" stroke="black" points="54,-140.5 0,-140.5 0,-104.5 54,-104.5 54,-140.5"/>
<text text-anchor="middle" x="27" y="-120" font-family="Helvetica,sans-Serif" font-size="10.00">Entity</text>
</g>
<!-- E&#45;&gt;P -->
<g id="edge1" class="edge">
<title>E&#45;&gt;P</title>
<path fill="none" stroke="gray" d="M54.07,-122.5C67.42,-122.5 83.98,-122.5 98.93,-122.5"/>
<polygon fill="gray" stroke="gray" points="98.96,-126 108.96,-122.5 98.96,-119 98.96,-126"/>
<text text-anchor="middle" x="81.5" y="-125.5" font-family="Times,serif" font-style="italic" font-size="10.00">flow</text>
</g>
</g>
</svg>
