<?xml version="1.0" encoding="UTF-8" standalone="no"?>
<!DOCTYPE svg PUBLIC "-//W3C//DTD SVG 1.1//EN"
 "http://www.w3.org/Graphics/SVG/1.1/DTD/svg11.dtd">
<!-- Generated by graphviz version 2.43.0 (0)
 -->
<!-- Title: D Pages: 1 -->
<svg width="408pt" height="177pt"
 viewBox="0.00 0.00 407.58 176.50" xmlns="http://www.w3.org/2000/svg" xmlns:xlink="http://www.w3.org/1999/xlink">
<g id="graph0" class="graph" transform="scale(1 1) rotate(0) translate(4 172.5)">
<title>D</title>
<polygon fill="white" stroke="transparent" points="-4,4 -4,-172.5 403.58,-172.5 403.58,4 -4,4"/>
<!-- P -->
<g id="node1" class="node">
<title>P</title>
<ellipse fill="#eeeeee" stroke="black" cx="143.79" cy="-94.5" rx="31.58" ry="18"/>
<text text-anchor="middle" x="143.79" y="-92" font-family="Helvetica,sans-Serif" font-size="10.00">Process</text>
</g>
<!-- P2 -->
<g id="node2" class="node">
<title>P2</title>
<ellipse fill="#eeeeee" stroke="black" cx="337.58" cy="-150.5" rx="31.58" ry="18"/>
<text text-anchor="middle" x="337.58" y="-148" font-family="Helvetica,sans-Serif" font-size="10.00">Process</text>
</g>
<!-- P&#45;&gt;P2 -->
<g id="edge2" class="edge">
<title>P&#45;&gt;P2</title>
<path fill="none" stroke="gray" stroke-dasharray="5,2" d="M166.04,-107.51C174.38,-112.16 184.19,-117.09 193.58,-120.5 227.13,-132.68 267,-140.53 296.11,-145.14"/>
<polygon fill="gray" stroke="gray" points="295.9,-148.65 306.31,-146.69 296.95,-141.73 295.9,-148.65"/>
<text text-anchor="middle" x="225.58" y="-140.5" font-family="Times,serif" font-style="italic" font-size="10.00">signal</text>
</g>
<!-- S -->
<g id="node4" class="node">
<title>S</title>
<polygon fill="black" stroke="transparent" points="322.58,-103.5 322.58,-107.5 352.58,-107.5 352.58,-103.5 322.58,-103.5"/>
<text text-anchor="start" x="324.58" y="-91.5" font-family="Helvetica,sans-Serif" font-size="10.00">Store</text>
<polygon fill="black" stroke="transparent" points="322.58,-80.5 322.58,-84.5 352.58,-84.5 352.58,-80.5 322.58,-80.5"/>
</g>
<!-- P&#45;&gt;S -->
<g id="edge3" class="edge">
<title>P&#45;&gt;S</title>
<path fill="none" stroke="gray" d="M185.76,-94.5C219.81,-94.5 267.8,-94.5 300.44,-94.5"/>
<polygon fill="gray" stroke="gray" points="185.6,-91 175.6,-94.5 185.6,-98 185.6,-91"/>
<polygon fill="gray" stroke="gray" points="300.46,-98 310.46,-94.5 300.46,-91 300.46,-98"/>
<text text-anchor="middle" x="225.58" y="-108.5" font-family="Times,serif" font-style="italic" font-size="10.00">bidirectional</text>
<text text-anchor="middle" x="225.58" y="-97.5" font-family="Times,serif" font-style="italic" font-size="10.00">flow</text>
</g>
<!-- C -->
<g id="node5" class="node">
<title>C</title>
<polygon fill="black" stroke="transparent" points="335.58,-22.5 335.58,-50.5 339.58,-50.5 339.58,-22.5 335.58,-22.5"/>
<text text-anchor="start" x="317.58" y="-10.5" font-family="Helvetica,sans-Serif" font-size="10.00">Channel</text>
</g>
<!-- P&#45;&gt;C -->
<g id="edge4" class="edge">
<title>P&#45;&gt;C:c</title>
<path fill="none" stroke="gray" d="M166.06,-81.55C174.41,-76.91 184.22,-71.97 193.58,-68.5 250.35,-47.46 325.16,-37.88 335.4,-36.64"/>
<text text-anchor="middle" x="225.58" y="-82.5" font-family="Times,serif" font-style="italic" font-size="10.00">undirected</text>
<text text-anchor="middle" x="225.58" y="-71.5" font-family="Times,serif" font-style="italic" font-size="10.00">flow</text>
</g>
<!-- E -->
<g id="node3" class="node">
<title>E</title>
<polygon fill="none" stroke="black" points="54,-112.5 0,-112.5 0,-76.5 54,-76.5 54,-112.5"/>
<text text-anchor="middle" x="27" y="-92" font-family="Helvetica,sans-Serif" font-size="10.00">Entity</text>
</g>
<!-- E&#45;&gt;P -->
<g id="edge1" class="edge">
<title>E&#45;&gt;P</title>
<path fill="none" stroke="gray" d="M54.05,-94.5C68.16,-94.5 85.91,-94.5 101.82,-94.5"/>
<polygon fill="gray" stroke="gray" points="101.96,-98 111.96,-94.5 101.96,-91 101.96,-98"/>
<text text-anchor="middle" x="83" y="-97.5" font-family="Times,serif" font-style="italic" font-size="10.00">flow</text>
</g>
</g>
</svg>
