<?xml version="1.0" encoding="UTF-8" standalone="no"?>
<!DOCTYPE svg PUBLIC "-//W3C//DTD SVG 1.1//EN"
 "http://www.w3.org/Graphics/SVG/1.1/DTD/svg11.dtd">
<!-- Generated by graphviz version 2.43.0 (0)
 -->
<!-- Title: D Pages: 1 -->
<svg width="375pt" height="177pt"
 viewBox="0.00 0.00 374.58 176.50" xmlns="http://www.w3.org/2000/svg" xmlns:xlink="http://www.w3.org/1999/xlink">
<g id="graph0" class="graph" transform="scale(1 1) rotate(0) translate(4 172.5)">
<title>D</title>
<polygon fill="white" stroke="transparent" points="-4,4 -4,-172.5 370.58,-172.5 370.58,4 -4,4"/>
<!-- P -->
<g id="node1" class="node">
<title>P</title>
<ellipse fill="none" stroke="black" cx="143.79" cy="-94.5" rx="31.58" ry="18"/>
<text text-anchor="middle" x="143.79" y="-92" font-family="Helvetica,sans-Serif" font-size="10.00">Process</text>
</g>
<!-- P2 -->
<g id="node2" class="node">
<title>P2</title>
<ellipse fill="none" stroke="black" cx="304.58" cy="-150.5" rx="31.58" ry="18"/>
<text text-anchor="middle" x="304.58" y="-148" font-family="Helvetica,sans-Serif" font-size="10.00">Process</text>
</g>
<!-- P&#45;&gt;P2 -->
<g id="edge2" class="edge">
<title>P&#45;&gt;P2</title>
<path fill="none" stroke="gray" stroke-dasharray="5,2" d="M171.37,-103.87C197.78,-113.19 238.47,-127.54 267.73,-137.86"/>
<polygon fill="gray" stroke="gray" points="266.58,-141.16 277.18,-141.19 268.91,-134.56 266.58,-141.16"/>
<text text-anchor="middle" x="209.08" y="-125.5" font-family="Times,serif" font-style="italic" font-size="10.00">signal</text>
</g>
<!-- S -->
<g id="node4" class="node">
<title>S</title>
<polygon fill="black" stroke="transparent" points="289.58,-103.5 289.58,-107.5 319.58,-107.5 319.58,-103.5 289.58,-103.5"/>
<text text-anchor="start" x="291.58" y="-91.5" font-family="Helvetica,sans-Serif" font-size="10.00">Store</text>
<polygon fill="black" stroke="transparent" points="289.58,-80.5 289.58,-84.5 319.58,-84.5 319.58,-80.5 289.58,-80.5"/>
</g>
<!-- P&#45;&gt;S -->
<g id="edge3" class="edge">
<title>P&#45;&gt;S</title>
<path fill="none" stroke="gray" d="M185.98,-94.5C211.12,-94.5 242.98,-94.5 267.19,-94.5"/>
<polygon fill="gray" stroke="gray" points="185.78,-91 175.78,-94.5 185.78,-98 185.78,-91"/>
<polygon fill="gray" stroke="gray" points="267.39,-98 277.39,-94.5 267.39,-91 267.39,-98"/>
<text text-anchor="middle" x="209.08" y="-97.5" font-family="Times,serif" font-style="italic" font-size="10.00">flow</text>
</g>
<!-- C -->
<g id="node5" class="node">
<title>C</title>
<polygon fill="black" stroke="transparent" points="302.58,-22.5 302.58,-50.5 306.58,-50.5 306.58,-22.5 302.58,-22.5"/>
<text text-anchor="start" x="284.58" y="-10.5" font-family="Helvetica,sans-Serif" font-size="10.00">Channel</text>
</g>
<!-- P&#45;&gt;C -->
<g id="edge4" class="edge">
<title>P&#45;&gt;C:c</title>
<path fill="none" stroke="gray" d="M171.01,-84.92C206.39,-72 267.83,-49.56 292.68,-40.48"/>
<polygon fill="gray" stroke="gray" points="294.13,-43.68 302.32,-36.96 291.73,-37.1 294.13,-43.68"/>
<text text-anchor="middle" x="209.08" y="-79.5" font-family="Times,serif" font-style="italic" font-size="10.00">flow</text>
</g>
<!-- E -->
<g id="node3" class="node">
<title>E</title>
<polygon fill="none" stroke="black" points="54,-112.5 0,-112.5 0,-76.5 54,-76.5 54,-112.5"/>
<text text-anchor="middle" x="27" y="-92" font-family="Helvetica,sans-Serif" font-size="10.00">Entity</text>
</g>
<!-- E&#45;&gt;P -->
<g id="edge1" class="edge">
<title>E&#45;&gt;P</title>
<path fill="none" stroke="gray" d="M54.05,-94.5C68.16,-94.5 85.91,-94.5 101.82,-94.5"/>
<polygon fill="gray" stroke="gray" points="101.96,-98 111.96,-94.5 101.96,-91 101.96,-98"/>
<text text-anchor="middle" x="83" y="-97.5" font-family="Times,serif" font-style="italic" font-size="10.00">flow</text>
</g>
</g>
</svg>
