<?xml version="1.0" encoding="UTF-8" standalone="no"?>
<!DOCTYPE svg PUBLIC "-//W3C//DTD SVG 1.1//EN"
 "http://www.w3.org/Graphics/SVG/1.1/DTD/svg11.dtd">
<!-- Generated by graphviz version 2.43.0 (0)
 -->
<!-- Title: D Pages: 1 -->
<svg width="424pt" height="194pt"
 viewBox="0.00 0.00 423.69 194.00" xmlns="http://www.w3.org/2000/svg" xmlns:xlink="http://www.w3.org/1999/xlink">
<g id="graph0" class="graph" transform="scale(1 1) rotate(0) translate(4 190)">
<title>D</title>
<polygon fill="white" stroke="transparent" points="-4,4 -4,-190 419.69,-190 419.69,4 -4,4"/>
<!-- P -->
<g id="node1" class="node">
<title>P</title>
<ellipse fill="none" stroke="black" cx="167.85" cy="-110" rx="44.69" ry="18"/>
<text text-anchor="middle" x="167.85" y="-106.3" font-family="Helvetica,sans-Serif" font-size="14.00">Process</text>
</g>
<!-- P2 -->
<g id="node2" class="node">
<title>P2</title>
<ellipse fill="none" stroke="black" cx="353.69" cy="-168" rx="44.69" ry="18"/>
<text text-anchor="middle" x="353.69" y="-164.3" font-family="Helvetica,sans-Serif" font-size="14.00">Process</text>
</g>
<!-- P&#45;&gt;P2 -->
<g id="edge2" class="edge">
<title>P&#45;&gt;P2</title>
<path fill="none" stroke="gray" stroke-dasharray="5,2" d="M203.86,-121.05C233.51,-130.4 276.17,-143.86 308.23,-153.97"/>
<polygon fill="gray" stroke="gray" points="307.22,-157.32 317.81,-157 309.33,-150.65 307.22,-157.32"/>
<text text-anchor="middle" x="252.19" y="-145.8" font-family="Times,serif" font-style="italic" font-size="14.00">signal</text>
</g>
<!-- S -->
<g id="node4" class="node">
<title>S</title>
<polygon fill="black" stroke="transparent" points="333.69,-121 333.69,-125 374.69,-125 374.69,-121 333.69,-121"/>
<text text-anchor="start" x="335.69" y="-105.8" font-family="Helvetica,sans-Serif" font-size="14.00">Store</text>
<polygon fill="black" stroke="transparent" points="333.69,-94 333.69,-98 374.69,-98 374.69,-94 333.69,-94"/>
</g>
<!-- P&#45;&gt;S -->
<g id="edge3" class="edge">
<title>P&#45;&gt;S</title>
<path fill="none" stroke="gray" d="M223.19,-110C251.91,-110 286.53,-110 312.75,-110"/>
<polygon fill="gray" stroke="gray" points="222.88,-106.5 212.88,-110 222.88,-113.5 222.88,-106.5"/>
<polygon fill="gray" stroke="gray" points="313.08,-113.5 323.08,-110 313.08,-106.5 313.08,-113.5"/>
<text text-anchor="middle" x="252.19" y="-113.8" font-family="Times,serif" font-style="italic" font-size="14.00">flow</text>
</g>
<!-- C -->
<g id="node5" class="node">
<title>C</title>
<polygon fill="black" stroke="transparent" points="351.69,-27 351.69,-64 355.69,-64 355.69,-27 351.69,-27"/>
<text text-anchor="start" x="324.69" y="-11.8" font-family="Helvetica,sans-Serif" font-size="14.00">Channel</text>
</g>
<!-- P&#45;&gt;C -->
<g id="edge4" class="edge">
<title>P&#45;&gt;C:c</title>
<path fill="none" stroke="gray" d="M202.57,-98.26C244.94,-83.51 315.34,-59 342.01,-49.72"/>
<polygon fill="gray" stroke="gray" points="343.3,-52.98 351.59,-46.38 340.99,-46.37 343.3,-52.98"/>
<text text-anchor="middle" x="252.19" y="-91.8" font-family="Times,serif" font-style="italic" font-size="14.00">flow</text>
</g>
<!-- E -->
<g id="node3" class="node">
<title>E</title>
<polygon fill="none" stroke="black" points="57,-128 0,-128 0,-92 57,-92 57,-128"/>
<text text-anchor="middle" x="28.5" y="-106.3" font-family="Helvetica,sans-Serif" font-size="14.00">Entity</text>
</g>
<!-- E&#45;&gt;P -->
<g id="edge1" class="edge">
<title>E&#45;&gt;P</title>
<path fill="none" stroke="gray" d="M57.29,-110C73.24,-110 93.81,-110 112.81,-110"/>
<polygon fill="gray" stroke="gray" points="112.87,-113.5 122.87,-110 112.87,-106.5 112.87,-113.5"/>
<text text-anchor="middle" x="90" y="-113.8" font-family="Times,serif" font-style="italic" font-size="14.00">flow</text>
</g>
</g>
</svg>
