<?xml version="1.0" encoding="UTF-8" standalone="no"?>
<!DOCTYPE svg PUBLIC "-//W3C//DTD SVG 1.1//EN"
 "http://www.w3.org/Graphics/SVG/1.1/DTD/svg11.dtd">
<!-- Generated by graphviz version 2.43.0 (0)
 -->
<!-- Title: D Pages: 1 -->
<svg width="441pt" height="120pt"
 viewBox="0.00 0.00 440.58 119.50" xmlns="http://www.w3.org/2000/svg" xmlns:xlink="http://www.w3.org/1999/xlink">
<g id="graph0" class="graph" transform="scale(1 1) rotate(0) translate(4 115.5)">
<title>D</title>
<polygon fill="white" stroke="transparent" points="-4,4 -4,-115.5 436.58,-115.5 436.58,4 -4,4"/>
<!-- P -->
<g id="node1" class="node">
<title>P</title>
<ellipse fill="none" stroke="black" cx="209.79" cy="-64.5" rx="31.58" ry="18"/>
<text text-anchor="middle" x="209.79" y="-62" font-family="Helvetica,sans-Serif" font-size="10.00">Process</text>
</g>
<!-- P2 -->
<g id="node2" class="node">
<title>P2</title>
<ellipse fill="none" stroke="black" cx="370.58" cy="-93.5" rx="31.58" ry="18"/>
<text text-anchor="middle" x="370.58" y="-91" font-family="Helvetica,sans-Serif" font-size="10.00">Process</text>
</g>
<!-- P&#45;&gt;P2 -->
<g id="edge2" class="edge">
<title>P&#45;&gt;P2</title>
<path fill="none" stroke="gray" stroke-dasharray="5,2" d="M240.28,-69.89C265.49,-74.49 301.99,-81.16 329.79,-86.23"/>
<polygon fill="gray" stroke="gray" points="329.5,-89.74 339.97,-88.09 330.76,-82.85 329.5,-89.74"/>
<text text-anchor="middle" x="275.08" y="-81.5" font-family="Times,serif" font-style="italic" font-size="10.00">signal</text>
</g>
<!-- C -->
<g id="node5" class="node">
<title>C</title>
<polygon fill="black" stroke="transparent" points="368.58,-22.5 368.58,-50.5 372.58,-50.5 372.58,-22.5 368.58,-22.5"/>
<text text-anchor="start" x="350.58" y="-10.5" font-family="Helvetica,sans-Serif" font-size="10.00">Channel</text>
</g>
<!-- P&#45;&gt;C -->
<g id="edge4" class="edge">
<title>P&#45;&gt;C:c</title>
<path fill="none" stroke="gray" d="M240.28,-59.3C275.97,-53.01 334.28,-42.72 358.49,-38.45"/>
<polygon fill="gray" stroke="gray" points="359.14,-41.89 368.38,-36.71 357.93,-35 359.14,-41.89"/>
<text text-anchor="middle" x="275.08" y="-58.5" font-family="Times,serif" font-style="italic" font-size="10.00">flow</text>
</g>
<!-- E -->
<g id="node3" class="node">
<title>E</title>
<polygon fill="none" stroke="black" points="54,-110.5 0,-110.5 0,-74.5 54,-74.5 54,-110.5"/>
<text text-anchor="middle" x="27" y="-90" font-family="Helvetica,sans-Serif" font-size="10.00">Entity</text>
</g>
<!-- E&#45;&gt;P -->
<g id="edge1" class="edge">
<title>E&#45;&gt;P</title>
<path fill="none" stroke="gray" d="M54.29,-88.43C84.29,-83.78 133.69,-76.13 168.54,-70.73"/>
<polygon fill="gray" stroke="gray" points="169.51,-74.13 178.85,-69.14 168.44,-67.21 169.51,-74.13"/>
<text text-anchor="middle" x="116" y="-87.5" font-family="Times,serif" font-style="italic" font-size="10.00">flow</text>
</g>
<!-- S -->
<g id="node4" class="node">
<title>S</title>
<polygon fill="black" stroke="transparent" points="12,-45.5 12,-49.5 42,-49.5 42,-45.5 12,-45.5"/>
<text text-anchor="start" x="14" y="-33.5" font-family="Helvetica,sans-Serif" font-size="10.00">Store</text>
<polygon fill="black" stroke="transparent" points="12,-22.5 12,-26.5 42,-26.5 42,-22.5 12,-22.5"/>
</g>
<!-- S&#45;&gt;P -->
<g id="edge3" class="edge">
<title>S&#45;&gt;P</title>
<path fill="none" stroke="gray" d="M54.29,-40.57C84.29,-45.22 133.69,-52.87 168.54,-58.27"/>
<polygon fill="gray" stroke="gray" points="168.44,-61.79 178.85,-59.86 169.51,-54.87 168.44,-61.79"/>
<text text-anchor="middle" x="116" y="-59.5" font-family="Times,serif" font-style="italic" font-size="10.00">bidirectional flow</text>
</g>
</g>
</svg>
