<?xml version="1.0" encoding="UTF-8" standalone="no"?>
<!DOCTYPE svg PUBLIC "-//W3C//DTD SVG 1.1//EN"
 "http://www.w3.org/Graphics/SVG/1.1/DTD/svg11.dtd">
<!-- Generated by graphviz version 2.43.0 (0)
 -->
<!-- Title: D Pages: 1 -->
<svg width="432pt" height="177pt"
 viewBox="0.00 0.00 431.58 176.50" xmlns="http://www.w3.org/2000/svg" xmlns:xlink="http://www.w3.org/1999/xlink">
<g id="graph0" class="graph" transform="scale(1 1) rotate(0) translate(4 172.5)">
<title>D</title>
<polygon fill="white" stroke="transparent" points="-4,4 -4,-172.5 427.58,-172.5 427.58,4 -4,4"/>
<!-- P -->
<g id="node1" class="node">
<title>P</title>
<ellipse fill="#eeeeee" stroke="black" cx="143.79" cy="-94.5" rx="31.58" ry="18"/>
<text text-anchor="middle" x="143.79" y="-92" font-family="Helvetica,sans-Serif" font-size="10.00">Process</text>
</g>
<!-- P2 -->
<g id="node2" class="node">
<title>P2</title>
<ellipse fill="#eeeeee" stroke="black" cx="361.58" cy="-150.5" rx="31.58" ry="18"/>
<text text-anchor="middle" x="361.58" y="-148" font-family="Helvetica,sans-Serif" font-size="10.00">Process</text>
</g>
<!-- P&#45;&gt;P2 -->
<g id="edge2" class="edge">
<title>P&#45;&gt;P2</title>
<path fill="none" stroke="gray" stroke-dasharray="5,2" d="M171.8,-103.11C178.87,-105.28 186.49,-107.54 193.58,-109.5 237.26,-121.57 287.85,-133.74 321.8,-141.65"/>
<polygon fill="gray" stroke="gray" points="321.25,-145.11 331.78,-143.96 322.83,-138.29 321.25,-145.11"/>
<text text-anchor="middle" x="237.58" y="-134.5" font-family="Times,serif" font-style="italic" font-size="10.00">signal</text>
</g>
<!-- S -->
<g id="node4" class="node">
<title>S</title>
<polygon fill="black" stroke="transparent" points="346.58,-103.5 346.58,-107.5 376.58,-107.5 376.58,-103.5 346.58,-103.5"/>
<text text-anchor="start" x="348.58" y="-91.5" font-family="Helvetica,sans-Serif" font-size="10.00">Store</text>
<polygon fill="black" stroke="transparent" points="346.58,-80.5 346.58,-84.5 376.58,-84.5 376.58,-80.5 346.58,-80.5"/>
</g>
<!-- P&#45;&gt;S -->
<g id="edge3" class="edge">
<title>P&#45;&gt;S</title>
<path fill="none" stroke="gray" d="M185.73,-94.5C225.7,-94.5 285.96,-94.5 324.27,-94.5"/>
<polygon fill="gray" stroke="gray" points="185.7,-91 175.7,-94.5 185.7,-98 185.7,-91"/>
<polygon fill="gray" stroke="gray" points="324.46,-98 334.46,-94.5 324.46,-91 324.46,-98"/>
<text text-anchor="middle" x="237.58" y="-97.5" font-family="Times,serif" font-style="italic" font-size="10.00">bidirectional flow</text>
</g>
<!-- C -->
<g id="node5" class="node">
<title>C</title>
<polygon fill="black" stroke="transparent" points="359.58,-22.5 359.58,-50.5 363.58,-50.5 363.58,-22.5 359.58,-22.5"/>
<text text-anchor="start" x="341.58" y="-10.5" font-family="Helvetica,sans-Serif" font-size="10.00">Channel</text>
</g>
<!-- P&#45;&gt;C -->
<g id="edge4" class="edge">
<title>P&#45;&gt;C:c</title>
<path fill="none" stroke="gray" d="M171.82,-85.95C178.88,-83.78 186.5,-81.5 193.58,-79.5 262.73,-59.98 349,-39.27 359.51,-36.75"/>
<text text-anchor="middle" x="237.58" y="-82.5" font-family="Times,serif" font-style="italic" font-size="10.00">undirected flow</text>
</g>
<!-- E -->
<g id="node3" class="node">
<title>E</title>
<polygon fill="none" stroke="black" points="54,-112.5 0,-112.5 0,-76.5 54,-76.5 54,-112.5"/>
<text text-anchor="middle" x="27" y="-92" font-family="Helvetica,sans-Serif" font-size="10.00">Entity</text>
</g>
<!-- E&#45;&gt;P -->
<g id="edge1" class="edge">
<title>E&#45;&gt;P</title>
<path fill="none" stroke="gray" d="M54.05,-94.5C68.16,-94.5 85.91,-94.5 101.82,-94.5"/>
<polygon fill="gray" stroke="gray" points="101.96,-98 111.96,-94.5 101.96,-91 101.96,-98"/>
<text text-anchor="middle" x="83" y="-97.5" font-family="Times,serif" font-style="italic" font-size="10.00">flow</text>
</g>
</g>
</svg>
