<?xml version="1.0" encoding="UTF-8" standalone="no"?>
<!DOCTYPE svg PUBLIC "-//W3C//DTD SVG 1.1//EN"
 "http://www.w3.org/Graphics/SVG/1.1/DTD/svg11.dtd">
<!-- Generated by graphviz version 2.43.0 (0)
 -->
<!-- Title: D Pages: 1 -->
<svg width="408pt" height="205pt"
 viewBox="0.00 0.00 407.58 204.50" xmlns="http://www.w3.org/2000/svg" xmlns:xlink="http://www.w3.org/1999/xlink">
<g id="graph0" class="graph" transform="scale(1 1) rotate(0) translate(4 200.5)">
<title>D</title>
<polygon fill="white" stroke="transparent" points="-4,4 -4,-200.5 403.58,-200.5 403.58,4 -4,4"/>
<text text-anchor="middle" x="199.79" y="-6.8" font-family="Helvetica,sans-Serif" font-size="9.00" fill="#000060">&#45; example &#45;</text>
<!-- P -->
<g id="node1" class="node">
<title>P</title>
<ellipse fill="#eeeeee" stroke="black" cx="143.79" cy="-122.5" rx="31.58" ry="18"/>
<text text-anchor="middle" x="143.79" y="-120" font-family="Helvetica,sans-Serif" font-size="10.00">Process</text>
</g>
<!-- P2 -->
<g id="node2" class="node">
<title>P2</title>
<ellipse fill="#eeeeee" stroke="black" cx="337.58" cy="-178.5" rx="31.58" ry="18"/>
<text text-anchor="middle" x="337.58" y="-176" font-family="Helvetica,sans-Serif" font-size="10.00">Process</text>
</g>
<!-- P&#45;&gt;P2 -->
<g id="edge2" class="edge">
<title>P&#45;&gt;P2</title>
<path fill="none" stroke="gray" stroke-dasharray="5,2" d="M166.04,-135.51C174.38,-140.16 184.19,-145.09 193.58,-148.5 227.13,-160.68 267,-168.53 296.11,-173.14"/>
<polygon fill="gray" stroke="gray" points="295.9,-176.65 306.31,-174.69 296.95,-169.73 295.9,-176.65"/>
<text text-anchor="middle" x="225.58" y="-168.5" font-family="Times,serif" font-style="italic" font-size="10.00">signal</text>
</g>
<!-- S -->
<g id="node4" class="node">
<title>S</title>
<polygon fill="black" stroke="transparent" points="322.58,-131.5 322.58,-135.5 352.58,-135.5 352.58,-131.5 322.58,-131.5"/>
<text text-anchor="start" x="324.58" y="-119.5" font-family="Helvetica,sans-Serif" font-size="10.00">Store</text>
<polygon fill="black" stroke="transparent" points="322.58,-108.5 322.58,-112.5 352.58,-112.5 352.58,-108.5 322.58,-108.5"/>
</g>
<!-- P&#45;&gt;S -->
<g id="edge3" class="edge">
<title>P&#45;&gt;S</title>
<path fill="none" stroke="gray" d="M185.76,-122.5C219.81,-122.5 267.8,-122.5 300.44,-122.5"/>
<polygon fill="gray" stroke="gray" points="185.6,-119 175.6,-122.5 185.6,-126 185.6,-119"/>
<polygon fill="gray" stroke="gray" points="300.46,-126 310.46,-122.5 300.46,-119 300.46,-126"/>
<text text-anchor="middle" x="225.58" y="-136.5" font-family="Times,serif" font-style="italic" font-size="10.00">bidirectional</text>
<text text-anchor="middle" x="225.58" y="-125.5" font-family="Times,serif" font-style="italic" font-size="10.00">flow</text>
</g>
<!-- C -->
<g id="node5" class="node">
<title>C</title>
<polygon fill="black" stroke="transparent" points="335.58,-50.5 335.58,-78.5 339.58,-78.5 339.58,-50.5 335.58,-50.5"/>
<text text-anchor="start" x="317.58" y="-38.5" font-family="Helvetica,sans-Serif" font-size="10.00">Channel</text>
</g>
<!-- P&#45;&gt;C -->
<g id="edge4" class="edge">
<title>P&#45;&gt;C:c</title>
<path fill="none" stroke="gray" d="M166.06,-109.55C174.41,-104.91 184.22,-99.97 193.58,-96.5 250.35,-75.46 325.16,-65.88 335.4,-64.64"/>
<text text-anchor="middle" x="225.58" y="-110.5" font-family="Times,serif" font-style="italic" font-size="10.00">undirected</text>
<text text-anchor="middle" x="225.58" y="-99.5" font-family="Times,serif" font-style="italic" font-size="10.00">flow</text>
</g>
<!-- E -->
<g id="node3" class="node">
<title>E</title>
<polygon fill="none" stroke="black" points="54,-140.5 0,-140.5 0,-104.5 54,-104.5 54,-140.5"/>
<text text-anchor="middle" x="27" y="-120" font-family="Helvetica,sans-Serif" font-size="10.00">Entity</text>
</g>
<!-- E&#45;&gt;P -->
<g id="edge1" class="edge">
<title>E&#45;&gt;P</title>
<path fill="none" stroke="gray" d="M54.05,-122.5C68.16,-122.5 85.91,-122.5 101.82,-122.5"/>
<polygon fill="gray" stroke="gray" points="101.96,-126 111.96,-122.5 101.96,-119 101.96,-126"/>
<text text-anchor="middle" x="83" y="-125.5" font-family="Times,serif" font-style="italic" font-size="10.00">flow</text>
</g>
</g>
</svg>
