<?xml version="1.0" encoding="UTF-8" standalone="no"?>
<!DOCTYPE svg PUBLIC "-//W3C//DTD SVG 1.1//EN"
 "http://www.w3.org/Graphics/SVG/1.1/DTD/svg11.dtd">
<!-- Generated by graphviz version 2.43.0 (0)
 -->
<!-- Title: D Pages: 1 -->
<svg width="262pt" height="126pt"
 viewBox="0.00 0.00 262.00 126.00" xmlns="http://www.w3.org/2000/svg" xmlns:xlink="http://www.w3.org/1999/xlink">
<g id="graph0" class="graph" transform="scale(1 1) rotate(0) translate(4 122)">
<title>D</title>
<polygon fill="white" stroke="transparent" points="-4,4 -4,-122 258,-122 258,4 -4,4"/>
<text text-anchor="middle" x="127" y="-6.8" font-family="Helvetica,sans-Serif" font-size="9.00" fill="#000060">&#45; devlog/127&#45;try&#45;it/5&#45;chain &#45;</text>
<!-- A -->
<g id="node1" class="node">
<title>A</title>
<ellipse fill="#eeeeee" stroke="black" cx="27" cy="-100" rx="27" ry="18"/>
<text text-anchor="middle" x="27" y="-97.5" font-family="Helvetica,sans-Serif" font-size="10.00">A</text>
</g>
<!-- H -->
<g id="node4" class="node">
<title>H</title>
<ellipse fill="#eeeeee" stroke="black" cx="128" cy="-73" rx="27" ry="18"/>
<text text-anchor="middle" x="128" y="-70.5" font-family="Helvetica,sans-Serif" font-size="10.00">Super</text>
</g>
<!-- A&#45;&gt;H -->
<g id="edge1" class="edge">
<title>A&#45;&gt;H</title>
<path fill="none" stroke="gray" d="M52.22,-93.4C64.44,-90.06 79.48,-85.96 92.86,-82.31"/>
<polygon fill="gray" stroke="gray" points="93.96,-85.64 102.69,-79.63 92.12,-78.88 93.96,-85.64"/>
<text text-anchor="middle" x="77.5" y="-90" font-family="Times,serif" font-style="italic" font-size="10.00">ab</text>
</g>
<!-- E -->
<g id="node2" class="node">
<title>E</title>
<ellipse fill="#eeeeee" stroke="black" cx="27" cy="-46" rx="27" ry="18"/>
<text text-anchor="middle" x="27" y="-43.5" font-family="Helvetica,sans-Serif" font-size="10.00">E</text>
</g>
<!-- E&#45;&gt;H -->
<g id="edge2" class="edge">
<title>E&#45;&gt;H</title>
<path fill="none" stroke="gray" d="M52.22,-52.6C64.44,-55.94 79.48,-60.04 92.86,-63.69"/>
<polygon fill="gray" stroke="gray" points="92.12,-67.12 102.69,-66.37 93.96,-60.36 92.12,-67.12"/>
<text text-anchor="middle" x="77.5" y="-63" font-family="Times,serif" font-style="italic" font-size="10.00">eb</text>
</g>
<!-- F -->
<g id="node3" class="node">
<title>F</title>
<ellipse fill="#eeeeee" stroke="black" cx="227" cy="-73" rx="27" ry="18"/>
<text text-anchor="middle" x="227" y="-70.5" font-family="Helvetica,sans-Serif" font-size="10.00">F</text>
</g>
<!-- H&#45;&gt;F -->
<g id="edge3" class="edge">
<title>H&#45;&gt;F</title>
<path fill="none" stroke="gray" d="M155.25,-73C165.82,-73 178.18,-73 189.6,-73"/>
<polygon fill="gray" stroke="gray" points="189.73,-76.5 199.73,-73 189.73,-69.5 189.73,-76.5"/>
<text text-anchor="middle" x="177.5" y="-76" font-family="Times,serif" font-style="italic" font-size="10.00">df</text>
</g>
</g>
</svg>
