<?xml version="1.0" encoding="UTF-8" standalone="no"?>
<!DOCTYPE svg PUBLIC "-//W3C//DTD SVG 1.1//EN"
 "http://www.w3.org/Graphics/SVG/1.1/DTD/svg11.dtd">
<!-- Generated by graphviz version 2.43.0 (0)
 -->
<!-- Title: D Pages: 1 -->
<svg width="197pt" height="234pt"
 viewBox="0.00 0.00 196.59 234.43" xmlns="http://www.w3.org/2000/svg" xmlns:xlink="http://www.w3.org/1999/xlink">
<g id="graph0" class="graph" transform="scale(1 1) rotate(0) translate(4 230.43)">
<title>D</title>
<polygon fill="white" stroke="transparent" points="-4,4 -4,-230.43 192.59,-230.43 192.59,4 -4,4"/>
<text text-anchor="middle" x="94.29" y="-6.8" font-family="Helvetica,sans-Serif" font-size="9.00">[ attributes ]</text>
<!-- P1 -->
<g id="node1" class="node">
<title>P1</title>
<ellipse fill="red" stroke="black" cx="120.59" cy="-208.43" rx="29.37" ry="18"/>
<text text-anchor="middle" x="120.59" y="-205.93" font-family="Helvetica,sans-Serif" font-size="10.00">Red bg</text>
</g>
<!-- P2 -->
<g id="node2" class="node">
<title>P2</title>
<ellipse fill="#eeeeee" stroke="red" cx="68.59" cy="-122.21" rx="68.68" ry="21.43"/>
<text text-anchor="middle" x="68.59" y="-125.21" font-family="Helvetica,sans-Serif" font-size="10.00" fill="blue">Red border, blue</text>
<text text-anchor="middle" x="68.59" y="-114.21" font-family="Helvetica,sans-Serif" font-size="10.00" fill="blue">text</text>
</g>
<!-- P1&#45;&gt;P2 -->
<g id="edge1" class="edge">
<title>P1&#45;&gt;P2</title>
<path fill="none" stroke="red" d="M110.56,-191.19C103.71,-180.08 94.43,-165.06 86.34,-151.95"/>
<polygon fill="red" stroke="red" points="89.2,-149.93 80.97,-143.26 83.25,-153.61 89.2,-149.93"/>
<text text-anchor="middle" x="107.59" y="-164.43" font-family="Times,serif" font-style="italic" font-size="10.00" fill="red">red</text>
</g>
<!-- P3 -->
<g id="node3" class="node">
<title>P3</title>
<ellipse fill="blue" stroke="blue" cx="121.59" cy="-36" rx="47.86" ry="18"/>
<text text-anchor="middle" x="121.59" y="-33.5" font-family="Helvetica,sans-Serif" font-size="10.00" fill="white">Inverted blue</text>
</g>
<!-- P1&#45;&gt;P3 -->
<g id="edge3" class="edge">
<title>P1&#45;&gt;P3</title>
<path fill="none" stroke="gray" stroke-width="2" d="M131.6,-191.54C148,-165.76 175.14,-113.54 157.59,-72 155.7,-67.52 152.92,-63.33 149.73,-59.51"/>
<polygon fill="gray" stroke="gray" stroke-width="2" points="152.21,-57.04 142.76,-52.24 147.15,-61.88 152.21,-57.04"/>
<text text-anchor="middle" x="176.09" y="-119.71" font-family="Times,serif" font-style="italic" font-size="10.00">thick</text>
</g>
<!-- P2&#45;&gt;P3 -->
<g id="edge2" class="edge">
<title>P2&#45;&gt;P3</title>
<path fill="none" stroke="blue" d="M81.15,-101.26C88.49,-89.59 97.83,-74.76 105.68,-62.28"/>
<polygon fill="blue" stroke="blue" points="108.72,-64.02 111.08,-53.7 102.79,-60.3 108.72,-64.02"/>
<text text-anchor="middle" x="126.09" y="-75" font-family="Times,serif" font-style="italic" font-size="10.00">blue arrow</text>
</g>
</g>
</svg>
