<?xml version="1.0" encoding="UTF-8" standalone="no"?>
<!DOCTYPE svg PUBLIC "-//W3C//DTD SVG 1.1//EN"
 "http://www.w3.org/Graphics/SVG/1.1/DTD/svg11.dtd">
<!-- Generated by graphviz version 2.43.0 (0)
 -->
<!-- Title: D Pages: 1 -->
<svg width="165pt" height="216pt"
 viewBox="0.00 0.00 164.62 216.43" xmlns="http://www.w3.org/2000/svg" xmlns:xlink="http://www.w3.org/1999/xlink">
<g id="graph0" class="graph" transform="scale(1 1) rotate(0) translate(4 212.43)">
<title>D</title>
<polygon fill="white" stroke="transparent" points="-4,4 -4,-212.43 160.62,-212.43 160.62,4 -4,4"/>
<!-- P1 -->
<g id="node1" class="node">
<title>P1</title>
<ellipse fill="red" stroke="black" cx="95.62" cy="-190.43" rx="29.37" ry="18"/>
<text text-anchor="middle" x="95.62" y="-187.93" font-family="Helvetica,sans-Serif" font-size="10.00">Red bg</text>
</g>
<!-- P2 -->
<g id="node2" class="node">
<title>P2</title>
<ellipse fill="#eeeeee" stroke="red" cx="51.62" cy="-104.21" rx="51.74" ry="21.43"/>
<text text-anchor="middle" x="51.62" y="-107.21" font-family="Helvetica,sans-Serif" font-size="10.00" fill="blue">Red border,</text>
<text text-anchor="middle" x="51.62" y="-96.21" font-family="Helvetica,sans-Serif" font-size="10.00" fill="blue">blue text</text>
</g>
<!-- P1&#45;&gt;P2 -->
<g id="edge1" class="edge">
<title>P1&#45;&gt;P2</title>
<path fill="none" stroke="red" d="M87.14,-173.19C81.39,-162.19 73.63,-147.34 66.83,-134.33"/>
<polygon fill="red" stroke="red" points="69.83,-132.51 62.1,-125.26 63.62,-135.75 69.83,-132.51"/>
<text text-anchor="middle" x="85.62" y="-146.43" font-family="Times,serif" font-style="italic" font-size="10.00" fill="red">red</text>
</g>
<!-- P3 -->
<g id="node3" class="node">
<title>P3</title>
<ellipse fill="blue" stroke="blue" cx="95.62" cy="-18" rx="47.86" ry="18"/>
<text text-anchor="middle" x="95.62" y="-15.5" font-family="Helvetica,sans-Serif" font-size="10.00" fill="white">Inverted blue</text>
</g>
<!-- P1&#45;&gt;P3 -->
<g id="edge3" class="edge">
<title>P1&#45;&gt;P3</title>
<path fill="none" stroke="gray" stroke-width="2" d="M105.05,-173.18C118.77,-147.34 140.99,-95.56 125.62,-54 124.19,-50.14 122.13,-46.42 119.74,-42.94"/>
<polygon fill="gray" stroke="gray" stroke-width="2" points="122.27,-40.5 113.32,-34.83 116.78,-44.84 122.27,-40.5"/>
<text text-anchor="middle" x="144.12" y="-101.71" font-family="Times,serif" font-style="italic" font-size="10.00">thick</text>
</g>
<!-- P2&#45;&gt;P3 -->
<g id="edge2" class="edge">
<title>P2&#45;&gt;P3</title>
<path fill="none" stroke="blue" d="M58.1,-83.07C61.36,-73.96 65.67,-63.19 70.62,-54 72.43,-50.65 74.5,-47.24 76.68,-43.94"/>
<polygon fill="blue" stroke="blue" points="79.68,-45.74 82.51,-35.53 73.94,-41.75 79.68,-45.74"/>
<text text-anchor="middle" x="98.12" y="-57" font-family="Times,serif" font-style="italic" font-size="10.00">blue arrow</text>
</g>
</g>
</svg>
