<?xml version="1.0" encoding="UTF-8" standalone="no"?>
<!DOCTYPE svg PUBLIC "-//W3C//DTD SVG 1.1//EN"
 "http://www.w3.org/Graphics/SVG/1.1/DTD/svg11.dtd">
<!-- Generated by graphviz version 2.43.0 (0)
 -->
<!-- Title: D Pages: 1 -->
<svg width="197pt" height="216pt"
 viewBox="0.00 0.00 196.59 216.43" xmlns="http://www.w3.org/2000/svg" xmlns:xlink="http://www.w3.org/1999/xlink">
<g id="graph0" class="graph" transform="scale(1 1) rotate(0) translate(4 212.43)">
<title>D</title>
<polygon fill="white" stroke="transparent" points="-4,4 -4,-212.43 192.59,-212.43 192.59,4 -4,4"/>
<!-- P1 -->
<g id="node1" class="node">
<title>P1</title>
<ellipse fill="red" stroke="black" cx="120.59" cy="-190.43" rx="29.37" ry="18"/>
<text text-anchor="middle" x="120.59" y="-187.93" font-family="Helvetica,sans-Serif" font-size="10.00">Red bg</text>
</g>
<!-- P2 -->
<g id="node2" class="node">
<title>P2</title>
<ellipse fill="#eeeeee" stroke="red" cx="68.59" cy="-104.21" rx="68.68" ry="21.43"/>
<text text-anchor="middle" x="68.59" y="-107.21" font-family="Helvetica,sans-Serif" font-size="10.00" fill="blue">Red border, blue</text>
<text text-anchor="middle" x="68.59" y="-96.21" font-family="Helvetica,sans-Serif" font-size="10.00" fill="blue">text</text>
</g>
<!-- P1&#45;&gt;P2 -->
<g id="edge1" class="edge">
<title>P1&#45;&gt;P2</title>
<path fill="none" stroke="red" d="M110.56,-173.19C103.71,-162.08 94.43,-147.06 86.34,-133.95"/>
<polygon fill="red" stroke="red" points="89.2,-131.93 80.97,-125.26 83.25,-135.61 89.2,-131.93"/>
<text text-anchor="middle" x="107.59" y="-146.43" font-family="Times,serif" font-style="italic" font-size="10.00" fill="red">red</text>
</g>
<!-- P3 -->
<g id="node3" class="node">
<title>P3</title>
<ellipse fill="blue" stroke="blue" cx="121.59" cy="-18" rx="47.86" ry="18"/>
<text text-anchor="middle" x="121.59" y="-15.5" font-family="Helvetica,sans-Serif" font-size="10.00" fill="white">Inverted blue</text>
</g>
<!-- P1&#45;&gt;P3 -->
<g id="edge3" class="edge">
<title>P1&#45;&gt;P3</title>
<path fill="none" stroke="gray" stroke-width="2" d="M131.6,-173.54C148,-147.76 175.14,-95.54 157.59,-54 155.7,-49.52 152.92,-45.33 149.73,-41.51"/>
<polygon fill="gray" stroke="gray" stroke-width="2" points="152.21,-39.04 142.76,-34.24 147.15,-43.88 152.21,-39.04"/>
<text text-anchor="middle" x="176.09" y="-101.71" font-family="Times,serif" font-style="italic" font-size="10.00">thick</text>
</g>
<!-- P2&#45;&gt;P3 -->
<g id="edge2" class="edge">
<title>P2&#45;&gt;P3</title>
<path fill="none" stroke="blue" d="M81.15,-83.26C88.49,-71.59 97.83,-56.76 105.68,-44.28"/>
<polygon fill="blue" stroke="blue" points="108.72,-46.02 111.08,-35.7 102.79,-42.3 108.72,-46.02"/>
<text text-anchor="middle" x="126.09" y="-57" font-family="Times,serif" font-style="italic" font-size="10.00">blue arrow</text>
</g>
</g>
</svg>
