<?xml version="1.0" encoding="UTF-8" standalone="no"?>
<!DOCTYPE svg PUBLIC "-//W3C//DTD SVG 1.1//EN"
 "http://www.w3.org/Graphics/SVG/1.1/DTD/svg11.dtd">
<!-- Generated by graphviz version 2.43.0 (0)
 -->
<!-- Title: D Pages: 1 -->
<svg width="623pt" height="122pt"
 viewBox="0.00 0.00 622.65 122.00" xmlns="http://www.w3.org/2000/svg" xmlns:xlink="http://www.w3.org/1999/xlink">
<g id="graph0" class="graph" transform="scale(1 1) rotate(0) translate(4 118)">
<title>D</title>
<polygon fill="white" stroke="transparent" points="-4,4 -4,-118 618.65,-118 618.65,4 -4,4"/>
<!-- P -->
<g id="node1" class="node">
<title>P</title>
<ellipse fill="none" stroke="black" cx="180.92" cy="-65.5" rx="45.83" ry="18"/>
<text text-anchor="middle" x="180.92" y="-63" font-family="Helvetica,sans-Serif" font-size="10.00">Acquire data</text>
</g>
<!-- P2 -->
<g id="node2" class="node">
<title>P2</title>
<ellipse fill="none" stroke="black" cx="359.74" cy="-65.5" rx="35.82" ry="18"/>
<text text-anchor="middle" x="359.74" y="-63" font-family="Helvetica,sans-Serif" font-size="10.00">Compute</text>
</g>
<!-- P&#45;&gt;P2 -->
<g id="edge2" class="edge">
<title>P&#45;&gt;P2</title>
<path fill="none" stroke="gray" d="M226.99,-65.5C253.55,-65.5 287.04,-65.5 313.61,-65.5"/>
<polygon fill="gray" stroke="gray" points="313.79,-69 323.79,-65.5 313.79,-62 313.79,-69"/>
<text text-anchor="middle" x="275.33" y="-68.5" font-family="Times,serif" font-style="italic" font-size="10.00">raw records</text>
</g>
<!-- S -->
<g id="node4" class="node">
<title>S</title>
<polygon fill="black" stroke="transparent" points="517.65,-103.5 517.65,-107.5 587.65,-107.5 587.65,-103.5 517.65,-103.5"/>
<text text-anchor="start" x="519.65" y="-91.5" font-family="Helvetica,sans-Serif" font-size="10.00">Configuration</text>
<polygon fill="black" stroke="transparent" points="517.65,-80.5 517.65,-84.5 587.65,-84.5 587.65,-80.5 517.65,-80.5"/>
</g>
<!-- P2&#45;&gt;S -->
<g id="edge4" class="edge">
<title>P2&#45;&gt;S</title>
<path fill="none" stroke="gray" d="M394.43,-70.62C422.95,-74.95 464.36,-81.24 497.53,-86.28"/>
<polygon fill="gray" stroke="gray" points="497.12,-89.76 507.53,-87.8 498.17,-82.84 497.12,-89.76"/>
<text text-anchor="middle" x="443.15" y="-84.5" font-family="Times,serif" font-style="italic" font-size="10.00">parameters</text>
</g>
<!-- C -->
<g id="node5" class="node">
<title>C</title>
<polygon fill="black" stroke="transparent" points="550.65,-22.5 550.65,-50.5 554.65,-50.5 554.65,-22.5 550.65,-22.5"/>
<text text-anchor="start" x="544.65" y="-10.5" font-family="Helvetica,sans-Serif" font-size="10.00">API</text>
</g>
<!-- P2&#45;&gt;C -->
<g id="edge5" class="edge">
<title>P2&#45;&gt;C:c</title>
<path fill="none" stroke="gray" d="M394.43,-60.38C438.18,-53.74 512.28,-42.48 540.38,-38.21"/>
<polygon fill="gray" stroke="gray" points="541.12,-41.64 550.48,-36.68 540.07,-34.72 541.12,-41.64"/>
<text text-anchor="middle" x="443.15" y="-59.5" font-family="Times,serif" font-style="italic" font-size="10.00">records</text>
</g>
<!-- T -->
<g id="node3" class="node">
<title>T</title>
<polygon fill="none" stroke="black" points="54,-110.5 0,-110.5 0,-74.5 54,-74.5 54,-110.5"/>
<text text-anchor="middle" x="27" y="-90" font-family="Helvetica,sans-Serif" font-size="10.00">Device</text>
</g>
<!-- T&#45;&gt;P -->
<g id="edge1" class="edge">
<title>T&#45;&gt;P</title>
<path fill="none" stroke="gray" d="M54.12,-87.86C74.54,-84.23 103.59,-79.07 128.62,-74.62"/>
<polygon fill="gray" stroke="gray" points="129.47,-78.02 138.71,-72.82 128.25,-71.13 129.47,-78.02"/>
<text text-anchor="middle" x="94.5" y="-87.5" font-family="Times,serif" font-style="italic" font-size="10.00">raw data</text>
</g>
<!-- __star_0__ -->
<g id="node6" class="node">
<title>__star_0__</title>
<text text-anchor="middle" x="27" y="-36" font-family="Times,serif" font-style="italic" font-size="10.00">clock</text>
</g>
<!-- __star_0__&#45;&gt;P -->
<g id="edge3" class="edge">
<title>__star_0__&#45;&gt;P</title>
<path fill="none" stroke="gray" stroke-dasharray="5,2" d="M54.12,-43.14C74.54,-46.77 103.59,-51.93 128.62,-56.38"/>
<polygon fill="gray" stroke="gray" points="128.25,-59.87 138.71,-58.18 129.47,-52.98 128.25,-59.87"/>
</g>
</g>
</svg>
