<?xml version="1.0" encoding="UTF-8" standalone="no"?>
<!DOCTYPE svg PUBLIC "-//W3C//DTD SVG 1.1//EN"
 "http://www.w3.org/Graphics/SVG/1.1/DTD/svg11.dtd">
<!-- Generated by graphviz version 2.43.0 (0)
 -->
<!-- Title: D Pages: 1 -->
<svg width="644pt" height="130pt"
 viewBox="0.00 0.00 643.87 129.50" xmlns="http://www.w3.org/2000/svg" xmlns:xlink="http://www.w3.org/1999/xlink">
<g id="graph0" class="graph" transform="scale(1 1) rotate(0) translate(4 125.5)">
<title>D</title>
<polygon fill="white" stroke="transparent" points="-4,4 -4,-125.5 639.87,-125.5 639.87,4 -4,4"/>
<text text-anchor="middle" x="317.93" y="-6.8" font-family="Helvetica,sans-Serif" font-size="9.00" fill="#000060">&#45; complete&#45;example &#45;</text>
<!-- Acquire -->
<g id="node1" class="node">
<title>Acquire</title>
<ellipse fill="#eeeeee" stroke="black" cx="222.14" cy="-46" rx="45.83" ry="18"/>
<text text-anchor="middle" x="222.14" y="-43.5" font-family="Helvetica,sans-Serif" font-size="10.00">Acquire data</text>
</g>
<!-- Compute -->
<g id="node2" class="node">
<title>Compute</title>
<ellipse fill="#eeeeee" stroke="black" cx="400.96" cy="-74" rx="35.82" ry="18"/>
<text text-anchor="middle" x="400.96" y="-71.5" font-family="Helvetica,sans-Serif" font-size="10.00">Compute</text>
</g>
<!-- Acquire&#45;&gt;Compute -->
<g id="edge3" class="edge">
<title>Acquire&#45;&gt;Compute</title>
<path fill="none" stroke="gray" d="M265.04,-52.64C292.69,-57.01 328.83,-62.74 356.74,-67.16"/>
<polygon fill="gray" stroke="gray" points="356.2,-70.61 366.62,-68.72 357.29,-63.7 356.2,-70.61"/>
<text text-anchor="middle" x="316.55" y="-68" font-family="Times,serif" font-style="italic" font-size="10.00">raw records</text>
</g>
<!-- API -->
<g id="node6" class="node">
<title>API</title>
<polygon fill="black" stroke="transparent" points="571.87,-60 571.87,-88 575.87,-88 575.87,-60 571.87,-60"/>
<text text-anchor="start" x="565.87" y="-48" font-family="Helvetica,sans-Serif" font-size="10.00">API</text>
</g>
<!-- Compute&#45;&gt;API -->
<g id="edge5" class="edge">
<title>Compute&#45;&gt;API:c</title>
<path fill="none" stroke="gray" d="M436.96,-74C475.82,-74 536.36,-74 561.42,-74"/>
<polygon fill="gray" stroke="gray" points="561.64,-77.5 571.64,-74 561.64,-70.5 561.64,-77.5"/>
<text text-anchor="middle" x="474.37" y="-77" font-family="Times,serif" font-style="italic" font-size="10.00">records</text>
</g>
<!-- Control -->
<g id="node3" class="node">
<title>Control</title>
<ellipse fill="#eeeeee" stroke="black" stroke-dasharray="5,2" cx="30.61" cy="-100" rx="30.72" ry="18"/>
<text text-anchor="middle" x="30.61" y="-97.5" font-family="Helvetica,sans-Serif" font-size="10.00">Control</text>
</g>
<!-- Control&#45;&gt;Acquire -->
<g id="edge1" class="edge">
<title>Control&#45;&gt;Acquire</title>
<path fill="none" stroke="gray" stroke-dasharray="5,2" d="M60.14,-95.16C86.05,-90.42 125.15,-82.4 158.22,-72 166.08,-69.53 174.32,-66.48 182.15,-63.34"/>
<polygon fill="gray" stroke="gray" points="183.53,-66.56 191.45,-59.51 180.87,-60.09 183.53,-66.56"/>
<text text-anchor="middle" x="118.72" y="-94" font-family="Times,serif" font-style="italic" font-size="10.00">sampling</text>
</g>
<!-- Device -->
<g id="node4" class="node">
<title>Device</title>
<polygon fill="none" stroke="black" points="57.61,-64 3.61,-64 3.61,-28 57.61,-28 57.61,-64"/>
<text text-anchor="middle" x="30.61" y="-43.5" font-family="Helvetica,sans-Serif" font-size="10.00">Device</text>
</g>
<!-- Device&#45;&gt;Acquire -->
<g id="edge2" class="edge">
<title>Device&#45;&gt;Acquire</title>
<path fill="none" stroke="gray" d="M57.96,-46C83.23,-46 122.4,-46 156.02,-46"/>
<polygon fill="gray" stroke="gray" points="166.07,-49.5 176.07,-46 166.07,-42.5 166.07,-49.5"/>
<polygon fill="gray" stroke="gray" points="156.07,-49.5 166.07,-46 156.07,-42.5 156.07,-49.5"/>
<text text-anchor="middle" x="118.72" y="-60" font-family="Times,serif" font-style="italic" font-size="10.00">continuous raw</text>
<text text-anchor="middle" x="118.72" y="-49" font-family="Times,serif" font-style="italic" font-size="10.00">data</text>
</g>
<!-- Config -->
<g id="node5" class="node">
<title>Config</title>
<polygon fill="black" stroke="transparent" points="187.14,-111 187.14,-115 257.14,-115 257.14,-111 187.14,-111"/>
<text text-anchor="start" x="189.14" y="-99" font-family="Helvetica,sans-Serif" font-size="10.00">Configuration</text>
<polygon fill="black" stroke="transparent" points="187.14,-88 187.14,-92 257.14,-92 257.14,-88 187.14,-88"/>
</g>
<!-- Config&#45;&gt;Compute -->
<g id="edge4" class="edge">
<title>Config&#45;&gt;Compute</title>
<path fill="none" stroke="gray" d="M277.34,-93.42C302.73,-89.4 332.56,-84.67 356.45,-80.89"/>
<polygon fill="gray" stroke="gray" points="276.63,-89.99 267.3,-95.01 277.73,-96.9 276.63,-89.99"/>
<polygon fill="gray" stroke="gray" points="357.3,-84.3 366.63,-79.28 356.2,-77.39 357.3,-84.3"/>
<text text-anchor="middle" x="316.55" y="-94" font-family="Times,serif" font-style="italic" font-size="10.00">parameters</text>
</g>
</g>
</svg>
