<?xml version="1.0" encoding="UTF-8" standalone="no"?>
<!DOCTYPE svg PUBLIC "-//W3C//DTD SVG 1.1//EN"
 "http://www.w3.org/Graphics/SVG/1.1/DTD/svg11.dtd">
<!-- Generated by graphviz version 2.43.0 (0)
 -->
<!-- Title: D Pages: 1 -->
<svg width="747pt" height="133pt"
 viewBox="0.00 0.00 747.18 132.50" xmlns="http://www.w3.org/2000/svg" xmlns:xlink="http://www.w3.org/1999/xlink">
<g id="graph0" class="graph" transform="scale(1 1) rotate(0) translate(4 128.5)">
<title>D</title>
<polygon fill="white" stroke="transparent" points="-4,4 -4,-128.5 743.18,-128.5 743.18,4 -4,4"/>
<!-- P -->
<g id="node1" class="node">
<title>P</title>
<ellipse fill="none" stroke="black" cx="230.59" cy="-45" rx="67.69" ry="18"/>
<text text-anchor="middle" x="230.59" y="-41.3" font-family="Helvetica,sans-Serif" font-size="14.00">Acquire data</text>
</g>
<!-- P2 -->
<g id="node2" class="node">
<title>P2</title>
<ellipse fill="none" stroke="black" cx="472.18" cy="-74" rx="51.99" ry="18"/>
<text text-anchor="middle" x="472.18" y="-70.3" font-family="Helvetica,sans-Serif" font-size="14.00">Compute</text>
</g>
<!-- P&#45;&gt;P2 -->
<g id="edge2" class="edge">
<title>P&#45;&gt;P2</title>
<path fill="none" stroke="gray" d="M292.36,-52.36C329.36,-56.83 376.38,-62.53 412.92,-66.95"/>
<polygon fill="gray" stroke="gray" points="412.58,-70.43 422.93,-68.16 413.42,-63.48 412.58,-70.43"/>
<text text-anchor="middle" x="359.19" y="-68.8" font-family="Times,serif" font-style="italic" font-size="14.00">raw records</text>
</g>
<!-- C -->
<g id="node5" class="node">
<title>C</title>
<polygon fill="black" stroke="transparent" points="675.18,-55 675.18,-92 679.18,-92 679.18,-55 675.18,-55"/>
<text text-anchor="start" x="665.68" y="-39.8" font-family="Helvetica,sans-Serif" font-size="14.00">API</text>
</g>
<!-- P2&#45;&gt;C -->
<g id="edge5" class="edge">
<title>P2&#45;&gt;C:c</title>
<path fill="none" stroke="gray" d="M524.41,-74C571.76,-74 638.63,-74 664.93,-74"/>
<polygon fill="gray" stroke="gray" points="665.14,-77.5 675.13,-74 665.13,-70.5 665.14,-77.5"/>
<text text-anchor="middle" x="569.68" y="-77.8" font-family="Times,serif" font-style="italic" font-size="14.00">records</text>
</g>
<!-- T -->
<g id="node3" class="node">
<title>T</title>
<polygon fill="none" stroke="black" points="63,-90 0,-90 0,-54 63,-54 63,-90"/>
<text text-anchor="middle" x="31.5" y="-68.3" font-family="Helvetica,sans-Serif" font-size="14.00">Device</text>
</g>
<!-- T&#45;&gt;P -->
<g id="edge1" class="edge">
<title>T&#45;&gt;P</title>
<path fill="none" stroke="gray" d="M63.3,-67.78C89.1,-64.25 126.92,-59.07 159.97,-54.54"/>
<polygon fill="gray" stroke="gray" points="160.63,-57.98 170.06,-53.16 159.68,-51.05 160.63,-57.98"/>
<text text-anchor="middle" x="113" y="-67.8" font-family="Times,serif" font-style="italic" font-size="14.00">raw data</text>
</g>
<!-- S -->
<g id="node4" class="node">
<title>S</title>
<polygon fill="black" stroke="transparent" points="181.59,-114 181.59,-118 280.59,-118 280.59,-114 181.59,-114"/>
<text text-anchor="start" x="183.59" y="-98.8" font-family="Helvetica,sans-Serif" font-size="14.00">Configuration</text>
<polygon fill="black" stroke="transparent" points="181.59,-87 181.59,-91 280.59,-91 280.59,-87 181.59,-87"/>
</g>
<!-- S&#45;&gt;P2 -->
<g id="edge4" class="edge">
<title>S&#45;&gt;P2</title>
<path fill="none" stroke="gray" d="M300.22,-94.69C335.75,-90.39 378.67,-85.2 412.62,-81.09"/>
<polygon fill="gray" stroke="gray" points="299.71,-91.23 290.2,-95.91 300.55,-98.18 299.71,-91.23"/>
<polygon fill="gray" stroke="gray" points="413.34,-84.53 422.85,-79.85 412.5,-77.58 413.34,-84.53"/>
<text text-anchor="middle" x="359.19" y="-94.8" font-family="Times,serif" font-style="italic" font-size="14.00">parameters</text>
</g>
<!-- __star_0__ -->
<g id="node6" class="node">
<title>__star_0__</title>
<text text-anchor="middle" x="31.5" y="-14.3" font-family="Times,serif" font-style="italic" font-size="14.00">clock</text>
</g>
<!-- __star_0__&#45;&gt;P -->
<g id="edge3" class="edge">
<title>__star_0__&#45;&gt;P</title>
<path fill="none" stroke="gray" stroke-dasharray="5,2" d="M58.67,-21.59C84.41,-25.11 124.81,-30.65 159.88,-35.45"/>
<polygon fill="gray" stroke="gray" points="159.7,-38.96 170.09,-36.85 160.65,-32.02 159.7,-38.96"/>
</g>
</g>
</svg>
