<?xml version="1.0" encoding="UTF-8" standalone="no"?>
<!DOCTYPE svg PUBLIC "-//W3C//DTD SVG 1.1//EN"
 "http://www.w3.org/Graphics/SVG/1.1/DTD/svg11.dtd">
<!-- Generated by graphviz version 2.43.0 (0)
 -->
<!-- Title: D Pages: 1 -->
<svg width="603pt" height="147pt"
 viewBox="0.00 0.00 602.65 146.50" xmlns="http://www.w3.org/2000/svg" xmlns:xlink="http://www.w3.org/1999/xlink">
<g id="graph0" class="graph" transform="scale(1 1) rotate(0) translate(4 142.5)">
<title>D</title>
<polygon fill="white" stroke="transparent" points="-4,4 -4,-142.5 598.65,-142.5 598.65,4 -4,4"/>
<text text-anchor="middle" x="297.32" y="-6.8" font-family="Helvetica,sans-Serif" font-size="9.00">[ complete&#45;example ]</text>
<!-- P -->
<g id="node1" class="node">
<title>P</title>
<ellipse fill="#eeeeee" stroke="black" cx="180.92" cy="-63" rx="45.83" ry="18"/>
<text text-anchor="middle" x="180.92" y="-60.5" font-family="Helvetica,sans-Serif" font-size="10.00">Acquire data</text>
</g>
<!-- P2 -->
<g id="node2" class="node">
<title>P2</title>
<ellipse fill="#eeeeee" stroke="black" cx="359.74" cy="-91" rx="35.82" ry="18"/>
<text text-anchor="middle" x="359.74" y="-88.5" font-family="Helvetica,sans-Serif" font-size="10.00">Compute</text>
</g>
<!-- P&#45;&gt;P2 -->
<g id="edge2" class="edge">
<title>P&#45;&gt;P2</title>
<path fill="none" stroke="gray" d="M223.82,-69.64C251.47,-74.01 287.61,-79.74 315.52,-84.16"/>
<polygon fill="gray" stroke="gray" points="314.98,-87.61 325.4,-85.72 316.07,-80.7 314.98,-87.61"/>
<text text-anchor="middle" x="275.33" y="-84" font-family="Times,serif" font-style="italic" font-size="10.00">raw records</text>
</g>
<!-- C -->
<g id="node5" class="node">
<title>C</title>
<polygon fill="black" stroke="transparent" points="530.65,-77 530.65,-105 534.65,-105 534.65,-77 530.65,-77"/>
<text text-anchor="start" x="524.65" y="-65" font-family="Helvetica,sans-Serif" font-size="10.00">API</text>
</g>
<!-- P2&#45;&gt;C -->
<g id="edge5" class="edge">
<title>P2&#45;&gt;C:c</title>
<path fill="none" stroke="gray" d="M395.74,-91C434.6,-91 495.14,-91 520.2,-91"/>
<polygon fill="gray" stroke="gray" points="520.42,-94.5 530.42,-91 520.42,-87.5 520.42,-94.5"/>
<text text-anchor="middle" x="433.15" y="-94" font-family="Times,serif" font-style="italic" font-size="10.00">records</text>
</g>
<!-- T -->
<g id="node3" class="node">
<title>T</title>
<polygon fill="none" stroke="black" points="54,-108 0,-108 0,-72 54,-72 54,-108"/>
<text text-anchor="middle" x="27" y="-87.5" font-family="Helvetica,sans-Serif" font-size="10.00">Device</text>
</g>
<!-- T&#45;&gt;P -->
<g id="edge1" class="edge">
<title>T&#45;&gt;P</title>
<path fill="none" stroke="gray" d="M54.12,-85.36C74.54,-81.73 103.59,-76.57 128.62,-72.12"/>
<polygon fill="gray" stroke="gray" points="129.47,-75.52 138.71,-70.32 128.25,-68.63 129.47,-75.52"/>
<text text-anchor="middle" x="94.5" y="-85" font-family="Times,serif" font-style="italic" font-size="10.00">raw data</text>
</g>
<!-- S -->
<g id="node4" class="node">
<title>S</title>
<polygon fill="black" stroke="transparent" points="145.92,-128 145.92,-132 215.92,-132 215.92,-128 145.92,-128"/>
<text text-anchor="start" x="147.92" y="-116" font-family="Helvetica,sans-Serif" font-size="10.00">Configuration</text>
<polygon fill="black" stroke="transparent" points="145.92,-105 145.92,-109 215.92,-109 215.92,-105 145.92,-105"/>
</g>
<!-- S&#45;&gt;P2 -->
<g id="edge4" class="edge">
<title>S&#45;&gt;P2</title>
<path fill="none" stroke="gray" d="M236.12,-110.42C261.51,-106.4 291.34,-101.67 315.23,-97.89"/>
<polygon fill="gray" stroke="gray" points="235.41,-106.99 226.08,-112.01 236.5,-113.9 235.41,-106.99"/>
<polygon fill="gray" stroke="gray" points="316.08,-101.3 325.41,-96.28 314.98,-94.39 316.08,-101.3"/>
<text text-anchor="middle" x="275.33" y="-111" font-family="Times,serif" font-style="italic" font-size="10.00">parameters</text>
</g>
<!-- __star_0__ -->
<g id="node6" class="node">
<title>__star_0__</title>
<text text-anchor="middle" x="27" y="-33.5" font-family="Times,serif" font-style="italic" font-size="10.00">clock</text>
</g>
<!-- __star_0__&#45;&gt;P -->
<g id="edge3" class="edge">
<title>__star_0__&#45;&gt;P</title>
<path fill="none" stroke="gray" stroke-dasharray="5,2" d="M54.12,-40.64C74.54,-44.27 103.59,-49.43 128.62,-53.88"/>
<polygon fill="gray" stroke="gray" points="128.25,-57.37 138.71,-55.68 129.47,-50.48 128.25,-57.37"/>
</g>
</g>
</svg>
