<?xml version="1.0" encoding="UTF-8" standalone="no"?>
<!DOCTYPE svg PUBLIC "-//W3C//DTD SVG 1.1//EN"
 "http://www.w3.org/Graphics/SVG/1.1/DTD/svg11.dtd">
<!-- Generated by graphviz version 2.43.0 (0)
 -->
<!-- Title: D Pages: 1 -->
<svg width="603pt" height="157pt"
 viewBox="0.00 0.00 602.65 156.50" xmlns="http://www.w3.org/2000/svg" xmlns:xlink="http://www.w3.org/1999/xlink">
<g id="graph0" class="graph" transform="scale(1 1) rotate(0) translate(4 152.5)">
<title>D</title>
<polygon fill="white" stroke="transparent" points="-4,4 -4,-152.5 598.65,-152.5 598.65,4 -4,4"/>
<text text-anchor="middle" x="297.32" y="-6.8" font-family="Helvetica,sans-Serif" font-size="9.00" fill="#000060">&#45; complete&#45;example &#45;</text>
<!-- P -->
<g id="node1" class="node">
<title>P</title>
<ellipse fill="#eeeeee" stroke="black" cx="180.92" cy="-73" rx="45.83" ry="18"/>
<text text-anchor="middle" x="180.92" y="-70.5" font-family="Helvetica,sans-Serif" font-size="10.00">Acquire data</text>
</g>
<!-- P2 -->
<g id="node2" class="node">
<title>P2</title>
<ellipse fill="#eeeeee" stroke="black" cx="359.74" cy="-101" rx="35.82" ry="18"/>
<text text-anchor="middle" x="359.74" y="-98.5" font-family="Helvetica,sans-Serif" font-size="10.00">Compute</text>
</g>
<!-- P&#45;&gt;P2 -->
<g id="edge2" class="edge">
<title>P&#45;&gt;P2</title>
<path fill="none" stroke="gray" d="M223.82,-79.64C251.47,-84.01 287.61,-89.74 315.52,-94.16"/>
<polygon fill="gray" stroke="gray" points="314.98,-97.61 325.4,-95.72 316.07,-90.7 314.98,-97.61"/>
<text text-anchor="middle" x="275.33" y="-94" font-family="Times,serif" font-style="italic" font-size="10.00">raw records</text>
</g>
<!-- C -->
<g id="node5" class="node">
<title>C</title>
<polygon fill="black" stroke="transparent" points="530.65,-87 530.65,-115 534.65,-115 534.65,-87 530.65,-87"/>
<text text-anchor="start" x="524.65" y="-75" font-family="Helvetica,sans-Serif" font-size="10.00">API</text>
</g>
<!-- P2&#45;&gt;C -->
<g id="edge5" class="edge">
<title>P2&#45;&gt;C:c</title>
<path fill="none" stroke="gray" d="M395.74,-101C434.6,-101 495.14,-101 520.2,-101"/>
<polygon fill="gray" stroke="gray" points="520.42,-104.5 530.42,-101 520.42,-97.5 520.42,-104.5"/>
<text text-anchor="middle" x="433.15" y="-104" font-family="Times,serif" font-style="italic" font-size="10.00">records</text>
</g>
<!-- T -->
<g id="node3" class="node">
<title>T</title>
<polygon fill="none" stroke="black" points="54,-118 0,-118 0,-82 54,-82 54,-118"/>
<text text-anchor="middle" x="27" y="-97.5" font-family="Helvetica,sans-Serif" font-size="10.00">Device</text>
</g>
<!-- T&#45;&gt;P -->
<g id="edge1" class="edge">
<title>T&#45;&gt;P</title>
<path fill="none" stroke="gray" d="M54.12,-95.36C74.54,-91.73 103.59,-86.57 128.62,-82.12"/>
<polygon fill="gray" stroke="gray" points="129.47,-85.52 138.71,-80.32 128.25,-78.63 129.47,-85.52"/>
<text text-anchor="middle" x="94.5" y="-95" font-family="Times,serif" font-style="italic" font-size="10.00">raw data</text>
</g>
<!-- S -->
<g id="node4" class="node">
<title>S</title>
<polygon fill="black" stroke="transparent" points="145.92,-138 145.92,-142 215.92,-142 215.92,-138 145.92,-138"/>
<text text-anchor="start" x="147.92" y="-126" font-family="Helvetica,sans-Serif" font-size="10.00">Configuration</text>
<polygon fill="black" stroke="transparent" points="145.92,-115 145.92,-119 215.92,-119 215.92,-115 145.92,-115"/>
</g>
<!-- S&#45;&gt;P2 -->
<g id="edge4" class="edge">
<title>S&#45;&gt;P2</title>
<path fill="none" stroke="gray" d="M236.12,-120.42C261.51,-116.4 291.34,-111.67 315.23,-107.89"/>
<polygon fill="gray" stroke="gray" points="235.41,-116.99 226.08,-122.01 236.5,-123.9 235.41,-116.99"/>
<polygon fill="gray" stroke="gray" points="316.08,-111.3 325.41,-106.28 314.98,-104.39 316.08,-111.3"/>
<text text-anchor="middle" x="275.33" y="-121" font-family="Times,serif" font-style="italic" font-size="10.00">parameters</text>
</g>
<!-- __star_0__ -->
<g id="node6" class="node">
<title>__star_0__</title>
<text text-anchor="middle" x="27" y="-43.5" font-family="Times,serif" font-style="italic" font-size="10.00">clock</text>
</g>
<!-- __star_0__&#45;&gt;P -->
<g id="edge3" class="edge">
<title>__star_0__&#45;&gt;P</title>
<path fill="none" stroke="gray" stroke-dasharray="5,2" d="M54.12,-50.64C74.54,-54.27 103.59,-59.43 128.62,-63.88"/>
<polygon fill="gray" stroke="gray" points="128.25,-67.37 138.71,-65.68 129.47,-60.48 128.25,-67.37"/>
</g>
</g>
</svg>
