<?xml version="1.0" encoding="UTF-8" standalone="no"?>
<!DOCTYPE svg PUBLIC "-//W3C//DTD SVG 1.1//EN"
 "http://www.w3.org/Graphics/SVG/1.1/DTD/svg11.dtd">
<!-- Generated by graphviz version 2.43.0 (0)
 -->
<!-- Title: D Pages: 1 -->
<svg width="637pt" height="229pt"
 viewBox="0.00 0.00 636.65 228.50" xmlns="http://www.w3.org/2000/svg" xmlns:xlink="http://www.w3.org/1999/xlink">
<g id="graph0" class="graph" transform="scale(1 1) rotate(0) translate(4 224.5)">
<title>D</title>
<polygon fill="white" stroke="transparent" points="-4,4 -4,-224.5 632.65,-224.5 632.65,4 -4,4"/>
<text text-anchor="middle" x="314.32" y="-6.8" font-family="Helvetica,sans-Serif" font-size="9.00" fill="#000060">&#45; complete&#45;example &#45;</text>
<!-- Acquire -->
<g id="node1" class="node">
<title>Acquire</title>
<ellipse fill="#eeeeee" stroke="black" cx="214.92" cy="-145" rx="45.83" ry="18"/>
<text text-anchor="middle" x="214.92" y="-142.5" font-family="Helvetica,sans-Serif" font-size="10.00">Acquire data</text>
</g>
<!-- Compute -->
<g id="node2" class="node">
<title>Compute</title>
<ellipse fill="#eeeeee" stroke="black" cx="393.74" cy="-179" rx="35.82" ry="18"/>
<text text-anchor="middle" x="393.74" y="-176.5" font-family="Helvetica,sans-Serif" font-size="10.00">Compute</text>
</g>
<!-- Acquire&#45;&gt;Compute -->
<g id="edge6" class="edge">
<title>Acquire&#45;&gt;Compute</title>
<path fill="none" stroke="gray" d="M256.48,-152.8C284.45,-158.18 321.56,-165.31 349.99,-170.78"/>
<polygon fill="gray" stroke="gray" points="349.56,-174.26 360.04,-172.71 350.88,-167.39 349.56,-174.26"/>
<text text-anchor="middle" x="309.33" y="-171" font-family="Times,serif" font-style="italic" font-size="10.00">raw records</text>
</g>
<!-- API -->
<g id="node6" class="node">
<title>API</title>
<polygon fill="black" stroke="transparent" points="564.65,-165 564.65,-193 568.65,-193 568.65,-165 564.65,-165"/>
<text text-anchor="start" x="558.65" y="-153" font-family="Helvetica,sans-Serif" font-size="10.00">API</text>
</g>
<!-- Compute&#45;&gt;API -->
<g id="edge8" class="edge">
<title>Compute&#45;&gt;API:c</title>
<path fill="none" stroke="gray" d="M429.74,-179C468.6,-179 529.14,-179 554.2,-179"/>
<polygon fill="gray" stroke="gray" points="554.42,-182.5 564.42,-179 554.42,-175.5 554.42,-182.5"/>
<text text-anchor="middle" x="467.15" y="-182" font-family="Times,serif" font-style="italic" font-size="10.00">records</text>
</g>
<!-- Control -->
<g id="node3" class="node">
<title>Control</title>
<ellipse fill="#eeeeee" stroke="black" stroke-dasharray="5,2" cx="214.92" cy="-73" rx="30.72" ry="18"/>
<text text-anchor="middle" x="214.92" y="-70.5" font-family="Helvetica,sans-Serif" font-size="10.00">Control</text>
</g>
<!-- Control&#45;&gt;Acquire -->
<g id="edge4" class="edge">
<title>Control&#45;&gt;Acquire</title>
<path fill="none" stroke="gray" stroke-dasharray="5,2" d="M214.92,-91.17C214.92,-98.87 214.92,-108.03 214.92,-116.58"/>
<polygon fill="gray" stroke="gray" points="211.42,-116.59 214.92,-126.59 218.42,-116.59 211.42,-116.59"/>
<text text-anchor="middle" x="206.42" y="-106.5" font-family="Times,serif" font-style="italic" font-size="10.00">sampling</text>
</g>
<!-- __star_1__ -->
<g id="node8" class="node">
<title>__star_1__</title>
<text text-anchor="middle" x="393.74" y="-97.5" font-family="Times,serif" font-style="italic" font-size="10.00">enable</text>
</g>
<!-- Control&#45;&gt;__star_1__ -->
<g id="edge2" class="edge">
<title>Control&#45;&gt;__star_1__</title>
<path fill="none" stroke="gray" stroke-dasharray="5,2" d="M254.75,-78.93C288.68,-84.11 337.01,-91.49 366.55,-96"/>
<polygon fill="gray" stroke="gray" points="255.13,-75.45 244.72,-77.4 254.08,-82.37 255.13,-75.45"/>
</g>
<!-- __star_2__ -->
<g id="node9" class="node">
<title>__star_2__</title>
<text text-anchor="middle" x="393.74" y="-43.5" font-family="Times,serif" font-style="italic" font-size="10.00">disable</text>
</g>
<!-- Control&#45;&gt;__star_2__ -->
<g id="edge3" class="edge">
<title>Control&#45;&gt;__star_2__</title>
<path fill="none" stroke="gray" stroke-dasharray="5,2" d="M254.75,-67.07C288.68,-61.89 337.01,-54.51 366.55,-50"/>
<polygon fill="gray" stroke="gray" points="254.08,-63.63 244.72,-68.6 255.13,-70.55 254.08,-63.63"/>
</g>
<!-- Device -->
<g id="node4" class="node">
<title>Device</title>
<polygon fill="none" stroke="black" points="54,-163 0,-163 0,-127 54,-127 54,-163"/>
<text text-anchor="middle" x="27" y="-142.5" font-family="Helvetica,sans-Serif" font-size="10.00">Device</text>
</g>
<!-- Device&#45;&gt;Acquire -->
<g id="edge5" class="edge">
<title>Device&#45;&gt;Acquire</title>
<path fill="none" stroke="gray" d="M54.24,-145C78.63,-145 115.96,-145 148.4,-145"/>
<polygon fill="gray" stroke="gray" points="168.82,-145 158.82,-149.5 163.82,-145 158.82,-145 158.82,-145 158.82,-145 163.82,-145 158.82,-140.5 168.82,-145 168.82,-145"/>
<polygon fill="gray" stroke="gray" points="158.82,-145 148.82,-149.5 153.82,-145 148.82,-145 148.82,-145 148.82,-145 153.82,-145 148.82,-140.5 158.82,-145 158.82,-145"/>
<text text-anchor="middle" x="111.5" y="-159" font-family="Times,serif" font-style="italic" font-size="10.00">continuous raw</text>
<text text-anchor="middle" x="111.5" y="-148" font-family="Times,serif" font-style="italic" font-size="10.00">data</text>
</g>
<!-- Config -->
<g id="node5" class="node">
<title>Config</title>
<polygon fill="black" stroke="transparent" points="179.92,-210 179.92,-214 249.92,-214 249.92,-210 179.92,-210"/>
<text text-anchor="start" x="181.92" y="-198" font-family="Helvetica,sans-Serif" font-size="10.00">Configuration</text>
<polygon fill="black" stroke="transparent" points="179.92,-187 179.92,-191 249.92,-191 249.92,-187 179.92,-187"/>
</g>
<!-- Config&#45;&gt;Compute -->
<g id="edge7" class="edge">
<title>Config&#45;&gt;Compute</title>
<path fill="none" stroke="gray" d="M270.02,-194.27C295.14,-191.14 324.64,-187.47 348.41,-184.51"/>
<polygon fill="gray" stroke="gray" points="269.57,-190.8 260.08,-195.51 270.44,-197.74 269.57,-190.8"/>
<polygon fill="gray" stroke="gray" points="349.07,-187.96 358.56,-183.25 348.21,-181.01 349.07,-187.96"/>
<text text-anchor="middle" x="309.33" y="-195" font-family="Times,serif" font-style="italic" font-size="10.00">parameters</text>
</g>
<!-- __star_0__ -->
<g id="node7" class="node">
<title>__star_0__</title>
<text text-anchor="middle" x="27" y="-70.5" font-family="Times,serif" font-style="italic" font-size="10.00">clock</text>
</g>
<!-- __star_0__&#45;&gt;Control -->
<g id="edge1" class="edge">
<title>__star_0__&#45;&gt;Control</title>
<path fill="none" stroke="gray" stroke-dasharray="5,2" d="M54.24,-73C85.4,-73 137.69,-73 173.9,-73"/>
<polygon fill="gray" stroke="gray" points="174.12,-76.5 184.12,-73 174.12,-69.5 174.12,-76.5"/>
</g>
</g>
</svg>
