<?xml version="1.0" encoding="UTF-8" standalone="no"?>
<!DOCTYPE svg PUBLIC "-//W3C//DTD SVG 1.1//EN"
 "http://www.w3.org/Graphics/SVG/1.1/DTD/svg11.dtd">
<!-- Generated by graphviz version 2.43.0 (0)
 -->
<!-- Title: D Pages: 1 -->
<svg width="603pt" height="129pt"
 viewBox="0.00 0.00 602.65 128.50" xmlns="http://www.w3.org/2000/svg" xmlns:xlink="http://www.w3.org/1999/xlink">
<g id="graph0" class="graph" transform="scale(1 1) rotate(0) translate(4 124.5)">
<title>D</title>
<polygon fill="white" stroke="transparent" points="-4,4 -4,-124.5 598.65,-124.5 598.65,4 -4,4"/>
<!-- P -->
<g id="node1" class="node">
<title>P</title>
<ellipse fill="#eeeeee" stroke="black" cx="180.92" cy="-45" rx="45.83" ry="18"/>
<text text-anchor="middle" x="180.92" y="-42.5" font-family="Helvetica,sans-Serif" font-size="10.00">Acquire data</text>
</g>
<!-- P2 -->
<g id="node2" class="node">
<title>P2</title>
<ellipse fill="#eeeeee" stroke="black" cx="359.74" cy="-73" rx="35.82" ry="18"/>
<text text-anchor="middle" x="359.74" y="-70.5" font-family="Helvetica,sans-Serif" font-size="10.00">Compute</text>
</g>
<!-- P&#45;&gt;P2 -->
<g id="edge2" class="edge">
<title>P&#45;&gt;P2</title>
<path fill="none" stroke="gray" d="M223.82,-51.64C251.47,-56.01 287.61,-61.74 315.52,-66.16"/>
<polygon fill="gray" stroke="gray" points="314.98,-69.61 325.4,-67.72 316.07,-62.7 314.98,-69.61"/>
<text text-anchor="middle" x="275.33" y="-66" font-family="Times,serif" font-style="italic" font-size="10.00">raw records</text>
</g>
<!-- C -->
<g id="node5" class="node">
<title>C</title>
<polygon fill="black" stroke="transparent" points="530.65,-59 530.65,-87 534.65,-87 534.65,-59 530.65,-59"/>
<text text-anchor="start" x="524.65" y="-47" font-family="Helvetica,sans-Serif" font-size="10.00">API</text>
</g>
<!-- P2&#45;&gt;C -->
<g id="edge5" class="edge">
<title>P2&#45;&gt;C:c</title>
<path fill="none" stroke="gray" d="M395.74,-73C434.6,-73 495.14,-73 520.2,-73"/>
<polygon fill="gray" stroke="gray" points="520.42,-76.5 530.42,-73 520.42,-69.5 520.42,-76.5"/>
<text text-anchor="middle" x="433.15" y="-76" font-family="Times,serif" font-style="italic" font-size="10.00">records</text>
</g>
<!-- T -->
<g id="node3" class="node">
<title>T</title>
<polygon fill="none" stroke="black" points="54,-90 0,-90 0,-54 54,-54 54,-90"/>
<text text-anchor="middle" x="27" y="-69.5" font-family="Helvetica,sans-Serif" font-size="10.00">Device</text>
</g>
<!-- T&#45;&gt;P -->
<g id="edge1" class="edge">
<title>T&#45;&gt;P</title>
<path fill="none" stroke="gray" d="M54.12,-67.36C74.54,-63.73 103.59,-58.57 128.62,-54.12"/>
<polygon fill="gray" stroke="gray" points="129.47,-57.52 138.71,-52.32 128.25,-50.63 129.47,-57.52"/>
<text text-anchor="middle" x="94.5" y="-67" font-family="Times,serif" font-style="italic" font-size="10.00">raw data</text>
</g>
<!-- S -->
<g id="node4" class="node">
<title>S</title>
<polygon fill="black" stroke="transparent" points="145.92,-110 145.92,-114 216.92,-114 216.92,-110 145.92,-110"/>
<text text-anchor="start" x="147.92" y="-98" font-family="Helvetica,sans-Serif" font-size="10.00">Configuration</text>
<polygon fill="black" stroke="transparent" points="145.92,-87 145.92,-91 216.92,-91 216.92,-87 145.92,-87"/>
</g>
<!-- S&#45;&gt;P2 -->
<g id="edge4" class="edge">
<title>S&#45;&gt;P2</title>
<path fill="none" stroke="gray" d="M236.54,-92.35C261.81,-88.35 291.43,-83.66 315.18,-79.9"/>
<polygon fill="gray" stroke="gray" points="235.87,-88.91 226.54,-93.93 236.96,-95.83 235.87,-88.91"/>
<polygon fill="gray" stroke="gray" points="315.97,-83.32 325.3,-78.3 314.87,-76.4 315.97,-83.32"/>
<text text-anchor="middle" x="275.33" y="-93" font-family="Times,serif" font-style="italic" font-size="10.00">parameters</text>
</g>
<!-- __star_0__ -->
<g id="node6" class="node">
<title>__star_0__</title>
<text text-anchor="middle" x="27" y="-15.5" font-family="Times,serif" font-style="italic" font-size="10.00">clock</text>
</g>
<!-- __star_0__&#45;&gt;P -->
<g id="edge3" class="edge">
<title>__star_0__&#45;&gt;P</title>
<path fill="none" stroke="gray" stroke-dasharray="5,2" d="M54.12,-22.64C74.54,-26.27 103.59,-31.43 128.62,-35.88"/>
<polygon fill="gray" stroke="gray" points="128.25,-39.37 138.71,-37.68 129.47,-32.48 128.25,-39.37"/>
</g>
</g>
</svg>
