<?xml version="1.0" encoding="UTF-8" standalone="no"?>
<!DOCTYPE svg PUBLIC "-//W3C//DTD SVG 1.1//EN"
 "http://www.w3.org/Graphics/SVG/1.1/DTD/svg11.dtd">
<!-- Generated by graphviz version 2.43.0 (0)
 -->
<!-- Title: D Pages: 1 -->
<svg width="324pt" height="171pt"
 viewBox="0.00 0.00 324.00 171.00" xmlns="http://www.w3.org/2000/svg" xmlns:xlink="http://www.w3.org/1999/xlink">
<g id="graph0" class="graph" transform="scale(1 1) rotate(0) translate(4 167)">
<title>D</title>
<polygon fill="white" stroke="transparent" points="-4,4 -4,-167 320,-167 320,4 -4,4"/>
<!-- P1 -->
<g id="node1" class="node">
<title>P1</title>
<ellipse fill="none" stroke="black" cx="43" cy="-102" rx="27" ry="18"/>
<text text-anchor="middle" x="43" y="-99.5" font-family="Helvetica,sans-Serif" font-size="10.00">P1</text>
</g>
<!-- P2 -->
<g id="node2" class="node">
<title>P2</title>
<ellipse fill="none" stroke="black" cx="269.5" cy="-68" rx="27" ry="18"/>
<text text-anchor="middle" x="269.5" y="-65.5" font-family="Helvetica,sans-Serif" font-size="10.00">P2</text>
</g>
<!-- P1&#45;&gt;P2 -->
<g id="edge1" class="edge">
<title>P1&#45;&gt;P2</title>
<path fill="none" stroke="gray" d="M70.06,-104.31C102.24,-106.46 158.44,-107.89 205,-97 216.75,-94.25 228.96,-89.26 239.5,-84.18"/>
<polygon fill="gray" stroke="gray" points="241.3,-87.19 248.64,-79.55 238.14,-80.94 241.3,-87.19"/>
<text text-anchor="middle" x="154.5" y="-108" font-family="Times,serif" font-style="italic" font-size="10.00">a flow</text>
</g>
<!-- P1&#45;&gt;P2 -->
<g id="edge3" class="edge">
<title>P1&#45;&gt;P2</title>
<path fill="none" stroke="gray" stroke-dasharray="5,2" d="M67.39,-93.83C78.37,-90.29 91.73,-86.41 104,-84 147.57,-75.43 198.58,-71.37 232.11,-69.51"/>
<polygon fill="gray" stroke="gray" points="232.54,-72.99 242.35,-68.97 232.18,-66 232.54,-72.99"/>
<text text-anchor="middle" x="154.5" y="-87" font-family="Times,serif" font-style="italic" font-size="10.00">a signal</text>
</g>
<!-- __star_1__ -->
<g id="node4" class="node">
<title>__star_1__</title>
<text text-anchor="middle" x="269.5" y="-148" font-family="Times,serif" font-style="italic" font-size="10.00">an untargetted</text>
<text text-anchor="middle" x="269.5" y="-137" font-family="Times,serif" font-style="italic" font-size="10.00">signal</text>
</g>
<!-- P1&#45;&gt;__star_1__ -->
<g id="edge5" class="edge">
<title>P1&#45;&gt;__star_1__</title>
<path fill="none" stroke="gray" stroke-dasharray="5,2" d="M67.45,-109.87C78.45,-113.35 91.8,-117.26 104,-120 139.86,-128.06 180.71,-134.28 212.73,-138.51"/>
<polygon fill="gray" stroke="gray" points="212.43,-142 222.79,-139.81 213.33,-135.05 212.43,-142"/>
</g>
<!-- P2&#45;&gt;P1 -->
<g id="edge2" class="edge">
<title>P2&#45;&gt;P1</title>
<path fill="none" stroke="gray" d="M245.37,-59.61C212.79,-49.14 152.02,-34.61 104,-52 88.82,-57.5 74.77,-68.7 64.1,-79.11"/>
<polygon fill="gray" stroke="gray" points="61.41,-76.85 56.95,-86.46 66.43,-81.73 61.41,-76.85"/>
<text text-anchor="middle" x="154.5" y="-55" font-family="Times,serif" font-style="italic" font-size="10.00">a bi&#45;directional flow</text>
</g>
<!-- __star_0__ -->
<g id="node3" class="node">
<title>__star_0__</title>
<text text-anchor="middle" x="43" y="-21" font-family="Times,serif" font-style="italic" font-size="10.00">an unsourced</text>
<text text-anchor="middle" x="43" y="-10" font-family="Times,serif" font-style="italic" font-size="10.00">flow</text>
</g>
<!-- __star_0__&#45;&gt;P2 -->
<g id="edge4" class="edge">
<title>__star_0__&#45;&gt;P2</title>
<path fill="none" stroke="gray" d="M86.02,-20.52C118.89,-23.25 165.5,-28.83 205,-40 216.36,-43.21 228.33,-48.07 238.78,-52.84"/>
<polygon fill="gray" stroke="gray" points="237.34,-56.03 247.88,-57.15 240.34,-49.71 237.34,-56.03"/>
</g>
</g>
</svg>
