<?xml version="1.0" encoding="UTF-8" standalone="no"?>
<!DOCTYPE svg PUBLIC "-//W3C//DTD SVG 1.1//EN"
 "http://www.w3.org/Graphics/SVG/1.1/DTD/svg11.dtd">
<!-- Generated by graphviz version 2.43.0 (0)
 -->
<!-- Title: D Pages: 1 -->
<svg width="224pt" height="398pt"
 viewBox="0.00 0.00 224.00 398.00" xmlns="http://www.w3.org/2000/svg" xmlns:xlink="http://www.w3.org/1999/xlink">
<g id="graph0" class="graph" transform="scale(1 1) rotate(0) translate(4 394)">
<title>D</title>
<polygon fill="white" stroke="transparent" points="-4,4 -4,-394 220,-394 220,4 -4,4"/>
<text text-anchor="middle" x="108" y="-6.8" font-family="Helvetica,sans-Serif" font-size="9.00" fill="#000060">&#45; connections &#45;</text>
<!-- A1 -->
<g id="node1" class="node">
<title>A1</title>
<ellipse fill="#eeeeee" stroke="black" cx="27" cy="-46" rx="27" ry="18"/>
<text text-anchor="middle" x="27" y="-43.5" font-family="Helvetica,sans-Serif" font-size="10.00">A1</text>
</g>
<!-- A2 -->
<g id="node2" class="node">
<title>A2</title>
<ellipse fill="#eeeeee" stroke="black" cx="189" cy="-46" rx="27" ry="18"/>
<text text-anchor="middle" x="189" y="-43.5" font-family="Helvetica,sans-Serif" font-size="10.00">A2</text>
</g>
<!-- A1&#45;&gt;A2 -->
<g id="edge1" class="edge">
<title>A1&#45;&gt;A2</title>
<path fill="none" stroke="gray" d="M54.06,-46C80.56,-46 121.84,-46 151.57,-46"/>
<polygon fill="gray" stroke="gray" points="151.95,-49.5 161.95,-46 151.95,-42.5 151.95,-49.5"/>
<text text-anchor="middle" x="108" y="-49" font-family="Times,serif" font-style="italic" font-size="10.00">a flow</text>
</g>
<!-- B1 -->
<g id="node3" class="node">
<title>B1</title>
<ellipse fill="#eeeeee" stroke="black" cx="27" cy="-100" rx="27" ry="18"/>
<text text-anchor="middle" x="27" y="-97.5" font-family="Helvetica,sans-Serif" font-size="10.00">B1</text>
</g>
<!-- B2 -->
<g id="node4" class="node">
<title>B2</title>
<ellipse fill="#eeeeee" stroke="black" cx="189" cy="-100" rx="27" ry="18"/>
<text text-anchor="middle" x="189" y="-97.5" font-family="Helvetica,sans-Serif" font-size="10.00">B2</text>
</g>
<!-- B1&#45;&gt;B2 -->
<g id="edge2" class="edge">
<title>B1&#45;&gt;B2</title>
<path fill="none" stroke="gray" d="M54.06,-100C77.77,-100 113.31,-100 141.83,-100"/>
<polygon fill="gray" stroke="gray" points="151.95,-103.5 161.95,-100 151.95,-96.5 151.95,-103.5"/>
<polygon fill="gray" stroke="gray" points="141.95,-103.5 151.95,-100 141.95,-96.5 141.95,-103.5"/>
<text text-anchor="middle" x="108" y="-114" font-family="Times,serif" font-style="italic" font-size="10.00">a continuous</text>
<text text-anchor="middle" x="108" y="-103" font-family="Times,serif" font-style="italic" font-size="10.00">flow</text>
</g>
<!-- C1 -->
<g id="node5" class="node">
<title>C1</title>
<ellipse fill="#eeeeee" stroke="black" cx="27" cy="-154" rx="27" ry="18"/>
<text text-anchor="middle" x="27" y="-151.5" font-family="Helvetica,sans-Serif" font-size="10.00">C1</text>
</g>
<!-- C2 -->
<g id="node6" class="node">
<title>C2</title>
<ellipse fill="#eeeeee" stroke="black" cx="189" cy="-154" rx="27" ry="18"/>
<text text-anchor="middle" x="189" y="-151.5" font-family="Helvetica,sans-Serif" font-size="10.00">C2</text>
</g>
<!-- C1&#45;&gt;C2 -->
<g id="edge3" class="edge">
<title>C1&#45;&gt;C2</title>
<path fill="none" stroke="gray" d="M64.45,-154C90.58,-154 125.63,-154 151.72,-154"/>
<polygon fill="gray" stroke="gray" points="64.06,-150.5 54.06,-154 64.06,-157.5 64.06,-150.5"/>
<polygon fill="gray" stroke="gray" points="151.95,-157.5 161.95,-154 151.95,-150.5 151.95,-157.5"/>
<text text-anchor="middle" x="108" y="-179" font-family="Times,serif" font-style="italic" font-size="10.00">a bi&#45;</text>
<text text-anchor="middle" x="108" y="-168" font-family="Times,serif" font-style="italic" font-size="10.00">directional</text>
<text text-anchor="middle" x="108" y="-157" font-family="Times,serif" font-style="italic" font-size="10.00">flow</text>
</g>
<!-- D1 -->
<g id="node7" class="node">
<title>D1</title>
<ellipse fill="#eeeeee" stroke="black" cx="27" cy="-210" rx="27" ry="18"/>
<text text-anchor="middle" x="27" y="-207.5" font-family="Helvetica,sans-Serif" font-size="10.00">D1</text>
</g>
<!-- D2 -->
<g id="node8" class="node">
<title>D2</title>
<ellipse fill="#eeeeee" stroke="black" cx="189" cy="-210" rx="27" ry="18"/>
<text text-anchor="middle" x="189" y="-207.5" font-family="Helvetica,sans-Serif" font-size="10.00">D2</text>
</g>
<!-- D1&#45;&gt;D2 -->
<g id="edge4" class="edge">
<title>D1&#45;&gt;D2</title>
<path fill="none" stroke="gray" stroke-dasharray="5,2" d="M54.06,-210C80.56,-210 121.84,-210 151.57,-210"/>
<polygon fill="gray" stroke="gray" points="151.95,-213.5 161.95,-210 151.95,-206.5 151.95,-213.5"/>
<text text-anchor="middle" x="108" y="-213" font-family="Times,serif" font-style="italic" font-size="10.00">a signal</text>
</g>
<!-- E1 -->
<g id="node9" class="node">
<title>E1</title>
<ellipse fill="#eeeeee" stroke="black" cx="27" cy="-264" rx="27" ry="18"/>
<text text-anchor="middle" x="27" y="-261.5" font-family="Helvetica,sans-Serif" font-size="10.00">E1</text>
</g>
<!-- E2 -->
<g id="node10" class="node">
<title>E2</title>
<ellipse fill="#eeeeee" stroke="black" cx="189" cy="-264" rx="27" ry="18"/>
<text text-anchor="middle" x="189" y="-261.5" font-family="Helvetica,sans-Serif" font-size="10.00">E2</text>
</g>
<!-- E1&#45;&gt;E2 -->
<g id="edge5" class="edge">
<title>E1&#45;&gt;E2</title>
<path fill="none" stroke="gray" d="M54.06,-264C83.82,-264 132.2,-264 161.95,-264"/>
<text text-anchor="middle" x="108" y="-278" font-family="Times,serif" font-style="italic" font-size="10.00">an undirected</text>
<text text-anchor="middle" x="108" y="-267" font-family="Times,serif" font-style="italic" font-size="10.00">flow</text>
</g>
<!-- X -->
<g id="node11" class="node">
<title>X</title>
<ellipse fill="#eeeeee" stroke="black" cx="27" cy="-318" rx="27" ry="18"/>
<text text-anchor="middle" x="27" y="-315.5" font-family="Helvetica,sans-Serif" font-size="10.00">X</text>
</g>
<!-- Y -->
<g id="node12" class="node">
<title>Y</title>
<ellipse fill="#eeeeee" stroke="black" cx="27" cy="-372" rx="27" ry="18"/>
<text text-anchor="middle" x="27" y="-369.5" font-family="Helvetica,sans-Serif" font-size="10.00">Y</text>
</g>
</g>
</svg>
