<?xml version="1.0" encoding="UTF-8" standalone="no"?>
<!DOCTYPE svg PUBLIC "-//W3C//DTD SVG 1.1//EN"
 "http://www.w3.org/Graphics/SVG/1.1/DTD/svg11.dtd">
<!-- Generated by graphviz version 2.43.0 (0)
 -->
<!-- Title: D Pages: 1 -->
<svg width="324pt" height="260pt"
 viewBox="0.00 0.00 324.00 260.00" xmlns="http://www.w3.org/2000/svg" xmlns:xlink="http://www.w3.org/1999/xlink">
<g id="graph0" class="graph" transform="scale(1 1) rotate(0) translate(4 256)">
<title>D</title>
<polygon fill="white" stroke="transparent" points="-4,4 -4,-256 320,-256 320,4 -4,4"/>
<!-- A1 -->
<g id="node1" class="node">
<title>A1</title>
<ellipse fill="none" stroke="black" cx="43" cy="-18" rx="27" ry="18"/>
<text text-anchor="middle" x="43" y="-15.5" font-family="Helvetica,sans-Serif" font-size="10.00">A1</text>
</g>
<!-- A2 -->
<g id="node2" class="node">
<title>A2</title>
<ellipse fill="none" stroke="black" cx="269.5" cy="-18" rx="27" ry="18"/>
<text text-anchor="middle" x="269.5" y="-15.5" font-family="Helvetica,sans-Serif" font-size="10.00">A2</text>
</g>
<!-- A1&#45;&gt;A2 -->
<g id="edge1" class="edge">
<title>A1&#45;&gt;A2</title>
<path fill="none" stroke="gray" d="M70.19,-18C110.24,-18 186.81,-18 232.2,-18"/>
<polygon fill="gray" stroke="gray" points="232.47,-21.5 242.47,-18 232.47,-14.5 232.47,-21.5"/>
<text text-anchor="middle" x="154.5" y="-21" font-family="Times,serif" font-style="italic" font-size="10.00">a flow</text>
</g>
<!-- B1 -->
<g id="node3" class="node">
<title>B1</title>
<ellipse fill="none" stroke="black" cx="43" cy="-72" rx="27" ry="18"/>
<text text-anchor="middle" x="43" y="-69.5" font-family="Helvetica,sans-Serif" font-size="10.00">B1</text>
</g>
<!-- B2 -->
<g id="node4" class="node">
<title>B2</title>
<ellipse fill="none" stroke="black" cx="269.5" cy="-72" rx="27" ry="18"/>
<text text-anchor="middle" x="269.5" y="-69.5" font-family="Helvetica,sans-Serif" font-size="10.00">B2</text>
</g>
<!-- B1&#45;&gt;B2 -->
<g id="edge2" class="edge">
<title>B1&#45;&gt;B2</title>
<path fill="none" stroke="gray" d="M80.21,-72C122.09,-72 190.63,-72 232.45,-72"/>
<polygon fill="gray" stroke="gray" points="80.19,-68.5 70.19,-72 80.19,-75.5 80.19,-68.5"/>
<polygon fill="gray" stroke="gray" points="232.47,-75.5 242.47,-72 232.47,-68.5 232.47,-75.5"/>
<text text-anchor="middle" x="154.5" y="-75" font-family="Times,serif" font-style="italic" font-size="10.00">a bi&#45;directional flow</text>
</g>
<!-- C1 -->
<g id="node5" class="node">
<title>C1</title>
<ellipse fill="none" stroke="black" cx="43" cy="-126" rx="27" ry="18"/>
<text text-anchor="middle" x="43" y="-123.5" font-family="Helvetica,sans-Serif" font-size="10.00">C1</text>
</g>
<!-- C2 -->
<g id="node6" class="node">
<title>C2</title>
<ellipse fill="none" stroke="black" cx="269.5" cy="-126" rx="27" ry="18"/>
<text text-anchor="middle" x="269.5" y="-123.5" font-family="Helvetica,sans-Serif" font-size="10.00">C2</text>
</g>
<!-- C1&#45;&gt;C2 -->
<g id="edge3" class="edge">
<title>C1&#45;&gt;C2</title>
<path fill="none" stroke="gray" stroke-dasharray="5,2" d="M70.19,-126C110.24,-126 186.81,-126 232.2,-126"/>
<polygon fill="gray" stroke="gray" points="232.47,-129.5 242.47,-126 232.47,-122.5 232.47,-129.5"/>
<text text-anchor="middle" x="154.5" y="-129" font-family="Times,serif" font-style="italic" font-size="10.00">a signal</text>
</g>
<!-- D -->
<g id="node7" class="node">
<title>D</title>
<ellipse fill="none" stroke="black" cx="269.5" cy="-180" rx="27" ry="18"/>
<text text-anchor="middle" x="269.5" y="-177.5" font-family="Helvetica,sans-Serif" font-size="10.00">D</text>
</g>
<!-- E -->
<g id="node8" class="node">
<title>E</title>
<ellipse fill="none" stroke="black" cx="43" cy="-234" rx="27" ry="18"/>
<text text-anchor="middle" x="43" y="-231.5" font-family="Helvetica,sans-Serif" font-size="10.00">E</text>
</g>
<!-- __star_1__ -->
<g id="node10" class="node">
<title>__star_1__</title>
<text text-anchor="middle" x="269.5" y="-237" font-family="Times,serif" font-style="italic" font-size="10.00">an untargetted</text>
<text text-anchor="middle" x="269.5" y="-226" font-family="Times,serif" font-style="italic" font-size="10.00">connection</text>
</g>
<!-- E&#45;&gt;__star_1__ -->
<g id="edge5" class="edge">
<title>E&#45;&gt;__star_1__</title>
<path fill="none" stroke="gray" d="M70.19,-234C104.93,-234 167.13,-234 212.64,-234"/>
<polygon fill="gray" stroke="gray" points="212.66,-237.5 222.66,-234 212.66,-230.5 212.66,-237.5"/>
</g>
<!-- __star_0__ -->
<g id="node9" class="node">
<title>__star_0__</title>
<text text-anchor="middle" x="43" y="-183" font-family="Times,serif" font-style="italic" font-size="10.00">an unsourced</text>
<text text-anchor="middle" x="43" y="-172" font-family="Times,serif" font-style="italic" font-size="10.00">connection</text>
</g>
<!-- __star_0__&#45;&gt;D -->
<g id="edge4" class="edge">
<title>__star_0__&#45;&gt;D</title>
<path fill="none" stroke="gray" d="M86.23,-180C128.32,-180 192.28,-180 232.17,-180"/>
<polygon fill="gray" stroke="gray" points="232.25,-183.5 242.25,-180 232.25,-176.5 232.25,-183.5"/>
</g>
</g>
</svg>
