<?xml version="1.0" encoding="UTF-8" standalone="no"?>
<!DOCTYPE svg PUBLIC "-//W3C//DTD SVG 1.1//EN"
 "http://www.w3.org/Graphics/SVG/1.1/DTD/svg11.dtd">
<!-- Generated by graphviz version 2.43.0 (0)
 -->
<!-- Title: D Pages: 1 -->
<svg width="278pt" height="193pt"
 viewBox="0.00 0.00 278.00 193.00" xmlns="http://www.w3.org/2000/svg" xmlns:xlink="http://www.w3.org/1999/xlink">
<g id="graph0" class="graph" transform="scale(1 1) rotate(0) translate(4 189)">
<title>D</title>
<polygon fill="white" stroke="transparent" points="-4,4 -4,-189 274,-189 274,4 -4,4"/>
<!-- P1 -->
<g id="node1" class="node">
<title>P1</title>
<ellipse fill="#eeeeee" stroke="black" cx="43" cy="-113" rx="27" ry="18"/>
<text text-anchor="middle" x="43" y="-110.5" font-family="Helvetica,sans-Serif" font-size="10.00">P1</text>
</g>
<!-- P2 -->
<g id="node2" class="node">
<title>P2</title>
<ellipse fill="#eeeeee" stroke="black" cx="223.5" cy="-68" rx="27" ry="18"/>
<text text-anchor="middle" x="223.5" y="-65.5" font-family="Helvetica,sans-Serif" font-size="10.00">P2</text>
</g>
<!-- P1&#45;&gt;P2 -->
<g id="edge1" class="edge">
<title>P1&#45;&gt;P2</title>
<path fill="none" stroke="gray" d="M68.56,-119.57C92.38,-124.74 129.2,-129.48 159,-119 175.26,-113.28 190.43,-101.45 201.86,-90.62"/>
<polygon fill="gray" stroke="gray" points="204.52,-92.9 209.15,-83.37 199.59,-87.94 204.52,-92.9"/>
<text text-anchor="middle" x="131.5" y="-128" font-family="Times,serif" font-style="italic" font-size="10.00">a flow</text>
</g>
<!-- P1&#45;&gt;P2 -->
<g id="edge2" class="edge">
<title>P1&#45;&gt;P2</title>
<path fill="none" stroke="gray" d="M72.1,-95.83C81.88,-90.59 93.13,-85.33 104,-82 130.74,-73.81 162.24,-70.36 186.04,-68.94"/>
<polygon fill="gray" stroke="gray" points="70.25,-92.86 63.24,-100.8 73.67,-98.97 70.25,-92.86"/>
<polygon fill="gray" stroke="gray" points="186.25,-72.43 196.06,-68.43 185.89,-65.44 186.25,-72.43"/>
<text text-anchor="middle" x="131.5" y="-107" font-family="Times,serif" font-style="italic" font-size="10.00">a bi&#45;</text>
<text text-anchor="middle" x="131.5" y="-96" font-family="Times,serif" font-style="italic" font-size="10.00">directional</text>
<text text-anchor="middle" x="131.5" y="-85" font-family="Times,serif" font-style="italic" font-size="10.00">flow</text>
</g>
<!-- P1&#45;&gt;P2 -->
<g id="edge3" class="edge">
<title>P1&#45;&gt;P2</title>
<path fill="none" stroke="gray" stroke-dasharray="5,2" d="M55.47,-96.98C66.25,-83.44 83.72,-64.99 104,-57 131.42,-46.19 165.06,-50.84 189.49,-57.08"/>
<polygon fill="gray" stroke="gray" points="188.78,-60.51 199.35,-59.81 190.65,-53.77 188.78,-60.51"/>
<text text-anchor="middle" x="131.5" y="-60" font-family="Times,serif" font-style="italic" font-size="10.00">a signal</text>
</g>
<!-- __star_1__ -->
<g id="node4" class="node">
<title>__star_1__</title>
<text text-anchor="middle" x="223.5" y="-170" font-family="Times,serif" font-style="italic" font-size="10.00">an untargetted</text>
<text text-anchor="middle" x="223.5" y="-159" font-family="Times,serif" font-style="italic" font-size="10.00">signal</text>
</g>
<!-- P1&#45;&gt;__star_1__ -->
<g id="edge5" class="edge">
<title>P1&#45;&gt;__star_1__</title>
<path fill="none" stroke="gray" stroke-dasharray="5,2" d="M64.97,-123.67C76.31,-129.13 90.68,-135.53 104,-140 124.2,-146.77 146.89,-152.4 166.97,-156.73"/>
<polygon fill="gray" stroke="gray" points="166.39,-160.19 176.9,-158.82 167.83,-153.34 166.39,-160.19"/>
</g>
<!-- __star_0__ -->
<g id="node3" class="node">
<title>__star_0__</title>
<text text-anchor="middle" x="43" y="-21" font-family="Times,serif" font-style="italic" font-size="10.00">an unsourced</text>
<text text-anchor="middle" x="43" y="-10" font-family="Times,serif" font-style="italic" font-size="10.00">flow</text>
</g>
<!-- __star_0__&#45;&gt;P2 -->
<g id="edge4" class="edge">
<title>__star_0__&#45;&gt;P2</title>
<path fill="none" stroke="gray" d="M86.25,-27.88C108.08,-33.18 135.08,-40.04 159,-47 168.93,-49.89 179.64,-53.31 189.38,-56.54"/>
<polygon fill="gray" stroke="gray" points="188.51,-59.94 199.1,-59.81 190.74,-53.31 188.51,-59.94"/>
</g>
</g>
</svg>
