<?xml version="1.0" encoding="UTF-8" standalone="no"?>
<!DOCTYPE svg PUBLIC "-//W3C//DTD SVG 1.1//EN"
 "http://www.w3.org/Graphics/SVG/1.1/DTD/svg11.dtd">
<!-- Generated by graphviz version 2.43.0 (0)
 -->
<!-- Title: D Pages: 1 -->
<svg width="295pt" height="334pt"
 viewBox="0.00 0.00 295.00 334.00" xmlns="http://www.w3.org/2000/svg" xmlns:xlink="http://www.w3.org/1999/xlink">
<g id="graph0" class="graph" transform="scale(1 1) rotate(0) translate(4 330)">
<title>D</title>
<polygon fill="white" stroke="transparent" points="-4,4 -4,-330 291,-330 291,4 -4,4"/>
<text text-anchor="middle" x="143.5" y="-6.8" font-family="Helvetica,sans-Serif" font-size="9.00">[ connections ]</text>
<!-- A1 -->
<g id="node1" class="node">
<title>A1</title>
<ellipse fill="#eeeeee" stroke="black" cx="43" cy="-36" rx="27" ry="18"/>
<text text-anchor="middle" x="43" y="-33.5" font-family="Helvetica,sans-Serif" font-size="10.00">A1</text>
</g>
<!-- A2 -->
<g id="node2" class="node">
<title>A2</title>
<ellipse fill="#eeeeee" stroke="black" cx="240.5" cy="-36" rx="27" ry="18"/>
<text text-anchor="middle" x="240.5" y="-33.5" font-family="Helvetica,sans-Serif" font-size="10.00">A2</text>
</g>
<!-- A1&#45;&gt;A2 -->
<g id="edge1" class="edge">
<title>A1&#45;&gt;A2</title>
<path fill="none" stroke="gray" d="M70.37,-36C104.57,-36 164.4,-36 202.97,-36"/>
<polygon fill="gray" stroke="gray" points="203.24,-39.5 213.24,-36 203.24,-32.5 203.24,-39.5"/>
<text text-anchor="middle" x="140" y="-39" font-family="Times,serif" font-style="italic" font-size="10.00">a flow</text>
</g>
<!-- B1 -->
<g id="node3" class="node">
<title>B1</title>
<ellipse fill="#eeeeee" stroke="black" cx="43" cy="-90" rx="27" ry="18"/>
<text text-anchor="middle" x="43" y="-87.5" font-family="Helvetica,sans-Serif" font-size="10.00">B1</text>
</g>
<!-- B2 -->
<g id="node4" class="node">
<title>B2</title>
<ellipse fill="#eeeeee" stroke="black" cx="240.5" cy="-90" rx="27" ry="18"/>
<text text-anchor="middle" x="240.5" y="-87.5" font-family="Helvetica,sans-Serif" font-size="10.00">B2</text>
</g>
<!-- B1&#45;&gt;B2 -->
<g id="edge2" class="edge">
<title>B1&#45;&gt;B2</title>
<path fill="none" stroke="gray" d="M80.65,-90C115.64,-90 168.06,-90 203,-90"/>
<polygon fill="gray" stroke="gray" points="80.37,-86.5 70.37,-90 80.37,-93.5 80.37,-86.5"/>
<polygon fill="gray" stroke="gray" points="203.24,-93.5 213.24,-90 203.24,-86.5 203.24,-93.5"/>
<text text-anchor="middle" x="140" y="-115" font-family="Times,serif" font-style="italic" font-size="10.00">a bi&#45;</text>
<text text-anchor="middle" x="140" y="-104" font-family="Times,serif" font-style="italic" font-size="10.00">directional</text>
<text text-anchor="middle" x="140" y="-93" font-family="Times,serif" font-style="italic" font-size="10.00">flow</text>
</g>
<!-- C1 -->
<g id="node5" class="node">
<title>C1</title>
<ellipse fill="#eeeeee" stroke="black" cx="43" cy="-146" rx="27" ry="18"/>
<text text-anchor="middle" x="43" y="-143.5" font-family="Helvetica,sans-Serif" font-size="10.00">C1</text>
</g>
<!-- C2 -->
<g id="node6" class="node">
<title>C2</title>
<ellipse fill="#eeeeee" stroke="black" cx="240.5" cy="-146" rx="27" ry="18"/>
<text text-anchor="middle" x="240.5" y="-143.5" font-family="Helvetica,sans-Serif" font-size="10.00">C2</text>
</g>
<!-- C1&#45;&gt;C2 -->
<g id="edge3" class="edge">
<title>C1&#45;&gt;C2</title>
<path fill="none" stroke="gray" stroke-dasharray="5,2" d="M70.37,-146C104.57,-146 164.4,-146 202.97,-146"/>
<polygon fill="gray" stroke="gray" points="203.24,-149.5 213.24,-146 203.24,-142.5 203.24,-149.5"/>
<text text-anchor="middle" x="140" y="-149" font-family="Times,serif" font-style="italic" font-size="10.00">a signal</text>
</g>
<!-- D1 -->
<g id="node7" class="node">
<title>D1</title>
<ellipse fill="#eeeeee" stroke="black" cx="43" cy="-200" rx="27" ry="18"/>
<text text-anchor="middle" x="43" y="-197.5" font-family="Helvetica,sans-Serif" font-size="10.00">D1</text>
</g>
<!-- D2 -->
<g id="node8" class="node">
<title>D2</title>
<ellipse fill="#eeeeee" stroke="black" cx="240.5" cy="-200" rx="27" ry="18"/>
<text text-anchor="middle" x="240.5" y="-197.5" font-family="Helvetica,sans-Serif" font-size="10.00">D2</text>
</g>
<!-- D1&#45;&gt;D2 -->
<g id="edge4" class="edge">
<title>D1&#45;&gt;D2</title>
<path fill="none" stroke="gray" d="M70.37,-200C107.78,-200 175.88,-200 213.24,-200"/>
<text text-anchor="middle" x="140" y="-214" font-family="Times,serif" font-style="italic" font-size="10.00">an undirected</text>
<text text-anchor="middle" x="140" y="-203" font-family="Times,serif" font-style="italic" font-size="10.00">flow</text>
</g>
<!-- D -->
<g id="node9" class="node">
<title>D</title>
<ellipse fill="#eeeeee" stroke="black" cx="240.5" cy="-254" rx="27" ry="18"/>
<text text-anchor="middle" x="240.5" y="-251.5" font-family="Helvetica,sans-Serif" font-size="10.00">D</text>
</g>
<!-- E -->
<g id="node10" class="node">
<title>E</title>
<ellipse fill="#eeeeee" stroke="black" cx="43" cy="-308" rx="27" ry="18"/>
<text text-anchor="middle" x="43" y="-305.5" font-family="Helvetica,sans-Serif" font-size="10.00">E</text>
</g>
<!-- __star_1__ -->
<g id="node12" class="node">
<title>__star_1__</title>
<text text-anchor="middle" x="240.5" y="-311" font-family="Times,serif" font-style="italic" font-size="10.00">an untargetted</text>
<text text-anchor="middle" x="240.5" y="-300" font-family="Times,serif" font-style="italic" font-size="10.00">signal</text>
</g>
<!-- E&#45;&gt;__star_1__ -->
<g id="edge6" class="edge">
<title>E&#45;&gt;__star_1__</title>
<path fill="none" stroke="gray" stroke-dasharray="5,2" d="M70.37,-308C99.23,-308 146.36,-308 183.55,-308"/>
<polygon fill="gray" stroke="gray" points="183.75,-311.5 193.75,-308 183.75,-304.5 183.75,-311.5"/>
</g>
<!-- __star_0__ -->
<g id="node11" class="node">
<title>__star_0__</title>
<text text-anchor="middle" x="43" y="-257" font-family="Times,serif" font-style="italic" font-size="10.00">an unsourced</text>
<text text-anchor="middle" x="43" y="-246" font-family="Times,serif" font-style="italic" font-size="10.00">flow</text>
</g>
<!-- __star_0__&#45;&gt;D -->
<g id="edge5" class="edge">
<title>__star_0__&#45;&gt;D</title>
<path fill="none" stroke="gray" d="M86.42,-254C121.28,-254 170.14,-254 203.21,-254"/>
<polygon fill="gray" stroke="gray" points="203.35,-257.5 213.35,-254 203.35,-250.5 203.35,-257.5"/>
</g>
</g>
</svg>
