<?xml version="1.0" encoding="UTF-8" standalone="no"?>
<!DOCTYPE svg PUBLIC "-//W3C//DTD SVG 1.1//EN"
 "http://www.w3.org/Graphics/SVG/1.1/DTD/svg11.dtd">
<!-- Generated by graphviz version 2.43.0 (0)
 -->
<!-- Title: D Pages: 1 -->
<svg width="295pt" height="398pt"
 viewBox="0.00 0.00 295.00 398.00" xmlns="http://www.w3.org/2000/svg" xmlns:xlink="http://www.w3.org/1999/xlink">
<g id="graph0" class="graph" transform="scale(1 1) rotate(0) translate(4 394)">
<title>D</title>
<polygon fill="white" stroke="transparent" points="-4,4 -4,-394 291,-394 291,4 -4,4"/>
<text text-anchor="middle" x="143.5" y="-6.8" font-family="Helvetica,sans-Serif" font-size="9.00" fill="#000060">&#45; connections &#45;</text>
<!-- A1 -->
<g id="node1" class="node">
<title>A1</title>
<ellipse fill="#eeeeee" stroke="black" cx="43" cy="-46" rx="27" ry="18"/>
<text text-anchor="middle" x="43" y="-43.5" font-family="Helvetica,sans-Serif" font-size="10.00">A1</text>
</g>
<!-- A2 -->
<g id="node2" class="node">
<title>A2</title>
<ellipse fill="#eeeeee" stroke="black" cx="240.5" cy="-46" rx="27" ry="18"/>
<text text-anchor="middle" x="240.5" y="-43.5" font-family="Helvetica,sans-Serif" font-size="10.00">A2</text>
</g>
<!-- A1&#45;&gt;A2 -->
<g id="edge1" class="edge">
<title>A1&#45;&gt;A2</title>
<path fill="none" stroke="gray" d="M70.37,-46C104.57,-46 164.4,-46 202.97,-46"/>
<polygon fill="gray" stroke="gray" points="203.24,-49.5 213.24,-46 203.24,-42.5 203.24,-49.5"/>
<text text-anchor="middle" x="140" y="-49" font-family="Times,serif" font-style="italic" font-size="10.00">a flow</text>
</g>
<!-- B1 -->
<g id="node3" class="node">
<title>B1</title>
<ellipse fill="#eeeeee" stroke="black" cx="43" cy="-100" rx="27" ry="18"/>
<text text-anchor="middle" x="43" y="-97.5" font-family="Helvetica,sans-Serif" font-size="10.00">B1</text>
</g>
<!-- B2 -->
<g id="node4" class="node">
<title>B2</title>
<ellipse fill="#eeeeee" stroke="black" cx="240.5" cy="-100" rx="27" ry="18"/>
<text text-anchor="middle" x="240.5" y="-97.5" font-family="Helvetica,sans-Serif" font-size="10.00">B2</text>
</g>
<!-- B1&#45;&gt;B2 -->
<g id="edge2" class="edge">
<title>B1&#45;&gt;B2</title>
<path fill="none" stroke="gray" d="M70.37,-100C101.79,-100 154.86,-100 193.18,-100"/>
<polygon fill="gray" stroke="gray" points="213.24,-100 203.24,-104.5 208.24,-100 203.24,-100 203.24,-100 203.24,-100 208.24,-100 203.24,-95.5 213.24,-100 213.24,-100"/>
<polygon fill="gray" stroke="gray" points="203.24,-100 193.24,-104.5 198.24,-100 193.24,-100 193.24,-100 193.24,-100 198.24,-100 193.24,-95.5 203.24,-100 203.24,-100"/>
<text text-anchor="middle" x="140" y="-114" font-family="Times,serif" font-style="italic" font-size="10.00">a continuous</text>
<text text-anchor="middle" x="140" y="-103" font-family="Times,serif" font-style="italic" font-size="10.00">flow</text>
</g>
<!-- C1 -->
<g id="node5" class="node">
<title>C1</title>
<ellipse fill="#eeeeee" stroke="black" cx="43" cy="-154" rx="27" ry="18"/>
<text text-anchor="middle" x="43" y="-151.5" font-family="Helvetica,sans-Serif" font-size="10.00">C1</text>
</g>
<!-- C2 -->
<g id="node6" class="node">
<title>C2</title>
<ellipse fill="#eeeeee" stroke="black" cx="240.5" cy="-154" rx="27" ry="18"/>
<text text-anchor="middle" x="240.5" y="-151.5" font-family="Helvetica,sans-Serif" font-size="10.00">C2</text>
</g>
<!-- C1&#45;&gt;C2 -->
<g id="edge3" class="edge">
<title>C1&#45;&gt;C2</title>
<path fill="none" stroke="gray" d="M80.65,-154C115.64,-154 168.06,-154 203,-154"/>
<polygon fill="gray" stroke="gray" points="80.37,-150.5 70.37,-154 80.37,-157.5 80.37,-150.5"/>
<polygon fill="gray" stroke="gray" points="203.24,-157.5 213.24,-154 203.24,-150.5 203.24,-157.5"/>
<text text-anchor="middle" x="140" y="-179" font-family="Times,serif" font-style="italic" font-size="10.00">a bi&#45;</text>
<text text-anchor="middle" x="140" y="-168" font-family="Times,serif" font-style="italic" font-size="10.00">directional</text>
<text text-anchor="middle" x="140" y="-157" font-family="Times,serif" font-style="italic" font-size="10.00">flow</text>
</g>
<!-- D1 -->
<g id="node7" class="node">
<title>D1</title>
<ellipse fill="#eeeeee" stroke="black" cx="43" cy="-210" rx="27" ry="18"/>
<text text-anchor="middle" x="43" y="-207.5" font-family="Helvetica,sans-Serif" font-size="10.00">D1</text>
</g>
<!-- D2 -->
<g id="node8" class="node">
<title>D2</title>
<ellipse fill="#eeeeee" stroke="black" cx="240.5" cy="-210" rx="27" ry="18"/>
<text text-anchor="middle" x="240.5" y="-207.5" font-family="Helvetica,sans-Serif" font-size="10.00">D2</text>
</g>
<!-- D1&#45;&gt;D2 -->
<g id="edge4" class="edge">
<title>D1&#45;&gt;D2</title>
<path fill="none" stroke="gray" stroke-dasharray="5,2" d="M70.37,-210C104.57,-210 164.4,-210 202.97,-210"/>
<polygon fill="gray" stroke="gray" points="203.24,-213.5 213.24,-210 203.24,-206.5 203.24,-213.5"/>
<text text-anchor="middle" x="140" y="-213" font-family="Times,serif" font-style="italic" font-size="10.00">a signal</text>
</g>
<!-- E1 -->
<g id="node9" class="node">
<title>E1</title>
<ellipse fill="#eeeeee" stroke="black" cx="43" cy="-264" rx="27" ry="18"/>
<text text-anchor="middle" x="43" y="-261.5" font-family="Helvetica,sans-Serif" font-size="10.00">E1</text>
</g>
<!-- E2 -->
<g id="node10" class="node">
<title>E2</title>
<ellipse fill="#eeeeee" stroke="black" cx="240.5" cy="-264" rx="27" ry="18"/>
<text text-anchor="middle" x="240.5" y="-261.5" font-family="Helvetica,sans-Serif" font-size="10.00">E2</text>
</g>
<!-- E1&#45;&gt;E2 -->
<g id="edge5" class="edge">
<title>E1&#45;&gt;E2</title>
<path fill="none" stroke="gray" d="M70.37,-264C107.78,-264 175.88,-264 213.24,-264"/>
<text text-anchor="middle" x="140" y="-278" font-family="Times,serif" font-style="italic" font-size="10.00">an undirected</text>
<text text-anchor="middle" x="140" y="-267" font-family="Times,serif" font-style="italic" font-size="10.00">flow</text>
</g>
<!-- X -->
<g id="node11" class="node">
<title>X</title>
<ellipse fill="#eeeeee" stroke="black" cx="240.5" cy="-318" rx="27" ry="18"/>
<text text-anchor="middle" x="240.5" y="-315.5" font-family="Helvetica,sans-Serif" font-size="10.00">X</text>
</g>
<!-- Y -->
<g id="node12" class="node">
<title>Y</title>
<ellipse fill="#eeeeee" stroke="black" cx="43" cy="-372" rx="27" ry="18"/>
<text text-anchor="middle" x="43" y="-369.5" font-family="Helvetica,sans-Serif" font-size="10.00">Y</text>
</g>
<!-- __star_1__ -->
<g id="node14" class="node">
<title>__star_1__</title>
<text text-anchor="middle" x="240.5" y="-375" font-family="Times,serif" font-style="italic" font-size="10.00">an untargetted</text>
<text text-anchor="middle" x="240.5" y="-364" font-family="Times,serif" font-style="italic" font-size="10.00">signal</text>
</g>
<!-- Y&#45;&gt;__star_1__ -->
<g id="edge7" class="edge">
<title>Y&#45;&gt;__star_1__</title>
<path fill="none" stroke="gray" stroke-dasharray="5,2" d="M70.37,-372C99.23,-372 146.36,-372 183.55,-372"/>
<polygon fill="gray" stroke="gray" points="183.75,-375.5 193.75,-372 183.75,-368.5 183.75,-375.5"/>
</g>
<!-- __star_0__ -->
<g id="node13" class="node">
<title>__star_0__</title>
<text text-anchor="middle" x="43" y="-321" font-family="Times,serif" font-style="italic" font-size="10.00">an unsourced</text>
<text text-anchor="middle" x="43" y="-310" font-family="Times,serif" font-style="italic" font-size="10.00">flow</text>
</g>
<!-- __star_0__&#45;&gt;X -->
<g id="edge6" class="edge">
<title>__star_0__&#45;&gt;X</title>
<path fill="none" stroke="gray" d="M86.42,-318C121.28,-318 170.14,-318 203.21,-318"/>
<polygon fill="gray" stroke="gray" points="203.35,-321.5 213.35,-318 203.35,-314.5 203.35,-321.5"/>
</g>
</g>
</svg>
