<?xml version="1.0" encoding="UTF-8" standalone="no"?>
<!DOCTYPE svg PUBLIC "-//W3C//DTD SVG 1.1//EN"
 "http://www.w3.org/Graphics/SVG/1.1/DTD/svg11.dtd">
<!-- Generated by graphviz version 2.43.0 (0)
 -->
<!-- Title: D Pages: 1 -->
<svg width="423pt" height="263pt"
 viewBox="0.00 0.00 423.00 263.00" xmlns="http://www.w3.org/2000/svg" xmlns:xlink="http://www.w3.org/1999/xlink">
<g id="graph0" class="graph" transform="scale(1 1) rotate(0) translate(4 259)">
<title>D</title>
<polygon fill="white" stroke="transparent" points="-4,4 -4,-259 419,-259 419,4 -4,4"/>
<!-- A1 -->
<g id="node1" class="node">
<title>A1</title>
<ellipse fill="none" stroke="black" cx="56.5" cy="-18" rx="27" ry="18"/>
<text text-anchor="middle" x="56.5" y="-14.3" font-family="Helvetica,sans-Serif" font-size="14.00">A1</text>
</g>
<!-- A2 -->
<g id="node2" class="node">
<title>A2</title>
<ellipse fill="none" stroke="black" cx="353" cy="-18" rx="27" ry="18"/>
<text text-anchor="middle" x="353" y="-14.3" font-family="Helvetica,sans-Serif" font-size="14.00">A2</text>
</g>
<!-- A1&#45;&gt;A2 -->
<g id="edge1" class="edge">
<title>A1&#45;&gt;A2</title>
<path fill="none" stroke="gray" d="M83.63,-18C136.36,-18 255.54,-18 315.74,-18"/>
<polygon fill="gray" stroke="gray" points="315.92,-21.5 325.92,-18 315.92,-14.5 315.92,-21.5"/>
<text text-anchor="middle" x="202" y="-21.8" font-family="Times,serif" font-style="italic" font-size="14.00">a flow</text>
</g>
<!-- B1 -->
<g id="node3" class="node">
<title>B1</title>
<ellipse fill="none" stroke="black" cx="56.5" cy="-72" rx="27" ry="18"/>
<text text-anchor="middle" x="56.5" y="-68.3" font-family="Helvetica,sans-Serif" font-size="14.00">B1</text>
</g>
<!-- B2 -->
<g id="node4" class="node">
<title>B2</title>
<ellipse fill="none" stroke="black" cx="353" cy="-72" rx="27" ry="18"/>
<text text-anchor="middle" x="353" y="-68.3" font-family="Helvetica,sans-Serif" font-size="14.00">B2</text>
</g>
<!-- B1&#45;&gt;B2 -->
<g id="edge2" class="edge">
<title>B1&#45;&gt;B2</title>
<path fill="none" stroke="gray" d="M93.82,-72C150.42,-72 259.04,-72 315.65,-72"/>
<polygon fill="gray" stroke="gray" points="93.63,-68.5 83.63,-72 93.63,-75.5 93.63,-68.5"/>
<polygon fill="gray" stroke="gray" points="315.92,-75.5 325.92,-72 315.92,-68.5 315.92,-75.5"/>
<text text-anchor="middle" x="202" y="-75.8" font-family="Times,serif" font-style="italic" font-size="14.00">a bi&#45;directional flow</text>
</g>
<!-- C1 -->
<g id="node5" class="node">
<title>C1</title>
<ellipse fill="none" stroke="black" cx="56.5" cy="-126" rx="27" ry="18"/>
<text text-anchor="middle" x="56.5" y="-122.3" font-family="Helvetica,sans-Serif" font-size="14.00">C1</text>
</g>
<!-- C2 -->
<g id="node6" class="node">
<title>C2</title>
<ellipse fill="none" stroke="black" cx="353" cy="-126" rx="27" ry="18"/>
<text text-anchor="middle" x="353" y="-122.3" font-family="Helvetica,sans-Serif" font-size="14.00">C2</text>
</g>
<!-- C1&#45;&gt;C2 -->
<g id="edge3" class="edge">
<title>C1&#45;&gt;C2</title>
<path fill="none" stroke="gray" stroke-dasharray="5,2" d="M83.63,-126C136.36,-126 255.54,-126 315.74,-126"/>
<polygon fill="gray" stroke="gray" points="315.92,-129.5 325.92,-126 315.92,-122.5 315.92,-129.5"/>
<text text-anchor="middle" x="202" y="-129.8" font-family="Times,serif" font-style="italic" font-size="14.00">a signal</text>
</g>
<!-- D -->
<g id="node7" class="node">
<title>D</title>
<ellipse fill="none" stroke="black" cx="353" cy="-181" rx="27" ry="18"/>
<text text-anchor="middle" x="353" y="-177.3" font-family="Helvetica,sans-Serif" font-size="14.00">D</text>
</g>
<!-- E -->
<g id="node8" class="node">
<title>E</title>
<ellipse fill="none" stroke="black" cx="56.5" cy="-236" rx="27" ry="18"/>
<text text-anchor="middle" x="56.5" y="-232.3" font-family="Helvetica,sans-Serif" font-size="14.00">E</text>
</g>
<!-- __star_1__ -->
<g id="node10" class="node">
<title>__star_1__</title>
<text text-anchor="middle" x="353" y="-239.8" font-family="Times,serif" font-style="italic" font-size="14.00">an untargetted</text>
<text text-anchor="middle" x="353" y="-224.8" font-family="Times,serif" font-style="italic" font-size="14.00">connection</text>
</g>
<!-- E&#45;&gt;__star_1__ -->
<g id="edge5" class="edge">
<title>E&#45;&gt;__star_1__</title>
<path fill="none" stroke="gray" d="M83.63,-236C127.37,-236 216.85,-236 280.45,-236"/>
<polygon fill="gray" stroke="gray" points="280.82,-239.5 290.82,-236 280.82,-232.5 280.82,-239.5"/>
</g>
<!-- __star_0__ -->
<g id="node9" class="node">
<title>__star_0__</title>
<text text-anchor="middle" x="56.5" y="-184.8" font-family="Times,serif" font-style="italic" font-size="14.00">an unsourced</text>
<text text-anchor="middle" x="56.5" y="-169.8" font-family="Times,serif" font-style="italic" font-size="14.00">connection</text>
</g>
<!-- __star_0__&#45;&gt;D -->
<g id="edge4" class="edge">
<title>__star_0__&#45;&gt;D</title>
<path fill="none" stroke="gray" d="M113.24,-181C172.71,-181 265.17,-181 315.81,-181"/>
<polygon fill="gray" stroke="gray" points="315.96,-184.5 325.96,-181 315.96,-177.5 315.96,-184.5"/>
</g>
</g>
</svg>
