<?xml version="1.0" encoding="UTF-8" standalone="no"?>
<!DOCTYPE svg PUBLIC "-//W3C//DTD SVG 1.1//EN"
 "http://www.w3.org/Graphics/SVG/1.1/DTD/svg11.dtd">
<!-- Generated by graphviz version 2.43.0 (0)
 -->
<!-- Title: D Pages: 1 -->
<svg width="295pt" height="344pt"
 viewBox="0.00 0.00 295.00 344.00" xmlns="http://www.w3.org/2000/svg" xmlns:xlink="http://www.w3.org/1999/xlink">
<g id="graph0" class="graph" transform="scale(1 1) rotate(0) translate(4 340)">
<title>D</title>
<polygon fill="white" stroke="transparent" points="-4,4 -4,-340 291,-340 291,4 -4,4"/>
<text text-anchor="middle" x="143.5" y="-6.8" font-family="Helvetica,sans-Serif" font-size="9.00" fill="#000060">&#45; connections &#45;</text>
<!-- A1 -->
<g id="node1" class="node">
<title>A1</title>
<ellipse fill="#eeeeee" stroke="black" cx="43" cy="-46" rx="27" ry="18"/>
<text text-anchor="middle" x="43" y="-43.5" font-family="Helvetica,sans-Serif" font-size="10.00">A1</text>
</g>
<!-- A2 -->
<g id="node2" class="node">
<title>A2</title>
<ellipse fill="#eeeeee" stroke="black" cx="240.5" cy="-46" rx="27" ry="18"/>
<text text-anchor="middle" x="240.5" y="-43.5" font-family="Helvetica,sans-Serif" font-size="10.00">A2</text>
</g>
<!-- A1&#45;&gt;A2 -->
<g id="edge1" class="edge">
<title>A1&#45;&gt;A2</title>
<path fill="none" stroke="gray" d="M70.37,-46C104.57,-46 164.4,-46 202.97,-46"/>
<polygon fill="gray" stroke="gray" points="203.24,-49.5 213.24,-46 203.24,-42.5 203.24,-49.5"/>
<text text-anchor="middle" x="140" y="-49" font-family="Times,serif" font-style="italic" font-size="10.00">a flow</text>
</g>
<!-- B1 -->
<g id="node3" class="node">
<title>B1</title>
<ellipse fill="#eeeeee" stroke="black" cx="43" cy="-100" rx="27" ry="18"/>
<text text-anchor="middle" x="43" y="-97.5" font-family="Helvetica,sans-Serif" font-size="10.00">B1</text>
</g>
<!-- B2 -->
<g id="node4" class="node">
<title>B2</title>
<ellipse fill="#eeeeee" stroke="black" cx="240.5" cy="-100" rx="27" ry="18"/>
<text text-anchor="middle" x="240.5" y="-97.5" font-family="Helvetica,sans-Serif" font-size="10.00">B2</text>
</g>
<!-- B1&#45;&gt;B2 -->
<g id="edge2" class="edge">
<title>B1&#45;&gt;B2</title>
<path fill="none" stroke="gray" d="M80.65,-100C115.64,-100 168.06,-100 203,-100"/>
<polygon fill="gray" stroke="gray" points="80.37,-96.5 70.37,-100 80.37,-103.5 80.37,-96.5"/>
<polygon fill="gray" stroke="gray" points="203.24,-103.5 213.24,-100 203.24,-96.5 203.24,-103.5"/>
<text text-anchor="middle" x="140" y="-125" font-family="Times,serif" font-style="italic" font-size="10.00">a bi&#45;</text>
<text text-anchor="middle" x="140" y="-114" font-family="Times,serif" font-style="italic" font-size="10.00">directional</text>
<text text-anchor="middle" x="140" y="-103" font-family="Times,serif" font-style="italic" font-size="10.00">flow</text>
</g>
<!-- C1 -->
<g id="node5" class="node">
<title>C1</title>
<ellipse fill="#eeeeee" stroke="black" cx="43" cy="-156" rx="27" ry="18"/>
<text text-anchor="middle" x="43" y="-153.5" font-family="Helvetica,sans-Serif" font-size="10.00">C1</text>
</g>
<!-- C2 -->
<g id="node6" class="node">
<title>C2</title>
<ellipse fill="#eeeeee" stroke="black" cx="240.5" cy="-156" rx="27" ry="18"/>
<text text-anchor="middle" x="240.5" y="-153.5" font-family="Helvetica,sans-Serif" font-size="10.00">C2</text>
</g>
<!-- C1&#45;&gt;C2 -->
<g id="edge3" class="edge">
<title>C1&#45;&gt;C2</title>
<path fill="none" stroke="gray" stroke-dasharray="5,2" d="M70.37,-156C104.57,-156 164.4,-156 202.97,-156"/>
<polygon fill="gray" stroke="gray" points="203.24,-159.5 213.24,-156 203.24,-152.5 203.24,-159.5"/>
<text text-anchor="middle" x="140" y="-159" font-family="Times,serif" font-style="italic" font-size="10.00">a signal</text>
</g>
<!-- D1 -->
<g id="node7" class="node">
<title>D1</title>
<ellipse fill="#eeeeee" stroke="black" cx="43" cy="-210" rx="27" ry="18"/>
<text text-anchor="middle" x="43" y="-207.5" font-family="Helvetica,sans-Serif" font-size="10.00">D1</text>
</g>
<!-- D2 -->
<g id="node8" class="node">
<title>D2</title>
<ellipse fill="#eeeeee" stroke="black" cx="240.5" cy="-210" rx="27" ry="18"/>
<text text-anchor="middle" x="240.5" y="-207.5" font-family="Helvetica,sans-Serif" font-size="10.00">D2</text>
</g>
<!-- D1&#45;&gt;D2 -->
<g id="edge4" class="edge">
<title>D1&#45;&gt;D2</title>
<path fill="none" stroke="gray" d="M70.37,-210C107.78,-210 175.88,-210 213.24,-210"/>
<text text-anchor="middle" x="140" y="-224" font-family="Times,serif" font-style="italic" font-size="10.00">an undirected</text>
<text text-anchor="middle" x="140" y="-213" font-family="Times,serif" font-style="italic" font-size="10.00">flow</text>
</g>
<!-- D -->
<g id="node9" class="node">
<title>D</title>
<ellipse fill="#eeeeee" stroke="black" cx="240.5" cy="-264" rx="27" ry="18"/>
<text text-anchor="middle" x="240.5" y="-261.5" font-family="Helvetica,sans-Serif" font-size="10.00">D</text>
</g>
<!-- E -->
<g id="node10" class="node">
<title>E</title>
<ellipse fill="#eeeeee" stroke="black" cx="43" cy="-318" rx="27" ry="18"/>
<text text-anchor="middle" x="43" y="-315.5" font-family="Helvetica,sans-Serif" font-size="10.00">E</text>
</g>
<!-- __star_1__ -->
<g id="node12" class="node">
<title>__star_1__</title>
<text text-anchor="middle" x="240.5" y="-321" font-family="Times,serif" font-style="italic" font-size="10.00">an untargetted</text>
<text text-anchor="middle" x="240.5" y="-310" font-family="Times,serif" font-style="italic" font-size="10.00">signal</text>
</g>
<!-- E&#45;&gt;__star_1__ -->
<g id="edge6" class="edge">
<title>E&#45;&gt;__star_1__</title>
<path fill="none" stroke="gray" stroke-dasharray="5,2" d="M70.37,-318C99.23,-318 146.36,-318 183.55,-318"/>
<polygon fill="gray" stroke="gray" points="183.75,-321.5 193.75,-318 183.75,-314.5 183.75,-321.5"/>
</g>
<!-- __star_0__ -->
<g id="node11" class="node">
<title>__star_0__</title>
<text text-anchor="middle" x="43" y="-267" font-family="Times,serif" font-style="italic" font-size="10.00">an unsourced</text>
<text text-anchor="middle" x="43" y="-256" font-family="Times,serif" font-style="italic" font-size="10.00">flow</text>
</g>
<!-- __star_0__&#45;&gt;D -->
<g id="edge5" class="edge">
<title>__star_0__&#45;&gt;D</title>
<path fill="none" stroke="gray" d="M86.42,-264C121.28,-264 170.14,-264 203.21,-264"/>
<polygon fill="gray" stroke="gray" points="203.35,-267.5 213.35,-264 203.35,-260.5 203.35,-267.5"/>
</g>
</g>
</svg>
