<?xml version="1.0" encoding="UTF-8" standalone="no"?>
<!DOCTYPE svg PUBLIC "-//W3C//DTD SVG 1.1//EN"
 "http://www.w3.org/Graphics/SVG/1.1/DTD/svg11.dtd">
<!-- Generated by graphviz version 2.43.0 (0)
 -->
<!-- Title: D Pages: 1 -->
<svg width="278pt" height="221pt"
 viewBox="0.00 0.00 278.00 221.00" xmlns="http://www.w3.org/2000/svg" xmlns:xlink="http://www.w3.org/1999/xlink">
<g id="graph0" class="graph" transform="scale(1 1) rotate(0) translate(4 217)">
<title>D</title>
<polygon fill="white" stroke="transparent" points="-4,4 -4,-217 274,-217 274,4 -4,4"/>
<text text-anchor="middle" x="135" y="-6.8" font-family="Helvetica,sans-Serif" font-size="9.00" fill="#000060">&#45; connections&#45;sugar &#45;</text>
<!-- P1 -->
<g id="node1" class="node">
<title>P1</title>
<ellipse fill="#eeeeee" stroke="black" cx="43" cy="-141" rx="27" ry="18"/>
<text text-anchor="middle" x="43" y="-138.5" font-family="Helvetica,sans-Serif" font-size="10.00">P1</text>
</g>
<!-- P2 -->
<g id="node2" class="node">
<title>P2</title>
<ellipse fill="#eeeeee" stroke="black" cx="223.5" cy="-96" rx="27" ry="18"/>
<text text-anchor="middle" x="223.5" y="-93.5" font-family="Helvetica,sans-Serif" font-size="10.00">P2</text>
</g>
<!-- P1&#45;&gt;P2 -->
<g id="edge1" class="edge">
<title>P1&#45;&gt;P2</title>
<path fill="none" stroke="gray" d="M68.56,-147.57C92.38,-152.74 129.2,-157.48 159,-147 175.26,-141.28 190.43,-129.45 201.86,-118.62"/>
<polygon fill="gray" stroke="gray" points="204.52,-120.9 209.15,-111.37 199.59,-115.94 204.52,-120.9"/>
<text text-anchor="middle" x="131.5" y="-156" font-family="Times,serif" font-style="italic" font-size="10.00">a flow</text>
</g>
<!-- P1&#45;&gt;P2 -->
<g id="edge2" class="edge">
<title>P1&#45;&gt;P2</title>
<path fill="none" stroke="gray" d="M72.1,-123.83C81.88,-118.59 93.13,-113.33 104,-110 130.74,-101.81 162.24,-98.36 186.04,-96.94"/>
<polygon fill="gray" stroke="gray" points="70.25,-120.86 63.24,-128.8 73.67,-126.97 70.25,-120.86"/>
<polygon fill="gray" stroke="gray" points="186.25,-100.43 196.06,-96.43 185.89,-93.44 186.25,-100.43"/>
<text text-anchor="middle" x="131.5" y="-135" font-family="Times,serif" font-style="italic" font-size="10.00">a bi&#45;</text>
<text text-anchor="middle" x="131.5" y="-124" font-family="Times,serif" font-style="italic" font-size="10.00">directional</text>
<text text-anchor="middle" x="131.5" y="-113" font-family="Times,serif" font-style="italic" font-size="10.00">flow</text>
</g>
<!-- P1&#45;&gt;P2 -->
<g id="edge3" class="edge">
<title>P1&#45;&gt;P2</title>
<path fill="none" stroke="gray" stroke-dasharray="5,2" d="M55.47,-124.98C66.25,-111.44 83.72,-92.99 104,-85 131.42,-74.19 165.06,-78.84 189.49,-85.08"/>
<polygon fill="gray" stroke="gray" points="188.78,-88.51 199.35,-87.81 190.65,-81.77 188.78,-88.51"/>
<text text-anchor="middle" x="131.5" y="-88" font-family="Times,serif" font-style="italic" font-size="10.00">a signal</text>
</g>
<!-- __star_1__ -->
<g id="node4" class="node">
<title>__star_1__</title>
<text text-anchor="middle" x="223.5" y="-198" font-family="Times,serif" font-style="italic" font-size="10.00">an untargetted</text>
<text text-anchor="middle" x="223.5" y="-187" font-family="Times,serif" font-style="italic" font-size="10.00">signal</text>
</g>
<!-- P1&#45;&gt;__star_1__ -->
<g id="edge5" class="edge">
<title>P1&#45;&gt;__star_1__</title>
<path fill="none" stroke="gray" stroke-dasharray="5,2" d="M64.97,-151.67C76.31,-157.13 90.68,-163.53 104,-168 124.2,-174.77 146.89,-180.4 166.97,-184.73"/>
<polygon fill="gray" stroke="gray" points="166.39,-188.19 176.9,-186.82 167.83,-181.34 166.39,-188.19"/>
</g>
<!-- __star_0__ -->
<g id="node3" class="node">
<title>__star_0__</title>
<text text-anchor="middle" x="43" y="-49" font-family="Times,serif" font-style="italic" font-size="10.00">an unsourced</text>
<text text-anchor="middle" x="43" y="-38" font-family="Times,serif" font-style="italic" font-size="10.00">flow</text>
</g>
<!-- __star_0__&#45;&gt;P2 -->
<g id="edge4" class="edge">
<title>__star_0__&#45;&gt;P2</title>
<path fill="none" stroke="gray" d="M86.25,-55.88C108.08,-61.18 135.08,-68.04 159,-75 168.93,-77.89 179.64,-81.31 189.38,-84.54"/>
<polygon fill="gray" stroke="gray" points="188.51,-87.94 199.1,-87.81 190.74,-81.31 188.51,-87.94"/>
</g>
</g>
</svg>
