<?xml version="1.0" encoding="UTF-8" standalone="no"?>
<!DOCTYPE svg PUBLIC "-//W3C//DTD SVG 1.1//EN"
 "http://www.w3.org/Graphics/SVG/1.1/DTD/svg11.dtd">
<!-- Generated by graphviz version 2.43.0 (0)
 -->
<!-- Title: D Pages: 1 -->
<svg width="218pt" height="161pt"
 viewBox="0.00 0.00 218.00 160.53" xmlns="http://www.w3.org/2000/svg" xmlns:xlink="http://www.w3.org/1999/xlink">
<g id="graph0" class="graph" transform="scale(1 1) rotate(0) translate(4 156.53)">
<title>D</title>
<polygon fill="white" stroke="transparent" points="-4,4 -4,-156.53 214,-156.53 214,4 -4,4"/>
<text text-anchor="middle" x="105" y="-6.8" font-family="Helvetica,sans-Serif" font-size="9.00" fill="#000060">&#45; connections&#45;sugar &#45;</text>
<!-- P1 -->
<g id="node1" class="node">
<title>P1</title>
<ellipse fill="#eeeeee" stroke="black" cx="27" cy="-81.53" rx="27" ry="18"/>
<text text-anchor="middle" x="27" y="-79.03" font-family="Helvetica,sans-Serif" font-size="10.00">P1</text>
</g>
<!-- P2 -->
<g id="node2" class="node">
<title>P2</title>
<ellipse fill="#eeeeee" stroke="black" cx="183" cy="-81.53" rx="27" ry="18"/>
<text text-anchor="middle" x="183" y="-79.03" font-family="Helvetica,sans-Serif" font-size="10.00">P2</text>
</g>
<!-- P1&#45;&gt;P2 -->
<g id="edge1" class="edge">
<title>P1&#45;&gt;P2</title>
<path fill="none" stroke="gray" d="M37.11,-98.25C44.68,-110.26 56.69,-125.52 72,-132.53 98.67,-144.75 111.33,-144.75 138,-132.53 149.84,-127.11 159.71,-116.75 167.08,-106.78"/>
<polygon fill="gray" stroke="gray" points="170.15,-108.48 172.89,-98.25 164.37,-104.54 170.15,-108.48"/>
<text text-anchor="middle" x="105" y="-144.53" font-family="Times,serif" font-style="italic" font-size="10.00">a flow</text>
</g>
<!-- P1&#45;&gt;P2 -->
<g id="edge2" class="edge">
<title>P1&#45;&gt;P2</title>
<path fill="none" stroke="gray" d="M64.34,-81.53C88.79,-81.53 120.92,-81.53 145.42,-81.53"/>
<polygon fill="gray" stroke="gray" points="64.12,-78.03 54.12,-81.53 64.12,-85.03 64.12,-78.03"/>
<polygon fill="gray" stroke="gray" points="145.75,-85.03 155.75,-81.53 145.75,-78.03 145.75,-85.03"/>
<text text-anchor="middle" x="105" y="-106.53" font-family="Times,serif" font-style="italic" font-size="10.00">a bi&#45;</text>
<text text-anchor="middle" x="105" y="-95.53" font-family="Times,serif" font-style="italic" font-size="10.00">directional</text>
<text text-anchor="middle" x="105" y="-84.53" font-family="Times,serif" font-style="italic" font-size="10.00">flow</text>
</g>
<!-- P1&#45;&gt;P2 -->
<g id="edge3" class="edge">
<title>P1&#45;&gt;P2</title>
<path fill="none" stroke="gray" stroke-dasharray="5,2" d="M50.47,-72.29C57.27,-69.93 64.83,-67.72 72,-66.53 100.94,-61.74 109.06,-61.74 138,-66.53 141.92,-67.18 145.96,-68.14 149.92,-69.25"/>
<polygon fill="gray" stroke="gray" points="148.94,-72.61 159.53,-72.29 151.05,-65.94 148.94,-72.61"/>
<text text-anchor="middle" x="105" y="-69.53" font-family="Times,serif" font-style="italic" font-size="10.00">a signal</text>
</g>
<!-- P1&#45;&gt;P2 -->
<g id="edge4" class="edge">
<title>P1&#45;&gt;P2</title>
<path fill="none" stroke="gray" d="M52.22,-50C58.05,-44.51 64.72,-39.6 72,-36.53 99.04,-25.16 110.96,-25.16 138,-36.53 151.7,-42.3 163.26,-54.64 171.09,-64.94"/>
<polygon fill="gray" stroke="gray" points="42.95,-55.14 38.91,-64.94 48.18,-59.8 42.95,-55.14"/>
<polygon fill="gray" stroke="gray" points="49.6,-47.67 45.56,-57.47 54.83,-52.33 49.6,-47.67"/>
<text text-anchor="middle" x="105" y="-50.53" font-family="Times,serif" font-style="italic" font-size="10.00">a continuous</text>
<text text-anchor="middle" x="105" y="-39.53" font-family="Times,serif" font-style="italic" font-size="10.00">back flow</text>
</g>
</g>
</svg>
