<?xml version="1.0" encoding="UTF-8" standalone="no"?>
<!DOCTYPE svg PUBLIC "-//W3C//DTD SVG 1.1//EN"
 "http://www.w3.org/Graphics/SVG/1.1/DTD/svg11.dtd">
<!-- Generated by graphviz version 2.43.0 (0)
 -->
<!-- Title: D Pages: 1 -->
<svg width="278pt" height="211pt"
 viewBox="0.00 0.00 278.00 211.00" xmlns="http://www.w3.org/2000/svg" xmlns:xlink="http://www.w3.org/1999/xlink">
<g id="graph0" class="graph" transform="scale(1 1) rotate(0) translate(4 207)">
<title>D</title>
<polygon fill="white" stroke="transparent" points="-4,4 -4,-207 274,-207 274,4 -4,4"/>
<text text-anchor="middle" x="135" y="-6.8" font-family="Helvetica,sans-Serif" font-size="9.00">[ connections&#45;sugar ]</text>
<!-- P1 -->
<g id="node1" class="node">
<title>P1</title>
<ellipse fill="#eeeeee" stroke="black" cx="43" cy="-131" rx="27" ry="18"/>
<text text-anchor="middle" x="43" y="-128.5" font-family="Helvetica,sans-Serif" font-size="10.00">P1</text>
</g>
<!-- P2 -->
<g id="node2" class="node">
<title>P2</title>
<ellipse fill="#eeeeee" stroke="black" cx="223.5" cy="-86" rx="27" ry="18"/>
<text text-anchor="middle" x="223.5" y="-83.5" font-family="Helvetica,sans-Serif" font-size="10.00">P2</text>
</g>
<!-- P1&#45;&gt;P2 -->
<g id="edge1" class="edge">
<title>P1&#45;&gt;P2</title>
<path fill="none" stroke="gray" d="M68.56,-137.57C92.38,-142.74 129.2,-147.48 159,-137 175.26,-131.28 190.43,-119.45 201.86,-108.62"/>
<polygon fill="gray" stroke="gray" points="204.52,-110.9 209.15,-101.37 199.59,-105.94 204.52,-110.9"/>
<text text-anchor="middle" x="131.5" y="-146" font-family="Times,serif" font-style="italic" font-size="10.00">a flow</text>
</g>
<!-- P1&#45;&gt;P2 -->
<g id="edge2" class="edge">
<title>P1&#45;&gt;P2</title>
<path fill="none" stroke="gray" d="M72.1,-113.83C81.88,-108.59 93.13,-103.33 104,-100 130.74,-91.81 162.24,-88.36 186.04,-86.94"/>
<polygon fill="gray" stroke="gray" points="70.25,-110.86 63.24,-118.8 73.67,-116.97 70.25,-110.86"/>
<polygon fill="gray" stroke="gray" points="186.25,-90.43 196.06,-86.43 185.89,-83.44 186.25,-90.43"/>
<text text-anchor="middle" x="131.5" y="-125" font-family="Times,serif" font-style="italic" font-size="10.00">a bi&#45;</text>
<text text-anchor="middle" x="131.5" y="-114" font-family="Times,serif" font-style="italic" font-size="10.00">directional</text>
<text text-anchor="middle" x="131.5" y="-103" font-family="Times,serif" font-style="italic" font-size="10.00">flow</text>
</g>
<!-- P1&#45;&gt;P2 -->
<g id="edge3" class="edge">
<title>P1&#45;&gt;P2</title>
<path fill="none" stroke="gray" stroke-dasharray="5,2" d="M55.47,-114.98C66.25,-101.44 83.72,-82.99 104,-75 131.42,-64.19 165.06,-68.84 189.49,-75.08"/>
<polygon fill="gray" stroke="gray" points="188.78,-78.51 199.35,-77.81 190.65,-71.77 188.78,-78.51"/>
<text text-anchor="middle" x="131.5" y="-78" font-family="Times,serif" font-style="italic" font-size="10.00">a signal</text>
</g>
<!-- __star_1__ -->
<g id="node4" class="node">
<title>__star_1__</title>
<text text-anchor="middle" x="223.5" y="-188" font-family="Times,serif" font-style="italic" font-size="10.00">an untargetted</text>
<text text-anchor="middle" x="223.5" y="-177" font-family="Times,serif" font-style="italic" font-size="10.00">signal</text>
</g>
<!-- P1&#45;&gt;__star_1__ -->
<g id="edge5" class="edge">
<title>P1&#45;&gt;__star_1__</title>
<path fill="none" stroke="gray" stroke-dasharray="5,2" d="M64.97,-141.67C76.31,-147.13 90.68,-153.53 104,-158 124.2,-164.77 146.89,-170.4 166.97,-174.73"/>
<polygon fill="gray" stroke="gray" points="166.39,-178.19 176.9,-176.82 167.83,-171.34 166.39,-178.19"/>
</g>
<!-- __star_0__ -->
<g id="node3" class="node">
<title>__star_0__</title>
<text text-anchor="middle" x="43" y="-39" font-family="Times,serif" font-style="italic" font-size="10.00">an unsourced</text>
<text text-anchor="middle" x="43" y="-28" font-family="Times,serif" font-style="italic" font-size="10.00">flow</text>
</g>
<!-- __star_0__&#45;&gt;P2 -->
<g id="edge4" class="edge">
<title>__star_0__&#45;&gt;P2</title>
<path fill="none" stroke="gray" d="M86.25,-45.88C108.08,-51.18 135.08,-58.04 159,-65 168.93,-67.89 179.64,-71.31 189.38,-74.54"/>
<polygon fill="gray" stroke="gray" points="188.51,-77.94 199.1,-77.81 190.74,-71.31 188.51,-77.94"/>
</g>
</g>
</svg>
