<?xml version="1.0" encoding="UTF-8" standalone="no"?>
<!DOCTYPE svg PUBLIC "-//W3C//DTD SVG 1.1//EN"
 "http://www.w3.org/Graphics/SVG/1.1/DTD/svg11.dtd">
<!-- Generated by graphviz version 2.43.0 (0)
 -->
<!-- Title: D Pages: 1 -->
<svg width="295pt" height="316pt"
 viewBox="0.00 0.00 295.00 316.00" xmlns="http://www.w3.org/2000/svg" xmlns:xlink="http://www.w3.org/1999/xlink">
<g id="graph0" class="graph" transform="scale(1 1) rotate(0) translate(4 312)">
<title>D</title>
<polygon fill="white" stroke="transparent" points="-4,4 -4,-312 291,-312 291,4 -4,4"/>
<!-- A1 -->
<g id="node1" class="node">
<title>A1</title>
<ellipse fill="#eeeeee" stroke="black" cx="43" cy="-18" rx="27" ry="18"/>
<text text-anchor="middle" x="43" y="-15.5" font-family="Helvetica,sans-Serif" font-size="10.00">A1</text>
</g>
<!-- A2 -->
<g id="node2" class="node">
<title>A2</title>
<ellipse fill="#eeeeee" stroke="black" cx="240.5" cy="-18" rx="27" ry="18"/>
<text text-anchor="middle" x="240.5" y="-15.5" font-family="Helvetica,sans-Serif" font-size="10.00">A2</text>
</g>
<!-- A1&#45;&gt;A2 -->
<g id="edge1" class="edge">
<title>A1&#45;&gt;A2</title>
<path fill="none" stroke="gray" d="M70.37,-18C104.57,-18 164.4,-18 202.97,-18"/>
<polygon fill="gray" stroke="gray" points="203.24,-21.5 213.24,-18 203.24,-14.5 203.24,-21.5"/>
<text text-anchor="middle" x="140" y="-21" font-family="Times,serif" font-style="italic" font-size="10.00">a flow</text>
</g>
<!-- B1 -->
<g id="node3" class="node">
<title>B1</title>
<ellipse fill="#eeeeee" stroke="black" cx="43" cy="-72" rx="27" ry="18"/>
<text text-anchor="middle" x="43" y="-69.5" font-family="Helvetica,sans-Serif" font-size="10.00">B1</text>
</g>
<!-- B2 -->
<g id="node4" class="node">
<title>B2</title>
<ellipse fill="#eeeeee" stroke="black" cx="240.5" cy="-72" rx="27" ry="18"/>
<text text-anchor="middle" x="240.5" y="-69.5" font-family="Helvetica,sans-Serif" font-size="10.00">B2</text>
</g>
<!-- B1&#45;&gt;B2 -->
<g id="edge2" class="edge">
<title>B1&#45;&gt;B2</title>
<path fill="none" stroke="gray" d="M80.65,-72C115.64,-72 168.06,-72 203,-72"/>
<polygon fill="gray" stroke="gray" points="80.37,-68.5 70.37,-72 80.37,-75.5 80.37,-68.5"/>
<polygon fill="gray" stroke="gray" points="203.24,-75.5 213.24,-72 203.24,-68.5 203.24,-75.5"/>
<text text-anchor="middle" x="140" y="-97" font-family="Times,serif" font-style="italic" font-size="10.00">a bi&#45;</text>
<text text-anchor="middle" x="140" y="-86" font-family="Times,serif" font-style="italic" font-size="10.00">directional</text>
<text text-anchor="middle" x="140" y="-75" font-family="Times,serif" font-style="italic" font-size="10.00">flow</text>
</g>
<!-- C1 -->
<g id="node5" class="node">
<title>C1</title>
<ellipse fill="#eeeeee" stroke="black" cx="43" cy="-128" rx="27" ry="18"/>
<text text-anchor="middle" x="43" y="-125.5" font-family="Helvetica,sans-Serif" font-size="10.00">C1</text>
</g>
<!-- C2 -->
<g id="node6" class="node">
<title>C2</title>
<ellipse fill="#eeeeee" stroke="black" cx="240.5" cy="-128" rx="27" ry="18"/>
<text text-anchor="middle" x="240.5" y="-125.5" font-family="Helvetica,sans-Serif" font-size="10.00">C2</text>
</g>
<!-- C1&#45;&gt;C2 -->
<g id="edge3" class="edge">
<title>C1&#45;&gt;C2</title>
<path fill="none" stroke="gray" stroke-dasharray="5,2" d="M70.37,-128C104.57,-128 164.4,-128 202.97,-128"/>
<polygon fill="gray" stroke="gray" points="203.24,-131.5 213.24,-128 203.24,-124.5 203.24,-131.5"/>
<text text-anchor="middle" x="140" y="-131" font-family="Times,serif" font-style="italic" font-size="10.00">a signal</text>
</g>
<!-- D1 -->
<g id="node7" class="node">
<title>D1</title>
<ellipse fill="#eeeeee" stroke="black" cx="43" cy="-182" rx="27" ry="18"/>
<text text-anchor="middle" x="43" y="-179.5" font-family="Helvetica,sans-Serif" font-size="10.00">D1</text>
</g>
<!-- D2 -->
<g id="node8" class="node">
<title>D2</title>
<ellipse fill="#eeeeee" stroke="black" cx="240.5" cy="-182" rx="27" ry="18"/>
<text text-anchor="middle" x="240.5" y="-179.5" font-family="Helvetica,sans-Serif" font-size="10.00">D2</text>
</g>
<!-- D1&#45;&gt;D2 -->
<g id="edge4" class="edge">
<title>D1&#45;&gt;D2</title>
<path fill="none" stroke="gray" d="M70.37,-182C107.78,-182 175.88,-182 213.24,-182"/>
<text text-anchor="middle" x="140" y="-196" font-family="Times,serif" font-style="italic" font-size="10.00">an undirected</text>
<text text-anchor="middle" x="140" y="-185" font-family="Times,serif" font-style="italic" font-size="10.00">flow</text>
</g>
<!-- D -->
<g id="node9" class="node">
<title>D</title>
<ellipse fill="#eeeeee" stroke="black" cx="240.5" cy="-236" rx="27" ry="18"/>
<text text-anchor="middle" x="240.5" y="-233.5" font-family="Helvetica,sans-Serif" font-size="10.00">D</text>
</g>
<!-- E -->
<g id="node10" class="node">
<title>E</title>
<ellipse fill="#eeeeee" stroke="black" cx="43" cy="-290" rx="27" ry="18"/>
<text text-anchor="middle" x="43" y="-287.5" font-family="Helvetica,sans-Serif" font-size="10.00">E</text>
</g>
<!-- __star_1__ -->
<g id="node12" class="node">
<title>__star_1__</title>
<text text-anchor="middle" x="240.5" y="-293" font-family="Times,serif" font-style="italic" font-size="10.00">an untargetted</text>
<text text-anchor="middle" x="240.5" y="-282" font-family="Times,serif" font-style="italic" font-size="10.00">signal</text>
</g>
<!-- E&#45;&gt;__star_1__ -->
<g id="edge6" class="edge">
<title>E&#45;&gt;__star_1__</title>
<path fill="none" stroke="gray" stroke-dasharray="5,2" d="M70.37,-290C99.23,-290 146.36,-290 183.55,-290"/>
<polygon fill="gray" stroke="gray" points="183.75,-293.5 193.75,-290 183.75,-286.5 183.75,-293.5"/>
</g>
<!-- __star_0__ -->
<g id="node11" class="node">
<title>__star_0__</title>
<text text-anchor="middle" x="43" y="-239" font-family="Times,serif" font-style="italic" font-size="10.00">an unsourced</text>
<text text-anchor="middle" x="43" y="-228" font-family="Times,serif" font-style="italic" font-size="10.00">flow</text>
</g>
<!-- __star_0__&#45;&gt;D -->
<g id="edge5" class="edge">
<title>__star_0__&#45;&gt;D</title>
<path fill="none" stroke="gray" d="M86.42,-236C121.28,-236 170.14,-236 203.21,-236"/>
<polygon fill="gray" stroke="gray" points="203.35,-239.5 213.35,-236 203.35,-232.5 203.35,-239.5"/>
</g>
</g>
</svg>
