<?xml version="1.0" encoding="UTF-8" standalone="no"?>
<!DOCTYPE svg PUBLIC "-//W3C//DTD SVG 1.1//EN"
 "http://www.w3.org/Graphics/SVG/1.1/DTD/svg11.dtd">
<!-- Generated by graphviz version 2.43.0 (0)
 -->
<!-- Title: D Pages: 1 -->
<svg width="289pt" height="266pt"
 viewBox="0.00 0.00 289.00 266.00" xmlns="http://www.w3.org/2000/svg" xmlns:xlink="http://www.w3.org/1999/xlink">
<g id="graph0" class="graph" transform="scale(1 1) rotate(0) translate(4 262)">
<title>D</title>
<polygon fill="white" stroke="transparent" points="-4,4 -4,-262 285,-262 285,4 -4,4"/>
<text text-anchor="middle" x="140.5" y="-6.8" font-family="Helvetica,sans-Serif" font-size="9.00" fill="#000060">&#45; connections&#45;sugar &#45;</text>
<!-- P1 -->
<g id="node1" class="node">
<title>P1</title>
<ellipse fill="#eeeeee" stroke="black" cx="43" cy="-158" rx="27" ry="18"/>
<text text-anchor="middle" x="43" y="-155.5" font-family="Helvetica,sans-Serif" font-size="10.00">P1</text>
</g>
<!-- P2 -->
<g id="node2" class="node">
<title>P2</title>
<ellipse fill="#eeeeee" stroke="black" cx="234.5" cy="-124" rx="27" ry="18"/>
<text text-anchor="middle" x="234.5" y="-121.5" font-family="Helvetica,sans-Serif" font-size="10.00">P2</text>
</g>
<!-- P1&#45;&gt;P2 -->
<g id="edge1" class="edge">
<title>P1&#45;&gt;P2</title>
<path fill="none" stroke="gray" d="M61.58,-171.19C73.01,-178.92 88.6,-187.94 104,-192 132.36,-199.48 143.1,-203.69 170,-192 190.06,-183.28 206.67,-164.76 217.86,-149.25"/>
<polygon fill="gray" stroke="gray" points="221.05,-150.78 223.81,-140.55 215.27,-146.83 221.05,-150.78"/>
<text text-anchor="middle" x="137" y="-202" font-family="Times,serif" font-style="italic" font-size="10.00">a flow</text>
</g>
<!-- P1&#45;&gt;P2 -->
<g id="edge2" class="edge">
<title>P1&#45;&gt;P2</title>
<path fill="none" stroke="gray" d="M79.46,-151.94C104.72,-147.6 139.47,-141.55 170,-136 179.14,-134.34 189.02,-132.5 198.19,-130.76"/>
<polygon fill="gray" stroke="gray" points="78.86,-148.5 69.6,-153.64 80.05,-155.39 78.86,-148.5"/>
<polygon fill="gray" stroke="gray" points="199,-134.17 208.18,-128.87 197.7,-127.29 199,-134.17"/>
<text text-anchor="middle" x="137" y="-173" font-family="Times,serif" font-style="italic" font-size="10.00">a bi&#45;</text>
<text text-anchor="middle" x="137" y="-162" font-family="Times,serif" font-style="italic" font-size="10.00">directional</text>
<text text-anchor="middle" x="137" y="-151" font-family="Times,serif" font-style="italic" font-size="10.00">flow</text>
</g>
<!-- P1&#45;&gt;P2 -->
<g id="edge3" class="edge">
<title>P1&#45;&gt;P2</title>
<path fill="none" stroke="gray" stroke-dasharray="5,2" d="M61.26,-144.6C72.69,-136.61 88.4,-127.22 104,-123 135.04,-114.61 171.82,-115.9 198.23,-118.68"/>
<polygon fill="gray" stroke="gray" points="197.82,-122.16 208.16,-119.85 198.64,-115.21 197.82,-122.16"/>
<text text-anchor="middle" x="137" y="-126" font-family="Times,serif" font-style="italic" font-size="10.00">a signal</text>
</g>
<!-- P1&#45;&gt;P2 -->
<g id="edge4" class="edge">
<title>P1&#45;&gt;P2</title>
<path fill="none" stroke="gray" d="M64.98,-124.32C75.04,-111.36 88.32,-98.01 104,-91 130.78,-79.03 141.5,-84.04 170,-91 186.17,-94.95 202.81,-103.81 215,-111.35"/>
<polygon fill="gray" stroke="gray" points="56.18,-130.89 53.36,-141.1 61.93,-134.87 56.18,-130.89"/>
<polygon fill="gray" stroke="gray" points="61.87,-122.67 59.06,-132.88 67.63,-126.65 61.87,-122.67"/>
<text text-anchor="middle" x="137" y="-105" font-family="Times,serif" font-style="italic" font-size="10.00">a continuous</text>
<text text-anchor="middle" x="137" y="-94" font-family="Times,serif" font-style="italic" font-size="10.00">back flow</text>
</g>
<!-- __star_1__ -->
<g id="node4" class="node">
<title>__star_1__</title>
<text text-anchor="middle" x="234.5" y="-243" font-family="Times,serif" font-style="italic" font-size="10.00">an untargetted</text>
<text text-anchor="middle" x="234.5" y="-232" font-family="Times,serif" font-style="italic" font-size="10.00">signal</text>
</g>
<!-- P1&#45;&gt;__star_1__ -->
<g id="edge6" class="edge">
<title>P1&#45;&gt;__star_1__</title>
<path fill="none" stroke="gray" stroke-dasharray="5,2" d="M56.56,-173.83C67.66,-186.69 84.99,-204.23 104,-214 126.67,-225.64 154.06,-232.08 177.8,-235.63"/>
<polygon fill="gray" stroke="gray" points="177.34,-239.1 187.72,-236.98 178.29,-232.17 177.34,-239.1"/>
</g>
<!-- __star_0__ -->
<g id="node3" class="node">
<title>__star_0__</title>
<text text-anchor="middle" x="43" y="-49" font-family="Times,serif" font-style="italic" font-size="10.00">an unsourced</text>
<text text-anchor="middle" x="43" y="-38" font-family="Times,serif" font-style="italic" font-size="10.00">flow</text>
</g>
<!-- __star_0__&#45;&gt;P2 -->
<g id="edge5" class="edge">
<title>__star_0__&#45;&gt;P2</title>
<path fill="none" stroke="gray" d="M86.11,-53.59C111.21,-59.02 143.29,-67.59 170,-80 183.67,-86.35 197.57,-95.6 208.87,-103.98"/>
<polygon fill="gray" stroke="gray" points="206.88,-106.87 216.95,-110.16 211.13,-101.31 206.88,-106.87"/>
</g>
</g>
</svg>
