<?xml version="1.0" encoding="UTF-8" standalone="no"?>
<!DOCTYPE svg PUBLIC "-//W3C//DTD SVG 1.1//EN"
 "http://www.w3.org/Graphics/SVG/1.1/DTD/svg11.dtd">
<!-- Generated by graphviz version 2.43.0 (0)
 -->
<!-- Title: D Pages: 1 -->
<svg width="89pt" height="206pt"
 viewBox="0.00 0.00 89.00 206.00" xmlns="http://www.w3.org/2000/svg" xmlns:xlink="http://www.w3.org/1999/xlink">
<g id="graph0" class="graph" transform="scale(1 1) rotate(0) translate(4 202)">
<title>D</title>
<polygon fill="white" stroke="transparent" points="-4,4 -4,-202 85,-202 85,4 -4,4"/>
<text text-anchor="middle" x="40.5" y="-6.8" font-family="Helvetica,sans-Serif" font-size="9.00">[ constraint ]</text>
<!-- P1 -->
<g id="node1" class="node">
<title>P1</title>
<ellipse fill="#eeeeee" stroke="black" cx="54" cy="-180" rx="27" ry="18"/>
<text text-anchor="middle" x="54" y="-177.5" font-family="Helvetica,sans-Serif" font-size="10.00">P1</text>
</g>
<!-- P2 -->
<g id="node2" class="node">
<title>P2</title>
<ellipse fill="#eeeeee" stroke="black" cx="27" cy="-108" rx="27" ry="18"/>
<text text-anchor="middle" x="27" y="-105.5" font-family="Helvetica,sans-Serif" font-size="10.00">P2</text>
</g>
<!-- P1&#45;&gt;P2 -->
<g id="edge1" class="edge">
<title>P1&#45;&gt;P2</title>
<path fill="none" stroke="gray" d="M47.6,-162.41C44.49,-154.34 40.67,-144.43 37.17,-135.35"/>
<polygon fill="gray" stroke="gray" points="40.4,-134.03 33.54,-125.96 33.87,-136.55 40.4,-134.03"/>
</g>
<!-- P3 -->
<g id="node3" class="node">
<title>P3</title>
<ellipse fill="#eeeeee" stroke="black" cx="54" cy="-36" rx="27" ry="18"/>
<text text-anchor="middle" x="54" y="-33.5" font-family="Helvetica,sans-Serif" font-size="10.00">P3</text>
</g>
<!-- P1&#45;&gt;P3 -->
<g id="edge3" class="edge">
<title>P1&#45;&gt;P3</title>
<path fill="none" stroke="gray" d="M57.65,-161.91C59.68,-151.57 61.98,-138.09 63,-126 64.34,-110.06 64.34,-105.94 63,-90 62.28,-81.5 60.93,-72.31 59.49,-64.01"/>
<polygon fill="gray" stroke="gray" points="62.91,-63.29 57.65,-54.09 56.03,-64.56 62.91,-63.29"/>
</g>
<!-- P2&#45;&gt;P3 -->
<g id="edge2" class="edge">
<title>P2&#45;&gt;P3</title>
<path fill="none" stroke="gray" d="M33.4,-90.41C36.51,-82.34 40.33,-72.43 43.83,-63.35"/>
<polygon fill="gray" stroke="gray" points="47.13,-64.55 47.46,-53.96 40.6,-62.03 47.13,-64.55"/>
</g>
</g>
</svg>
