<?xml version="1.0" encoding="UTF-8" standalone="no"?>
<!DOCTYPE svg PUBLIC "-//W3C//DTD SVG 1.1//EN"
 "http://www.w3.org/Graphics/SVG/1.1/DTD/svg11.dtd">
<!-- Generated by graphviz version 2.43.0 (0)
 -->
<!-- Title: D Pages: 1 -->
<svg width="120pt" height="206pt"
 viewBox="0.00 0.00 120.00 206.00" xmlns="http://www.w3.org/2000/svg" xmlns:xlink="http://www.w3.org/1999/xlink">
<g id="graph0" class="graph" transform="scale(1 1) rotate(0) translate(4 202)">
<title>D</title>
<polygon fill="white" stroke="transparent" points="-4,4 -4,-202 116,-202 116,4 -4,4"/>
<text text-anchor="middle" x="56" y="-6.8" font-family="Helvetica,sans-Serif" font-size="9.00">[ constraint&#45;relaxed ]</text>
<!-- P1 -->
<g id="node1" class="node">
<title>P1</title>
<ellipse fill="#eeeeee" stroke="black" cx="49.74" cy="-180" rx="27" ry="18"/>
<text text-anchor="middle" x="49.74" y="-177.5" font-family="Helvetica,sans-Serif" font-size="10.00">P1</text>
</g>
<!-- P2 -->
<g id="node2" class="node">
<title>P2</title>
<ellipse fill="#eeeeee" stroke="black" cx="49.74" cy="-108" rx="27" ry="18"/>
<text text-anchor="middle" x="49.74" y="-105.5" font-family="Helvetica,sans-Serif" font-size="10.00">P2</text>
</g>
<!-- P1&#45;&gt;P2 -->
<g id="edge1" class="edge">
<title>P1&#45;&gt;P2</title>
<path fill="none" stroke="gray" d="M49.74,-161.7C49.74,-153.98 49.74,-144.71 49.74,-136.11"/>
<polygon fill="gray" stroke="gray" points="53.24,-136.1 49.74,-126.1 46.24,-136.1 53.24,-136.1"/>
</g>
<!-- P3 -->
<g id="node3" class="node">
<title>P3</title>
<ellipse fill="#eeeeee" stroke="black" cx="49.74" cy="-36" rx="27" ry="18"/>
<text text-anchor="middle" x="49.74" y="-33.5" font-family="Helvetica,sans-Serif" font-size="10.00">P3</text>
</g>
<!-- P1&#45;&gt;P3 -->
<g id="edge3" class="edge">
<title>P1&#45;&gt;P3</title>
<path fill="none" stroke="gray" d="M63.49,-164.07C71.7,-154.1 81.36,-140.25 85.74,-126 90.44,-110.71 90.44,-105.29 85.74,-90 82.45,-79.31 76.2,-68.85 69.81,-60.08"/>
<polygon fill="gray" stroke="gray" points="72.38,-57.69 63.49,-51.93 66.85,-61.98 72.38,-57.69"/>
</g>
<!-- P2&#45;&gt;P3 -->
<g id="edge2" class="edge">
<title>P2&#45;&gt;P3</title>
<path fill="none" stroke="gray" d="M49.74,-89.7C49.74,-81.98 49.74,-72.71 49.74,-64.11"/>
<polygon fill="gray" stroke="gray" points="53.24,-64.1 49.74,-54.1 46.24,-64.1 53.24,-64.1"/>
</g>
</g>
</svg>
