<?xml version="1.0" encoding="UTF-8" standalone="no"?>
<!DOCTYPE svg PUBLIC "-//W3C//DTD SVG 1.1//EN"
 "http://www.w3.org/Graphics/SVG/1.1/DTD/svg11.dtd">
<!-- Generated by graphviz version 2.43.0 (0)
 -->
<!-- Title: D Pages: 1 -->
<svg width="75pt" height="188pt"
 viewBox="0.00 0.00 74.53 188.00" xmlns="http://www.w3.org/2000/svg" xmlns:xlink="http://www.w3.org/1999/xlink">
<g id="graph0" class="graph" transform="scale(1 1) rotate(0) translate(4 184)">
<title>D</title>
<polygon fill="white" stroke="transparent" points="-4,4 -4,-184 70.53,-184 70.53,4 -4,4"/>
<!-- P1 -->
<g id="node1" class="node">
<title>P1</title>
<ellipse fill="#eeeeee" stroke="black" cx="27" cy="-162" rx="27" ry="18"/>
<text text-anchor="middle" x="27" y="-159.5" font-family="Helvetica,sans-Serif" font-size="10.00">P1</text>
</g>
<!-- P2 -->
<g id="node2" class="node">
<title>P2</title>
<ellipse fill="#eeeeee" stroke="black" cx="27" cy="-90" rx="27" ry="18"/>
<text text-anchor="middle" x="27" y="-87.5" font-family="Helvetica,sans-Serif" font-size="10.00">P2</text>
</g>
<!-- P1&#45;&gt;P2 -->
<g id="edge1" class="edge">
<title>P1&#45;&gt;P2</title>
<path fill="none" stroke="gray" d="M27,-143.7C27,-135.98 27,-126.71 27,-118.11"/>
<polygon fill="gray" stroke="gray" points="30.5,-118.1 27,-108.1 23.5,-118.1 30.5,-118.1"/>
</g>
<!-- P3 -->
<g id="node3" class="node">
<title>P3</title>
<ellipse fill="#eeeeee" stroke="black" cx="27" cy="-18" rx="27" ry="18"/>
<text text-anchor="middle" x="27" y="-15.5" font-family="Helvetica,sans-Serif" font-size="10.00">P3</text>
</g>
<!-- P1&#45;&gt;P3 -->
<g id="edge3" class="edge">
<title>P1&#45;&gt;P3</title>
<path fill="none" stroke="gray" d="M40.75,-146.07C48.96,-136.1 58.62,-122.25 63,-108 67.7,-92.71 67.7,-87.29 63,-72 59.71,-61.31 53.46,-50.85 47.07,-42.08"/>
<polygon fill="gray" stroke="gray" points="49.65,-39.69 40.75,-33.93 44.12,-43.98 49.65,-39.69"/>
</g>
<!-- P2&#45;&gt;P3 -->
<g id="edge2" class="edge">
<title>P2&#45;&gt;P3</title>
<path fill="none" stroke="gray" d="M27,-71.7C27,-63.98 27,-54.71 27,-46.11"/>
<polygon fill="gray" stroke="gray" points="30.5,-46.1 27,-36.1 23.5,-46.1 30.5,-46.1"/>
</g>
</g>
</svg>
