<?xml version="1.0" encoding="UTF-8" standalone="no"?>
<!DOCTYPE svg PUBLIC "-//W3C//DTD SVG 1.1//EN"
 "http://www.w3.org/Graphics/SVG/1.1/DTD/svg11.dtd">
<!-- Generated by graphviz version 2.43.0 (0)
 -->
<!-- Title: D Pages: 1 -->
<svg width="89pt" height="216pt"
 viewBox="0.00 0.00 89.00 216.00" xmlns="http://www.w3.org/2000/svg" xmlns:xlink="http://www.w3.org/1999/xlink">
<g id="graph0" class="graph" transform="scale(1 1) rotate(0) translate(4 212)">
<title>D</title>
<polygon fill="white" stroke="transparent" points="-4,4 -4,-212 85,-212 85,4 -4,4"/>
<text text-anchor="middle" x="40.5" y="-6.8" font-family="Helvetica,sans-Serif" font-size="9.00" fill="#000060">&#45; constraint &#45;</text>
<!-- P1 -->
<g id="node1" class="node">
<title>P1</title>
<ellipse fill="#eeeeee" stroke="black" cx="54" cy="-190" rx="27" ry="18"/>
<text text-anchor="middle" x="54" y="-187.5" font-family="Helvetica,sans-Serif" font-size="10.00">P1</text>
</g>
<!-- P2 -->
<g id="node2" class="node">
<title>P2</title>
<ellipse fill="#eeeeee" stroke="black" cx="27" cy="-118" rx="27" ry="18"/>
<text text-anchor="middle" x="27" y="-115.5" font-family="Helvetica,sans-Serif" font-size="10.00">P2</text>
</g>
<!-- P1&#45;&gt;P2 -->
<g id="edge1" class="edge">
<title>P1&#45;&gt;P2</title>
<path fill="none" stroke="gray" d="M47.6,-172.41C44.49,-164.34 40.67,-154.43 37.17,-145.35"/>
<polygon fill="gray" stroke="gray" points="40.4,-144.03 33.54,-135.96 33.87,-146.55 40.4,-144.03"/>
</g>
<!-- P3 -->
<g id="node3" class="node">
<title>P3</title>
<ellipse fill="#eeeeee" stroke="black" cx="54" cy="-46" rx="27" ry="18"/>
<text text-anchor="middle" x="54" y="-43.5" font-family="Helvetica,sans-Serif" font-size="10.00">P3</text>
</g>
<!-- P1&#45;&gt;P3 -->
<g id="edge3" class="edge">
<title>P1&#45;&gt;P3</title>
<path fill="none" stroke="gray" d="M57.65,-171.91C59.68,-161.57 61.98,-148.09 63,-136 64.34,-120.06 64.34,-115.94 63,-100 62.28,-91.5 60.93,-82.31 59.49,-74.01"/>
<polygon fill="gray" stroke="gray" points="62.91,-73.29 57.65,-64.09 56.03,-74.56 62.91,-73.29"/>
</g>
<!-- P2&#45;&gt;P3 -->
<g id="edge2" class="edge">
<title>P2&#45;&gt;P3</title>
<path fill="none" stroke="gray" d="M33.4,-100.41C36.51,-92.34 40.33,-82.43 43.83,-73.35"/>
<polygon fill="gray" stroke="gray" points="47.13,-74.55 47.46,-63.96 40.6,-72.03 47.13,-74.55"/>
</g>
</g>
</svg>
