<?xml version="1.0" encoding="UTF-8" standalone="no"?>
<!DOCTYPE svg PUBLIC "-//W3C//DTD SVG 1.1//EN"
 "http://www.w3.org/Graphics/SVG/1.1/DTD/svg11.dtd">
<!-- Generated by graphviz version 2.43.0 (0)
 -->
<!-- Title: D Pages: 1 -->
<svg width="361pt" height="361pt"
 viewBox="0.00 0.00 361.04 361.28" xmlns="http://www.w3.org/2000/svg" xmlns:xlink="http://www.w3.org/1999/xlink">
<g id="graph0" class="graph" transform="scale(1 1) rotate(0) translate(4 357.28)">
<title>D</title>
<polygon fill="white" stroke="transparent" points="-4,4 -4,-357.28 357.04,-357.28 357.04,4 -4,4"/>
<text text-anchor="middle" x="176.52" y="-6.8" font-family="Helvetica,sans-Serif" font-size="9.00">[ context ]</text>
<!-- P -->
<g id="node1" class="node">
<title>P</title>
<ellipse fill="white" stroke="black" cx="175.9" cy="-186.14" rx="43.62" ry="43.62"/>
<text text-anchor="middle" x="175.9" y="-183.64" font-family="Helvetica,sans-Serif" font-size="10.00">The System</text>
</g>
<!-- E1 -->
<g id="node2" class="node">
<title>E1</title>
<polygon fill="none" stroke="black" points="353.04,-106.94 299.04,-106.94 299.04,-70.94 353.04,-70.94 353.04,-106.94"/>
<text text-anchor="middle" x="326.04" y="-86.44" font-family="Helvetica,sans-Serif" font-size="10.00">Entity 1</text>
</g>
<!-- E1&#45;&gt;P -->
<g id="edge1" class="edge">
<title>E1&#45;&gt;P</title>
<path fill="none" stroke="gray" d="M298.85,-106.54C277.23,-120.54 246.52,-140.42 221.2,-156.82"/>
<polygon fill="gray" stroke="gray" points="218.99,-154.08 212.49,-162.45 222.79,-159.96 218.99,-154.08"/>
<text text-anchor="middle" x="249.03" y="-134.68" font-family="Times,serif" font-style="italic" font-size="10.00">flow</text>
</g>
<!-- E2 -->
<g id="node3" class="node">
<title>E2</title>
<polygon fill="none" stroke="black" points="106.09,-54 52.09,-54 52.09,-18 106.09,-18 106.09,-54"/>
<text text-anchor="middle" x="79.09" y="-33.5" font-family="Helvetica,sans-Serif" font-size="10.00">Entity 2</text>
</g>
<!-- E2&#45;&gt;P -->
<g id="edge2" class="edge">
<title>E2&#45;&gt;P</title>
<path fill="none" stroke="gray" d="M96.33,-62.74C111.88,-86.85 134.88,-122.52 152.16,-149.32"/>
<polygon fill="gray" stroke="gray" points="99.13,-60.62 90.77,-54.11 93.25,-64.41 99.13,-60.62"/>
<text text-anchor="middle" x="113.24" y="-109.03" font-family="Times,serif" font-style="italic" font-size="10.00">flow</text>
</g>
<!-- E3 -->
<g id="node4" class="node">
<title>E3</title>
<polygon fill="none" stroke="black" points="54,-302.84 0,-302.84 0,-266.84 54,-266.84 54,-302.84"/>
<text text-anchor="middle" x="27" y="-282.34" font-family="Helvetica,sans-Serif" font-size="10.00">Entity 3</text>
</g>
<!-- E3&#45;&gt;P -->
<g id="edge3" class="edge">
<title>E3&#45;&gt;P</title>
<path fill="none" stroke="gray" d="M62.84,-261.08C83.33,-247.5 109.21,-230.35 131.05,-215.88"/>
<polygon fill="gray" stroke="gray" points="60.71,-258.29 54.31,-266.74 64.58,-264.13 60.71,-258.29"/>
<polygon fill="gray" stroke="gray" points="133.1,-218.71 139.5,-210.27 129.23,-212.88 133.1,-218.71"/>
<text text-anchor="middle" x="85.94" y="-241.48" font-family="Times,serif" font-style="italic" font-size="10.00">flow</text>
</g>
<!-- E4 -->
<g id="node5" class="node">
<title>E4</title>
<polygon fill="none" stroke="black" points="301.66,-353.28 247.66,-353.28 247.66,-317.28 301.66,-317.28 301.66,-353.28"/>
<text text-anchor="middle" x="274.66" y="-332.78" font-family="Helvetica,sans-Serif" font-size="10.00">Entity 4</text>
</g>
<!-- E4&#45;&gt;P -->
<g id="edge4" class="edge">
<title>E4&#45;&gt;P</title>
<path fill="none" stroke="gray" stroke-dasharray="5,2" d="M262.55,-316.99C248.5,-295.78 224.83,-260.03 205.77,-231.25"/>
<polygon fill="gray" stroke="gray" points="208.46,-228.97 200.02,-222.57 202.62,-232.84 208.46,-228.97"/>
<text text-anchor="middle" x="218.66" y="-277.12" font-family="Times,serif" font-style="italic" font-size="10.00">signal</text>
</g>
</g>
</svg>
