<?xml version="1.0" encoding="UTF-8" standalone="no"?>
<!DOCTYPE svg PUBLIC "-//W3C//DTD SVG 1.1//EN"
 "http://www.w3.org/Graphics/SVG/1.1/DTD/svg11.dtd">
<!-- Generated by graphviz version 2.43.0 (0)
 -->
<!-- Title: D Pages: 1 -->
<svg width="361pt" height="371pt"
 viewBox="0.00 0.00 361.04 371.28" xmlns="http://www.w3.org/2000/svg" xmlns:xlink="http://www.w3.org/1999/xlink">
<g id="graph0" class="graph" transform="scale(1 1) rotate(0) translate(4 367.28)">
<title>D</title>
<polygon fill="white" stroke="transparent" points="-4,4 -4,-367.28 357.04,-367.28 357.04,4 -4,4"/>
<text text-anchor="middle" x="176.52" y="-6.8" font-family="Helvetica,sans-Serif" font-size="9.00" fill="#000060">&#45; context &#45;</text>
<!-- P -->
<g id="node1" class="node">
<title>P</title>
<ellipse fill="white" stroke="black" cx="175.9" cy="-196.14" rx="43.62" ry="43.62"/>
<text text-anchor="middle" x="175.9" y="-193.64" font-family="Helvetica,sans-Serif" font-size="10.00">The System</text>
</g>
<!-- E1 -->
<g id="node2" class="node">
<title>E1</title>
<polygon fill="none" stroke="black" points="353.04,-116.94 299.04,-116.94 299.04,-80.94 353.04,-80.94 353.04,-116.94"/>
<text text-anchor="middle" x="326.04" y="-96.44" font-family="Helvetica,sans-Serif" font-size="10.00">Entity 1</text>
</g>
<!-- E1&#45;&gt;P -->
<g id="edge1" class="edge">
<title>E1&#45;&gt;P</title>
<path fill="none" stroke="gray" d="M298.85,-116.54C277.23,-130.54 246.52,-150.42 221.2,-166.82"/>
<polygon fill="gray" stroke="gray" points="218.99,-164.08 212.49,-172.45 222.79,-169.96 218.99,-164.08"/>
<text text-anchor="middle" x="249.03" y="-144.68" font-family="Times,serif" font-style="italic" font-size="10.00">flow</text>
</g>
<!-- E2 -->
<g id="node3" class="node">
<title>E2</title>
<polygon fill="none" stroke="black" points="106.09,-64 52.09,-64 52.09,-28 106.09,-28 106.09,-64"/>
<text text-anchor="middle" x="79.09" y="-43.5" font-family="Helvetica,sans-Serif" font-size="10.00">Entity 2</text>
</g>
<!-- E2&#45;&gt;P -->
<g id="edge2" class="edge">
<title>E2&#45;&gt;P</title>
<path fill="none" stroke="gray" d="M96.33,-72.74C111.88,-96.85 134.88,-132.52 152.16,-159.32"/>
<polygon fill="gray" stroke="gray" points="99.13,-70.62 90.77,-64.11 93.25,-74.41 99.13,-70.62"/>
<text text-anchor="middle" x="113.24" y="-119.03" font-family="Times,serif" font-style="italic" font-size="10.00">flow</text>
</g>
<!-- E3 -->
<g id="node4" class="node">
<title>E3</title>
<polygon fill="none" stroke="black" points="54,-312.84 0,-312.84 0,-276.84 54,-276.84 54,-312.84"/>
<text text-anchor="middle" x="27" y="-292.34" font-family="Helvetica,sans-Serif" font-size="10.00">Entity 3</text>
</g>
<!-- E3&#45;&gt;P -->
<g id="edge3" class="edge">
<title>E3&#45;&gt;P</title>
<path fill="none" stroke="gray" d="M62.84,-271.08C83.33,-257.5 109.21,-240.35 131.05,-225.88"/>
<polygon fill="gray" stroke="gray" points="60.71,-268.29 54.31,-276.74 64.58,-274.13 60.71,-268.29"/>
<polygon fill="gray" stroke="gray" points="133.1,-228.71 139.5,-220.27 129.23,-222.88 133.1,-228.71"/>
<text text-anchor="middle" x="85.94" y="-251.48" font-family="Times,serif" font-style="italic" font-size="10.00">flow</text>
</g>
<!-- E4 -->
<g id="node5" class="node">
<title>E4</title>
<polygon fill="none" stroke="black" points="301.66,-363.28 247.66,-363.28 247.66,-327.28 301.66,-327.28 301.66,-363.28"/>
<text text-anchor="middle" x="274.66" y="-342.78" font-family="Helvetica,sans-Serif" font-size="10.00">Entity 4</text>
</g>
<!-- E4&#45;&gt;P -->
<g id="edge4" class="edge">
<title>E4&#45;&gt;P</title>
<path fill="none" stroke="gray" stroke-dasharray="5,2" d="M262.55,-326.99C248.5,-305.78 224.83,-270.03 205.77,-241.25"/>
<polygon fill="gray" stroke="gray" points="208.46,-238.97 200.02,-232.57 202.62,-242.84 208.46,-238.97"/>
<text text-anchor="middle" x="218.66" y="-287.12" font-family="Times,serif" font-style="italic" font-size="10.00">signal</text>
</g>
</g>
</svg>
