<?xml version="1.0" encoding="UTF-8" standalone="no"?>
<!DOCTYPE svg PUBLIC "-//W3C//DTD SVG 1.1//EN"
 "http://www.w3.org/Graphics/SVG/1.1/DTD/svg11.dtd">
<!-- Generated by graphviz version 2.43.0 (0)
 -->
<!-- Title: D Pages: 1 -->
<svg width="361pt" height="343pt"
 viewBox="0.00 0.00 361.04 343.28" xmlns="http://www.w3.org/2000/svg" xmlns:xlink="http://www.w3.org/1999/xlink">
<g id="graph0" class="graph" transform="scale(1 1) rotate(0) translate(4 339.28)">
<title>D</title>
<polygon fill="white" stroke="transparent" points="-4,4 -4,-339.28 357.04,-339.28 357.04,4 -4,4"/>
<!-- P -->
<g id="node1" class="node">
<title>P</title>
<ellipse fill="none" stroke="black" cx="175.9" cy="-168.14" rx="43.62" ry="43.62"/>
<text text-anchor="middle" x="175.9" y="-165.64" font-family="Helvetica,sans-Serif" font-size="10.00">The System</text>
</g>
<!-- E1 -->
<g id="node2" class="node">
<title>E1</title>
<polygon fill="none" stroke="black" points="353.04,-88.94 299.04,-88.94 299.04,-52.94 353.04,-52.94 353.04,-88.94"/>
<text text-anchor="middle" x="326.04" y="-68.44" font-family="Helvetica,sans-Serif" font-size="10.00">Entity 1</text>
</g>
<!-- E1&#45;&gt;P -->
<g id="edge1" class="edge">
<title>E1&#45;&gt;P</title>
<path fill="none" stroke="gray" d="M298.85,-88.54C277.23,-102.54 246.52,-122.42 221.2,-138.82"/>
<polygon fill="gray" stroke="gray" points="218.99,-136.08 212.49,-144.45 222.79,-141.96 218.99,-136.08"/>
<text text-anchor="middle" x="249.03" y="-116.68" font-family="Times,serif" font-style="italic" font-size="10.00">flow</text>
</g>
<!-- E2 -->
<g id="node3" class="node">
<title>E2</title>
<polygon fill="none" stroke="black" points="106.09,-36 52.09,-36 52.09,0 106.09,0 106.09,-36"/>
<text text-anchor="middle" x="79.09" y="-15.5" font-family="Helvetica,sans-Serif" font-size="10.00">Entity 2</text>
</g>
<!-- E2&#45;&gt;P -->
<g id="edge2" class="edge">
<title>E2&#45;&gt;P</title>
<path fill="none" stroke="gray" d="M96.33,-44.74C111.88,-68.85 134.88,-104.52 152.16,-131.32"/>
<polygon fill="gray" stroke="gray" points="99.13,-42.62 90.77,-36.11 93.25,-46.41 99.13,-42.62"/>
<text text-anchor="middle" x="113.24" y="-91.03" font-family="Times,serif" font-style="italic" font-size="10.00">flow</text>
</g>
<!-- E3 -->
<g id="node4" class="node">
<title>E3</title>
<polygon fill="none" stroke="black" points="54,-284.84 0,-284.84 0,-248.84 54,-248.84 54,-284.84"/>
<text text-anchor="middle" x="27" y="-264.34" font-family="Helvetica,sans-Serif" font-size="10.00">Entity 3</text>
</g>
<!-- E3&#45;&gt;P -->
<g id="edge3" class="edge">
<title>E3&#45;&gt;P</title>
<path fill="none" stroke="gray" d="M62.84,-243.08C83.33,-229.5 109.21,-212.35 131.05,-197.88"/>
<polygon fill="gray" stroke="gray" points="60.71,-240.29 54.31,-248.74 64.58,-246.13 60.71,-240.29"/>
<polygon fill="gray" stroke="gray" points="133.1,-200.71 139.5,-192.27 129.23,-194.88 133.1,-200.71"/>
<text text-anchor="middle" x="85.94" y="-223.48" font-family="Times,serif" font-style="italic" font-size="10.00">flow</text>
</g>
<!-- E4 -->
<g id="node5" class="node">
<title>E4</title>
<polygon fill="none" stroke="black" points="301.66,-335.28 247.66,-335.28 247.66,-299.28 301.66,-299.28 301.66,-335.28"/>
<text text-anchor="middle" x="274.66" y="-314.78" font-family="Helvetica,sans-Serif" font-size="10.00">Entity 4</text>
</g>
<!-- E4&#45;&gt;P -->
<g id="edge4" class="edge">
<title>E4&#45;&gt;P</title>
<path fill="none" stroke="gray" stroke-dasharray="5,2" d="M262.55,-298.99C248.5,-277.78 224.83,-242.03 205.77,-213.25"/>
<polygon fill="gray" stroke="gray" points="208.46,-210.97 200.02,-204.57 202.62,-214.84 208.46,-210.97"/>
<text text-anchor="middle" x="218.66" y="-259.12" font-family="Times,serif" font-style="italic" font-size="10.00">signal</text>
</g>
</g>
</svg>
