<?xml version="1.0" encoding="UTF-8" standalone="no"?>
<!DOCTYPE svg PUBLIC "-//W3C//DTD SVG 1.1//EN"
 "http://www.w3.org/Graphics/SVG/1.1/DTD/svg11.dtd">
<!-- Generated by graphviz version 2.43.0 (0)
 -->
<!-- Title: D Pages: 1 -->
<svg width="300pt" height="282pt"
 viewBox="0.00 0.00 299.60 281.60" xmlns="http://www.w3.org/2000/svg" xmlns:xlink="http://www.w3.org/1999/xlink">
<g id="graph0" class="graph" transform="scale(1 1) rotate(0) translate(4 277.6)">
<title>D</title>
<polygon fill="white" stroke="transparent" points="-4,4 -4,-277.6 295.6,-277.6 295.6,4 -4,4"/>
<!-- P -->
<g id="node1" class="node">
<title>P</title>
<ellipse fill="none" stroke="black" cx="145.8" cy="-136.8" rx="43.62" ry="43.62"/>
<text text-anchor="middle" x="145.8" y="-134.3" font-family="Helvetica,sans-Serif" font-size="10.00">The System</text>
</g>
<!-- E2 -->
<g id="node3" class="node">
<title>E2</title>
<polygon fill="none" stroke="black" points="291.6,-154.8 237.6,-154.8 237.6,-118.8 291.6,-118.8 291.6,-154.8"/>
<text text-anchor="middle" x="264.6" y="-134.3" font-family="Helvetica,sans-Serif" font-size="10.00">Entity 2</text>
</g>
<!-- P&#45;&gt;E2 -->
<g id="edge2" class="edge">
<title>P&#45;&gt;E2</title>
<path fill="none" stroke="gray" d="M189.36,-136.8C201.76,-136.8 215.15,-136.8 227.14,-136.8"/>
<polygon fill="gray" stroke="gray" points="227.27,-140.3 237.27,-136.8 227.27,-133.3 227.27,-140.3"/>
<text text-anchor="middle" x="219.25" y="-139.8" font-family="Times,serif" font-style="italic" font-size="10.00">flow</text>
</g>
<!-- E1 -->
<g id="node2" class="node">
<title>E1</title>
<polygon fill="none" stroke="black" points="172.8,-273.6 118.8,-273.6 118.8,-237.6 172.8,-237.6 172.8,-273.6"/>
<text text-anchor="middle" x="145.8" y="-253.1" font-family="Helvetica,sans-Serif" font-size="10.00">Entity 1</text>
</g>
<!-- E1&#45;&gt;P -->
<g id="edge1" class="edge">
<title>E1&#45;&gt;P</title>
<path fill="none" stroke="gray" d="M145.8,-237.56C145.8,-225.03 145.8,-207.64 145.8,-190.82"/>
<polygon fill="gray" stroke="gray" points="149.3,-190.48 145.8,-180.48 142.3,-190.48 149.3,-190.48"/>
<text text-anchor="middle" x="134.8" y="-217.19" font-family="Times,serif" font-style="italic" font-size="10.00">flow</text>
</g>
<!-- E3 -->
<g id="node4" class="node">
<title>E3</title>
<polygon fill="none" stroke="black" points="54,-154.8 0,-154.8 0,-118.8 54,-118.8 54,-154.8"/>
<text text-anchor="middle" x="27" y="-134.3" font-family="Helvetica,sans-Serif" font-size="10.00">Entity 3</text>
</g>
<!-- E3&#45;&gt;P -->
<g id="edge3" class="edge">
<title>E3&#45;&gt;P</title>
<path fill="none" stroke="gray" d="M64.32,-136.8C73.08,-136.8 82.59,-136.8 91.91,-136.8"/>
<polygon fill="gray" stroke="gray" points="64.26,-133.3 54.26,-136.8 64.26,-140.3 64.26,-133.3"/>
<polygon fill="gray" stroke="gray" points="91.91,-140.3 101.91,-136.8 91.91,-133.3 91.91,-140.3"/>
<text text-anchor="middle" x="67.12" y="-139.8" font-family="Times,serif" font-style="italic" font-size="10.00">flow</text>
</g>
<!-- E4 -->
<g id="node5" class="node">
<title>E4</title>
<polygon fill="none" stroke="black" points="172.8,-36 118.8,-36 118.8,0 172.8,0 172.8,-36"/>
<text text-anchor="middle" x="145.8" y="-15.5" font-family="Helvetica,sans-Serif" font-size="10.00">Entity 4</text>
</g>
<!-- E4&#45;&gt;P -->
<g id="edge4" class="edge">
<title>E4&#45;&gt;P</title>
<path fill="none" stroke="gray" stroke-dasharray="5,2" d="M145.8,-36.04C145.8,-48.57 145.8,-65.96 145.8,-82.78"/>
<polygon fill="gray" stroke="gray" points="142.3,-83.12 145.8,-93.12 149.3,-83.12 142.3,-83.12"/>
<text text-anchor="middle" x="130.3" y="-62.41" font-family="Times,serif" font-style="italic" font-size="10.00">signal</text>
</g>
</g>
</svg>
