<?xml version="1.0" encoding="UTF-8" standalone="no"?>
<!DOCTYPE svg PUBLIC "-//W3C//DTD SVG 1.1//EN"
 "http://www.w3.org/Graphics/SVG/1.1/DTD/svg11.dtd">
<!-- Generated by graphviz version 2.43.0 (0)
 -->
<!-- Title: D Pages: 1 -->
<svg width="155pt" height="248pt"
 viewBox="0.00 0.00 154.89 248.00" xmlns="http://www.w3.org/2000/svg" xmlns:xlink="http://www.w3.org/1999/xlink">
<g id="graph0" class="graph" transform="scale(1 1) rotate(0) translate(4 244)">
<title>D</title>
<polygon fill="white" stroke="transparent" points="-4,4 -4,-244 150.89,-244 150.89,4 -4,4"/>
<!-- P -->
<g id="node1" class="node">
<title>P</title>
<ellipse fill="none" stroke="black" cx="73.44" cy="-18" rx="73.39" ry="18"/>
<text text-anchor="middle" x="73.44" y="-14.3" font-family="Helvetica,sans-Serif" font-size="14.00">Do something</text>
</g>
<!-- T -->
<g id="node2" class="node">
<title>T</title>
<polygon fill="none" stroke="black" points="113.44,-90 33.44,-90 33.44,-54 113.44,-54 113.44,-90"/>
<text text-anchor="middle" x="73.44" y="-68.3" font-family="Helvetica,sans-Serif" font-size="14.00">An entity</text>
</g>
<!-- S -->
<g id="node3" class="node">
<title>S</title>
<polygon fill="black" stroke="transparent" points="47.44,-141 47.44,-145 100.44,-145 100.44,-141 47.44,-141"/>
<text text-anchor="start" x="49.44" y="-125.8" font-family="Helvetica,sans-Serif" font-size="14.00">A store</text>
<polygon fill="black" stroke="transparent" points="47.44,-114 47.44,-118 100.44,-118 100.44,-114 47.44,-114"/>
</g>
<!-- C -->
<g id="node4" class="node">
<title>C</title>
<polygon fill="black" stroke="transparent" points="71.44,-197 71.44,-234 75.44,-234 75.44,-197 71.44,-197"/>
<text text-anchor="start" x="38.44" y="-181.8" font-family="Helvetica,sans-Serif" font-size="14.00">A channel</text>
</g>
</g>
</svg>
