<?xml version="1.0" encoding="UTF-8" standalone="no"?>
<!DOCTYPE svg PUBLIC "-//W3C//DTD SVG 1.1//EN"
 "http://www.w3.org/Graphics/SVG/1.1/DTD/svg11.dtd">
<!-- Generated by graphviz version 2.43.0 (0)
 -->
<!-- Title: D Pages: 1 -->
<svg width="225pt" height="257pt"
 viewBox="0.00 0.00 225.00 256.50" xmlns="http://www.w3.org/2000/svg" xmlns:xlink="http://www.w3.org/1999/xlink">
<g id="graph0" class="graph" transform="scale(1 1) rotate(0) translate(4 252.5)">
<title>D</title>
<polygon fill="white" stroke="transparent" points="-4,4 -4,-252.5 221,-252.5 221,4 -4,4"/>
<text text-anchor="middle" x="108.5" y="-6.8" font-family="Helvetica,sans-Serif" font-size="9.00" fill="#000060">&#45; items&#45;unlabelled &#45;</text>
<!-- PROC -->
<g id="node1" class="node">
<title>PROC</title>
<ellipse fill="#eeeeee" stroke="black" cx="28.5" cy="-64.5" rx="27" ry="18"/>
<text text-anchor="middle" x="28.5" y="-62" font-family="Helvetica,sans-Serif" font-size="10.00">PROC</text>
</g>
<!-- CHAN -->
<g id="node4" class="node">
<title>CHAN</title>
<polygon fill="black" stroke="transparent" points="153,-50.5 153,-78.5 157,-78.5 157,-50.5 153,-50.5"/>
<text text-anchor="start" x="140.5" y="-38.5" font-family="Helvetica,sans-Serif" font-size="10.00">CHAN</text>
</g>
<!-- PROC&#45;&gt;CHAN -->
<g id="edge1" class="edge">
<title>PROC&#45;&gt;CHAN:c</title>
<path fill="none" stroke="gray" d="M55.6,-64.5C82.55,-64.5 123.33,-64.5 142.84,-64.5"/>
<polygon fill="gray" stroke="gray" points="142.91,-68 152.91,-64.5 142.91,-61 142.91,-68"/>
</g>
<!-- ENTITY -->
<g id="node2" class="node">
<title>ENTITY</title>
<polygon fill="none" stroke="black" points="55.5,-136.5 1.5,-136.5 1.5,-100.5 55.5,-100.5 55.5,-136.5"/>
<text text-anchor="middle" x="28.5" y="-116" font-family="Helvetica,sans-Serif" font-size="10.00">ENTITY</text>
</g>
<!-- STORE -->
<g id="node3" class="node">
<title>STORE</title>
<polygon fill="black" stroke="transparent" points="10.5,-183.5 10.5,-187.5 47.5,-187.5 47.5,-183.5 10.5,-183.5"/>
<text text-anchor="start" x="12.5" y="-171.5" font-family="Helvetica,sans-Serif" font-size="10.00">STORE</text>
<polygon fill="black" stroke="transparent" points="10.5,-160.5 10.5,-164.5 47.5,-164.5 47.5,-160.5 10.5,-160.5"/>
</g>
<!-- POINT -->
<g id="node5" class="node">
<title>POINT</title>
<text text-anchor="middle" x="28.5" y="-228" font-family="Helvetica,sans-Serif" font-size="10.00">POINT</text>
</g>
</g>
</svg>
