<?xml version="1.0" encoding="UTF-8" standalone="no"?>
<!DOCTYPE svg PUBLIC "-//W3C//DTD SVG 1.1//EN"
 "http://www.w3.org/Graphics/SVG/1.1/DTD/svg11.dtd">
<!-- Generated by graphviz version 2.43.0 (0)
 -->
<!-- Title: D Pages: 1 -->
<svg width="132pt" height="303pt"
 viewBox="0.00 0.00 132.00 303.00" xmlns="http://www.w3.org/2000/svg" xmlns:xlink="http://www.w3.org/1999/xlink">
<g id="graph0" class="graph" transform="scale(1 1) rotate(0) translate(4 299)">
<title>D</title>
<polygon fill="white" stroke="transparent" points="-4,4 -4,-299 128,-299 128,4 -4,4"/>
<text text-anchor="middle" x="62" y="-6.8" font-family="Helvetica,sans-Serif" font-size="9.00">[ items ]</text>
<!-- P -->
<g id="node1" class="node">
<title>P</title>
<ellipse fill="#eeeeee" stroke="black" cx="62" cy="-36" rx="37.85" ry="18"/>
<text text-anchor="middle" x="62" y="-33.5" font-family="Helvetica,sans-Serif" font-size="10.00">A Process</text>
</g>
<!-- T -->
<g id="node2" class="node">
<title>T</title>
<polygon fill="none" stroke="black" points="92.5,-108 31.5,-108 31.5,-72 92.5,-72 92.5,-108"/>
<text text-anchor="middle" x="62" y="-87.5" font-family="Helvetica,sans-Serif" font-size="10.00">An entity</text>
</g>
<!-- S -->
<g id="node3" class="node">
<title>S</title>
<polygon fill="black" stroke="transparent" points="43,-155 43,-159 82,-159 82,-155 43,-155"/>
<text text-anchor="start" x="45" y="-143" font-family="Helvetica,sans-Serif" font-size="10.00">A store</text>
<polygon fill="black" stroke="transparent" points="43,-132 43,-136 82,-136 82,-132 43,-132"/>
</g>
<!-- C -->
<g id="node4" class="node">
<title>C</title>
<polygon fill="black" stroke="transparent" points="60,-206 60,-234 64,-234 64,-206 60,-206"/>
<text text-anchor="start" x="37.5" y="-194" font-family="Helvetica,sans-Serif" font-size="10.00">A channel</text>
</g>
<!-- N -->
<g id="node5" class="node">
<title>N</title>
<text text-anchor="middle" x="62" y="-274.5" font-family="Helvetica,sans-Serif" font-size="10.00">A point</text>
</g>
</g>
</svg>
