<?xml version="1.0" encoding="UTF-8" standalone="no"?>
<!DOCTYPE svg PUBLIC "-//W3C//DTD SVG 1.1//EN"
 "http://www.w3.org/Graphics/SVG/1.1/DTD/svg11.dtd">
<!-- Generated by graphviz version 2.43.0 (0)
 -->
<!-- Title: D Pages: 1 -->
<svg width="132pt" height="285pt"
 viewBox="0.00 0.00 132.00 285.00" xmlns="http://www.w3.org/2000/svg" xmlns:xlink="http://www.w3.org/1999/xlink">
<g id="graph0" class="graph" transform="scale(1 1) rotate(0) translate(4 281)">
<title>D</title>
<polygon fill="white" stroke="transparent" points="-4,4 -4,-281 128,-281 128,4 -4,4"/>
<!-- PROC -->
<g id="node1" class="node">
<title>PROC</title>
<ellipse fill="none" stroke="black" cx="62" cy="-18" rx="27" ry="18"/>
<text text-anchor="middle" x="62" y="-15.5" font-family="Helvetica,sans-Serif" font-size="10.00">PROC</text>
</g>
<!-- ENTITY -->
<g id="node2" class="node">
<title>ENTITY</title>
<polygon fill="none" stroke="black" points="89,-90 35,-90 35,-54 89,-54 89,-90"/>
<text text-anchor="middle" x="62" y="-69.5" font-family="Helvetica,sans-Serif" font-size="10.00">ENTITY</text>
</g>
<!-- STORE -->
<g id="node3" class="node">
<title>STORE</title>
<polygon fill="black" stroke="transparent" points="44,-137 44,-141 81,-141 81,-137 44,-137"/>
<text text-anchor="start" x="46" y="-125" font-family="Helvetica,sans-Serif" font-size="10.00">STORE</text>
<polygon fill="black" stroke="transparent" points="44,-114 44,-118 81,-118 81,-114 44,-114"/>
</g>
<!-- CHAN -->
<g id="node4" class="node">
<title>CHAN</title>
<polygon fill="black" stroke="transparent" points="60,-188 60,-216 64,-216 64,-188 60,-188"/>
<text text-anchor="start" x="47.5" y="-176" font-family="Helvetica,sans-Serif" font-size="10.00">CHAN</text>
</g>
<!-- POINT -->
<g id="node5" class="node">
<title>POINT</title>
<text text-anchor="middle" x="62" y="-256.5" font-family="Helvetica,sans-Serif" font-size="10.00">POINT</text>
</g>
</g>
</svg>
