<?xml version="1.0" encoding="UTF-8" standalone="no"?>
<!DOCTYPE svg PUBLIC "-//W3C//DTD SVG 1.1//EN"
 "http://www.w3.org/Graphics/SVG/1.1/DTD/svg11.dtd">
<!-- Generated by graphviz version 2.43.0 (0)
 -->
<!-- Title: D Pages: 1 -->
<svg width="132pt" height="367pt"
 viewBox="0.00 0.00 132.00 367.00" xmlns="http://www.w3.org/2000/svg" xmlns:xlink="http://www.w3.org/1999/xlink">
<g id="graph0" class="graph" transform="scale(1 1) rotate(0) translate(4 363)">
<title>D</title>
<polygon fill="white" stroke="transparent" points="-4,4 -4,-363 128,-363 128,4 -4,4"/>
<text text-anchor="middle" x="62" y="-6.8" font-family="Helvetica,sans-Serif" font-size="9.00" fill="#000060">&#45; items &#45;</text>
<!-- P -->
<g id="node1" class="node">
<title>P</title>
<ellipse fill="#eeeeee" stroke="black" cx="62" cy="-46" rx="37.85" ry="18"/>
<text text-anchor="middle" x="62" y="-43.5" font-family="Helvetica,sans-Serif" font-size="10.00">A process</text>
</g>
<!-- K -->
<g id="node2" class="node">
<title>K</title>
<ellipse fill="#eeeeee" stroke="black" stroke-dasharray="5,2" cx="62" cy="-100" rx="35.14" ry="18"/>
<text text-anchor="middle" x="62" y="-97.5" font-family="Helvetica,sans-Serif" font-size="10.00">A control</text>
</g>
<!-- T -->
<g id="node3" class="node">
<title>T</title>
<polygon fill="none" stroke="black" points="92.5,-172 31.5,-172 31.5,-136 92.5,-136 92.5,-172"/>
<text text-anchor="middle" x="62" y="-151.5" font-family="Helvetica,sans-Serif" font-size="10.00">An entity</text>
</g>
<!-- S -->
<g id="node4" class="node">
<title>S</title>
<polygon fill="black" stroke="transparent" points="43,-219 43,-223 82,-223 82,-219 43,-219"/>
<text text-anchor="start" x="45" y="-207" font-family="Helvetica,sans-Serif" font-size="10.00">A store</text>
<polygon fill="black" stroke="transparent" points="43,-196 43,-200 82,-200 82,-196 43,-196"/>
</g>
<!-- C -->
<g id="node5" class="node">
<title>C</title>
<polygon fill="black" stroke="transparent" points="60,-270 60,-298 64,-298 64,-270 60,-270"/>
<text text-anchor="start" x="37.5" y="-258" font-family="Helvetica,sans-Serif" font-size="10.00">A channel</text>
</g>
<!-- N -->
<g id="node6" class="node">
<title>N</title>
<text text-anchor="middle" x="62" y="-338.5" font-family="Helvetica,sans-Serif" font-size="10.00">A point</text>
</g>
</g>
</svg>
