<?xml version="1.0" encoding="UTF-8" standalone="no"?>
<!DOCTYPE svg PUBLIC "-//W3C//DTD SVG 1.1//EN"
 "http://www.w3.org/Graphics/SVG/1.1/DTD/svg11.dtd">
<!-- Generated by graphviz version 2.43.0 (0)
 -->
<!-- Title: D Pages: 1 -->
<svg width="132pt" height="231pt"
 viewBox="0.00 0.00 132.00 230.50" xmlns="http://www.w3.org/2000/svg" xmlns:xlink="http://www.w3.org/1999/xlink">
<g id="graph0" class="graph" transform="scale(1 1) rotate(0) translate(4 226.5)">
<title>D</title>
<polygon fill="white" stroke="transparent" points="-4,4 -4,-226.5 128,-226.5 128,4 -4,4"/>
<!-- P -->
<g id="node1" class="node">
<title>P</title>
<ellipse fill="none" stroke="black" cx="62" cy="-18" rx="50.07" ry="18"/>
<text text-anchor="middle" x="62" y="-15.5" font-family="Helvetica,sans-Serif" font-size="10.00">Do something</text>
</g>
<!-- T -->
<g id="node2" class="node">
<title>T</title>
<polygon fill="none" stroke="black" points="92.5,-90 31.5,-90 31.5,-54 92.5,-54 92.5,-90"/>
<text text-anchor="middle" x="62" y="-69.5" font-family="Helvetica,sans-Serif" font-size="10.00">An entity</text>
</g>
<!-- S -->
<g id="node3" class="node">
<title>S</title>
<polygon fill="black" stroke="transparent" points="43,-137 43,-141 82,-141 82,-137 43,-137"/>
<text text-anchor="start" x="45" y="-125" font-family="Helvetica,sans-Serif" font-size="10.00">A store</text>
<polygon fill="black" stroke="transparent" points="43,-114 43,-118 82,-118 82,-114 43,-114"/>
</g>
<!-- C -->
<g id="node4" class="node">
<title>C</title>
<polygon fill="black" stroke="transparent" points="60,-188 60,-216 64,-216 64,-188 60,-188"/>
<text text-anchor="start" x="37.5" y="-176" font-family="Helvetica,sans-Serif" font-size="10.00">A channel</text>
</g>
</g>
</svg>
