<?xml version="1.0" encoding="UTF-8" standalone="no"?>
<!DOCTYPE svg PUBLIC "-//W3C//DTD SVG 1.1//EN"
 "http://www.w3.org/Graphics/SVG/1.1/DTD/svg11.dtd">
<!-- Generated by graphviz version 2.43.0 (0)
 -->
<!-- Title: D Pages: 1 -->
<svg width="208pt" height="126pt"
 viewBox="0.00 0.00 208.00 126.00" xmlns="http://www.w3.org/2000/svg" xmlns:xlink="http://www.w3.org/1999/xlink">
<g id="graph0" class="graph" transform="scale(1 1) rotate(0) translate(4 122)">
<title>D</title>
<polygon fill="white" stroke="transparent" points="-4,4 -4,-122 204,-122 204,4 -4,4"/>
<text text-anchor="middle" x="100" y="-6.8" font-family="Helvetica,sans-Serif" font-size="9.00" fill="#000060">&#45; nested&#45;include &#45;</text>
<!-- P1 -->
<g id="node1" class="node">
<title>P1</title>
<ellipse fill="#eeeeee" stroke="black" cx="27" cy="-100" rx="27" ry="18"/>
<text text-anchor="middle" x="27" y="-97.5" font-family="Helvetica,sans-Serif" font-size="10.00">P1</text>
</g>
<!-- P3 -->
<g id="node3" class="node">
<title>P3</title>
<ellipse fill="#eeeeee" stroke="black" cx="173" cy="-73" rx="27" ry="18"/>
<text text-anchor="middle" x="173" y="-70.5" font-family="Helvetica,sans-Serif" font-size="10.00">P3</text>
</g>
<!-- P1&#45;&gt;P3 -->
<g id="edge1" class="edge">
<title>P1&#45;&gt;P3</title>
<path fill="none" stroke="gray" d="M53.08,-95.3C76.17,-90.97 110.66,-84.5 136.56,-79.65"/>
<polygon fill="gray" stroke="gray" points="137.54,-83.02 146.72,-77.74 136.25,-76.14 137.54,-83.02"/>
<text text-anchor="middle" x="100" y="-94" font-family="Times,serif" font-style="italic" font-size="10.00">connection</text>
</g>
<!-- P2 -->
<g id="node2" class="node">
<title>P2</title>
<ellipse fill="#eeeeee" stroke="black" cx="27" cy="-46" rx="27" ry="18"/>
<text text-anchor="middle" x="27" y="-43.5" font-family="Helvetica,sans-Serif" font-size="10.00">P2</text>
</g>
<!-- P2&#45;&gt;P3 -->
<g id="edge2" class="edge">
<title>P2&#45;&gt;P3</title>
<path fill="none" stroke="gray" d="M53.08,-50.7C76.17,-55.03 110.66,-61.5 136.56,-66.35"/>
<polygon fill="gray" stroke="gray" points="136.25,-69.86 146.72,-68.26 137.54,-62.98 136.25,-69.86"/>
<text text-anchor="middle" x="100" y="-67" font-family="Times,serif" font-style="italic" font-size="10.00">connection</text>
</g>
</g>
</svg>
