<?xml version="1.0" encoding="UTF-8" standalone="no"?>
<!DOCTYPE svg PUBLIC "-//W3C//DTD SVG 1.1//EN"
 "http://www.w3.org/Graphics/SVG/1.1/DTD/svg11.dtd">
<!-- Generated by graphviz version 2.43.0 (0)
 -->
<!-- Title: D Pages: 1 -->
<svg width="208pt" height="98pt"
 viewBox="0.00 0.00 208.00 98.00" xmlns="http://www.w3.org/2000/svg" xmlns:xlink="http://www.w3.org/1999/xlink">
<g id="graph0" class="graph" transform="scale(1 1) rotate(0) translate(4 94)">
<title>D</title>
<polygon fill="white" stroke="transparent" points="-4,4 -4,-94 204,-94 204,4 -4,4"/>
<!-- P1 -->
<g id="node1" class="node">
<title>P1</title>
<ellipse fill="#eeeeee" stroke="black" cx="27" cy="-72" rx="27" ry="18"/>
<text text-anchor="middle" x="27" y="-69.5" font-family="Helvetica,sans-Serif" font-size="10.00">P1</text>
</g>
<!-- P3 -->
<g id="node3" class="node">
<title>P3</title>
<ellipse fill="#eeeeee" stroke="black" cx="173" cy="-45" rx="27" ry="18"/>
<text text-anchor="middle" x="173" y="-42.5" font-family="Helvetica,sans-Serif" font-size="10.00">P3</text>
</g>
<!-- P1&#45;&gt;P3 -->
<g id="edge1" class="edge">
<title>P1&#45;&gt;P3</title>
<path fill="none" stroke="gray" d="M53.08,-67.3C76.17,-62.97 110.66,-56.5 136.56,-51.65"/>
<polygon fill="gray" stroke="gray" points="137.54,-55.02 146.72,-49.74 136.25,-48.14 137.54,-55.02"/>
<text text-anchor="middle" x="100" y="-66" font-family="Times,serif" font-style="italic" font-size="10.00">connection</text>
</g>
<!-- P2 -->
<g id="node2" class="node">
<title>P2</title>
<ellipse fill="#eeeeee" stroke="black" cx="27" cy="-18" rx="27" ry="18"/>
<text text-anchor="middle" x="27" y="-15.5" font-family="Helvetica,sans-Serif" font-size="10.00">P2</text>
</g>
<!-- P2&#45;&gt;P3 -->
<g id="edge2" class="edge">
<title>P2&#45;&gt;P3</title>
<path fill="none" stroke="gray" d="M53.08,-22.7C76.17,-27.03 110.66,-33.5 136.56,-38.35"/>
<polygon fill="gray" stroke="gray" points="136.25,-41.86 146.72,-40.26 137.54,-34.98 136.25,-41.86"/>
<text text-anchor="middle" x="100" y="-39" font-family="Times,serif" font-style="italic" font-size="10.00">connection</text>
</g>
</g>
</svg>
