<?xml version="1.0" encoding="UTF-8" standalone="no"?>
<!DOCTYPE svg PUBLIC "-//W3C//DTD SVG 1.1//EN"
 "http://www.w3.org/Graphics/SVG/1.1/DTD/svg11.dtd">
<!-- Generated by graphviz version 2.43.0 (0)
 -->
<!-- Title: D Pages: 1 -->
<svg width="478pt" height="129pt"
 viewBox="0.00 0.00 478.33 129.00" xmlns="http://www.w3.org/2000/svg" xmlns:xlink="http://www.w3.org/1999/xlink">
<g id="graph0" class="graph" transform="scale(1 1) rotate(0) translate(4 125)">
<title>D</title>
<polygon fill="white" stroke="transparent" points="-4,4 -4,-125 474.33,-125 474.33,4 -4,4"/>
<text text-anchor="middle" x="235.17" y="-6.8" font-family="Helvetica,sans-Serif" font-size="9.00" fill="#000060">&#45; realtime &#45;</text>
<!-- Clock -->
<g id="node1" class="node">
<title>Clock</title>
<polygon fill="none" stroke="black" points="54,-121 0,-121 0,-85 54,-85 54,-121"/>
<text text-anchor="middle" x="27" y="-100.5" font-family="Helvetica,sans-Serif" font-size="10.00">Clock</text>
</g>
<!-- Timer -->
<g id="node5" class="node">
<title>Timer</title>
<ellipse fill="#eeeeee" stroke="black" stroke-dasharray="5,2" cx="150" cy="-103" rx="27" ry="18"/>
<text text-anchor="middle" x="150" y="-100.5" font-family="Helvetica,sans-Serif" font-size="10.00">Timer</text>
</g>
<!-- Clock&#45;&gt;Timer -->
<g id="edge4" class="edge">
<title>Clock&#45;&gt;Timer</title>
<path fill="none" stroke="gray" stroke-dasharray="5,2" d="M54.26,-103C71.38,-103 93.96,-103 112.78,-103"/>
<polygon fill="gray" stroke="gray" points="112.8,-106.5 122.8,-103 112.8,-99.5 112.8,-106.5"/>
<text text-anchor="middle" x="81.5" y="-106" font-family="Times,serif" font-style="italic" font-size="10.00">tick</text>
</g>
<!-- Button -->
<g id="node2" class="node">
<title>Button</title>
<polygon fill="none" stroke="black" points="470.33,-121 416.33,-121 416.33,-85 470.33,-85 470.33,-121"/>
<text text-anchor="middle" x="443.33" y="-100.5" font-family="Helvetica,sans-Serif" font-size="10.00">Button</text>
</g>
<!-- Lamp -->
<g id="node3" class="node">
<title>Lamp</title>
<polygon fill="none" stroke="black" points="470.33,-64 416.33,-64 416.33,-28 470.33,-28 470.33,-64"/>
<text text-anchor="middle" x="443.33" y="-43.5" font-family="Helvetica,sans-Serif" font-size="10.00">Lamp</text>
</g>
<!-- Power -->
<g id="node4" class="node">
<title>Power</title>
<polygon fill="none" stroke="black" points="191,-64 109,-64 109,-28 191,-28 191,-64"/>
<text text-anchor="middle" x="150" y="-43.5" font-family="Helvetica,sans-Serif" font-size="10.00">Power supply</text>
</g>
<!-- Driver -->
<g id="node6" class="node">
<title>Driver</title>
<ellipse fill="#eeeeee" stroke="black" cx="303.67" cy="-49" rx="27.84" ry="18"/>
<text text-anchor="middle" x="303.67" y="-46.5" font-family="Helvetica,sans-Serif" font-size="10.00">Driver</text>
</g>
<!-- Power&#45;&gt;Driver -->
<g id="edge6" class="edge">
<title>Power&#45;&gt;Driver</title>
<path fill="none" stroke="gray" d="M191.15,-46.04C207.62,-46.13 227.18,-46.31 255.68,-47.06"/>
<polygon fill="gray" stroke="gray" points="265.65,-50.85 275.75,-47.64 265.85,-43.85 265.65,-50.85"/>
<polygon fill="gray" stroke="gray" points="255.65,-50.56 265.75,-47.35 255.85,-43.57 255.65,-50.56"/>
<text text-anchor="middle" x="233.5" y="-50" font-family="Times,serif" font-style="italic" font-size="10.00">voltage</text>
</g>
<!-- Timer&#45;&gt;Button -->
<g id="edge2" class="edge">
<title>Timer&#45;&gt;Button</title>
<path fill="none" stroke="gray" stroke-dasharray="5,2" d="M187.19,-103C246.73,-103 363.96,-103 416.18,-103"/>
<polygon fill="gray" stroke="gray" points="187.11,-99.5 177.11,-103 187.11,-106.5 187.11,-99.5"/>
<text text-anchor="middle" x="303.67" y="-106" font-family="Times,serif" font-style="italic" font-size="10.00">reset</text>
</g>
<!-- Timer&#45;&gt;Driver -->
<g id="edge3" class="edge">
<title>Timer&#45;&gt;Driver</title>
<path fill="none" stroke="gray" stroke-dasharray="5,2" d="M173.8,-94.15C184.46,-90.06 197.35,-85.2 209,-81 228.82,-73.86 251.15,-66.21 269.03,-60.19"/>
<polygon fill="gray" stroke="gray" points="270.36,-63.44 278.72,-56.94 268.13,-56.8 270.36,-63.44"/>
<text text-anchor="middle" x="233.5" y="-84" font-family="Times,serif" font-style="italic" font-size="10.00">switch off</text>
</g>
<!-- Driver&#45;&gt;Button -->
<g id="edge1" class="edge">
<title>Driver&#45;&gt;Button</title>
<path fill="none" stroke="gray" stroke-dasharray="5,2" d="M338.99,-59.5C356.9,-65.29 379.03,-72.92 398.33,-81 404.16,-83.44 410.3,-86.31 416.08,-89.15"/>
<polygon fill="gray" stroke="gray" points="339.85,-56.1 329.26,-56.4 337.73,-62.77 339.85,-56.1"/>
<text text-anchor="middle" x="373.83" y="-84" font-family="Times,serif" font-style="italic" font-size="10.00">switch on</text>
</g>
<!-- Driver&#45;&gt;Lamp -->
<g id="edge5" class="edge">
<title>Driver&#45;&gt;Lamp</title>
<path fill="none" stroke="gray" d="M331.59,-47.65C337.44,-47.39 343.59,-47.16 349.33,-47 368.05,-46.48 388.89,-46.23 406.09,-46.1"/>
<polygon fill="gray" stroke="gray" points="406.29,-49.6 416.27,-46.04 406.25,-42.6 406.29,-49.6"/>
<text text-anchor="middle" x="373.83" y="-50" font-family="Times,serif" font-style="italic" font-size="10.00">voltage</text>
</g>
</g>
</svg>
