<?xml version="1.0" encoding="UTF-8" standalone="no"?>
<!DOCTYPE svg PUBLIC "-//W3C//DTD SVG 1.1//EN"
 "http://www.w3.org/Graphics/SVG/1.1/DTD/svg11.dtd">
<!-- Generated by graphviz version 2.43.0 (0)
 -->
<!-- Title: D Pages: 1 -->
<svg width="243pt" height="144pt"
 viewBox="0.00 0.00 243.36 144.43" xmlns="http://www.w3.org/2000/svg" xmlns:xlink="http://www.w3.org/1999/xlink">
<g id="graph0" class="graph" transform="scale(1 1) rotate(0) translate(4 140.43)">
<title>D</title>
<polygon fill="white" stroke="transparent" points="-4,4 -4,-140.43 239.36,-140.43 239.36,4 -4,4"/>
<!-- P1 -->
<g id="node1" class="node">
<title>P1</title>
<ellipse fill="#eeeeee" stroke="black" cx="105.36" cy="-118.43" rx="93.02" ry="18"/>
<text text-anchor="middle" x="105.36" y="-115.93" font-family="Helvetica,sans-Serif" font-size="10.00">Do this and this and also this</text>
</g>
<!-- P2 -->
<g id="node2" class="node">
<title>P2</title>
<ellipse fill="#eeeeee" stroke="black" cx="105.36" cy="-21.21" rx="105.22" ry="21.43"/>
<text text-anchor="middle" x="105.36" y="-24.21" font-family="Helvetica,sans-Serif" font-size="10.00">Do</text>
<text text-anchor="middle" x="105.36" y="-13.21" font-family="Helvetica,sans-Serif" font-size="10.00"> that and that and also that</text>
</g>
<!-- P1&#45;&gt;P2 -->
<g id="edge1" class="edge">
<title>P1&#45;&gt;P2</title>
<path fill="none" stroke="gray" d="M61.23,-102.57C52.53,-97.56 44.51,-90.98 39.36,-82.43 34.32,-74.05 34.48,-68.9 39.36,-60.43 42.37,-55.21 46.39,-50.64 50.97,-46.65"/>
<polygon fill="gray" stroke="gray" points="53.27,-49.3 59.13,-40.48 49.04,-43.72 53.27,-49.3"/>
<text text-anchor="middle" x="95.36" y="-68.93" font-family="Times,serif" font-style="italic" font-size="10.00">result of doing all this</text>
</g>
<!-- P2&#45;&gt;P1 -->
<g id="edge2" class="edge">
<title>P2&#45;&gt;P1</title>
<path fill="none" stroke="gray" d="M136.63,-41.73C142.59,-47.01 148.01,-53.28 151.36,-60.43 155.51,-69.28 155.7,-73.67 151.36,-82.43 149.19,-86.8 146.18,-90.78 142.73,-94.36"/>
<polygon fill="gray" stroke="gray" points="140.29,-91.85 135.16,-101.12 144.95,-97.07 140.29,-91.85"/>
<text text-anchor="middle" x="194.86" y="-74.43" font-family="Times,serif" font-style="italic" font-size="10.00">result</text>
<text text-anchor="middle" x="194.86" y="-63.43" font-family="Times,serif" font-style="italic" font-size="10.00">of doing all that</text>
</g>
</g>
</svg>
