<?xml version="1.0" encoding="UTF-8" standalone="no"?>
<!DOCTYPE svg PUBLIC "-//W3C//DTD SVG 1.1//EN"
 "http://www.w3.org/Graphics/SVG/1.1/DTD/svg11.dtd">
<!-- Generated by graphviz version 2.43.0 (0)
 -->
<!-- Title: D Pages: 1 -->
<svg width="90pt" height="262pt"
 viewBox="0.00 0.00 90.02 261.63" xmlns="http://www.w3.org/2000/svg" xmlns:xlink="http://www.w3.org/1999/xlink">
<g id="graph0" class="graph" transform="scale(1 1) rotate(0) translate(4 257.63)">
<title>D</title>
<polygon fill="white" stroke="transparent" points="-4,4 -4,-257.63 86.02,-257.63 86.02,4 -4,4"/>
<!-- P1 -->
<g id="node1" class="node">
<title>P1</title>
<ellipse fill="#eeeeee" stroke="black" cx="41.01" cy="-216.87" rx="41.02" ry="36.54"/>
<text text-anchor="middle" x="41.01" y="-230.87" font-family="Helvetica,sans-Serif" font-size="10.00">Do this</text>
<text text-anchor="middle" x="41.01" y="-219.87" font-family="Helvetica,sans-Serif" font-size="10.00">and this</text>
<text text-anchor="middle" x="41.01" y="-208.87" font-family="Helvetica,sans-Serif" font-size="10.00">and also</text>
<text text-anchor="middle" x="41.01" y="-197.87" font-family="Helvetica,sans-Serif" font-size="10.00">this</text>
</g>
<!-- P2 -->
<g id="node2" class="node">
<title>P2</title>
<ellipse fill="#eeeeee" stroke="black" cx="41.01" cy="-44.55" rx="41.02" ry="44.6"/>
<text text-anchor="middle" x="41.01" y="-64.05" font-family="Helvetica,sans-Serif" font-size="10.00">Do</text>
<text text-anchor="middle" x="41.01" y="-53.05" font-family="Helvetica,sans-Serif" font-size="10.00"> that</text>
<text text-anchor="middle" x="41.01" y="-42.05" font-family="Helvetica,sans-Serif" font-size="10.00">and that</text>
<text text-anchor="middle" x="41.01" y="-31.05" font-family="Helvetica,sans-Serif" font-size="10.00">and also</text>
<text text-anchor="middle" x="41.01" y="-20.05" font-family="Helvetica,sans-Serif" font-size="10.00">that</text>
</g>
<!-- P1&#45;&gt;P2 -->
<g id="edge1" class="edge">
<title>P1&#45;&gt;P2</title>
<path fill="none" stroke="gray" d="M23.31,-183.68C20.29,-176.75 17.61,-169.33 16.01,-162.1 10.73,-138.23 11.33,-131.09 16.01,-107.1 16.83,-102.89 17.94,-98.62 19.24,-94.37"/>
<polygon fill="gray" stroke="gray" points="22.66,-95.18 22.55,-84.59 16.03,-92.93 22.66,-95.18"/>
<text text-anchor="middle" x="31.01" y="-154.1" font-family="Times,serif" font-style="italic" font-size="10.00">result</text>
<text text-anchor="middle" x="31.01" y="-143.1" font-family="Times,serif" font-style="italic" font-size="10.00">of</text>
<text text-anchor="middle" x="31.01" y="-132.1" font-family="Times,serif" font-style="italic" font-size="10.00">doing</text>
<text text-anchor="middle" x="31.01" y="-121.1" font-family="Times,serif" font-style="italic" font-size="10.00">all</text>
<text text-anchor="middle" x="31.01" y="-110.1" font-family="Times,serif" font-style="italic" font-size="10.00">this</text>
</g>
<!-- P2&#45;&gt;P1 -->
<g id="edge2" class="edge">
<title>P2&#45;&gt;P1</title>
<path fill="none" stroke="gray" d="M44.98,-88.9C45.41,-95 45.77,-101.2 46.01,-107.1 47,-131.52 47.15,-137.68 46.01,-162.1 45.89,-164.64 45.75,-167.24 45.57,-169.87"/>
<polygon fill="gray" stroke="gray" points="42.07,-169.8 44.81,-180.03 49.05,-170.32 42.07,-169.8"/>
<text text-anchor="middle" x="61.01" y="-154.1" font-family="Times,serif" font-style="italic" font-size="10.00">result</text>
<text text-anchor="middle" x="61.01" y="-143.1" font-family="Times,serif" font-style="italic" font-size="10.00">of</text>
<text text-anchor="middle" x="61.01" y="-132.1" font-family="Times,serif" font-style="italic" font-size="10.00">doing</text>
<text text-anchor="middle" x="61.01" y="-121.1" font-family="Times,serif" font-style="italic" font-size="10.00">all</text>
<text text-anchor="middle" x="61.01" y="-110.1" font-family="Times,serif" font-style="italic" font-size="10.00">that</text>
</g>
</g>
</svg>
