<?xml version="1.0" encoding="UTF-8" standalone="no"?>
<!DOCTYPE svg PUBLIC "-//W3C//DTD SVG 1.1//EN"
 "http://www.w3.org/Graphics/SVG/1.1/DTD/svg11.dtd">
<!-- Generated by graphviz version 2.43.0 (0)
 -->
<!-- Title: D Pages: 1 -->
<svg width="90pt" height="290pt"
 viewBox="0.00 0.00 90.02 289.63" xmlns="http://www.w3.org/2000/svg" xmlns:xlink="http://www.w3.org/1999/xlink">
<g id="graph0" class="graph" transform="scale(1 1) rotate(0) translate(4 285.63)">
<title>D</title>
<polygon fill="white" stroke="transparent" points="-4,4 -4,-285.63 86.02,-285.63 86.02,4 -4,4"/>
<text text-anchor="middle" x="41.01" y="-6.8" font-family="Helvetica,sans-Serif" font-size="9.00" fill="#000060">&#45; wrapping&#45;3 &#45;</text>
<!-- P1 -->
<g id="node1" class="node">
<title>P1</title>
<ellipse fill="#eeeeee" stroke="black" cx="41.01" cy="-244.87" rx="41.02" ry="36.54"/>
<text text-anchor="middle" x="41.01" y="-258.87" font-family="Helvetica,sans-Serif" font-size="10.00">Do this</text>
<text text-anchor="middle" x="41.01" y="-247.87" font-family="Helvetica,sans-Serif" font-size="10.00">and this</text>
<text text-anchor="middle" x="41.01" y="-236.87" font-family="Helvetica,sans-Serif" font-size="10.00">and also</text>
<text text-anchor="middle" x="41.01" y="-225.87" font-family="Helvetica,sans-Serif" font-size="10.00">this</text>
</g>
<!-- P2 -->
<g id="node2" class="node">
<title>P2</title>
<ellipse fill="#eeeeee" stroke="black" cx="41.01" cy="-72.55" rx="41.02" ry="44.6"/>
<text text-anchor="middle" x="41.01" y="-92.05" font-family="Helvetica,sans-Serif" font-size="10.00">Do</text>
<text text-anchor="middle" x="41.01" y="-81.05" font-family="Helvetica,sans-Serif" font-size="10.00"> that</text>
<text text-anchor="middle" x="41.01" y="-70.05" font-family="Helvetica,sans-Serif" font-size="10.00">and that</text>
<text text-anchor="middle" x="41.01" y="-59.05" font-family="Helvetica,sans-Serif" font-size="10.00">and also</text>
<text text-anchor="middle" x="41.01" y="-48.05" font-family="Helvetica,sans-Serif" font-size="10.00">that</text>
</g>
<!-- P1&#45;&gt;P2 -->
<g id="edge1" class="edge">
<title>P1&#45;&gt;P2</title>
<path fill="none" stroke="gray" d="M23.31,-211.68C20.29,-204.75 17.61,-197.33 16.01,-190.1 10.73,-166.23 11.33,-159.09 16.01,-135.1 16.83,-130.89 17.94,-126.62 19.24,-122.37"/>
<polygon fill="gray" stroke="gray" points="22.66,-123.18 22.55,-112.59 16.03,-120.93 22.66,-123.18"/>
<text text-anchor="middle" x="31.01" y="-182.1" font-family="Times,serif" font-style="italic" font-size="10.00">result</text>
<text text-anchor="middle" x="31.01" y="-171.1" font-family="Times,serif" font-style="italic" font-size="10.00">of</text>
<text text-anchor="middle" x="31.01" y="-160.1" font-family="Times,serif" font-style="italic" font-size="10.00">doing</text>
<text text-anchor="middle" x="31.01" y="-149.1" font-family="Times,serif" font-style="italic" font-size="10.00">all</text>
<text text-anchor="middle" x="31.01" y="-138.1" font-family="Times,serif" font-style="italic" font-size="10.00">this</text>
</g>
<!-- P2&#45;&gt;P1 -->
<g id="edge2" class="edge">
<title>P2&#45;&gt;P1</title>
<path fill="none" stroke="gray" d="M44.98,-116.9C45.41,-123 45.77,-129.2 46.01,-135.1 47,-159.52 47.15,-165.68 46.01,-190.1 45.89,-192.64 45.75,-195.24 45.57,-197.87"/>
<polygon fill="gray" stroke="gray" points="42.07,-197.8 44.81,-208.03 49.05,-198.32 42.07,-197.8"/>
<text text-anchor="middle" x="61.01" y="-182.1" font-family="Times,serif" font-style="italic" font-size="10.00">result</text>
<text text-anchor="middle" x="61.01" y="-171.1" font-family="Times,serif" font-style="italic" font-size="10.00">of</text>
<text text-anchor="middle" x="61.01" y="-160.1" font-family="Times,serif" font-style="italic" font-size="10.00">doing</text>
<text text-anchor="middle" x="61.01" y="-149.1" font-family="Times,serif" font-style="italic" font-size="10.00">all</text>
<text text-anchor="middle" x="61.01" y="-138.1" font-family="Times,serif" font-style="italic" font-size="10.00">that</text>
</g>
</g>
</svg>
