<?xml version="1.0" encoding="UTF-8" standalone="no"?>
<!DOCTYPE svg PUBLIC "-//W3C//DTD SVG 1.1//EN"
 "http://www.w3.org/Graphics/SVG/1.1/DTD/svg11.dtd">
<!-- Generated by graphviz version 2.43.0 (0)
 -->
<!-- Title: D Pages: 1 -->
<svg width="90pt" height="280pt"
 viewBox="0.00 0.00 90.02 279.63" xmlns="http://www.w3.org/2000/svg" xmlns:xlink="http://www.w3.org/1999/xlink">
<g id="graph0" class="graph" transform="scale(1 1) rotate(0) translate(4 275.63)">
<title>D</title>
<polygon fill="white" stroke="transparent" points="-4,4 -4,-275.63 86.02,-275.63 86.02,4 -4,4"/>
<text text-anchor="middle" x="41.01" y="-6.8" font-family="Helvetica,sans-Serif" font-size="9.00">[ wrapping&#45;3 ]</text>
<!-- P1 -->
<g id="node1" class="node">
<title>P1</title>
<ellipse fill="#eeeeee" stroke="black" cx="41.01" cy="-234.87" rx="41.02" ry="36.54"/>
<text text-anchor="middle" x="41.01" y="-248.87" font-family="Helvetica,sans-Serif" font-size="10.00">Do this</text>
<text text-anchor="middle" x="41.01" y="-237.87" font-family="Helvetica,sans-Serif" font-size="10.00">and this</text>
<text text-anchor="middle" x="41.01" y="-226.87" font-family="Helvetica,sans-Serif" font-size="10.00">and also</text>
<text text-anchor="middle" x="41.01" y="-215.87" font-family="Helvetica,sans-Serif" font-size="10.00">this</text>
</g>
<!-- P2 -->
<g id="node2" class="node">
<title>P2</title>
<ellipse fill="#eeeeee" stroke="black" cx="41.01" cy="-62.55" rx="41.02" ry="44.6"/>
<text text-anchor="middle" x="41.01" y="-82.05" font-family="Helvetica,sans-Serif" font-size="10.00">Do</text>
<text text-anchor="middle" x="41.01" y="-71.05" font-family="Helvetica,sans-Serif" font-size="10.00"> that</text>
<text text-anchor="middle" x="41.01" y="-60.05" font-family="Helvetica,sans-Serif" font-size="10.00">and that</text>
<text text-anchor="middle" x="41.01" y="-49.05" font-family="Helvetica,sans-Serif" font-size="10.00">and also</text>
<text text-anchor="middle" x="41.01" y="-38.05" font-family="Helvetica,sans-Serif" font-size="10.00">that</text>
</g>
<!-- P1&#45;&gt;P2 -->
<g id="edge1" class="edge">
<title>P1&#45;&gt;P2</title>
<path fill="none" stroke="gray" d="M23.31,-201.68C20.29,-194.75 17.61,-187.33 16.01,-180.1 10.73,-156.23 11.33,-149.09 16.01,-125.1 16.83,-120.89 17.94,-116.62 19.24,-112.37"/>
<polygon fill="gray" stroke="gray" points="22.66,-113.18 22.55,-102.59 16.03,-110.93 22.66,-113.18"/>
<text text-anchor="middle" x="31.01" y="-172.1" font-family="Times,serif" font-style="italic" font-size="10.00">result</text>
<text text-anchor="middle" x="31.01" y="-161.1" font-family="Times,serif" font-style="italic" font-size="10.00">of</text>
<text text-anchor="middle" x="31.01" y="-150.1" font-family="Times,serif" font-style="italic" font-size="10.00">doing</text>
<text text-anchor="middle" x="31.01" y="-139.1" font-family="Times,serif" font-style="italic" font-size="10.00">all</text>
<text text-anchor="middle" x="31.01" y="-128.1" font-family="Times,serif" font-style="italic" font-size="10.00">this</text>
</g>
<!-- P2&#45;&gt;P1 -->
<g id="edge2" class="edge">
<title>P2&#45;&gt;P1</title>
<path fill="none" stroke="gray" d="M44.98,-106.9C45.41,-113 45.77,-119.2 46.01,-125.1 47,-149.52 47.15,-155.68 46.01,-180.1 45.89,-182.64 45.75,-185.24 45.57,-187.87"/>
<polygon fill="gray" stroke="gray" points="42.07,-187.8 44.81,-198.03 49.05,-188.32 42.07,-187.8"/>
<text text-anchor="middle" x="61.01" y="-172.1" font-family="Times,serif" font-style="italic" font-size="10.00">result</text>
<text text-anchor="middle" x="61.01" y="-161.1" font-family="Times,serif" font-style="italic" font-size="10.00">of</text>
<text text-anchor="middle" x="61.01" y="-150.1" font-family="Times,serif" font-style="italic" font-size="10.00">doing</text>
<text text-anchor="middle" x="61.01" y="-139.1" font-family="Times,serif" font-style="italic" font-size="10.00">all</text>
<text text-anchor="middle" x="61.01" y="-128.1" font-family="Times,serif" font-style="italic" font-size="10.00">that</text>
</g>
</g>
</svg>
