<?xml version="1.0" encoding="UTF-8" standalone="no"?>
<!DOCTYPE svg PUBLIC "-//W3C//DTD SVG 1.1//EN"
 "http://www.w3.org/Graphics/SVG/1.1/DTD/svg11.dtd">
<!-- Generated by graphviz version 2.43.0 (0)
 -->
<!-- Title: D Pages: 1 -->
<svg width="172pt" height="195pt"
 viewBox="0.00 0.00 171.61 195.41" xmlns="http://www.w3.org/2000/svg" xmlns:xlink="http://www.w3.org/1999/xlink">
<g id="graph0" class="graph" transform="scale(1 1) rotate(0) translate(4 191.41)">
<title>D</title>
<polygon fill="white" stroke="transparent" points="-4,4 -4,-191.41 167.61,-191.41 167.61,4 -4,4"/>
<text text-anchor="middle" x="81.81" y="-6.8" font-family="Helvetica,sans-Serif" font-size="9.00">[ wrapping&#45;1 ]</text>
<!-- P1 -->
<g id="node1" class="node">
<title>P1</title>
<ellipse fill="#eeeeee" stroke="black" cx="80.61" cy="-166.2" rx="80.72" ry="21.43"/>
<text text-anchor="middle" x="80.61" y="-169.2" font-family="Helvetica,sans-Serif" font-size="10.00">Do this and this and</text>
<text text-anchor="middle" x="80.61" y="-158.2" font-family="Helvetica,sans-Serif" font-size="10.00">also this</text>
</g>
<!-- P2 -->
<g id="node2" class="node">
<title>P2</title>
<ellipse fill="#eeeeee" stroke="black" cx="80.61" cy="-46.99" rx="73.58" ry="28.98"/>
<text text-anchor="middle" x="80.61" y="-55.49" font-family="Helvetica,sans-Serif" font-size="10.00">Do</text>
<text text-anchor="middle" x="80.61" y="-44.49" font-family="Helvetica,sans-Serif" font-size="10.00"> that and that and</text>
<text text-anchor="middle" x="80.61" y="-33.49" font-family="Helvetica,sans-Serif" font-size="10.00">also that</text>
</g>
<!-- P1&#45;&gt;P2 -->
<g id="edge1" class="edge">
<title>P1&#45;&gt;P2</title>
<path fill="none" stroke="gray" d="M51.58,-146.29C45.52,-140.84 39.97,-134.35 36.61,-126.98 30.52,-113.64 31.15,-107.59 36.61,-93.98 38.32,-89.71 40.64,-85.62 43.33,-81.75"/>
<polygon fill="gray" stroke="gray" points="46.25,-83.69 49.69,-73.67 40.75,-79.36 46.25,-83.69"/>
<text text-anchor="middle" x="70.11" y="-113.48" font-family="Times,serif" font-style="italic" font-size="10.00">result of</text>
<text text-anchor="middle" x="70.11" y="-102.48" font-family="Times,serif" font-style="italic" font-size="10.00">doing all this</text>
</g>
<!-- P2&#45;&gt;P1 -->
<g id="edge2" class="edge">
<title>P2&#45;&gt;P1</title>
<path fill="none" stroke="gray" d="M96.89,-75.42C99.67,-81.35 102.13,-87.73 103.61,-93.98 106.98,-108.26 107.53,-112.85 103.61,-126.98 102.77,-130.02 101.61,-133.05 100.26,-136.01"/>
<polygon fill="gray" stroke="gray" points="97.03,-134.64 95.45,-145.11 103.22,-137.91 97.03,-134.64"/>
<text text-anchor="middle" x="134.61" y="-118.98" font-family="Times,serif" font-style="italic" font-size="10.00">result</text>
<text text-anchor="middle" x="134.61" y="-107.98" font-family="Times,serif" font-style="italic" font-size="10.00">of doing all</text>
<text text-anchor="middle" x="134.61" y="-96.98" font-family="Times,serif" font-style="italic" font-size="10.00">that</text>
</g>
</g>
</svg>
