<?xml version="1.0" encoding="UTF-8" standalone="no"?>
<!DOCTYPE svg PUBLIC "-//W3C//DTD SVG 1.1//EN"
 "http://www.w3.org/Graphics/SVG/1.1/DTD/svg11.dtd">
<!-- Generated by graphviz version 2.43.0 (0)
 -->
<!-- Title: D Pages: 1 -->
<svg width="241pt" height="144pt"
 viewBox="0.00 0.00 241.24 144.43" xmlns="http://www.w3.org/2000/svg" xmlns:xlink="http://www.w3.org/1999/xlink">
<g id="graph0" class="graph" transform="scale(1 1) rotate(0) translate(4 140.43)">
<title>D</title>
<polygon fill="white" stroke="transparent" points="-4,4 -4,-140.43 237.24,-140.43 237.24,4 -4,4"/>
<!-- P1 -->
<g id="node1" class="node">
<title>P1</title>
<ellipse fill="#eeeeee" stroke="black" cx="103.24" cy="-118.43" rx="93.02" ry="18"/>
<text text-anchor="middle" x="103.24" y="-115.93" font-family="Helvetica,sans-Serif" font-size="10.00">Do this and this and also this</text>
</g>
<!-- P2 -->
<g id="node2" class="node">
<title>P2</title>
<ellipse fill="#eeeeee" stroke="black" cx="103.24" cy="-21.21" rx="103.48" ry="21.43"/>
<text text-anchor="middle" x="103.24" y="-24.21" font-family="Helvetica,sans-Serif" font-size="10.00">Do</text>
<text text-anchor="middle" x="103.24" y="-13.21" font-family="Helvetica,sans-Serif" font-size="10.00">that and that and also that</text>
</g>
<!-- P1&#45;&gt;P2 -->
<g id="edge1" class="edge">
<title>P1&#45;&gt;P2</title>
<path fill="none" stroke="gray" d="M59.11,-102.57C50.41,-97.56 42.39,-90.98 37.24,-82.43 32.2,-74.05 32.35,-68.9 37.24,-60.43 40.29,-55.14 44.38,-50.51 49.04,-46.48"/>
<polygon fill="gray" stroke="gray" points="51.44,-49.06 57.34,-40.26 47.24,-43.46 51.44,-49.06"/>
<text text-anchor="middle" x="93.24" y="-68.93" font-family="Times,serif" font-style="italic" font-size="10.00">result of doing all this</text>
</g>
<!-- P2&#45;&gt;P1 -->
<g id="edge2" class="edge">
<title>P2&#45;&gt;P1</title>
<path fill="none" stroke="gray" d="M134.51,-41.73C140.47,-47.01 145.89,-53.28 149.24,-60.43 153.39,-69.28 153.58,-73.67 149.24,-82.43 147.07,-86.8 144.06,-90.78 140.61,-94.36"/>
<polygon fill="gray" stroke="gray" points="138.17,-91.85 133.04,-101.12 142.83,-97.07 138.17,-91.85"/>
<text text-anchor="middle" x="192.74" y="-74.43" font-family="Times,serif" font-style="italic" font-size="10.00">result</text>
<text text-anchor="middle" x="192.74" y="-63.43" font-family="Times,serif" font-style="italic" font-size="10.00">of doing all that</text>
</g>
</g>
</svg>
