<?xml version="1.0" encoding="UTF-8" standalone="no"?>
<!DOCTYPE svg PUBLIC "-//W3C//DTD SVG 1.1//EN"
 "http://www.w3.org/Graphics/SVG/1.1/DTD/svg11.dtd">
<!-- Generated by graphviz version 2.43.0 (0)
 -->
<!-- Title: D Pages: 1 -->
<svg width="172pt" height="177pt"
 viewBox="0.00 0.00 171.61 177.41" xmlns="http://www.w3.org/2000/svg" xmlns:xlink="http://www.w3.org/1999/xlink">
<g id="graph0" class="graph" transform="scale(1 1) rotate(0) translate(4 173.41)">
<title>D</title>
<polygon fill="white" stroke="transparent" points="-4,4 -4,-173.41 167.61,-173.41 167.61,4 -4,4"/>
<!-- P1 -->
<g id="node1" class="node">
<title>P1</title>
<ellipse fill="#eeeeee" stroke="black" cx="80.61" cy="-148.2" rx="80.72" ry="21.43"/>
<text text-anchor="middle" x="80.61" y="-151.2" font-family="Helvetica,sans-Serif" font-size="10.00">Do this and this and</text>
<text text-anchor="middle" x="80.61" y="-140.2" font-family="Helvetica,sans-Serif" font-size="10.00">also this</text>
</g>
<!-- P2 -->
<g id="node2" class="node">
<title>P2</title>
<ellipse fill="#eeeeee" stroke="black" cx="80.61" cy="-28.99" rx="73.58" ry="28.98"/>
<text text-anchor="middle" x="80.61" y="-37.49" font-family="Helvetica,sans-Serif" font-size="10.00">Do</text>
<text text-anchor="middle" x="80.61" y="-26.49" font-family="Helvetica,sans-Serif" font-size="10.00"> that and that and</text>
<text text-anchor="middle" x="80.61" y="-15.49" font-family="Helvetica,sans-Serif" font-size="10.00">also that</text>
</g>
<!-- P1&#45;&gt;P2 -->
<g id="edge1" class="edge">
<title>P1&#45;&gt;P2</title>
<path fill="none" stroke="gray" d="M51.58,-128.29C45.52,-122.84 39.97,-116.35 36.61,-108.98 30.52,-95.64 31.15,-89.59 36.61,-75.98 38.32,-71.71 40.64,-67.62 43.33,-63.75"/>
<polygon fill="gray" stroke="gray" points="46.25,-65.69 49.69,-55.67 40.75,-61.36 46.25,-65.69"/>
<text text-anchor="middle" x="70.11" y="-95.48" font-family="Times,serif" font-style="italic" font-size="10.00">result of</text>
<text text-anchor="middle" x="70.11" y="-84.48" font-family="Times,serif" font-style="italic" font-size="10.00">doing all this</text>
</g>
<!-- P2&#45;&gt;P1 -->
<g id="edge2" class="edge">
<title>P2&#45;&gt;P1</title>
<path fill="none" stroke="gray" d="M96.89,-57.42C99.67,-63.35 102.13,-69.73 103.61,-75.98 106.98,-90.26 107.53,-94.85 103.61,-108.98 102.77,-112.02 101.61,-115.05 100.26,-118.01"/>
<polygon fill="gray" stroke="gray" points="97.03,-116.64 95.45,-127.11 103.22,-119.91 97.03,-116.64"/>
<text text-anchor="middle" x="134.61" y="-100.98" font-family="Times,serif" font-style="italic" font-size="10.00">result</text>
<text text-anchor="middle" x="134.61" y="-89.98" font-family="Times,serif" font-style="italic" font-size="10.00">of doing all</text>
<text text-anchor="middle" x="134.61" y="-78.98" font-family="Times,serif" font-style="italic" font-size="10.00">that</text>
</g>
</g>
</svg>
