<?xml version="1.0" encoding="UTF-8" standalone="no"?>
<!DOCTYPE svg PUBLIC "-//W3C//DTD SVG 1.1//EN"
 "http://www.w3.org/Graphics/SVG/1.1/DTD/svg11.dtd">
<!-- Generated by graphviz version 2.43.0 (0)
 -->
<!-- Title: D Pages: 1 -->
<svg width="228pt" height="238pt"
 viewBox="0.00 0.00 228.04 238.00" xmlns="http://www.w3.org/2000/svg" xmlns:xlink="http://www.w3.org/1999/xlink">
<g id="graph0" class="graph" transform="scale(1 1) rotate(0) translate(4 234)">
<title>D</title>
<polygon fill="white" stroke="transparent" points="-4,4 -4,-234 224.04,-234 224.04,4 -4,4"/>
<text text-anchor="middle" x="110.02" y="-6.8" font-family="Helvetica,sans-Serif" font-size="9.00" fill="#000060">&#45; img/attributes&#45;alias &#45;</text>
<!-- P0 -->
<g id="node1" class="node">
<title>P0</title>
<ellipse fill="lightgrey" stroke="black" stroke-width="2" stroke-dasharray="5,2" cx="115.04" cy="-212" rx="27" ry="18"/>
<text text-anchor="middle" x="115.04" y="-209.5" font-family="Helvetica,sans-Serif" font-size="10.00">Start</text>
</g>
<!-- P1 -->
<g id="node2" class="node">
<title>P1</title>
<ellipse fill="#eeeeee" stroke="black" cx="115.04" cy="-129" rx="50.07" ry="18"/>
<text text-anchor="middle" x="115.04" y="-126.5" font-family="Helvetica,sans-Serif" font-size="10.00">System check</text>
</g>
<!-- P0&#45;&gt;P1 -->
<g id="edge1" class="edge">
<title>P0&#45;&gt;P1</title>
<path fill="none" stroke="gray" stroke-dasharray="5,2" d="M115.04,-193.82C115.04,-183.19 115.04,-169.31 115.04,-157.2"/>
<polygon fill="gray" stroke="gray" points="118.54,-157.15 115.04,-147.15 111.54,-157.15 118.54,-157.15"/>
<text text-anchor="middle" x="133.04" y="-168" font-family="Times,serif" font-style="italic" font-size="10.00">trigger</text>
</g>
<!-- P2 -->
<g id="node3" class="node">
<title>P2</title>
<ellipse fill="red" stroke="transparent" cx="60.04" cy="-46" rx="60.09" ry="18"/>
<text text-anchor="middle" x="60.04" y="-43.5" font-family="Helvetica,sans-Serif" font-size="10.00" fill="white">Malfunction state</text>
</g>
<!-- P1&#45;&gt;P2 -->
<g id="edge2" class="edge">
<title>P1&#45;&gt;P2</title>
<path fill="none" stroke="red" d="M71.6,-119.69C56.82,-114.57 41.83,-106.3 33.04,-93 28.5,-86.11 30.39,-78.45 34.78,-71.38"/>
<polygon fill="red" stroke="red" points="37.56,-73.5 40.86,-63.44 32.01,-69.25 37.56,-73.5"/>
<text text-anchor="middle" x="63.04" y="-85" font-family="Times,serif" font-style="italic" font-size="10.00" fill="red">issue found</text>
</g>
<!-- P3 -->
<g id="node4" class="node">
<title>P3</title>
<ellipse fill="lightgrey" stroke="green" stroke-width="2" cx="193.04" cy="-46" rx="27" ry="18"/>
<text text-anchor="middle" x="193.04" y="-43.5" font-family="Helvetica,sans-Serif" font-size="10.00" fill="green">Done</text>
</g>
<!-- P1&#45;&gt;P3 -->
<g id="edge4" class="edge">
<title>P1&#45;&gt;P3</title>
<path fill="none" stroke="green" stroke-width="2" d="M136.03,-112.55C143.32,-106.77 151.35,-99.92 158.04,-93 164.56,-86.26 170.99,-78.31 176.52,-70.94"/>
<polygon fill="green" stroke="green" stroke-width="2" points="179.49,-72.79 182.55,-62.65 173.83,-68.68 179.49,-72.79"/>
<text text-anchor="middle" x="182.54" y="-85" font-family="Times,serif" font-style="italic" font-size="10.00" fill="green">all OK</text>
</g>
<!-- P2&#45;&gt;P1 -->
<g id="edge3" class="edge">
<title>P2&#45;&gt;P1</title>
<path fill="none" stroke="blue" d="M77.63,-63.53C82.98,-69.09 88.6,-75.53 93.04,-82 97.21,-88.08 101,-95.08 104.21,-101.75"/>
<polygon fill="blue" stroke="blue" points="101.16,-103.49 108.48,-111.14 107.53,-100.59 101.16,-103.49"/>
<text text-anchor="middle" x="126.54" y="-85" font-family="Times,serif" font-style="italic" font-size="10.00" fill="blue">issue fixed</text>
</g>
</g>
</svg>
