<?xml version="1.0" encoding="UTF-8" standalone="no"?>
<!DOCTYPE svg PUBLIC "-//W3C//DTD SVG 1.1//EN"
 "http://www.w3.org/Graphics/SVG/1.1/DTD/svg11.dtd">
<!-- Generated by graphviz version 2.43.0 (0)
 -->
<!-- Title: D Pages: 1 -->
<svg width="175pt" height="244pt"
 viewBox="0.00 0.00 175.23 244.43" xmlns="http://www.w3.org/2000/svg" xmlns:xlink="http://www.w3.org/1999/xlink">
<g id="graph0" class="graph" transform="scale(1 1) rotate(0) translate(4 240.43)">
<title>D</title>
<polygon fill="white" stroke="transparent" points="-4,4 -4,-240.43 171.23,-240.43 171.23,4 -4,4"/>
<text text-anchor="middle" x="83.61" y="-6.8" font-family="Helvetica,sans-Serif" font-size="9.00" fill="#000060">&#45; img/attributes &#45;</text>
<!-- P1 -->
<g id="node1" class="node">
<title>P1</title>
<ellipse fill="red" stroke="black" cx="135.23" cy="-218.43" rx="28.01" ry="18"/>
<text text-anchor="middle" x="135.23" y="-215.93" font-family="Helvetica,sans-Serif" font-size="10.00">Red bg</text>
</g>
<!-- P2 -->
<g id="node2" class="node">
<title>P2</title>
<ellipse fill="#eeeeee" stroke="red" cx="62.23" cy="-132.21" rx="62.45" ry="21.43"/>
<text text-anchor="middle" x="62.23" y="-135.21" font-family="Helvetica,sans-Serif" font-size="10.00" fill="blue">Red border, blue</text>
<text text-anchor="middle" x="62.23" y="-124.21" font-family="Helvetica,sans-Serif" font-size="10.00" fill="blue">text</text>
</g>
<!-- P1&#45;&gt;P2 -->
<g id="edge1" class="edge">
<title>P1&#45;&gt;P2</title>
<path fill="none" stroke="red" d="M122.17,-202.37C112.16,-190.82 98.07,-174.57 86.07,-160.72"/>
<polygon fill="red" stroke="red" points="88.48,-158.16 79.29,-152.89 83.19,-162.74 88.48,-158.16"/>
<text text-anchor="middle" x="110.23" y="-174.43" font-family="Times,serif" font-style="italic" font-size="10.00" fill="red">red</text>
</g>
<!-- P3 -->
<g id="node3" class="node">
<title>P3</title>
<ellipse fill="blue" stroke="blue" cx="111.23" cy="-46" rx="42.94" ry="18"/>
<text text-anchor="middle" x="111.23" y="-43.5" font-family="Helvetica,sans-Serif" font-size="10.00" fill="white">Inverted blue</text>
</g>
<!-- P1&#45;&gt;P3 -->
<g id="edge3" class="edge">
<title>P1&#45;&gt;P3</title>
<path fill="none" stroke="gray" stroke-width="2" d="M139.49,-200.58C145.31,-174.37 153.47,-122.62 139.23,-82 137.87,-78.14 135.9,-74.4 133.61,-70.88"/>
<polygon fill="gray" stroke="gray" stroke-width="2" points="136.26,-68.58 127.47,-62.67 130.65,-72.77 136.26,-68.58"/>
<text text-anchor="middle" x="156.73" y="-129.71" font-family="Times,serif" font-style="italic" font-size="10.00">thick</text>
</g>
<!-- P2&#45;&gt;P3 -->
<g id="edge2" class="edge">
<title>P2&#45;&gt;P3</title>
<path fill="none" stroke="blue" d="M73.84,-111.26C80.56,-99.71 89.09,-85.05 96.3,-72.65"/>
<polygon fill="blue" stroke="blue" points="99.51,-74.1 101.51,-63.7 93.46,-70.58 99.51,-74.1"/>
<text text-anchor="middle" x="112.73" y="-85" font-family="Times,serif" font-style="italic" font-size="10.00">blue arrow</text>
</g>
</g>
</svg>
