<?xml version="1.0" encoding="UTF-8" standalone="no"?>
<!DOCTYPE svg PUBLIC "-//W3C//DTD SVG 1.1//EN"
 "http://www.w3.org/Graphics/SVG/1.1/DTD/svg11.dtd">
<!-- Generated by graphviz version 2.43.0 (0)
 -->
<!-- Title: D Pages: 1 -->
<svg width="207pt" height="238pt"
 viewBox="0.00 0.00 207.16 238.00" xmlns="http://www.w3.org/2000/svg" xmlns:xlink="http://www.w3.org/1999/xlink">
<g id="graph0" class="graph" transform="scale(1 1) rotate(0) translate(4 234)">
<title>D</title>
<polygon fill="white" stroke="transparent" points="-4,4 -4,-234 203.16,-234 203.16,4 -4,4"/>
<text text-anchor="middle" x="99.58" y="-6.8" font-family="Helvetica,sans-Serif" font-size="9.00" fill="#000060">&#45; img/attributes&#45;alias &#45;</text>
<!-- P0 -->
<g id="node1" class="node">
<title>P0</title>
<ellipse fill="lightgrey" stroke="black" stroke-width="2" stroke-dasharray="5,2" cx="106.16" cy="-212" rx="27" ry="18"/>
<text text-anchor="middle" x="106.16" y="-209.5" font-family="Helvetica,sans-Serif" font-size="10.00">Start</text>
</g>
<!-- P1 -->
<g id="node2" class="node">
<title>P1</title>
<ellipse fill="#eeeeee" stroke="black" cx="106.16" cy="-129" rx="47.19" ry="18"/>
<text text-anchor="middle" x="106.16" y="-126.5" font-family="Helvetica,sans-Serif" font-size="10.00">System check</text>
</g>
<!-- P0&#45;&gt;P1 -->
<g id="edge1" class="edge">
<title>P0&#45;&gt;P1</title>
<path fill="none" stroke="gray" stroke-dasharray="5,2" d="M106.16,-193.82C106.16,-183.19 106.16,-169.31 106.16,-157.2"/>
<polygon fill="gray" stroke="gray" points="109.66,-157.15 106.16,-147.15 102.66,-157.15 109.66,-157.15"/>
<text text-anchor="middle" x="120.66" y="-168" font-family="Times,serif" font-style="italic" font-size="10.00">trigger</text>
</g>
<!-- P2 -->
<g id="node3" class="node">
<title>P2</title>
<ellipse fill="red" stroke="transparent" cx="54.16" cy="-46" rx="54.31" ry="18"/>
<text text-anchor="middle" x="54.16" y="-43.5" font-family="Helvetica,sans-Serif" font-size="10.00" fill="white">Malfunction state</text>
</g>
<!-- P1&#45;&gt;P2 -->
<g id="edge2" class="edge">
<title>P1&#45;&gt;P2</title>
<path fill="none" stroke="red" d="M68.71,-117.76C56.49,-112.45 44.26,-104.56 37.16,-93 33.45,-86.96 33.95,-79.97 36.32,-73.3"/>
<polygon fill="red" stroke="red" points="39.66,-74.43 40.85,-63.9 33.36,-71.39 39.66,-74.43"/>
<text text-anchor="middle" x="60.66" y="-85" font-family="Times,serif" font-style="italic" font-size="10.00" fill="red">issue found</text>
</g>
<!-- P3 -->
<g id="node4" class="node">
<title>P3</title>
<ellipse fill="lightgrey" stroke="green" stroke-width="2" cx="172.16" cy="-46" rx="27" ry="18"/>
<text text-anchor="middle" x="172.16" y="-43.5" font-family="Helvetica,sans-Serif" font-size="10.00" fill="green">Done</text>
</g>
<!-- P1&#45;&gt;P3 -->
<g id="edge4" class="edge">
<title>P1&#45;&gt;P3</title>
<path fill="none" stroke="green" stroke-width="2" d="M120.92,-111.84C126.15,-105.99 132,-99.27 137.16,-93 143.02,-85.87 149.19,-77.92 154.68,-70.66"/>
<polygon fill="green" stroke="green" stroke-width="2" points="157.57,-72.65 160.77,-62.56 151.97,-68.45 157.57,-72.65"/>
<text text-anchor="middle" x="158.16" y="-85" font-family="Times,serif" font-style="italic" font-size="10.00" fill="green">all OK</text>
</g>
<!-- P2&#45;&gt;P1 -->
<g id="edge3" class="edge">
<title>P2&#45;&gt;P1</title>
<path fill="none" stroke="blue" d="M69.75,-63.38C74.7,-69.03 79.96,-75.56 84.16,-82 88.12,-88.08 91.8,-94.98 94.97,-101.56"/>
<polygon fill="blue" stroke="blue" points="91.87,-103.2 99.23,-110.82 98.23,-100.27 91.87,-103.2"/>
<text text-anchor="middle" x="111.66" y="-85" font-family="Times,serif" font-style="italic" font-size="10.00" fill="blue">issue fixed</text>
</g>
</g>
</svg>
