<?xml version="1.0" encoding="UTF-8" standalone="no"?>
<!DOCTYPE svg PUBLIC "-//W3C//DTD SVG 1.1//EN"
 "http://www.w3.org/Graphics/SVG/1.1/DTD/svg11.dtd">
<!-- Generated by graphviz version 2.43.0 (0)
 -->
<!-- Title: D Pages: 1 -->
<svg width="197pt" height="244pt"
 viewBox="0.00 0.00 196.59 244.43" xmlns="http://www.w3.org/2000/svg" xmlns:xlink="http://www.w3.org/1999/xlink">
<g id="graph0" class="graph" transform="scale(1 1) rotate(0) translate(4 240.43)">
<title>D</title>
<polygon fill="white" stroke="transparent" points="-4,4 -4,-240.43 192.59,-240.43 192.59,4 -4,4"/>
<text text-anchor="middle" x="94.29" y="-6.8" font-family="Helvetica,sans-Serif" font-size="9.00" fill="#000060">&#45; img/attributes &#45;</text>
<!-- P1 -->
<g id="node1" class="node">
<title>P1</title>
<ellipse fill="red" stroke="black" cx="120.59" cy="-218.43" rx="29.37" ry="18"/>
<text text-anchor="middle" x="120.59" y="-215.93" font-family="Helvetica,sans-Serif" font-size="10.00">Red bg</text>
</g>
<!-- P2 -->
<g id="node2" class="node">
<title>P2</title>
<ellipse fill="#eeeeee" stroke="red" cx="68.59" cy="-132.21" rx="68.68" ry="21.43"/>
<text text-anchor="middle" x="68.59" y="-135.21" font-family="Helvetica,sans-Serif" font-size="10.00" fill="blue">Red border, blue</text>
<text text-anchor="middle" x="68.59" y="-124.21" font-family="Helvetica,sans-Serif" font-size="10.00" fill="blue">text</text>
</g>
<!-- P1&#45;&gt;P2 -->
<g id="edge1" class="edge">
<title>P1&#45;&gt;P2</title>
<path fill="none" stroke="red" d="M110.56,-201.19C103.71,-190.08 94.43,-175.06 86.34,-161.95"/>
<polygon fill="red" stroke="red" points="89.2,-159.93 80.97,-153.26 83.25,-163.61 89.2,-159.93"/>
<text text-anchor="middle" x="107.59" y="-174.43" font-family="Times,serif" font-style="italic" font-size="10.00" fill="red">red</text>
</g>
<!-- P3 -->
<g id="node3" class="node">
<title>P3</title>
<ellipse fill="blue" stroke="blue" cx="121.59" cy="-46" rx="47.86" ry="18"/>
<text text-anchor="middle" x="121.59" y="-43.5" font-family="Helvetica,sans-Serif" font-size="10.00" fill="white">Inverted blue</text>
</g>
<!-- P1&#45;&gt;P3 -->
<g id="edge3" class="edge">
<title>P1&#45;&gt;P3</title>
<path fill="none" stroke="gray" stroke-width="2" d="M131.6,-201.54C148,-175.76 175.14,-123.54 157.59,-82 155.7,-77.52 152.92,-73.33 149.73,-69.51"/>
<polygon fill="gray" stroke="gray" stroke-width="2" points="152.21,-67.04 142.76,-62.24 147.15,-71.88 152.21,-67.04"/>
<text text-anchor="middle" x="176.09" y="-129.71" font-family="Times,serif" font-style="italic" font-size="10.00">thick</text>
</g>
<!-- P2&#45;&gt;P3 -->
<g id="edge2" class="edge">
<title>P2&#45;&gt;P3</title>
<path fill="none" stroke="blue" d="M81.15,-111.26C88.49,-99.59 97.83,-84.76 105.68,-72.28"/>
<polygon fill="blue" stroke="blue" points="108.72,-74.02 111.08,-63.7 102.79,-70.3 108.72,-74.02"/>
<text text-anchor="middle" x="126.09" y="-85" font-family="Times,serif" font-style="italic" font-size="10.00">blue arrow</text>
</g>
</g>
</svg>
