<?xml version="1.0" encoding="UTF-8" standalone="no"?>
<!DOCTYPE svg PUBLIC "-//W3C//DTD SVG 1.1//EN"
 "http://www.w3.org/Graphics/SVG/1.1/DTD/svg11.dtd">
<!-- Generated by graphviz version 2.43.0 (0)
 -->
<!-- Title: D Pages: 1 -->
<svg width="588pt" height="229pt"
 viewBox="0.00 0.00 587.52 228.50" xmlns="http://www.w3.org/2000/svg" xmlns:xlink="http://www.w3.org/1999/xlink">
<g id="graph0" class="graph" transform="scale(1 1) rotate(0) translate(4 224.5)">
<title>D</title>
<polygon fill="white" stroke="transparent" points="-4,4 -4,-224.5 583.52,-224.5 583.52,4 -4,4"/>
<text text-anchor="middle" x="289.76" y="-6.8" font-family="Helvetica,sans-Serif" font-size="9.00" fill="#000060">&#45; img/complete&#45;example &#45;</text>
<!-- Acquire -->
<g id="node1" class="node">
<title>Acquire</title>
<ellipse fill="#eeeeee" stroke="black" cx="195.8" cy="-145" rx="41.59" ry="18"/>
<text text-anchor="middle" x="195.8" y="-142.5" font-family="Helvetica,sans-Serif" font-size="10.00">Acquire data</text>
</g>
<!-- Compute -->
<g id="node2" class="node">
<title>Compute</title>
<ellipse fill="#eeeeee" stroke="black" cx="355.56" cy="-179" rx="32.93" ry="18"/>
<text text-anchor="middle" x="355.56" y="-176.5" font-family="Helvetica,sans-Serif" font-size="10.00">Compute</text>
</g>
<!-- Acquire&#45;&gt;Compute -->
<g id="edge6" class="edge">
<title>Acquire&#45;&gt;Compute</title>
<path fill="none" stroke="gray" d="M233.38,-152.89C257.71,-158.13 289.64,-165.01 314.62,-170.39"/>
<polygon fill="gray" stroke="gray" points="314,-173.84 324.51,-172.52 315.47,-167 314,-173.84"/>
<text text-anchor="middle" x="280.09" y="-171" font-family="Times,serif" font-style="italic" font-size="10.00">raw records</text>
</g>
<!-- API -->
<g id="node6" class="node">
<title>API</title>
<polygon fill="black" stroke="transparent" points="515.52,-165 515.52,-193 519.52,-193 519.52,-165 515.52,-165"/>
<text text-anchor="start" x="509.02" y="-153" font-family="Helvetica,sans-Serif" font-size="10.00">API</text>
</g>
<!-- Compute&#45;&gt;API -->
<g id="edge8" class="edge">
<title>Compute&#45;&gt;API:c</title>
<path fill="none" stroke="gray" d="M388.54,-179C424.48,-179 480.94,-179 505.02,-179"/>
<polygon fill="gray" stroke="gray" points="505.35,-182.5 515.35,-179 505.35,-175.5 505.35,-182.5"/>
<text text-anchor="middle" x="422.02" y="-182" font-family="Times,serif" font-style="italic" font-size="10.00">records</text>
</g>
<!-- Control -->
<g id="node3" class="node">
<title>Control</title>
<ellipse fill="#eeeeee" stroke="black" stroke-dasharray="5,2" cx="195.8" cy="-73" rx="28.01" ry="18"/>
<text text-anchor="middle" x="195.8" y="-70.5" font-family="Helvetica,sans-Serif" font-size="10.00">Control</text>
</g>
<!-- Control&#45;&gt;Acquire -->
<g id="edge4" class="edge">
<title>Control&#45;&gt;Acquire</title>
<path fill="none" stroke="gray" stroke-dasharray="5,2" d="M195.8,-91.17C195.8,-98.87 195.8,-108.03 195.8,-116.58"/>
<polygon fill="gray" stroke="gray" points="192.3,-116.59 195.8,-126.59 199.3,-116.59 192.3,-116.59"/>
<text text-anchor="middle" x="187.3" y="-106.5" font-family="Times,serif" font-style="italic" font-size="10.00">sampling</text>
</g>
<!-- __star_1__ -->
<g id="node8" class="node">
<title>__star_1__</title>
<text text-anchor="middle" x="355.56" y="-97.5" font-family="Times,serif" font-style="italic" font-size="10.00">enable</text>
</g>
<!-- Control&#45;&gt;__star_1__ -->
<g id="edge2" class="edge">
<title>Control&#45;&gt;__star_1__</title>
<path fill="none" stroke="gray" stroke-dasharray="5,2" d="M233.37,-79.26C262.43,-84.23 302.38,-91.07 328.33,-95.51"/>
<polygon fill="gray" stroke="gray" points="233.65,-75.76 223.2,-77.52 232.47,-82.66 233.65,-75.76"/>
</g>
<!-- __star_2__ -->
<g id="node9" class="node">
<title>__star_2__</title>
<text text-anchor="middle" x="355.56" y="-43.5" font-family="Times,serif" font-style="italic" font-size="10.00">disable</text>
</g>
<!-- Control&#45;&gt;__star_2__ -->
<g id="edge3" class="edge">
<title>Control&#45;&gt;__star_2__</title>
<path fill="none" stroke="gray" stroke-dasharray="5,2" d="M233.37,-66.74C262.43,-61.77 302.38,-54.93 328.33,-50.49"/>
<polygon fill="gray" stroke="gray" points="232.47,-63.34 223.2,-68.48 233.65,-70.24 232.47,-63.34"/>
</g>
<!-- Device -->
<g id="node4" class="node">
<title>Device</title>
<polygon fill="none" stroke="black" points="54,-163 0,-163 0,-127 54,-127 54,-163"/>
<text text-anchor="middle" x="27" y="-142.5" font-family="Helvetica,sans-Serif" font-size="10.00">Device</text>
</g>
<!-- Device&#45;&gt;Acquire -->
<g id="edge5" class="edge">
<title>Device&#45;&gt;Acquire</title>
<path fill="none" stroke="gray" d="M54.06,-145C75.38,-145 106.39,-145 133.88,-145"/>
<polygon fill="gray" stroke="gray" points="143.99,-148.5 153.99,-145 143.99,-141.5 143.99,-148.5"/>
<polygon fill="gray" stroke="gray" points="133.99,-148.5 143.99,-145 133.99,-141.5 133.99,-148.5"/>
<text text-anchor="middle" x="104" y="-159" font-family="Times,serif" font-style="italic" font-size="10.00">continuous raw</text>
<text text-anchor="middle" x="104" y="-148" font-family="Times,serif" font-style="italic" font-size="10.00">data</text>
</g>
<!-- Config -->
<g id="node5" class="node">
<title>Config</title>
<polygon fill="black" stroke="transparent" points="164.8,-210 164.8,-214 226.8,-214 226.8,-210 164.8,-210"/>
<text text-anchor="start" x="166.8" y="-198" font-family="Helvetica,sans-Serif" font-size="10.00">Configuration</text>
<polygon fill="black" stroke="transparent" points="164.8,-187 164.8,-191 226.8,-191 226.8,-187 164.8,-187"/>
</g>
<!-- Config&#45;&gt;Compute -->
<g id="edge7" class="edge">
<title>Config&#45;&gt;Compute</title>
<path fill="none" stroke="gray" d="M247.08,-193.99C268.41,-191.01 292.96,-187.59 313.21,-184.77"/>
<polygon fill="gray" stroke="gray" points="246.43,-190.54 237.01,-195.39 247.4,-197.48 246.43,-190.54"/>
<polygon fill="gray" stroke="gray" points="313.95,-188.2 323.37,-183.35 312.98,-181.26 313.95,-188.2"/>
<text text-anchor="middle" x="280.09" y="-195" font-family="Times,serif" font-style="italic" font-size="10.00">parameters</text>
</g>
<!-- __star_0__ -->
<g id="node7" class="node">
<title>__star_0__</title>
<text text-anchor="middle" x="27" y="-70.5" font-family="Times,serif" font-style="italic" font-size="10.00">clock</text>
</g>
<!-- __star_0__&#45;&gt;Control -->
<g id="edge1" class="edge">
<title>__star_0__&#45;&gt;Control</title>
<path fill="none" stroke="gray" stroke-dasharray="5,2" d="M54.06,-73C81.8,-73 125.95,-73 157.4,-73"/>
<polygon fill="gray" stroke="gray" points="157.53,-76.5 167.53,-73 157.53,-69.5 157.53,-76.5"/>
</g>
</g>
</svg>
