<?xml version="1.0" encoding="UTF-8" standalone="no"?>
<!DOCTYPE svg PUBLIC "-//W3C//DTD SVG 1.1//EN"
 "http://www.w3.org/Graphics/SVG/1.1/DTD/svg11.dtd">
<!-- Generated by graphviz version 2.43.0 (0)
 -->
<!-- Title: D Pages: 1 -->
<svg width="319pt" height="398pt"
 viewBox="0.00 0.00 319.00 398.00" xmlns="http://www.w3.org/2000/svg" xmlns:xlink="http://www.w3.org/1999/xlink">
<g id="graph0" class="graph" transform="scale(1 1) rotate(0) translate(4 394)">
<title>D</title>
<polygon fill="white" stroke="transparent" points="-4,4 -4,-394 315,-394 315,4 -4,4"/>
<text text-anchor="middle" x="155.5" y="-6.8" font-family="Helvetica,sans-Serif" font-size="9.00" fill="#000060">&#45; img/connections &#45;</text>
<!-- A1 -->
<g id="node1" class="node">
<title>A1</title>
<ellipse fill="#eeeeee" stroke="black" cx="55" cy="-46" rx="27" ry="18"/>
<text text-anchor="middle" x="55" y="-43.5" font-family="Helvetica,sans-Serif" font-size="10.00">A1</text>
</g>
<!-- A2 -->
<g id="node2" class="node">
<title>A2</title>
<ellipse fill="#eeeeee" stroke="black" cx="264.5" cy="-46" rx="27" ry="18"/>
<text text-anchor="middle" x="264.5" y="-43.5" font-family="Helvetica,sans-Serif" font-size="10.00">A2</text>
</g>
<!-- A1&#45;&gt;A2 -->
<g id="edge1" class="edge">
<title>A1&#45;&gt;A2</title>
<path fill="none" stroke="gray" d="M82.28,-46C119,-46 185.79,-46 227.23,-46"/>
<polygon fill="gray" stroke="gray" points="227.43,-49.5 237.43,-46 227.43,-42.5 227.43,-49.5"/>
<text text-anchor="middle" x="164" y="-49" font-family="Times,serif" font-style="italic" font-size="10.00">a flow</text>
</g>
<!-- B1 -->
<g id="node3" class="node">
<title>B1</title>
<ellipse fill="#eeeeee" stroke="black" cx="55" cy="-100" rx="27" ry="18"/>
<text text-anchor="middle" x="55" y="-97.5" font-family="Helvetica,sans-Serif" font-size="10.00">B1</text>
</g>
<!-- B2 -->
<g id="node4" class="node">
<title>B2</title>
<ellipse fill="#eeeeee" stroke="black" cx="264.5" cy="-100" rx="27" ry="18"/>
<text text-anchor="middle" x="264.5" y="-97.5" font-family="Helvetica,sans-Serif" font-size="10.00">B2</text>
</g>
<!-- B1&#45;&gt;B2 -->
<g id="edge2" class="edge">
<title>B1&#45;&gt;B2</title>
<path fill="none" stroke="gray" d="M82.28,-100C116.19,-100 175.76,-100 217.3,-100"/>
<polygon fill="gray" stroke="gray" points="227.43,-103.5 237.43,-100 227.43,-96.5 227.43,-103.5"/>
<polygon fill="gray" stroke="gray" points="217.43,-103.5 227.43,-100 217.43,-96.5 217.43,-103.5"/>
<text text-anchor="middle" x="164" y="-114" font-family="Times,serif" font-style="italic" font-size="10.00">a continuous</text>
<text text-anchor="middle" x="164" y="-103" font-family="Times,serif" font-style="italic" font-size="10.00">flow</text>
</g>
<!-- C1 -->
<g id="node5" class="node">
<title>C1</title>
<ellipse fill="#eeeeee" stroke="black" cx="55" cy="-154" rx="27" ry="18"/>
<text text-anchor="middle" x="55" y="-151.5" font-family="Helvetica,sans-Serif" font-size="10.00">C1</text>
</g>
<!-- C2 -->
<g id="node6" class="node">
<title>C2</title>
<ellipse fill="#eeeeee" stroke="black" cx="264.5" cy="-154" rx="27" ry="18"/>
<text text-anchor="middle" x="264.5" y="-151.5" font-family="Helvetica,sans-Serif" font-size="10.00">C2</text>
</g>
<!-- C1&#45;&gt;C2 -->
<g id="edge3" class="edge">
<title>C1&#45;&gt;C2</title>
<path fill="none" stroke="gray" d="M92.52,-154C130.48,-154 189.54,-154 227.36,-154"/>
<polygon fill="gray" stroke="gray" points="92.28,-150.5 82.28,-154 92.28,-157.5 92.28,-150.5"/>
<polygon fill="gray" stroke="gray" points="227.43,-157.5 237.43,-154 227.43,-150.5 227.43,-157.5"/>
<text text-anchor="middle" x="164" y="-179" font-family="Times,serif" font-style="italic" font-size="10.00">a bi&#45;</text>
<text text-anchor="middle" x="164" y="-168" font-family="Times,serif" font-style="italic" font-size="10.00">directional</text>
<text text-anchor="middle" x="164" y="-157" font-family="Times,serif" font-style="italic" font-size="10.00">flow</text>
</g>
<!-- D1 -->
<g id="node7" class="node">
<title>D1</title>
<ellipse fill="#eeeeee" stroke="black" cx="55" cy="-210" rx="27" ry="18"/>
<text text-anchor="middle" x="55" y="-207.5" font-family="Helvetica,sans-Serif" font-size="10.00">D1</text>
</g>
<!-- D2 -->
<g id="node8" class="node">
<title>D2</title>
<ellipse fill="#eeeeee" stroke="black" cx="264.5" cy="-210" rx="27" ry="18"/>
<text text-anchor="middle" x="264.5" y="-207.5" font-family="Helvetica,sans-Serif" font-size="10.00">D2</text>
</g>
<!-- D1&#45;&gt;D2 -->
<g id="edge4" class="edge">
<title>D1&#45;&gt;D2</title>
<path fill="none" stroke="gray" stroke-dasharray="5,2" d="M82.28,-210C119,-210 185.79,-210 227.23,-210"/>
<polygon fill="gray" stroke="gray" points="227.43,-213.5 237.43,-210 227.43,-206.5 227.43,-213.5"/>
<text text-anchor="middle" x="164" y="-213" font-family="Times,serif" font-style="italic" font-size="10.00">a signal</text>
</g>
<!-- E1 -->
<g id="node9" class="node">
<title>E1</title>
<ellipse fill="#eeeeee" stroke="black" cx="55" cy="-264" rx="27" ry="18"/>
<text text-anchor="middle" x="55" y="-261.5" font-family="Helvetica,sans-Serif" font-size="10.00">E1</text>
</g>
<!-- E2 -->
<g id="node10" class="node">
<title>E2</title>
<ellipse fill="#eeeeee" stroke="black" cx="264.5" cy="-264" rx="27" ry="18"/>
<text text-anchor="middle" x="264.5" y="-261.5" font-family="Helvetica,sans-Serif" font-size="10.00">E2</text>
</g>
<!-- E1&#45;&gt;E2 -->
<g id="edge5" class="edge">
<title>E1&#45;&gt;E2</title>
<path fill="none" stroke="gray" d="M82.28,-264C122.19,-264 197.65,-264 237.43,-264"/>
<text text-anchor="middle" x="164" y="-278" font-family="Times,serif" font-style="italic" font-size="10.00">an undirected</text>
<text text-anchor="middle" x="164" y="-267" font-family="Times,serif" font-style="italic" font-size="10.00">flow</text>
</g>
<!-- X -->
<g id="node11" class="node">
<title>X</title>
<ellipse fill="#eeeeee" stroke="black" cx="264.5" cy="-318" rx="27" ry="18"/>
<text text-anchor="middle" x="264.5" y="-315.5" font-family="Helvetica,sans-Serif" font-size="10.00">X</text>
</g>
<!-- Y -->
<g id="node12" class="node">
<title>Y</title>
<ellipse fill="#eeeeee" stroke="black" cx="55" cy="-372" rx="27" ry="18"/>
<text text-anchor="middle" x="55" y="-369.5" font-family="Helvetica,sans-Serif" font-size="10.00">Y</text>
</g>
<!-- __star_1__ -->
<g id="node14" class="node">
<title>__star_1__</title>
<text text-anchor="middle" x="264.5" y="-375" font-family="Times,serif" font-style="italic" font-size="10.00">an untargetted</text>
<text text-anchor="middle" x="264.5" y="-364" font-family="Times,serif" font-style="italic" font-size="10.00">signal</text>
</g>
<!-- Y&#45;&gt;__star_1__ -->
<g id="edge7" class="edge">
<title>Y&#45;&gt;__star_1__</title>
<path fill="none" stroke="gray" stroke-dasharray="5,2" d="M82.28,-372C113.65,-372 166.96,-372 207.67,-372"/>
<polygon fill="gray" stroke="gray" points="207.72,-375.5 217.72,-372 207.72,-368.5 207.72,-375.5"/>
</g>
<!-- __star_0__ -->
<g id="node13" class="node">
<title>__star_0__</title>
<text text-anchor="middle" x="55" y="-315.5" font-family="Times,serif" font-style="italic" font-size="10.00">an unsourced flow</text>
</g>
<!-- __star_0__&#45;&gt;X -->
<g id="edge6" class="edge">
<title>__star_0__&#45;&gt;X</title>
<path fill="none" stroke="gray" d="M110.25,-318C147.04,-318 194.67,-318 227,-318"/>
<polygon fill="gray" stroke="gray" points="227.34,-321.5 237.34,-318 227.34,-314.5 227.34,-321.5"/>
</g>
</g>
</svg>
