<?xml version="1.0" encoding="UTF-8" standalone="no"?>
<!DOCTYPE svg PUBLIC "-//W3C//DTD SVG 1.1//EN"
 "http://www.w3.org/Graphics/SVG/1.1/DTD/svg11.dtd">
<!-- Generated by graphviz version 2.43.0 (0)
 -->
<!-- Title: D Pages: 1 -->
<svg width="267pt" height="266pt"
 viewBox="0.00 0.00 267.00 266.00" xmlns="http://www.w3.org/2000/svg" xmlns:xlink="http://www.w3.org/1999/xlink">
<g id="graph0" class="graph" transform="scale(1 1) rotate(0) translate(4 262)">
<title>D</title>
<polygon fill="white" stroke="transparent" points="-4,4 -4,-262 263,-262 263,4 -4,4"/>
<text text-anchor="middle" x="129.5" y="-6.8" font-family="Helvetica,sans-Serif" font-size="9.00" fill="#000060">&#45; img/connections&#45;sugar &#45;</text>
<!-- P1 -->
<g id="node1" class="node">
<title>P1</title>
<ellipse fill="#eeeeee" stroke="black" cx="46" cy="-158" rx="27" ry="18"/>
<text text-anchor="middle" x="46" y="-155.5" font-family="Helvetica,sans-Serif" font-size="10.00">P1</text>
</g>
<!-- P2 -->
<g id="node2" class="node">
<title>P2</title>
<ellipse fill="#eeeeee" stroke="black" cx="220.5" cy="-124" rx="27" ry="18"/>
<text text-anchor="middle" x="220.5" y="-121.5" font-family="Helvetica,sans-Serif" font-size="10.00">P2</text>
</g>
<!-- P1&#45;&gt;P2 -->
<g id="edge1" class="edge">
<title>P1&#45;&gt;P2</title>
<path fill="none" stroke="gray" d="M65.09,-171.09C88.65,-186.4 130.75,-207.78 164,-192 182.24,-183.34 196.47,-165.43 205.95,-150.16"/>
<polygon fill="gray" stroke="gray" points="209.22,-151.51 211.23,-141.11 203.17,-147.98 209.22,-151.51"/>
<text text-anchor="middle" x="137" y="-200" font-family="Times,serif" font-style="italic" font-size="10.00">a flow</text>
</g>
<!-- P1&#45;&gt;P2 -->
<g id="edge2" class="edge">
<title>P1&#45;&gt;P2</title>
<path fill="none" stroke="gray" d="M82.23,-151.63C105.48,-147.37 136.59,-141.54 164,-136 170.75,-134.64 177.95,-133.12 184.85,-131.64"/>
<polygon fill="gray" stroke="gray" points="81.35,-148.23 72.14,-153.48 82.61,-155.12 81.35,-148.23"/>
<polygon fill="gray" stroke="gray" points="185.63,-135.06 194.67,-129.52 184.15,-128.21 185.63,-135.06"/>
<text text-anchor="middle" x="137" y="-171" font-family="Times,serif" font-style="italic" font-size="10.00">a bi&#45;</text>
<text text-anchor="middle" x="137" y="-160" font-family="Times,serif" font-style="italic" font-size="10.00">directional</text>
<text text-anchor="middle" x="137" y="-149" font-family="Times,serif" font-style="italic" font-size="10.00">flow</text>
</g>
<!-- P1&#45;&gt;P2 -->
<g id="edge3" class="edge">
<title>P1&#45;&gt;P2</title>
<path fill="none" stroke="gray" stroke-dasharray="5,2" d="M64.69,-144.95C76.78,-136.88 93.53,-127.27 110,-123 134.04,-116.77 162.06,-117.16 183.73,-119.03"/>
<polygon fill="gray" stroke="gray" points="183.52,-122.53 193.82,-120.05 184.22,-115.56 183.52,-122.53"/>
<text text-anchor="middle" x="137" y="-126" font-family="Times,serif" font-style="italic" font-size="10.00">a signal</text>
</g>
<!-- P1&#45;&gt;P2 -->
<g id="edge4" class="edge">
<title>P1&#45;&gt;P2</title>
<path fill="none" stroke="gray" d="M69.11,-125.21C79.78,-112.3 93.8,-98.93 110,-92 132.06,-82.56 140.82,-85.8 164,-92 177.75,-95.68 191.63,-103.68 202.06,-110.76"/>
<polygon fill="gray" stroke="gray" points="60.27,-131.21 57.1,-141.32 65.88,-135.4 60.27,-131.21"/>
<polygon fill="gray" stroke="gray" points="66.24,-123.19 63.08,-133.3 71.86,-127.38 66.24,-123.19"/>
<text text-anchor="middle" x="137" y="-106" font-family="Times,serif" font-style="italic" font-size="10.00">a continuous</text>
<text text-anchor="middle" x="137" y="-95" font-family="Times,serif" font-style="italic" font-size="10.00">back flow</text>
</g>
<!-- __star_1__ -->
<g id="node4" class="node">
<title>__star_1__</title>
<text text-anchor="middle" x="220.5" y="-243" font-family="Times,serif" font-style="italic" font-size="10.00">an untargetted</text>
<text text-anchor="middle" x="220.5" y="-232" font-family="Times,serif" font-style="italic" font-size="10.00">signal</text>
</g>
<!-- P1&#45;&gt;__star_1__ -->
<g id="edge6" class="edge">
<title>P1&#45;&gt;__star_1__</title>
<path fill="none" stroke="gray" stroke-dasharray="5,2" d="M61.08,-173.47C72.98,-185.65 91.08,-202.16 110,-212 129.21,-221.99 152.21,-228.57 172.16,-232.82"/>
<polygon fill="gray" stroke="gray" points="171.48,-236.26 181.97,-234.79 172.85,-229.39 171.48,-236.26"/>
</g>
<!-- __star_0__ -->
<g id="node3" class="node">
<title>__star_0__</title>
<text text-anchor="middle" x="46" y="-43.5" font-family="Times,serif" font-style="italic" font-size="10.00">an unsourced flow</text>
</g>
<!-- __star_0__&#45;&gt;P2 -->
<g id="edge5" class="edge">
<title>__star_0__&#45;&gt;P2</title>
<path fill="none" stroke="gray" d="M92.25,-56.56C114.54,-62.69 141.41,-71.49 164,-83 174.95,-88.58 186.04,-96.27 195.39,-103.49"/>
<polygon fill="gray" stroke="gray" points="193.44,-106.41 203.44,-109.91 197.81,-100.94 193.44,-106.41"/>
</g>
</g>
</svg>
