<?xml version="1.0" encoding="UTF-8" standalone="no"?>
<!DOCTYPE svg PUBLIC "-//W3C//DTD SVG 1.1//EN"
 "http://www.w3.org/Graphics/SVG/1.1/DTD/svg11.dtd">
<!-- Generated by graphviz version 2.43.0 (0)
 -->
<!-- Title: D Pages: 1 -->
<svg width="271pt" height="398pt"
 viewBox="0.00 0.00 271.00 398.00" xmlns="http://www.w3.org/2000/svg" xmlns:xlink="http://www.w3.org/1999/xlink">
<g id="graph0" class="graph" transform="scale(1 1) rotate(0) translate(4 394)">
<title>D</title>
<polygon fill="white" stroke="transparent" points="-4,4 -4,-394 267,-394 267,4 -4,4"/>
<text text-anchor="middle" x="131.5" y="-6.8" font-family="Helvetica,sans-Serif" font-size="9.00" fill="#000060">&#45; img/connections &#45;</text>
<!-- A1 -->
<g id="node1" class="node">
<title>A1</title>
<ellipse fill="#eeeeee" stroke="black" cx="46" cy="-46" rx="27" ry="18"/>
<text text-anchor="middle" x="46" y="-43.5" font-family="Helvetica,sans-Serif" font-size="10.00">A1</text>
</g>
<!-- A2 -->
<g id="node2" class="node">
<title>A2</title>
<ellipse fill="#eeeeee" stroke="black" cx="224.5" cy="-46" rx="27" ry="18"/>
<text text-anchor="middle" x="224.5" y="-43.5" font-family="Helvetica,sans-Serif" font-size="10.00">A2</text>
</g>
<!-- A1&#45;&gt;A2 -->
<g id="edge1" class="edge">
<title>A1&#45;&gt;A2</title>
<path fill="none" stroke="gray" d="M73.04,-46C103.15,-46 152.93,-46 186.91,-46"/>
<polygon fill="gray" stroke="gray" points="187.35,-49.5 197.35,-46 187.35,-42.5 187.35,-49.5"/>
<text text-anchor="middle" x="139" y="-49" font-family="Times,serif" font-style="italic" font-size="10.00">a flow</text>
</g>
<!-- B1 -->
<g id="node3" class="node">
<title>B1</title>
<ellipse fill="#eeeeee" stroke="black" cx="46" cy="-100" rx="27" ry="18"/>
<text text-anchor="middle" x="46" y="-97.5" font-family="Helvetica,sans-Serif" font-size="10.00">B1</text>
</g>
<!-- B2 -->
<g id="node4" class="node">
<title>B2</title>
<ellipse fill="#eeeeee" stroke="black" cx="224.5" cy="-100" rx="27" ry="18"/>
<text text-anchor="middle" x="224.5" y="-97.5" font-family="Helvetica,sans-Serif" font-size="10.00">B2</text>
</g>
<!-- B1&#45;&gt;B2 -->
<g id="edge2" class="edge">
<title>B1&#45;&gt;B2</title>
<path fill="none" stroke="gray" d="M73.04,-100C100.42,-100 144.04,-100 177.28,-100"/>
<polygon fill="gray" stroke="gray" points="187.35,-103.5 197.35,-100 187.35,-96.5 187.35,-103.5"/>
<polygon fill="gray" stroke="gray" points="177.35,-103.5 187.35,-100 177.35,-96.5 177.35,-103.5"/>
<text text-anchor="middle" x="139" y="-114" font-family="Times,serif" font-style="italic" font-size="10.00">a continuous</text>
<text text-anchor="middle" x="139" y="-103" font-family="Times,serif" font-style="italic" font-size="10.00">flow</text>
</g>
<!-- C1 -->
<g id="node5" class="node">
<title>C1</title>
<ellipse fill="#eeeeee" stroke="black" cx="46" cy="-154" rx="27" ry="18"/>
<text text-anchor="middle" x="46" y="-151.5" font-family="Helvetica,sans-Serif" font-size="10.00">C1</text>
</g>
<!-- C2 -->
<g id="node6" class="node">
<title>C2</title>
<ellipse fill="#eeeeee" stroke="black" cx="224.5" cy="-154" rx="27" ry="18"/>
<text text-anchor="middle" x="224.5" y="-151.5" font-family="Helvetica,sans-Serif" font-size="10.00">C2</text>
</g>
<!-- C1&#45;&gt;C2 -->
<g id="edge3" class="edge">
<title>C1&#45;&gt;C2</title>
<path fill="none" stroke="gray" d="M83.47,-154C113.84,-154 156.87,-154 187.19,-154"/>
<polygon fill="gray" stroke="gray" points="83.04,-150.5 73.04,-154 83.04,-157.5 83.04,-150.5"/>
<polygon fill="gray" stroke="gray" points="187.35,-157.5 197.35,-154 187.35,-150.5 187.35,-157.5"/>
<text text-anchor="middle" x="139" y="-179" font-family="Times,serif" font-style="italic" font-size="10.00">a bi&#45;</text>
<text text-anchor="middle" x="139" y="-168" font-family="Times,serif" font-style="italic" font-size="10.00">directional</text>
<text text-anchor="middle" x="139" y="-157" font-family="Times,serif" font-style="italic" font-size="10.00">flow</text>
</g>
<!-- D1 -->
<g id="node7" class="node">
<title>D1</title>
<ellipse fill="#eeeeee" stroke="black" cx="46" cy="-210" rx="27" ry="18"/>
<text text-anchor="middle" x="46" y="-207.5" font-family="Helvetica,sans-Serif" font-size="10.00">D1</text>
</g>
<!-- D2 -->
<g id="node8" class="node">
<title>D2</title>
<ellipse fill="#eeeeee" stroke="black" cx="224.5" cy="-210" rx="27" ry="18"/>
<text text-anchor="middle" x="224.5" y="-207.5" font-family="Helvetica,sans-Serif" font-size="10.00">D2</text>
</g>
<!-- D1&#45;&gt;D2 -->
<g id="edge4" class="edge">
<title>D1&#45;&gt;D2</title>
<path fill="none" stroke="gray" stroke-dasharray="5,2" d="M73.04,-210C103.15,-210 152.93,-210 186.91,-210"/>
<polygon fill="gray" stroke="gray" points="187.35,-213.5 197.35,-210 187.35,-206.5 187.35,-213.5"/>
<text text-anchor="middle" x="139" y="-213" font-family="Times,serif" font-style="italic" font-size="10.00">a signal</text>
</g>
<!-- E1 -->
<g id="node9" class="node">
<title>E1</title>
<ellipse fill="#eeeeee" stroke="black" cx="46" cy="-264" rx="27" ry="18"/>
<text text-anchor="middle" x="46" y="-261.5" font-family="Helvetica,sans-Serif" font-size="10.00">E1</text>
</g>
<!-- E2 -->
<g id="node10" class="node">
<title>E2</title>
<ellipse fill="#eeeeee" stroke="black" cx="224.5" cy="-264" rx="27" ry="18"/>
<text text-anchor="middle" x="224.5" y="-261.5" font-family="Helvetica,sans-Serif" font-size="10.00">E2</text>
</g>
<!-- E1&#45;&gt;E2 -->
<g id="edge5" class="edge">
<title>E1&#45;&gt;E2</title>
<path fill="none" stroke="gray" d="M73.04,-264C106.41,-264 163.93,-264 197.35,-264"/>
<text text-anchor="middle" x="139" y="-278" font-family="Times,serif" font-style="italic" font-size="10.00">an undirected</text>
<text text-anchor="middle" x="139" y="-267" font-family="Times,serif" font-style="italic" font-size="10.00">flow</text>
</g>
<!-- X -->
<g id="node11" class="node">
<title>X</title>
<ellipse fill="#eeeeee" stroke="black" cx="224.5" cy="-318" rx="27" ry="18"/>
<text text-anchor="middle" x="224.5" y="-315.5" font-family="Helvetica,sans-Serif" font-size="10.00">X</text>
</g>
<!-- Y -->
<g id="node12" class="node">
<title>Y</title>
<ellipse fill="#eeeeee" stroke="black" cx="46" cy="-372" rx="27" ry="18"/>
<text text-anchor="middle" x="46" y="-369.5" font-family="Helvetica,sans-Serif" font-size="10.00">Y</text>
</g>
<!-- __star_1__ -->
<g id="node14" class="node">
<title>__star_1__</title>
<text text-anchor="middle" x="224.5" y="-375" font-family="Times,serif" font-style="italic" font-size="10.00">an untargetted</text>
<text text-anchor="middle" x="224.5" y="-364" font-family="Times,serif" font-style="italic" font-size="10.00">signal</text>
</g>
<!-- Y&#45;&gt;__star_1__ -->
<g id="edge7" class="edge">
<title>Y&#45;&gt;__star_1__</title>
<path fill="none" stroke="gray" stroke-dasharray="5,2" d="M73.04,-372C99.95,-372 142.56,-372 175.58,-372"/>
<polygon fill="gray" stroke="gray" points="175.93,-375.5 185.93,-372 175.93,-368.5 175.93,-375.5"/>
</g>
<!-- __star_0__ -->
<g id="node13" class="node">
<title>__star_0__</title>
<text text-anchor="middle" x="46" y="-315.5" font-family="Times,serif" font-style="italic" font-size="10.00">an unsourced flow</text>
</g>
<!-- __star_0__&#45;&gt;X -->
<g id="edge6" class="edge">
<title>__star_0__&#45;&gt;X</title>
<path fill="none" stroke="gray" d="M92.45,-318C121.85,-318 159.6,-318 187.03,-318"/>
<polygon fill="gray" stroke="gray" points="187.36,-321.5 197.36,-318 187.36,-314.5 187.36,-321.5"/>
</g>
</g>
</svg>
