<?xml version="1.0" encoding="UTF-8" standalone="no"?>
<!DOCTYPE svg PUBLIC "-//W3C//DTD SVG 1.1//EN"
 "http://www.w3.org/Graphics/SVG/1.1/DTD/svg11.dtd">
<!-- Generated by graphviz version 2.43.0 (0)
 -->
<!-- Title: D Pages: 1 -->
<svg width="313pt" height="266pt"
 viewBox="0.00 0.00 313.00 266.00" xmlns="http://www.w3.org/2000/svg" xmlns:xlink="http://www.w3.org/1999/xlink">
<g id="graph0" class="graph" transform="scale(1 1) rotate(0) translate(4 262)">
<title>D</title>
<polygon fill="white" stroke="transparent" points="-4,4 -4,-262 309,-262 309,4 -4,4"/>
<text text-anchor="middle" x="152.5" y="-6.8" font-family="Helvetica,sans-Serif" font-size="9.00" fill="#000060">&#45; img/connections&#45;sugar &#45;</text>
<!-- P1 -->
<g id="node1" class="node">
<title>P1</title>
<ellipse fill="#eeeeee" stroke="black" cx="55" cy="-158" rx="27" ry="18"/>
<text text-anchor="middle" x="55" y="-155.5" font-family="Helvetica,sans-Serif" font-size="10.00">P1</text>
</g>
<!-- P2 -->
<g id="node2" class="node">
<title>P2</title>
<ellipse fill="#eeeeee" stroke="black" cx="258.5" cy="-124" rx="27" ry="18"/>
<text text-anchor="middle" x="258.5" y="-121.5" font-family="Helvetica,sans-Serif" font-size="10.00">P2</text>
</g>
<!-- P1&#45;&gt;P2 -->
<g id="edge1" class="edge">
<title>P1&#45;&gt;P2</title>
<path fill="none" stroke="gray" d="M74.95,-170.15C102.16,-185.96 153.49,-209.6 194,-192 214.06,-183.28 230.67,-164.76 241.86,-149.25"/>
<polygon fill="gray" stroke="gray" points="245.05,-150.78 247.81,-140.55 239.27,-146.83 245.05,-150.78"/>
<text text-anchor="middle" x="161" y="-201" font-family="Times,serif" font-style="italic" font-size="10.00">a flow</text>
</g>
<!-- P1&#45;&gt;P2 -->
<g id="edge2" class="edge">
<title>P1&#45;&gt;P2</title>
<path fill="none" stroke="gray" d="M91.54,-152.62C119.44,-148.33 159.24,-142.05 194,-136 203.24,-134.39 213.21,-132.55 222.45,-130.81"/>
<polygon fill="gray" stroke="gray" points="90.83,-149.19 81.47,-154.16 91.89,-156.11 90.83,-149.19"/>
<polygon fill="gray" stroke="gray" points="223.33,-134.21 232.5,-128.9 222.02,-127.33 223.33,-134.21"/>
<text text-anchor="middle" x="161" y="-172" font-family="Times,serif" font-style="italic" font-size="10.00">a bi&#45;</text>
<text text-anchor="middle" x="161" y="-161" font-family="Times,serif" font-style="italic" font-size="10.00">directional</text>
<text text-anchor="middle" x="161" y="-150" font-family="Times,serif" font-style="italic" font-size="10.00">flow</text>
</g>
<!-- P1&#45;&gt;P2 -->
<g id="edge3" class="edge">
<title>P1&#45;&gt;P2</title>
<path fill="none" stroke="gray" stroke-dasharray="5,2" d="M74.97,-145.82C89,-137.57 108.9,-127.4 128,-123 159,-115.86 195.3,-116.92 221.56,-119.3"/>
<polygon fill="gray" stroke="gray" points="221.51,-122.81 231.81,-120.33 222.21,-115.84 221.51,-122.81"/>
<text text-anchor="middle" x="161" y="-126" font-family="Times,serif" font-style="italic" font-size="10.00">a signal</text>
</g>
<!-- P1&#45;&gt;P2 -->
<g id="edge4" class="edge">
<title>P1&#45;&gt;P2</title>
<path fill="none" stroke="gray" d="M80.87,-126.48C93.4,-113.15 109.8,-99.08 128,-92 155.34,-81.37 165.46,-85.22 194,-92 209.97,-95.8 226.49,-104.29 238.67,-111.57"/>
<polygon fill="gray" stroke="gray" points="71.51,-132 67.64,-141.87 76.81,-136.57 71.51,-132"/>
<polygon fill="gray" stroke="gray" points="78.03,-124.42 74.16,-134.29 83.33,-128.99 78.03,-124.42"/>
<text text-anchor="middle" x="161" y="-106" font-family="Times,serif" font-style="italic" font-size="10.00">a continuous</text>
<text text-anchor="middle" x="161" y="-95" font-family="Times,serif" font-style="italic" font-size="10.00">back flow</text>
</g>
<!-- __star_1__ -->
<g id="node4" class="node">
<title>__star_1__</title>
<text text-anchor="middle" x="258.5" y="-243" font-family="Times,serif" font-style="italic" font-size="10.00">an untargetted</text>
<text text-anchor="middle" x="258.5" y="-232" font-family="Times,serif" font-style="italic" font-size="10.00">signal</text>
</g>
<!-- P1&#45;&gt;__star_1__ -->
<g id="edge6" class="edge">
<title>P1&#45;&gt;__star_1__</title>
<path fill="none" stroke="gray" stroke-dasharray="5,2" d="M70.96,-172.68C84.67,-185.3 106.11,-202.99 128,-213 151.01,-223.53 178.21,-229.99 201.72,-233.94"/>
<polygon fill="gray" stroke="gray" points="201.47,-237.45 211.89,-235.54 202.56,-230.53 201.47,-237.45"/>
</g>
<!-- __star_0__ -->
<g id="node3" class="node">
<title>__star_0__</title>
<text text-anchor="middle" x="55" y="-43.5" font-family="Times,serif" font-style="italic" font-size="10.00">an unsourced flow</text>
</g>
<!-- __star_0__&#45;&gt;P2 -->
<g id="edge5" class="edge">
<title>__star_0__&#45;&gt;P2</title>
<path fill="none" stroke="gray" d="M110.14,-55.8C136.18,-61.59 167.43,-70.14 194,-82 207.24,-87.91 220.79,-96.46 231.95,-104.31"/>
<polygon fill="gray" stroke="gray" points="230.19,-107.36 240.35,-110.39 234.3,-101.69 230.19,-107.36"/>
</g>
</g>
</svg>
