<?xml version="1.0" encoding="UTF-8" standalone="no"?>
<!DOCTYPE svg PUBLIC "-//W3C//DTD SVG 1.1//EN"
 "http://www.w3.org/Graphics/SVG/1.1/DTD/svg11.dtd">
<!-- Generated by graphviz version 2.43.0 (0)
 -->
<!-- Title: D Pages: 1 -->
<svg width="139pt" height="216pt"
 viewBox="0.00 0.00 139.00 216.00" xmlns="http://www.w3.org/2000/svg" xmlns:xlink="http://www.w3.org/1999/xlink">
<g id="graph0" class="graph" transform="scale(1 1) rotate(0) translate(4 212)">
<title>D</title>
<polygon fill="white" stroke="transparent" points="-4,4 -4,-212 135,-212 135,4 -4,4"/>
<text text-anchor="middle" x="65.5" y="-6.8" font-family="Helvetica,sans-Serif" font-size="9.00" fill="#000060">&#45; img/constraint&#45;relaxed &#45;</text>
<!-- P1 -->
<g id="node1" class="node">
<title>P1</title>
<ellipse fill="#eeeeee" stroke="black" cx="59.24" cy="-190" rx="27" ry="18"/>
<text text-anchor="middle" x="59.24" y="-187.5" font-family="Helvetica,sans-Serif" font-size="10.00">P1</text>
</g>
<!-- P2 -->
<g id="node2" class="node">
<title>P2</title>
<ellipse fill="#eeeeee" stroke="black" cx="59.24" cy="-118" rx="27" ry="18"/>
<text text-anchor="middle" x="59.24" y="-115.5" font-family="Helvetica,sans-Serif" font-size="10.00">P2</text>
</g>
<!-- P1&#45;&gt;P2 -->
<g id="edge1" class="edge">
<title>P1&#45;&gt;P2</title>
<path fill="none" stroke="gray" d="M59.24,-171.7C59.24,-163.98 59.24,-154.71 59.24,-146.11"/>
<polygon fill="gray" stroke="gray" points="62.74,-146.1 59.24,-136.1 55.74,-146.1 62.74,-146.1"/>
</g>
<!-- P3 -->
<g id="node3" class="node">
<title>P3</title>
<ellipse fill="#eeeeee" stroke="black" cx="59.24" cy="-46" rx="27" ry="18"/>
<text text-anchor="middle" x="59.24" y="-43.5" font-family="Helvetica,sans-Serif" font-size="10.00">P3</text>
</g>
<!-- P1&#45;&gt;P3 -->
<g id="edge3" class="edge">
<title>P1&#45;&gt;P3</title>
<path fill="none" stroke="gray" d="M72.99,-174.07C81.2,-164.1 90.86,-150.25 95.24,-136 99.94,-120.71 99.94,-115.29 95.24,-100 91.95,-89.31 85.7,-78.85 79.31,-70.08"/>
<polygon fill="gray" stroke="gray" points="81.88,-67.69 72.99,-61.93 76.35,-71.98 81.88,-67.69"/>
</g>
<!-- P2&#45;&gt;P3 -->
<g id="edge2" class="edge">
<title>P2&#45;&gt;P3</title>
<path fill="none" stroke="gray" d="M59.24,-99.7C59.24,-91.98 59.24,-82.71 59.24,-74.11"/>
<polygon fill="gray" stroke="gray" points="62.74,-74.1 59.24,-64.1 55.74,-74.1 62.74,-74.1"/>
</g>
</g>
</svg>
