<?xml version="1.0" encoding="UTF-8" standalone="no"?>
<!DOCTYPE svg PUBLIC "-//W3C//DTD SVG 1.1//EN"
 "http://www.w3.org/Graphics/SVG/1.1/DTD/svg11.dtd">
<!-- Generated by graphviz version 2.43.0 (0)
 -->
<!-- Title: D Pages: 1 -->
<svg width="103pt" height="216pt"
 viewBox="0.00 0.00 103.00 216.00" xmlns="http://www.w3.org/2000/svg" xmlns:xlink="http://www.w3.org/1999/xlink">
<g id="graph0" class="graph" transform="scale(1 1) rotate(0) translate(4 212)">
<title>D</title>
<polygon fill="white" stroke="transparent" points="-4,4 -4,-212 99,-212 99,4 -4,4"/>
<text text-anchor="middle" x="47.5" y="-6.8" font-family="Helvetica,sans-Serif" font-size="9.00" fill="#000060">&#45; img/constraint &#45;</text>
<!-- P1 -->
<g id="node1" class="node">
<title>P1</title>
<ellipse fill="#eeeeee" stroke="black" cx="61" cy="-190" rx="27" ry="18"/>
<text text-anchor="middle" x="61" y="-187.5" font-family="Helvetica,sans-Serif" font-size="10.00">P1</text>
</g>
<!-- P2 -->
<g id="node2" class="node">
<title>P2</title>
<ellipse fill="#eeeeee" stroke="black" cx="34" cy="-118" rx="27" ry="18"/>
<text text-anchor="middle" x="34" y="-115.5" font-family="Helvetica,sans-Serif" font-size="10.00">P2</text>
</g>
<!-- P1&#45;&gt;P2 -->
<g id="edge1" class="edge">
<title>P1&#45;&gt;P2</title>
<path fill="none" stroke="gray" d="M54.6,-172.41C51.49,-164.34 47.67,-154.43 44.17,-145.35"/>
<polygon fill="gray" stroke="gray" points="47.4,-144.03 40.54,-135.96 40.87,-146.55 47.4,-144.03"/>
</g>
<!-- P3 -->
<g id="node3" class="node">
<title>P3</title>
<ellipse fill="#eeeeee" stroke="black" cx="61" cy="-46" rx="27" ry="18"/>
<text text-anchor="middle" x="61" y="-43.5" font-family="Helvetica,sans-Serif" font-size="10.00">P3</text>
</g>
<!-- P1&#45;&gt;P3 -->
<g id="edge3" class="edge">
<title>P1&#45;&gt;P3</title>
<path fill="none" stroke="gray" d="M64.65,-171.91C66.68,-161.57 68.98,-148.09 70,-136 71.34,-120.06 71.34,-115.94 70,-100 69.28,-91.5 67.93,-82.31 66.49,-74.01"/>
<polygon fill="gray" stroke="gray" points="69.91,-73.29 64.65,-64.09 63.03,-74.56 69.91,-73.29"/>
</g>
<!-- P2&#45;&gt;P3 -->
<g id="edge2" class="edge">
<title>P2&#45;&gt;P3</title>
<path fill="none" stroke="gray" d="M40.4,-100.41C43.51,-92.34 47.33,-82.43 50.83,-73.35"/>
<polygon fill="gray" stroke="gray" points="54.13,-74.55 54.46,-63.96 47.6,-72.03 54.13,-74.55"/>
</g>
</g>
</svg>
