<?xml version="1.0" encoding="UTF-8" standalone="no"?>
<!DOCTYPE svg PUBLIC "-//W3C//DTD SVG 1.1//EN"
 "http://www.w3.org/Graphics/SVG/1.1/DTD/svg11.dtd">
<!-- Generated by graphviz version 2.43.0 (0)
 -->
<!-- Title: D Pages: 1 -->
<svg width="92pt" height="216pt"
 viewBox="0.00 0.00 92.00 216.00" xmlns="http://www.w3.org/2000/svg" xmlns:xlink="http://www.w3.org/1999/xlink">
<g id="graph0" class="graph" transform="scale(1 1) rotate(0) translate(4 212)">
<title>D</title>
<polygon fill="white" stroke="transparent" points="-4,4 -4,-212 88,-212 88,4 -4,4"/>
<text text-anchor="middle" x="42" y="-6.8" font-family="Helvetica,sans-Serif" font-size="9.00" fill="#000060">&#45; img/constraint &#45;</text>
<!-- P1 -->
<g id="node1" class="node">
<title>P1</title>
<ellipse fill="#eeeeee" stroke="black" cx="55.5" cy="-190" rx="27" ry="18"/>
<text text-anchor="middle" x="55.5" y="-187.5" font-family="Helvetica,sans-Serif" font-size="10.00">P1</text>
</g>
<!-- P2 -->
<g id="node2" class="node">
<title>P2</title>
<ellipse fill="#eeeeee" stroke="black" cx="28.5" cy="-118" rx="27" ry="18"/>
<text text-anchor="middle" x="28.5" y="-115.5" font-family="Helvetica,sans-Serif" font-size="10.00">P2</text>
</g>
<!-- P1&#45;&gt;P2 -->
<g id="edge1" class="edge">
<title>P1&#45;&gt;P2</title>
<path fill="none" stroke="gray" d="M49.1,-172.41C45.99,-164.34 42.17,-154.43 38.67,-145.35"/>
<polygon fill="gray" stroke="gray" points="41.9,-144.03 35.04,-135.96 35.37,-146.55 41.9,-144.03"/>
</g>
<!-- P3 -->
<g id="node3" class="node">
<title>P3</title>
<ellipse fill="#eeeeee" stroke="black" cx="55.5" cy="-46" rx="27" ry="18"/>
<text text-anchor="middle" x="55.5" y="-43.5" font-family="Helvetica,sans-Serif" font-size="10.00">P3</text>
</g>
<!-- P1&#45;&gt;P3 -->
<g id="edge3" class="edge">
<title>P1&#45;&gt;P3</title>
<path fill="none" stroke="gray" d="M59.15,-171.91C61.18,-161.57 63.48,-148.09 64.5,-136 65.84,-120.06 65.84,-115.94 64.5,-100 63.78,-91.5 62.43,-82.31 60.99,-74.01"/>
<polygon fill="gray" stroke="gray" points="64.41,-73.29 59.15,-64.09 57.53,-74.56 64.41,-73.29"/>
</g>
<!-- P2&#45;&gt;P3 -->
<g id="edge2" class="edge">
<title>P2&#45;&gt;P3</title>
<path fill="none" stroke="gray" d="M34.9,-100.41C38.01,-92.34 41.83,-82.43 45.33,-73.35"/>
<polygon fill="gray" stroke="gray" points="48.63,-74.55 48.96,-63.96 42.1,-72.03 48.63,-74.55"/>
</g>
</g>
</svg>
