<?xml version="1.0" encoding="UTF-8" standalone="no"?>
<!DOCTYPE svg PUBLIC "-//W3C//DTD SVG 1.1//EN"
 "http://www.w3.org/Graphics/SVG/1.1/DTD/svg11.dtd">
<!-- Generated by graphviz version 2.43.0 (0)
 -->
<!-- Title: D Pages: 1 -->
<svg width="126pt" height="216pt"
 viewBox="0.00 0.00 126.00 216.00" xmlns="http://www.w3.org/2000/svg" xmlns:xlink="http://www.w3.org/1999/xlink">
<g id="graph0" class="graph" transform="scale(1 1) rotate(0) translate(4 212)">
<title>D</title>
<polygon fill="white" stroke="transparent" points="-4,4 -4,-212 122,-212 122,4 -4,4"/>
<text text-anchor="middle" x="59" y="-6.8" font-family="Helvetica,sans-Serif" font-size="9.00" fill="#000060">&#45; img/constraint&#45;relaxed &#45;</text>
<!-- P1 -->
<g id="node1" class="node">
<title>P1</title>
<ellipse fill="#eeeeee" stroke="black" cx="52.74" cy="-190" rx="27" ry="18"/>
<text text-anchor="middle" x="52.74" y="-187.5" font-family="Helvetica,sans-Serif" font-size="10.00">P1</text>
</g>
<!-- P2 -->
<g id="node2" class="node">
<title>P2</title>
<ellipse fill="#eeeeee" stroke="black" cx="52.74" cy="-118" rx="27" ry="18"/>
<text text-anchor="middle" x="52.74" y="-115.5" font-family="Helvetica,sans-Serif" font-size="10.00">P2</text>
</g>
<!-- P1&#45;&gt;P2 -->
<g id="edge1" class="edge">
<title>P1&#45;&gt;P2</title>
<path fill="none" stroke="gray" d="M52.74,-171.7C52.74,-163.98 52.74,-154.71 52.74,-146.11"/>
<polygon fill="gray" stroke="gray" points="56.24,-146.1 52.74,-136.1 49.24,-146.1 56.24,-146.1"/>
</g>
<!-- P3 -->
<g id="node3" class="node">
<title>P3</title>
<ellipse fill="#eeeeee" stroke="black" cx="52.74" cy="-46" rx="27" ry="18"/>
<text text-anchor="middle" x="52.74" y="-43.5" font-family="Helvetica,sans-Serif" font-size="10.00">P3</text>
</g>
<!-- P1&#45;&gt;P3 -->
<g id="edge3" class="edge">
<title>P1&#45;&gt;P3</title>
<path fill="none" stroke="gray" d="M66.49,-174.07C74.7,-164.1 84.36,-150.25 88.74,-136 93.44,-120.71 93.44,-115.29 88.74,-100 85.45,-89.31 79.2,-78.85 72.81,-70.08"/>
<polygon fill="gray" stroke="gray" points="75.38,-67.69 66.49,-61.93 69.85,-71.98 75.38,-67.69"/>
</g>
<!-- P2&#45;&gt;P3 -->
<g id="edge2" class="edge">
<title>P2&#45;&gt;P3</title>
<path fill="none" stroke="gray" d="M52.74,-99.7C52.74,-91.98 52.74,-82.71 52.74,-74.11"/>
<polygon fill="gray" stroke="gray" points="56.24,-74.1 52.74,-64.1 49.24,-74.1 56.24,-74.1"/>
</g>
</g>
</svg>
