<?xml version="1.0" encoding="UTF-8" standalone="no"?>
<!DOCTYPE svg PUBLIC "-//W3C//DTD SVG 1.1//EN"
 "http://www.w3.org/Graphics/SVG/1.1/DTD/svg11.dtd">
<!-- Generated by graphviz version 2.43.0 (0)
 -->
<!-- Title: D Pages: 1 -->
<svg width="1002pt" height="267pt"
 viewBox="0.00 0.00 1001.59 267.00" xmlns="http://www.w3.org/2000/svg" xmlns:xlink="http://www.w3.org/1999/xlink">
<g id="graph0" class="graph" transform="scale(1 1) rotate(0) translate(4 263)">
<title>D</title>
<polygon fill="white" stroke="transparent" points="-4,4 -4,-263 997.59,-263 997.59,4 -4,4"/>
<text text-anchor="middle" x="496.8" y="-6.8" font-family="Helvetica,sans-Serif" font-size="9.00" fill="#000060">&#45; img/data&#45;pipeline &#45;</text>
<g id="clust1" class="cluster">
<title>cluster_0</title>
<polygon fill="none" stroke="black" stroke-dasharray="5,2" points="518.09,-36 518.09,-224 640.09,-224 640.09,-36 518.09,-36"/>
<text text-anchor="middle" x="579.09" y="-212.8" font-family="Helvetica,sans-Serif" font-size="9.00" fill="#000060">Computation results</text>
</g>
<g id="clust2" class="cluster">
<title>cluster_1</title>
<polygon fill="none" stroke="black" stroke-dasharray="5,2" points="724.85,-100 724.85,-224 866.83,-224 866.83,-100 724.85,-100"/>
<text text-anchor="middle" x="795.84" y="-212.8" font-family="Helvetica,sans-Serif" font-size="9.00" fill="#000060">Batch processing</text>
</g>
<!-- ds -->
<g id="node1" class="node">
<title>ds</title>
<polygon fill="none" stroke="black" points="75,-196 0,-196 0,-160 75,-160 75,-196"/>
<text text-anchor="middle" x="37.5" y="-175.5" font-family="Helvetica,sans-Serif" font-size="10.00">Data source</text>
</g>
<!-- etl -->
<g id="node2" class="node">
<title>etl</title>
<ellipse fill="#eeeeee" stroke="black" cx="139" cy="-178" rx="27" ry="18"/>
<text text-anchor="middle" x="139" y="-175.5" font-family="Helvetica,sans-Serif" font-size="10.00">ETL</text>
</g>
<!-- ds&#45;&gt;etl -->
<g id="edge1" class="edge">
<title>ds&#45;&gt;etl</title>
<path fill="none" stroke="#5050e0" stroke-width="2" d="M75.27,-178C80.69,-178 86.34,-178 91.92,-178"/>
<polygon fill="#5050e0" stroke="#5050e0" stroke-width="2" points="101.94,-181.5 111.94,-178 101.94,-174.5 101.94,-181.5"/>
<polygon fill="#5050e0" stroke="#5050e0" stroke-width="2" points="91.94,-181.5 101.94,-178 91.94,-174.5 91.94,-181.5"/>
</g>
<!-- db_raw -->
<g id="node8" class="node">
<title>db_raw</title>
<polygon fill="black" stroke="transparent" points="213,-187 213,-191 263,-191 263,-187 213,-187"/>
<text text-anchor="start" x="215" y="-175" font-family="Helvetica,sans-Serif" font-size="10.00">Raw data</text>
<polygon fill="black" stroke="transparent" points="213,-164 213,-168 263,-168 263,-164 213,-164"/>
</g>
<!-- etl&#45;&gt;db_raw -->
<g id="edge2" class="edge">
<title>etl&#45;&gt;db_raw</title>
<path fill="none" stroke="#5050e0" stroke-width="2" d="M166.25,-178C171.33,-178 176.84,-178 182.45,-178"/>
<polygon fill="#5050e0" stroke="#5050e0" stroke-width="2" points="192.7,-181.5 202.7,-178 192.7,-174.5 192.7,-181.5"/>
<polygon fill="#5050e0" stroke="#5050e0" stroke-width="2" points="182.7,-181.5 192.7,-178 182.7,-174.5 182.7,-181.5"/>
</g>
<!-- user -->
<g id="node3" class="node">
<title>user</title>
<polygon fill="none" stroke="black" points="972.59,-216 918.59,-216 918.59,-180 972.59,-180 972.59,-216"/>
<text text-anchor="middle" x="945.59" y="-195.5" font-family="Helvetica,sans-Serif" font-size="10.00">User</text>
</g>
<!-- proc_flow -->
<g id="node4" class="node">
<title>proc_flow</title>
<ellipse fill="#eeeeee" stroke="black" cx="370.04" cy="-178" rx="60.09" ry="18"/>
<text text-anchor="middle" x="370.04" y="-175.5" font-family="Helvetica,sans-Serif" font-size="10.00">process data flow</text>
</g>
<!-- proc_flow&#45;&gt;user -->
<g id="edge6" class="edge">
<title>proc_flow&#45;&gt;user</title>
<path fill="none" stroke="#ff4040" stroke-dasharray="5,2" d="M404.4,-192.86C433.69,-205.05 477.78,-221.34 518.09,-228 671.01,-253.29 714.45,-256.37 866.83,-228 881,-225.36 895.91,-220.23 908.85,-214.95"/>
<polygon fill="#ff4040" stroke="#ff4040" points="910.48,-218.06 918.31,-210.93 907.74,-211.62 910.48,-218.06"/>
<text text-anchor="middle" x="681.59" y="-251" font-family="Times,serif" font-style="italic" font-size="10.00" fill="#ff4040">alert</text>
</g>
<!-- db_aggr -->
<g id="node6" class="node">
<title>db_aggr</title>
<polygon fill="black" stroke="transparent" points="536.09,-130 536.09,-134 622.09,-134 622.09,-130 536.09,-130"/>
<text text-anchor="start" x="538.09" y="-118" font-family="Helvetica,sans-Serif" font-size="10.00">Aggregated data</text>
<polygon fill="black" stroke="transparent" points="536.09,-107 536.09,-111 622.09,-111 622.09,-107 536.09,-107"/>
</g>
<!-- proc_flow&#45;&gt;db_aggr -->
<g id="edge4" class="edge">
<title>proc_flow&#45;&gt;db_aggr</title>
<path fill="none" stroke="#5050e0" stroke-width="2" d="M414.95,-165.91C441.54,-158.59 476.07,-149.08 506.52,-140.7"/>
<polygon fill="#5050e0" stroke="#5050e0" stroke-width="2" points="517.1,-141.42 525.82,-135.39 515.25,-134.67 517.1,-141.42"/>
<polygon fill="#5050e0" stroke="#5050e0" stroke-width="2" points="507.46,-144.07 516.18,-138.04 505.6,-137.32 507.46,-144.07"/>
</g>
<!-- db_params -->
<g id="node9" class="node">
<title>db_params</title>
<polygon fill="black" stroke="transparent" points="549.09,-187 549.09,-191 609.09,-191 609.09,-187 549.09,-187"/>
<text text-anchor="start" x="551.09" y="-175" font-family="Helvetica,sans-Serif" font-size="10.00">Parameters</text>
<polygon fill="black" stroke="transparent" points="549.09,-164 549.09,-168 609.09,-168 609.09,-164 549.09,-164"/>
</g>
<!-- proc_flow&#45;&gt;db_params -->
<g id="edge5" class="edge">
<title>proc_flow&#45;&gt;db_params</title>
<path fill="none" stroke="#60b060" stroke-opacity="0.376471" d="M440.12,-178C472.99,-178 511.1,-178 538.93,-178"/>
<polygon fill="#60b060" fill-opacity="0.376471" stroke="#60b060" stroke-opacity="0.376471" points="440.1,-174.5 430.1,-178 440.1,-181.5 440.1,-174.5"/>
<text text-anchor="middle" x="478.09" y="-181" font-family="Times,serif" font-style="italic" font-size="10.00" fill="#60b060">alert thresh</text>
</g>
<!-- ext -->
<g id="node5" class="node">
<title>ext</title>
<polygon fill="none" stroke="black" points="993.59,-83 897.59,-83 897.59,-47 993.59,-47 993.59,-83"/>
<text text-anchor="middle" x="945.59" y="-62.5" font-family="Helvetica,sans-Serif" font-size="10.00">External system</text>
</g>
<!-- forecast -->
<g id="node11" class="node">
<title>forecast</title>
<ellipse fill="#eeeeee" stroke="black" cx="795.84" cy="-126" rx="62.97" ry="18"/>
<text text-anchor="middle" x="795.84" y="-123.5" font-family="Helvetica,sans-Serif" font-size="10.00">compute forecasts</text>
</g>
<!-- db_aggr&#45;&gt;forecast -->
<g id="edge8" class="edge">
<title>db_aggr&#45;&gt;forecast</title>
<path fill="none" stroke="#5050e0" stroke-width="2" d="M632.35,-122.22C659.45,-122.85 692.97,-123.63 722.52,-124.32"/>
<polygon fill="#5050e0" stroke="#5050e0" stroke-width="2" points="722.71,-127.82 732.79,-124.56 722.87,-120.82 722.71,-127.82"/>
</g>
<!-- interact -->
<g id="node12" class="node">
<title>interact</title>
<ellipse fill="#eeeeee" stroke="black" cx="795.84" cy="-65" rx="64.51" ry="18"/>
<text text-anchor="middle" x="795.84" y="-62.5" font-family="Helvetica,sans-Serif" font-size="10.00">handle interactions</text>
</g>
<!-- db_aggr&#45;&gt;interact -->
<g id="edge11" class="edge">
<title>db_aggr&#45;&gt;interact</title>
<path fill="none" stroke="#5050e0" stroke-width="2" d="M630.73,-101.32C634.14,-98.84 637.32,-96.08 640.09,-93 649.21,-82.87 638.99,-71.91 650.09,-64 675.81,-45.66 711.16,-45.57 740.49,-50.23"/>
<polygon fill="#5050e0" stroke="#5050e0" stroke-width="2" points="740.13,-53.72 750.59,-52.06 741.37,-46.83 740.13,-53.72"/>
</g>
<!-- db_fcast -->
<g id="node7" class="node">
<title>db_fcast</title>
<polygon fill="black" stroke="transparent" points="554.09,-73 554.09,-77 605.09,-77 605.09,-73 554.09,-73"/>
<text text-anchor="start" x="556.09" y="-61" font-family="Helvetica,sans-Serif" font-size="10.00">Forecasts</text>
<polygon fill="black" stroke="transparent" points="554.09,-50 554.09,-54 605.09,-54 605.09,-50 554.09,-50"/>
</g>
<!-- db_fcast&#45;&gt;forecast -->
<g id="edge10" class="edge">
<title>db_fcast&#45;&gt;forecast</title>
<path fill="none" stroke="maroon" stroke-width="2" d="M624.15,-85.15C632.64,-88.76 641.55,-92.23 650.09,-95 679.54,-104.56 713.34,-111.99 740.87,-117.18"/>
<polygon fill="maroon" stroke="maroon" stroke-width="2" points="625.35,-81.86 614.79,-81.06 622.54,-88.27 625.35,-81.86"/>
</g>
<!-- db_fcast&#45;&gt;interact -->
<g id="edge12" class="edge">
<title>db_fcast&#45;&gt;interact</title>
<path fill="none" stroke="maroon" stroke-width="2" d="M614.7,-48.99C625.79,-44.91 638.26,-41.05 650.09,-39 677.68,-34.22 685.42,-34.71 713.09,-39 724.47,-40.77 736.44,-43.84 747.6,-47.27"/>
<polygon fill="maroon" stroke="maroon" stroke-width="2" points="746.57,-50.61 757.16,-50.35 748.71,-43.95 746.57,-50.61"/>
</g>
<!-- db_raw&#45;&gt;proc_flow -->
<g id="edge3" class="edge">
<title>db_raw&#45;&gt;proc_flow</title>
<path fill="none" stroke="#5050e0" stroke-width="2" d="M273.17,-178C278.46,-178 284.1,-178 289.91,-178"/>
<polygon fill="#5050e0" stroke="#5050e0" stroke-width="2" points="299.96,-181.5 309.96,-178 299.96,-174.5 299.96,-181.5"/>
<polygon fill="#5050e0" stroke="#5050e0" stroke-width="2" points="289.96,-181.5 299.96,-178 289.96,-174.5 289.96,-181.5"/>
</g>
<!-- optim -->
<g id="node10" class="node">
<title>optim</title>
<ellipse fill="#eeeeee" stroke="black" cx="795.84" cy="-180" rx="58.06" ry="18"/>
<text text-anchor="middle" x="795.84" y="-177.5" font-family="Helvetica,sans-Serif" font-size="10.00">optimize params</text>
</g>
<!-- db_params&#45;&gt;optim -->
<g id="edge7" class="edge">
<title>db_params&#45;&gt;optim</title>
<path fill="none" stroke="#60b060" stroke-opacity="0.376471" d="M629.38,-178.75C636.34,-178.84 643.39,-178.93 650.09,-179 678.86,-179.3 710.85,-179.54 737.43,-179.7"/>
<polygon fill="#60b060" fill-opacity="0.376471" stroke="#60b060" stroke-opacity="0.376471" points="629.38,-175.25 619.33,-178.61 629.28,-182.25 629.38,-175.25"/>
<text text-anchor="middle" x="681.59" y="-182" font-family="Times,serif" font-style="italic" font-size="10.00" fill="#60b060">new params</text>
</g>
<!-- db_params&#45;&gt;forecast -->
<g id="edge9" class="edge">
<title>db_params&#45;&gt;forecast</title>
<path fill="none" stroke="#60b060" stroke-opacity="0.376471" d="M619.48,-168.46C652.49,-160.47 700.07,-148.95 737.34,-139.92"/>
<polygon fill="#60b060" fill-opacity="0.376471" stroke="#60b060" stroke-opacity="0.376471" points="738.17,-143.32 747.07,-137.57 736.52,-136.52 738.17,-143.32"/>
<text text-anchor="middle" x="681.59" y="-162" font-family="Times,serif" font-style="italic" font-size="10.00" fill="#60b060">horizon</text>
</g>
<!-- db_params&#45;&gt;interact -->
<g id="edge15" class="edge">
<title>db_params&#45;&gt;interact</title>
<path fill="none" stroke="#60b060" stroke-opacity="0.376471" d="M628.3,-159.22C632.55,-156.49 636.57,-153.43 640.09,-150 647.21,-143.07 642.93,-136.9 650.09,-130 676.37,-104.67 691.55,-110.95 724.85,-96 736.37,-90.83 748.98,-85.23 760.28,-80.23"/>
<polygon fill="#60b060" fill-opacity="0.376471" stroke="#60b060" stroke-opacity="0.376471" points="626.27,-156.34 619.33,-164.35 629.75,-162.42 626.27,-156.34"/>
<text text-anchor="middle" x="681.59" y="-133" font-family="Times,serif" font-style="italic" font-size="10.00" fill="#60b060">alert thresh</text>
</g>
<!-- interact&#45;&gt;user -->
<g id="edge13" class="edge">
<title>interact&#45;&gt;user</title>
<path fill="none" stroke="#303030" stroke-width="2" d="M837.67,-78.97C847.77,-83.51 858.17,-89.17 866.83,-96 893.25,-116.86 915.58,-148.65 929.45,-171.19"/>
<polygon fill="#303030" stroke="#303030" stroke-width="2" points="926.54,-173.15 934.68,-179.93 932.54,-169.55 926.54,-173.15"/>
</g>
<!-- interact&#45;&gt;ext -->
<g id="edge14" class="edge">
<title>interact&#45;&gt;ext</title>
<path fill="none" stroke="#303030" stroke-width="2" d="M860.79,-65C869.64,-65 878.7,-65 887.42,-65"/>
<polygon fill="#303030" stroke="#303030" stroke-width="2" points="887.48,-68.5 897.48,-65 887.48,-61.5 887.48,-68.5"/>
</g>
</g>
</svg>
