<?xml version="1.0" encoding="UTF-8" standalone="no"?>
<!DOCTYPE svg PUBLIC "-//W3C//DTD SVG 1.1//EN"
 "http://www.w3.org/Graphics/SVG/1.1/DTD/svg11.dtd">
<!-- Generated by graphviz version 2.43.0 (0)
 -->
<!-- Title: D Pages: 1 -->
<svg width="927pt" height="266pt"
 viewBox="0.00 0.00 927.05 266.00" xmlns="http://www.w3.org/2000/svg" xmlns:xlink="http://www.w3.org/1999/xlink">
<g id="graph0" class="graph" transform="scale(1 1) rotate(0) translate(4 262)">
<title>D</title>
<polygon fill="white" stroke="transparent" points="-4,4 -4,-262 923.05,-262 923.05,4 -4,4"/>
<text text-anchor="middle" x="459.52" y="-6.8" font-family="Helvetica,sans-Serif" font-size="9.00" fill="#000060">&#45; img/data&#45;pipeline &#45;</text>
<g id="clust1" class="cluster">
<title>cluster_0</title>
<polygon fill="none" stroke="black" stroke-dasharray="5,2" points="488.67,-36 488.67,-224 600.67,-224 600.67,-36 488.67,-36"/>
<text text-anchor="middle" x="544.67" y="-212.8" font-family="Helvetica,sans-Serif" font-size="9.00" fill="#000060">Computation results</text>
</g>
<g id="clust2" class="cluster">
<title>cluster_1</title>
<polygon fill="none" stroke="black" stroke-dasharray="5,2" points="670.67,-100 670.67,-224 802.05,-224 802.05,-100 670.67,-100"/>
<text text-anchor="middle" x="736.36" y="-212.8" font-family="Helvetica,sans-Serif" font-size="9.00" fill="#000060">Batch processing</text>
</g>
<!-- ds -->
<g id="node1" class="node">
<title>ds</title>
<polygon fill="none" stroke="black" points="70,-196 0,-196 0,-160 70,-160 70,-196"/>
<text text-anchor="middle" x="35" y="-175.5" font-family="Helvetica,sans-Serif" font-size="10.00">Data source</text>
</g>
<!-- etl -->
<g id="node2" class="node">
<title>etl</title>
<ellipse fill="#eeeeee" stroke="black" cx="134" cy="-178" rx="27" ry="18"/>
<text text-anchor="middle" x="134" y="-175.5" font-family="Helvetica,sans-Serif" font-size="10.00">ETL</text>
</g>
<!-- ds&#45;&gt;etl -->
<g id="edge1" class="edge">
<title>ds&#45;&gt;etl</title>
<path fill="none" stroke="#5050e0" stroke-width="2" d="M70.2,-178C75.54,-178 81.14,-178 86.7,-178"/>
<polygon fill="#5050e0" stroke="#5050e0" stroke-width="2" points="96.73,-181.5 106.73,-178 96.73,-174.5 96.73,-181.5"/>
<polygon fill="#5050e0" stroke="#5050e0" stroke-width="2" points="86.73,-181.5 96.73,-178 86.73,-174.5 86.73,-181.5"/>
</g>
<!-- db_raw -->
<g id="node8" class="node">
<title>db_raw</title>
<polygon fill="black" stroke="transparent" points="208.5,-187 208.5,-191 255.5,-191 255.5,-187 208.5,-187"/>
<text text-anchor="start" x="210.5" y="-175" font-family="Helvetica,sans-Serif" font-size="10.00">Raw data</text>
<polygon fill="black" stroke="transparent" points="208.5,-164 208.5,-168 255.5,-168 255.5,-164 208.5,-164"/>
</g>
<!-- etl&#45;&gt;db_raw -->
<g id="edge2" class="edge">
<title>etl&#45;&gt;db_raw</title>
<path fill="none" stroke="#5050e0" stroke-width="2" d="M161.1,-178C166.34,-178 172.03,-178 177.81,-178"/>
<polygon fill="#5050e0" stroke="#5050e0" stroke-width="2" points="187.95,-181.5 197.95,-178 187.95,-174.5 187.95,-181.5"/>
<polygon fill="#5050e0" stroke="#5050e0" stroke-width="2" points="177.95,-181.5 187.95,-178 177.95,-174.5 177.95,-181.5"/>
</g>
<!-- user -->
<g id="node3" class="node">
<title>user</title>
<polygon fill="none" stroke="black" points="902.05,-216 848.05,-216 848.05,-180 902.05,-180 902.05,-216"/>
<text text-anchor="middle" x="875.05" y="-195.5" font-family="Helvetica,sans-Serif" font-size="10.00">User</text>
</g>
<!-- proc_flow -->
<g id="node4" class="node">
<title>proc_flow</title>
<ellipse fill="#eeeeee" stroke="black" cx="357.33" cy="-178" rx="55.17" ry="18"/>
<text text-anchor="middle" x="357.33" y="-175.5" font-family="Helvetica,sans-Serif" font-size="10.00">process data flow</text>
</g>
<!-- proc_flow&#45;&gt;user -->
<g id="edge6" class="edge">
<title>proc_flow&#45;&gt;user</title>
<path fill="none" stroke="#ff4040" stroke-dasharray="5,2" d="M388.22,-193.09C414.06,-205.24 452.8,-221.36 488.67,-228 625.62,-253.37 665.47,-255.31 802.05,-228 814.39,-225.53 827.27,-220.9 838.66,-216"/>
<polygon fill="#ff4040" stroke="#ff4040" points="840.15,-219.16 847.83,-211.86 837.28,-212.78 840.15,-219.16"/>
<text text-anchor="middle" x="635.67" y="-250" font-family="Times,serif" font-style="italic" font-size="10.00" fill="#ff4040">alert</text>
</g>
<!-- db_aggr -->
<g id="node6" class="node">
<title>db_aggr</title>
<polygon fill="black" stroke="transparent" points="506.67,-130 506.67,-134 582.67,-134 582.67,-130 506.67,-130"/>
<text text-anchor="start" x="508.67" y="-118" font-family="Helvetica,sans-Serif" font-size="10.00">Aggregated data</text>
<polygon fill="black" stroke="transparent" points="506.67,-107 506.67,-111 582.67,-111 582.67,-107 506.67,-107"/>
</g>
<!-- proc_flow&#45;&gt;db_aggr -->
<g id="edge4" class="edge">
<title>proc_flow&#45;&gt;db_aggr</title>
<path fill="none" stroke="#5050e0" stroke-width="2" d="M398.09,-165.77C421.06,-158.71 450.55,-149.64 476.98,-141.51"/>
<polygon fill="#5050e0" stroke="#5050e0" stroke-width="2" points="487.9,-141.81 496.43,-135.53 485.84,-135.12 487.9,-141.81"/>
<polygon fill="#5050e0" stroke="#5050e0" stroke-width="2" points="478.34,-144.75 486.87,-138.47 476.28,-138.06 478.34,-144.75"/>
</g>
<!-- db_params -->
<g id="node9" class="node">
<title>db_params</title>
<polygon fill="black" stroke="transparent" points="517.67,-187 517.67,-191 572.67,-191 572.67,-187 517.67,-187"/>
<text text-anchor="start" x="519.67" y="-175" font-family="Helvetica,sans-Serif" font-size="10.00">Parameters</text>
<polygon fill="black" stroke="transparent" points="517.67,-164 517.67,-168 572.67,-168 572.67,-164 517.67,-164"/>
</g>
<!-- proc_flow&#45;&gt;db_params -->
<g id="edge5" class="edge">
<title>proc_flow&#45;&gt;db_params</title>
<path fill="none" stroke="#60b060" stroke-opacity="0.376471" d="M423.1,-178C451.22,-178 483.11,-178 507.02,-178"/>
<polygon fill="#60b060" fill-opacity="0.376471" stroke="#60b060" stroke-opacity="0.376471" points="422.94,-174.5 412.94,-178 422.94,-181.5 422.94,-174.5"/>
<text text-anchor="middle" x="454.67" y="-181" font-family="Times,serif" font-style="italic" font-size="10.00" fill="#60b060">alert thresh</text>
</g>
<!-- ext -->
<g id="node5" class="node">
<title>ext</title>
<polygon fill="none" stroke="black" points="919.05,-83 831.05,-83 831.05,-47 919.05,-47 919.05,-83"/>
<text text-anchor="middle" x="875.05" y="-62.5" font-family="Helvetica,sans-Serif" font-size="10.00">External system</text>
</g>
<!-- forecast -->
<g id="node11" class="node">
<title>forecast</title>
<ellipse fill="#eeeeee" stroke="black" cx="736.36" cy="-126" rx="57.88" ry="18"/>
<text text-anchor="middle" x="736.36" y="-123.5" font-family="Helvetica,sans-Serif" font-size="10.00">compute forecasts</text>
</g>
<!-- db_aggr&#45;&gt;forecast -->
<g id="edge8" class="edge">
<title>db_aggr&#45;&gt;forecast</title>
<path fill="none" stroke="#5050e0" stroke-width="2" d="M593.05,-122.25C615.9,-122.85 643.72,-123.58 668.67,-124.24"/>
<polygon fill="#5050e0" stroke="#5050e0" stroke-width="2" points="668.71,-127.74 678.8,-124.51 668.9,-120.75 668.71,-127.74"/>
</g>
<!-- interact -->
<g id="node12" class="node">
<title>interact</title>
<ellipse fill="#eeeeee" stroke="black" cx="736.36" cy="-65" rx="57.88" ry="18"/>
<text text-anchor="middle" x="736.36" y="-62.5" font-family="Helvetica,sans-Serif" font-size="10.00">handle interactions</text>
</g>
<!-- db_aggr&#45;&gt;interact -->
<g id="edge11" class="edge">
<title>db_aggr&#45;&gt;interact</title>
<path fill="none" stroke="#5050e0" stroke-width="2" d="M591.58,-101.35C594.91,-98.85 598,-96.07 600.67,-93 609.62,-82.71 599.57,-71.91 610.67,-64 631.26,-49.32 659.02,-48.25 683.12,-51.42"/>
<polygon fill="#5050e0" stroke="#5050e0" stroke-width="2" points="682.77,-54.9 693.19,-53.01 683.86,-47.99 682.77,-54.9"/>
</g>
<!-- db_fcast -->
<g id="node7" class="node">
<title>db_fcast</title>
<polygon fill="black" stroke="transparent" points="520.67,-73 520.67,-77 568.67,-77 568.67,-73 520.67,-73"/>
<text text-anchor="start" x="522.67" y="-61" font-family="Helvetica,sans-Serif" font-size="10.00">Forecasts</text>
<polygon fill="black" stroke="transparent" points="520.67,-50 520.67,-54 568.67,-54 568.67,-50 520.67,-50"/>
</g>
<!-- db_fcast&#45;&gt;forecast -->
<g id="edge10" class="edge">
<title>db_fcast&#45;&gt;forecast</title>
<path fill="none" stroke="maroon" stroke-width="2" d="M588.06,-85.71C595.48,-89.08 603.22,-92.33 610.67,-95 635.44,-103.89 663.87,-111.17 687.32,-116.43"/>
<polygon fill="maroon" stroke="maroon" stroke-width="2" points="589.4,-82.48 578.86,-81.41 586.43,-88.82 589.4,-82.48"/>
</g>
<!-- db_fcast&#45;&gt;interact -->
<g id="edge12" class="edge">
<title>db_fcast&#45;&gt;interact</title>
<path fill="none" stroke="maroon" stroke-width="2" d="M578.72,-48.6C588.76,-44.67 599.97,-40.99 610.67,-39 632.52,-34.94 638.76,-35.3 660.67,-39 670.92,-40.73 681.65,-43.72 691.67,-47.06"/>
<polygon fill="maroon" stroke="maroon" stroke-width="2" points="690.82,-50.47 701.41,-50.49 693.14,-43.87 690.82,-50.47"/>
</g>
<!-- db_raw&#45;&gt;proc_flow -->
<g id="edge3" class="edge">
<title>db_raw&#45;&gt;proc_flow</title>
<path fill="none" stroke="#5050e0" stroke-width="2" d="M265.04,-178C270.34,-178 276.03,-178 281.86,-178"/>
<polygon fill="#5050e0" stroke="#5050e0" stroke-width="2" points="291.99,-181.5 301.99,-178 291.99,-174.5 291.99,-181.5"/>
<polygon fill="#5050e0" stroke="#5050e0" stroke-width="2" points="281.99,-181.5 291.99,-178 281.99,-174.5 281.99,-181.5"/>
</g>
<!-- optim -->
<g id="node10" class="node">
<title>optim</title>
<ellipse fill="#eeeeee" stroke="black" cx="736.36" cy="-180" rx="52.28" ry="18"/>
<text text-anchor="middle" x="736.36" y="-177.5" font-family="Helvetica,sans-Serif" font-size="10.00">optimize params</text>
</g>
<!-- db_params&#45;&gt;optim -->
<g id="edge7" class="edge">
<title>db_params&#45;&gt;optim</title>
<path fill="none" stroke="#60b060" stroke-opacity="0.376471" d="M592.57,-178.76C598.66,-178.85 604.81,-178.93 610.67,-179 634.7,-179.28 661.33,-179.51 683.79,-179.67"/>
<polygon fill="#60b060" fill-opacity="0.376471" stroke="#60b060" stroke-opacity="0.376471" points="592.5,-175.26 582.45,-178.61 592.4,-182.26 592.5,-175.26"/>
<text text-anchor="middle" x="635.67" y="-182" font-family="Times,serif" font-style="italic" font-size="10.00" fill="#60b060">new params</text>
</g>
<!-- db_params&#45;&gt;forecast -->
<g id="edge9" class="edge">
<title>db_params&#45;&gt;forecast</title>
<path fill="none" stroke="#60b060" stroke-opacity="0.376471" d="M582.24,-167.97C610.61,-160.2 650.33,-149.31 682.21,-140.57"/>
<polygon fill="#60b060" fill-opacity="0.376471" stroke="#60b060" stroke-opacity="0.376471" points="683.54,-143.84 692.25,-137.82 681.69,-137.08 683.54,-143.84"/>
<text text-anchor="middle" x="635.67" y="-162" font-family="Times,serif" font-style="italic" font-size="10.00" fill="#60b060">horizon</text>
</g>
<!-- db_params&#45;&gt;interact -->
<g id="edge15" class="edge">
<title>db_params&#45;&gt;interact</title>
<path fill="none" stroke="#60b060" stroke-opacity="0.376471" d="M591.09,-157.77C594.51,-155.39 597.76,-152.81 600.67,-150 607.26,-143.65 604.31,-138.58 610.67,-132 632.29,-109.65 643.28,-110.74 670.67,-96 680.98,-90.45 692.44,-84.8 702.81,-79.87"/>
<polygon fill="#60b060" fill-opacity="0.376471" stroke="#60b060" stroke-opacity="0.376471" points="588.96,-154.97 582.32,-163.22 592.66,-160.91 588.96,-154.97"/>
<text text-anchor="middle" x="635.67" y="-135" font-family="Times,serif" font-style="italic" font-size="10.00" fill="#60b060">alert thresh</text>
</g>
<!-- interact&#45;&gt;user -->
<g id="edge13" class="edge">
<title>interact&#45;&gt;user</title>
<path fill="none" stroke="#303030" stroke-width="2" d="M774.23,-78.71C783.88,-83.32 793.87,-89.09 802.05,-96 826.82,-116.93 847.23,-148.24 859.92,-170.64"/>
<polygon fill="#303030" stroke="#303030" stroke-width="2" points="856.98,-172.57 864.87,-179.64 863.11,-169.2 856.98,-172.57"/>
</g>
<!-- interact&#45;&gt;ext -->
<g id="edge14" class="edge">
<title>interact&#45;&gt;ext</title>
<path fill="none" stroke="#303030" stroke-width="2" d="M794.14,-65C803,-65 812.12,-65 820.89,-65"/>
<polygon fill="#303030" stroke="#303030" stroke-width="2" points="820.99,-68.5 830.99,-65 820.99,-61.5 820.99,-68.5"/>
</g>
</g>
</svg>
