<?xml version="1.0" encoding="UTF-8" standalone="no"?>
<!DOCTYPE svg PUBLIC "-//W3C//DTD SVG 1.1//EN"
 "http://www.w3.org/Graphics/SVG/1.1/DTD/svg11.dtd">
<!-- Generated by graphviz version 2.43.0 (0)
 -->
<!-- Title: D Pages: 1 -->
<svg width="266pt" height="72pt"
 viewBox="0.00 0.00 265.69 72.00" xmlns="http://www.w3.org/2000/svg" xmlns:xlink="http://www.w3.org/1999/xlink">
<g id="graph0" class="graph" transform="scale(1 1) rotate(0) translate(4 68)">
<title>D</title>
<polygon fill="white" stroke="transparent" points="-4,4 -4,-68 261.69,-68 261.69,4 -4,4"/>
<text text-anchor="middle" x="128.84" y="-6.8" font-family="Helvetica,sans-Serif" font-size="9.00" fill="#000060">&#45; img/dependant&#45;4 &#45;</text>
<!-- dfd/Feature&#45;2 -->
<g id="node1" class="node">
<title>dfd/Feature&#45;2</title>
<text text-anchor="middle" x="37" y="-43.5" font-family="Helvetica,sans-Serif" font-size="10.00" fill="grey">dfd/Feature&#45;2</text>
</g>
<!-- That -->
<g id="node3" class="node">
<title>That</title>
<ellipse fill="#eeeeee" stroke="black" cx="138.84" cy="-46" rx="28.69" ry="18"/>
<text text-anchor="middle" x="138.84" y="-43.5" font-family="Helvetica,sans-Serif" font-size="10.00">Do that</text>
</g>
<!-- dfd/Feature&#45;2&#45;&gt;That -->
<g id="edge1" class="edge">
<title>dfd/Feature&#45;2&#45;&gt;That</title>
<path fill="none" stroke="gray" d="M74.05,-46C82.46,-46 91.46,-46 99.95,-46"/>
<polygon fill="gray" stroke="gray" points="100,-49.5 110,-46 100,-42.5 100,-49.5"/>
</g>
<!-- These -->
<g id="node2" class="node">
<title>These</title>
<ellipse fill="white" stroke="grey" cx="230.69" cy="-46" rx="27" ry="18"/>
<text text-anchor="middle" x="230.69" y="-43.5" font-family="Helvetica,sans-Serif" font-size="10.00" fill="grey">These</text>
</g>
<!-- That&#45;&gt;These -->
<g id="edge2" class="edge">
<title>That&#45;&gt;These</title>
<path fill="none" stroke="gray" d="M167.78,-46C175.91,-46 184.91,-46 193.47,-46"/>
<polygon fill="gray" stroke="gray" points="193.61,-49.5 203.61,-46 193.61,-42.5 193.61,-49.5"/>
</g>
</g>
</svg>
