<?xml version="1.0" encoding="UTF-8" standalone="no"?>
<!DOCTYPE svg PUBLIC "-//W3C//DTD SVG 1.1//EN"
 "http://www.w3.org/Graphics/SVG/1.1/DTD/svg11.dtd">
<!-- Generated by graphviz version 2.43.0 (0)
 -->
<!-- Title: D Pages: 1 -->
<svg width="260pt" height="72pt"
 viewBox="0.00 0.00 259.56 72.00" xmlns="http://www.w3.org/2000/svg" xmlns:xlink="http://www.w3.org/1999/xlink">
<g id="graph0" class="graph" transform="scale(1 1) rotate(0) translate(4 68)">
<title>D</title>
<polygon fill="white" stroke="transparent" points="-4,4 -4,-68 255.56,-68 255.56,4 -4,4"/>
<text text-anchor="middle" x="125.78" y="-6.8" font-family="Helvetica,sans-Serif" font-size="9.00" fill="#000060">&#45; img/dependant&#45;4 &#45;</text>
<!-- Feature&#45;2 -->
<g id="node1" class="node">
<title>Feature&#45;2</title>
<text text-anchor="middle" x="31.5" y="-43.5" font-family="Helvetica,sans-Serif" font-size="10.00" fill="grey">Feature&#45;2</text>
</g>
<!-- That -->
<g id="node3" class="node">
<title>That</title>
<ellipse fill="#eeeeee" stroke="black" cx="130.2" cy="-46" rx="31.4" ry="18"/>
<text text-anchor="middle" x="130.2" y="-43.5" font-family="Helvetica,sans-Serif" font-size="10.00">Do that</text>
</g>
<!-- Feature&#45;2&#45;&gt;That -->
<g id="edge1" class="edge">
<title>Feature&#45;2&#45;&gt;That</title>
<path fill="none" stroke="gray" d="M63.1,-46C71.2,-46 80.08,-46 88.62,-46"/>
<polygon fill="gray" stroke="gray" points="88.8,-49.5 98.8,-46 88.8,-42.5 88.8,-49.5"/>
</g>
<!-- These -->
<g id="node2" class="node">
<title>These</title>
<ellipse fill="white" stroke="grey" cx="224.48" cy="-46" rx="27.16" ry="18"/>
<text text-anchor="middle" x="224.48" y="-43.5" font-family="Helvetica,sans-Serif" font-size="10.00" fill="grey">These</text>
</g>
<!-- That&#45;&gt;These -->
<g id="edge2" class="edge">
<title>That&#45;&gt;These</title>
<path fill="none" stroke="gray" d="M161.41,-46C169.64,-46 178.63,-46 187.15,-46"/>
<polygon fill="gray" stroke="gray" points="187.23,-49.5 197.23,-46 187.23,-42.5 187.23,-49.5"/>
</g>
</g>
</svg>
