<?xml version="1.0" encoding="UTF-8" standalone="no"?>
<!DOCTYPE svg PUBLIC "-//W3C//DTD SVG 1.1//EN"
 "http://www.w3.org/Graphics/SVG/1.1/DTD/svg11.dtd">
<!-- Generated by graphviz version 2.43.0 (0)
 -->
<!-- Title: D Pages: 1 -->
<svg width="279pt" height="72pt"
 viewBox="0.00 0.00 278.56 72.00" xmlns="http://www.w3.org/2000/svg" xmlns:xlink="http://www.w3.org/1999/xlink">
<g id="graph0" class="graph" transform="scale(1 1) rotate(0) translate(4 68)">
<title>D</title>
<polygon fill="white" stroke="transparent" points="-4,4 -4,-68 274.56,-68 274.56,4 -4,4"/>
<text text-anchor="middle" x="135.28" y="-6.8" font-family="Helvetica,sans-Serif" font-size="9.00" fill="#000060">&#45; img/dependant&#45;4 &#45;</text>
<!-- dfd/Feature&#45;2 -->
<g id="node1" class="node">
<title>dfd/Feature&#45;2</title>
<text text-anchor="middle" x="41" y="-43.5" font-family="Helvetica,sans-Serif" font-size="10.00" fill="grey">dfd/Feature&#45;2</text>
</g>
<!-- That -->
<g id="node3" class="node">
<title>That</title>
<ellipse fill="#eeeeee" stroke="black" cx="149.2" cy="-46" rx="31.4" ry="18"/>
<text text-anchor="middle" x="149.2" y="-43.5" font-family="Helvetica,sans-Serif" font-size="10.00">Do that</text>
</g>
<!-- dfd/Feature&#45;2&#45;&gt;That -->
<g id="edge1" class="edge">
<title>dfd/Feature&#45;2&#45;&gt;That</title>
<path fill="none" stroke="gray" d="M82.15,-46C90.58,-46 99.48,-46 107.92,-46"/>
<polygon fill="gray" stroke="gray" points="107.93,-49.5 117.93,-46 107.93,-42.5 107.93,-49.5"/>
</g>
<!-- These -->
<g id="node2" class="node">
<title>These</title>
<ellipse fill="white" stroke="grey" cx="243.48" cy="-46" rx="27.16" ry="18"/>
<text text-anchor="middle" x="243.48" y="-43.5" font-family="Helvetica,sans-Serif" font-size="10.00" fill="grey">These</text>
</g>
<!-- That&#45;&gt;These -->
<g id="edge2" class="edge">
<title>That&#45;&gt;These</title>
<path fill="none" stroke="gray" d="M180.41,-46C188.64,-46 197.63,-46 206.15,-46"/>
<polygon fill="gray" stroke="gray" points="206.23,-49.5 216.23,-46 206.23,-42.5 206.23,-49.5"/>
</g>
</g>
</svg>
