<?xml version="1.0" encoding="UTF-8" standalone="no"?>
<!DOCTYPE svg PUBLIC "-//W3C//DTD SVG 1.1//EN"
 "http://www.w3.org/Graphics/SVG/1.1/DTD/svg11.dtd">
<!-- Generated by graphviz version 2.43.0 (0)
 -->
<!-- Title: D Pages: 1 -->
<svg width="346pt" height="219pt"
 viewBox="0.00 0.00 346.09 219.00" xmlns="http://www.w3.org/2000/svg" xmlns:xlink="http://www.w3.org/1999/xlink">
<g id="graph0" class="graph" transform="scale(1 1) rotate(0) translate(4 215)">
<title>D</title>
<polygon fill="white" stroke="transparent" points="-4,4 -4,-215 342.09,-215 342.09,4 -4,4"/>
<text text-anchor="middle" x="169.04" y="-6.8" font-family="Helvetica,sans-Serif" font-size="9.00" fill="#000060">&#45; img/filter&#45;only&#45;right &#45;</text>
<g id="clust1" class="cluster">
<title>cluster_0</title>
<polygon fill="none" stroke="black" stroke-dasharray="5,2" points="208.09,-36 208.09,-167 330.09,-167 330.09,-36 208.09,-36"/>
<text text-anchor="middle" x="269.09" y="-155.8" font-family="Helvetica,sans-Serif" font-size="9.00" fill="#000060">Computation results</text>
</g>
<!-- user -->
<g id="node1" class="node">
<title>user</title>
<polygon fill="none" stroke="black" points="296.09,-211 242.09,-211 242.09,-175 296.09,-175 296.09,-211"/>
<text text-anchor="middle" x="269.09" y="-190.5" font-family="Helvetica,sans-Serif" font-size="10.00">User</text>
</g>
<!-- proc_flow -->
<g id="node2" class="node">
<title>proc_flow</title>
<ellipse fill="#eeeeee" stroke="black" cx="60.04" cy="-121" rx="60.09" ry="18"/>
<text text-anchor="middle" x="60.04" y="-118.5" font-family="Helvetica,sans-Serif" font-size="10.00">process data flow</text>
</g>
<!-- proc_flow&#45;&gt;user -->
<g id="edge3" class="edge">
<title>proc_flow&#45;&gt;user</title>
<path fill="none" stroke="#ff4040" stroke-dasharray="5,2" d="M99.99,-134.54C137.89,-147.72 195.03,-167.59 231.95,-180.43"/>
<polygon fill="#ff4040" stroke="#ff4040" points="231.19,-183.88 241.79,-183.85 233.49,-177.26 231.19,-183.88"/>
<text text-anchor="middle" x="168.09" y="-170" font-family="Times,serif" font-style="italic" font-size="10.00" fill="#ff4040">alert</text>
</g>
<!-- db_aggr -->
<g id="node3" class="node">
<title>db_aggr</title>
<polygon fill="black" stroke="transparent" points="226.09,-130 226.09,-134 312.09,-134 312.09,-130 226.09,-130"/>
<text text-anchor="start" x="228.09" y="-118" font-family="Helvetica,sans-Serif" font-size="10.00">Aggregated data</text>
<polygon fill="black" stroke="transparent" points="226.09,-107 226.09,-111 312.09,-111 312.09,-107 226.09,-107"/>
</g>
<!-- proc_flow&#45;&gt;db_aggr -->
<g id="edge1" class="edge">
<title>proc_flow&#45;&gt;db_aggr</title>
<path fill="none" stroke="#5050e0" stroke-width="2" d="M120.1,-121C143.72,-121 171.16,-121 195.95,-121"/>
<polygon fill="#5050e0" stroke="#5050e0" stroke-width="2" points="206.01,-124.5 216.01,-121 206.01,-117.5 206.01,-124.5"/>
<polygon fill="#5050e0" stroke="#5050e0" stroke-width="2" points="196.01,-124.5 206.01,-121 196.01,-117.5 196.01,-124.5"/>
</g>
<!-- db_params -->
<g id="node4" class="node">
<title>db_params</title>
<polygon fill="black" stroke="transparent" points="239.09,-73 239.09,-77 299.09,-77 299.09,-73 239.09,-73"/>
<text text-anchor="start" x="241.09" y="-61" font-family="Helvetica,sans-Serif" font-size="10.00">Parameters</text>
<polygon fill="black" stroke="transparent" points="239.09,-50 239.09,-54 299.09,-54 299.09,-50 239.09,-50"/>
</g>
<!-- proc_flow&#45;&gt;db_params -->
<g id="edge2" class="edge">
<title>proc_flow&#45;&gt;db_params</title>
<path fill="none" stroke="#60b060" stroke-opacity="0.376471" d="M114.72,-106.22C150.42,-96.4 196.49,-83.71 228.79,-74.82"/>
<polygon fill="#60b060" fill-opacity="0.376471" stroke="#60b060" stroke-opacity="0.376471" points="113.66,-102.88 104.95,-108.91 115.52,-109.63 113.66,-102.88"/>
<text text-anchor="middle" x="168.09" y="-102" font-family="Times,serif" font-style="italic" font-size="10.00" fill="#60b060">alert thresh</text>
</g>
</g>
</svg>
