<?xml version="1.0" encoding="UTF-8" standalone="no"?>
<!DOCTYPE svg PUBLIC "-//W3C//DTD SVG 1.1//EN"
 "http://www.w3.org/Graphics/SVG/1.1/DTD/svg11.dtd">
<!-- Generated by graphviz version 2.43.0 (0)
 -->
<!-- Title: D Pages: 1 -->
<svg width="516pt" height="248pt"
 viewBox="0.00 0.00 516.05 248.00" xmlns="http://www.w3.org/2000/svg" xmlns:xlink="http://www.w3.org/1999/xlink">
<g id="graph0" class="graph" transform="scale(1 1) rotate(0) translate(4 244)">
<title>D</title>
<polygon fill="white" stroke="transparent" points="-4,4 -4,-244 512.05,-244 512.05,4 -4,4"/>
<text text-anchor="middle" x="254.02" y="-6.8" font-family="Helvetica,sans-Serif" font-size="9.00" fill="#000060">&#45; img/filter&#45;dbs&#45;context &#45;</text>
<g id="clust1" class="cluster">
<title>cluster_0</title>
<polygon fill="none" stroke="black" stroke-dasharray="5,2" points="186.67,-44 186.67,-232 298.67,-232 298.67,-44 186.67,-44"/>
<text text-anchor="middle" x="242.67" y="-220.8" font-family="Helvetica,sans-Serif" font-size="9.00" fill="#000060">Computation results</text>
</g>
<g id="clust2" class="cluster">
<title>cluster_1</title>
<polygon fill="none" stroke="black" stroke-dasharray="5,2" points="368.67,-74 368.67,-198 500.05,-198 500.05,-74 368.67,-74"/>
<text text-anchor="middle" x="434.36" y="-186.8" font-family="Helvetica,sans-Serif" font-size="9.00" fill="#000060">Batch processing</text>
</g>
<!-- proc_flow -->
<g id="node1" class="node">
<title>proc_flow</title>
<ellipse fill="#eeeeee" stroke="black" cx="55.33" cy="-129" rx="55.17" ry="18"/>
<text text-anchor="middle" x="55.33" y="-126.5" font-family="Helvetica,sans-Serif" font-size="10.00">process data flow</text>
</g>
<!-- db_aggr -->
<g id="node2" class="node">
<title>db_aggr</title>
<polygon fill="black" stroke="transparent" points="204.67,-195 204.67,-199 280.67,-199 280.67,-195 204.67,-195"/>
<text text-anchor="start" x="206.67" y="-183" font-family="Helvetica,sans-Serif" font-size="10.00">Aggregated data</text>
<polygon fill="black" stroke="transparent" points="204.67,-172 204.67,-176 280.67,-176 280.67,-172 204.67,-172"/>
</g>
<!-- proc_flow&#45;&gt;db_aggr -->
<g id="edge1" class="edge">
<title>proc_flow&#45;&gt;db_aggr</title>
<path fill="none" stroke="#5050e0" stroke-width="2" d="M96.09,-141.23C119.06,-148.29 148.55,-157.36 174.98,-165.49"/>
<polygon fill="#5050e0" stroke="#5050e0" stroke-width="2" points="183.84,-171.88 194.43,-171.47 185.9,-165.19 183.84,-171.88"/>
<polygon fill="#5050e0" stroke="#5050e0" stroke-width="2" points="174.28,-168.94 184.87,-168.53 176.34,-162.25 174.28,-168.94"/>
</g>
<!-- db_params -->
<g id="node4" class="node">
<title>db_params</title>
<polygon fill="black" stroke="transparent" points="215.67,-81 215.67,-85 270.67,-85 270.67,-81 215.67,-81"/>
<text text-anchor="start" x="217.67" y="-69" font-family="Helvetica,sans-Serif" font-size="10.00">Parameters</text>
<polygon fill="black" stroke="transparent" points="215.67,-58 215.67,-62 270.67,-62 270.67,-58 215.67,-58"/>
</g>
<!-- proc_flow&#45;&gt;db_params -->
<g id="edge2" class="edge">
<title>proc_flow&#45;&gt;db_params</title>
<path fill="none" stroke="#60b060" stroke-opacity="0.376471" d="M105.91,-113.75C137.13,-104.15 176.76,-91.96 205.12,-83.24"/>
<polygon fill="#60b060" fill-opacity="0.376471" stroke="#60b060" stroke-opacity="0.376471" points="104.62,-110.49 96.09,-116.77 106.68,-117.18 104.62,-110.49"/>
<text text-anchor="middle" x="152.67" y="-108" font-family="Times,serif" font-style="italic" font-size="10.00" fill="#60b060">alert thresh</text>
</g>
<!-- forecast -->
<g id="node6" class="node">
<title>forecast</title>
<ellipse fill="#eeeeee" stroke="black" cx="434.36" cy="-154" rx="57.88" ry="18"/>
<text text-anchor="middle" x="434.36" y="-151.5" font-family="Helvetica,sans-Serif" font-size="10.00">compute forecasts</text>
</g>
<!-- db_aggr&#45;&gt;forecast -->
<g id="edge4" class="edge">
<title>db_aggr&#45;&gt;forecast</title>
<path fill="none" stroke="#5050e0" stroke-width="2" d="M290.91,-193.08C311.9,-194.84 336.76,-195 358.67,-190 372.31,-186.88 386.36,-180.94 398.55,-174.77"/>
<polygon fill="#5050e0" stroke="#5050e0" stroke-width="2" points="400.26,-177.82 407.46,-170.05 396.99,-171.64 400.26,-177.82"/>
</g>
<!-- interact -->
<g id="node7" class="node">
<title>interact</title>
<ellipse fill="#eeeeee" stroke="black" cx="434.36" cy="-46" rx="57.88" ry="18"/>
<text text-anchor="middle" x="434.36" y="-43.5" font-family="Helvetica,sans-Serif" font-size="10.00">handle interactions</text>
</g>
<!-- db_aggr&#45;&gt;interact -->
<g id="edge7" class="edge">
<title>db_aggr&#45;&gt;interact</title>
<path fill="none" stroke="#5050e0" stroke-width="2" d="M290.73,-177.77C314.71,-171.11 342.21,-159.18 358.67,-138 377.41,-113.88 349.44,-93.74 368.67,-70 371.27,-66.79 374.34,-64.01 377.7,-61.61"/>
<polygon fill="#5050e0" stroke="#5050e0" stroke-width="2" points="379.76,-64.46 386.59,-56.36 376.2,-58.43 379.76,-64.46"/>
</g>
<!-- db_fcast -->
<g id="node3" class="node">
<title>db_fcast</title>
<polygon fill="black" stroke="transparent" points="218.67,-138 218.67,-142 266.67,-142 266.67,-138 218.67,-138"/>
<text text-anchor="start" x="220.67" y="-126" font-family="Helvetica,sans-Serif" font-size="10.00">Forecasts</text>
<polygon fill="black" stroke="transparent" points="218.67,-115 218.67,-119 266.67,-119 266.67,-115 218.67,-115"/>
</g>
<!-- db_fcast&#45;&gt;forecast -->
<g id="edge6" class="edge">
<title>db_fcast&#45;&gt;forecast</title>
<path fill="none" stroke="maroon" stroke-width="2" d="M286.79,-136.64C294.08,-137.84 301.58,-139 308.67,-140 331.75,-143.25 357.32,-146.22 379.27,-148.59"/>
<polygon fill="maroon" stroke="maroon" stroke-width="2" points="287.12,-133.15 276.68,-134.95 285.97,-140.06 287.12,-133.15"/>
</g>
<!-- db_fcast&#45;&gt;interact -->
<g id="edge8" class="edge">
<title>db_fcast&#45;&gt;interact</title>
<path fill="none" stroke="maroon" stroke-width="2" d="M276.81,-134.37C302.34,-136.52 336.84,-134.79 358.67,-115 373.84,-101.24 355.2,-85.44 368.67,-70 371.5,-66.75 374.82,-63.94 378.43,-61.51"/>
<polygon fill="maroon" stroke="maroon" stroke-width="2" points="380.3,-64.47 387.28,-56.5 376.85,-58.38 380.3,-64.47"/>
</g>
<!-- optim -->
<g id="node5" class="node">
<title>optim</title>
<ellipse fill="#eeeeee" stroke="black" cx="434.36" cy="-100" rx="52.28" ry="18"/>
<text text-anchor="middle" x="434.36" y="-97.5" font-family="Helvetica,sans-Serif" font-size="10.00">optimize params</text>
</g>
<!-- db_params&#45;&gt;optim -->
<g id="edge3" class="edge">
<title>db_params&#45;&gt;optim</title>
<path fill="none" stroke="#60b060" stroke-opacity="0.376471" d="M290.25,-66.83C311.32,-65.6 336.43,-65.7 358.67,-70 363.16,-70.87 382.61,-78.7 400.54,-86.15"/>
<polygon fill="#60b060" fill-opacity="0.376471" stroke="#60b060" stroke-opacity="0.376471" points="289.99,-63.34 280.26,-67.53 290.48,-70.32 289.99,-63.34"/>
<text text-anchor="middle" x="333.67" y="-73" font-family="Times,serif" font-style="italic" font-size="10.00" fill="#60b060">new params</text>
</g>
<!-- db_params&#45;&gt;forecast -->
<g id="edge5" class="edge">
<title>db_params&#45;&gt;forecast</title>
<path fill="none" stroke="#60b060" stroke-opacity="0.376471" d="M280.23,-88.31C305.11,-99.35 338.81,-114.2 368.67,-127 375.36,-129.87 382.45,-132.87 389.4,-135.79"/>
<polygon fill="#60b060" fill-opacity="0.376471" stroke="#60b060" stroke-opacity="0.376471" points="388.15,-139.06 398.73,-139.69 390.85,-132.6 388.15,-139.06"/>
<text text-anchor="middle" x="333.67" y="-125" font-family="Times,serif" font-style="italic" font-size="10.00" fill="#60b060">horizon</text>
</g>
<!-- db_params&#45;&gt;interact -->
<g id="edge9" class="edge">
<title>db_params&#45;&gt;interact</title>
<path fill="none" stroke="#60b060" stroke-opacity="0.376471" d="M280.65,-47.35C289.48,-42.67 299.12,-38.47 308.67,-36 334.43,-29.34 364.08,-31.35 388.01,-35.25"/>
<polygon fill="#60b060" fill-opacity="0.376471" stroke="#60b060" stroke-opacity="0.376471" points="278.77,-44.39 271.78,-52.36 282.21,-50.49 278.77,-44.39"/>
<text text-anchor="middle" x="333.67" y="-39" font-family="Times,serif" font-style="italic" font-size="10.00" fill="#60b060">alert thresh</text>
</g>
</g>
</svg>
