<?xml version="1.0" encoding="UTF-8" standalone="no"?>
<!DOCTYPE svg PUBLIC "-//W3C//DTD SVG 1.1//EN"
 "http://www.w3.org/Graphics/SVG/1.1/DTD/svg11.dtd">
<!-- Generated by graphviz version 2.43.0 (0)
 -->
<!-- Title: D Pages: 1 -->
<svg width="283pt" height="144pt"
 viewBox="0.00 0.00 283.00 144.00" xmlns="http://www.w3.org/2000/svg" xmlns:xlink="http://www.w3.org/1999/xlink">
<g id="graph0" class="graph" transform="scale(1 1) rotate(0) translate(4 140)">
<title>D</title>
<polygon fill="white" stroke="transparent" points="-4,4 -4,-140 279,-140 279,4 -4,4"/>
<text text-anchor="middle" x="137.5" y="-6.8" font-family="Helvetica,sans-Serif" font-size="9.00" fill="#000060">&#45; img/filter&#45;strict&#45;master &#45;</text>
<!-- A -->
<g id="node1" class="node">
<title>A</title>
<ellipse fill="#eeeeee" stroke="black" cx="27" cy="-118" rx="27" ry="18"/>
<text text-anchor="middle" x="27" y="-115.5" font-family="Helvetica,sans-Serif" font-size="10.00">A</text>
</g>
<!-- B -->
<g id="node2" class="node">
<title>B</title>
<ellipse fill="#eeeeee" stroke="black" cx="118" cy="-118" rx="27" ry="18"/>
<text text-anchor="middle" x="118" y="-115.5" font-family="Helvetica,sans-Serif" font-size="10.00">B</text>
</g>
<!-- A&#45;&gt;B -->
<g id="edge1" class="edge">
<title>A&#45;&gt;B</title>
<path fill="none" stroke="gray" d="M54.22,-118C62.55,-118 71.91,-118 80.82,-118"/>
<polygon fill="gray" stroke="gray" points="80.97,-121.5 90.97,-118 80.97,-114.5 80.97,-121.5"/>
</g>
<!-- C -->
<g id="node3" class="node">
<title>C</title>
<ellipse fill="#eeeeee" stroke="black" cx="248" cy="-82" rx="27" ry="18"/>
<text text-anchor="middle" x="248" y="-79.5" font-family="Helvetica,sans-Serif" font-size="10.00">C</text>
</g>
<!-- B&#45;&gt;C -->
<g id="edge2" class="edge">
<title>B&#45;&gt;C</title>
<path fill="none" stroke="gray" d="M143.08,-111.23C162.8,-105.68 190.93,-97.77 212.96,-91.57"/>
<polygon fill="gray" stroke="gray" points="213.92,-94.94 222.6,-88.86 212.02,-88.2 213.92,-94.94"/>
<text text-anchor="middle" x="183" y="-108" font-family="Times,serif" font-style="italic" font-size="10.00">path flow</text>
</g>
<!-- D -->
<g id="node4" class="node">
<title>D</title>
<ellipse fill="#eeeeee" stroke="black" cx="118" cy="-46" rx="27" ry="18"/>
<text text-anchor="middle" x="118" y="-43.5" font-family="Helvetica,sans-Serif" font-size="10.00">D</text>
</g>
<!-- B&#45;&gt;D -->
<g id="edge5" class="edge">
<title>B&#45;&gt;D</title>
<path fill="none" stroke="gray" d="M118,-99.59C118,-91.94 118,-82.89 118,-74.43"/>
<polygon fill="gray" stroke="gray" points="121.5,-74.17 118,-64.17 114.5,-74.17 121.5,-74.17"/>
<text text-anchor="middle" x="109.5" y="-79.5" font-family="Times,serif" font-style="italic" font-size="10.00">stray flow</text>
</g>
<!-- D&#45;&gt;C -->
<g id="edge4" class="edge">
<title>D&#45;&gt;C</title>
<path fill="none" stroke="gray" d="M143.08,-52.77C162.8,-58.32 190.93,-66.23 212.96,-72.43"/>
<polygon fill="gray" stroke="gray" points="212.02,-75.8 222.6,-75.14 213.92,-69.06 212.02,-75.8"/>
<text text-anchor="middle" x="183" y="-73" font-family="Times,serif" font-style="italic" font-size="10.00">path flow</text>
</g>
<!-- E -->
<g id="node5" class="node">
<title>E</title>
<ellipse fill="#eeeeee" stroke="black" cx="27" cy="-46" rx="27" ry="18"/>
<text text-anchor="middle" x="27" y="-43.5" font-family="Helvetica,sans-Serif" font-size="10.00">E</text>
</g>
<!-- E&#45;&gt;D -->
<g id="edge3" class="edge">
<title>E&#45;&gt;D</title>
<path fill="none" stroke="gray" d="M54.22,-46C62.55,-46 71.91,-46 80.82,-46"/>
<polygon fill="gray" stroke="gray" points="80.97,-49.5 90.97,-46 80.97,-42.5 80.97,-49.5"/>
</g>
</g>
</svg>
