<?xml version="1.0" encoding="UTF-8" standalone="no"?>
<!DOCTYPE svg PUBLIC "-//W3C//DTD SVG 1.1//EN"
 "http://www.w3.org/Graphics/SVG/1.1/DTD/svg11.dtd">
<!-- Generated by graphviz version 2.43.0 (0)
 -->
<!-- Title: D Pages: 1 -->
<svg width="434pt" height="246pt"
 viewBox="0.00 0.00 433.51 245.50" xmlns="http://www.w3.org/2000/svg" xmlns:xlink="http://www.w3.org/1999/xlink">
<g id="graph0" class="graph" transform="scale(1 1) rotate(0) translate(4 241.5)">
<title>D</title>
<polygon fill="white" stroke="transparent" points="-4,4 -4,-241.5 429.51,-241.5 429.51,4 -4,4"/>
<text text-anchor="middle" x="212.75" y="-6.8" font-family="Helvetica,sans-Serif" font-size="9.00" fill="#000060">&#45; img/filter&#45;only&#45;no&#45;frames &#45;</text>
<!-- etl -->
<g id="node1" class="node">
<title>etl</title>
<ellipse fill="#eeeeee" stroke="black" cx="53" cy="-47.5" rx="27" ry="18"/>
<text text-anchor="middle" x="53" y="-45" font-family="Helvetica,sans-Serif" font-size="10.00">ETL</text>
</g>
<!-- db_raw -->
<g id="node4" class="node">
<title>db_raw</title>
<polygon fill="black" stroke="transparent" points="244.75,-56.5 244.75,-60.5 294.75,-60.5 294.75,-56.5 244.75,-56.5"/>
<text text-anchor="start" x="246.75" y="-44.5" font-family="Helvetica,sans-Serif" font-size="10.00">Raw data</text>
<polygon fill="black" stroke="transparent" points="244.75,-33.5 244.75,-37.5 294.75,-37.5 294.75,-33.5 244.75,-33.5"/>
</g>
<!-- etl&#45;&gt;db_raw -->
<g id="edge1" class="edge">
<title>etl&#45;&gt;db_raw</title>
<path fill="none" stroke="#5050e0" stroke-width="2" d="M80.33,-47.5C113.48,-47.5 171.28,-47.5 214.14,-47.5"/>
<polygon fill="#5050e0" stroke="#5050e0" stroke-width="2" points="224.4,-51 234.4,-47.5 224.4,-44 224.4,-51"/>
<polygon fill="#5050e0" stroke="#5050e0" stroke-width="2" points="214.4,-51 224.4,-47.5 214.4,-44 214.4,-51"/>
</g>
<!-- user -->
<g id="node2" class="node">
<title>user</title>
<polygon fill="none" stroke="black" points="425.51,-178.5 371.51,-178.5 371.51,-142.5 425.51,-142.5 425.51,-178.5"/>
<text text-anchor="middle" x="398.51" y="-158" font-family="Helvetica,sans-Serif" font-size="10.00">User</text>
</g>
<!-- db_aggr -->
<g id="node3" class="node">
<title>db_aggr</title>
<polygon fill="black" stroke="transparent" points="10,-218.5 10,-222.5 96,-222.5 96,-218.5 10,-218.5"/>
<text text-anchor="start" x="12" y="-206.5" font-family="Helvetica,sans-Serif" font-size="10.00">Aggregated data</text>
<polygon fill="black" stroke="transparent" points="10,-195.5 10,-199.5 96,-199.5 96,-195.5 10,-195.5"/>
</g>
<!-- forecast -->
<g id="node7" class="node">
<title>forecast</title>
<ellipse fill="#eeeeee" stroke="black" cx="269.75" cy="-219.5" rx="62.97" ry="18"/>
<text text-anchor="middle" x="269.75" y="-217" font-family="Helvetica,sans-Serif" font-size="10.00">compute forecasts</text>
</g>
<!-- db_aggr&#45;&gt;forecast -->
<g id="edge3" class="edge">
<title>db_aggr&#45;&gt;forecast</title>
<path fill="none" stroke="#5050e0" stroke-width="2" d="M106.26,-211.93C133.58,-213.21 167.43,-214.78 197.16,-216.17"/>
<polygon fill="#5050e0" stroke="#5050e0" stroke-width="2" points="197.33,-219.68 207.48,-216.65 197.65,-212.69 197.33,-219.68"/>
</g>
<!-- interact -->
<g id="node8" class="node">
<title>interact</title>
<ellipse fill="#eeeeee" stroke="black" cx="269.75" cy="-160.5" rx="64.51" ry="18"/>
<text text-anchor="middle" x="269.75" y="-158" font-family="Helvetica,sans-Serif" font-size="10.00">handle interactions</text>
</g>
<!-- db_aggr&#45;&gt;interact -->
<g id="edge5" class="edge">
<title>db_aggr&#45;&gt;interact</title>
<path fill="none" stroke="#5050e0" stroke-width="2" d="M106,-200.35C130.65,-195.75 160.45,-189.82 187,-183.5 196.06,-181.34 205.62,-178.85 214.89,-176.32"/>
<polygon fill="#5050e0" stroke="#5050e0" stroke-width="2" points="216.1,-179.62 224.8,-173.57 214.23,-172.87 216.1,-179.62"/>
</g>
<!-- db_params -->
<g id="node5" class="node">
<title>db_params</title>
<polygon fill="black" stroke="transparent" points="23,-146.5 23,-150.5 83,-150.5 83,-146.5 23,-146.5"/>
<text text-anchor="start" x="25" y="-134.5" font-family="Helvetica,sans-Serif" font-size="10.00">Parameters</text>
<polygon fill="black" stroke="transparent" points="23,-123.5 23,-127.5 83,-127.5 83,-123.5 23,-123.5"/>
</g>
<!-- optim -->
<g id="node6" class="node">
<title>optim</title>
<ellipse fill="#eeeeee" stroke="black" cx="269.75" cy="-103.5" rx="58.06" ry="18"/>
<text text-anchor="middle" x="269.75" y="-101" font-family="Helvetica,sans-Serif" font-size="10.00">optimize params</text>
</g>
<!-- db_params&#45;&gt;optim -->
<g id="edge2" class="edge">
<title>db_params&#45;&gt;optim</title>
<path fill="none" stroke="#60b060" stroke-opacity="0.376471" d="M103.1,-123.94C110.08,-122.29 117.2,-120.74 124,-119.5 153.22,-114.16 186.12,-110.35 213.15,-107.79"/>
<polygon fill="#60b060" fill-opacity="0.376471" stroke="#60b060" stroke-opacity="0.376471" points="101.9,-120.63 93.03,-126.42 103.57,-127.43 101.9,-120.63"/>
<text text-anchor="middle" x="155.5" y="-122.5" font-family="Times,serif" font-style="italic" font-size="10.00" fill="#60b060">new params</text>
</g>
<!-- db_params&#45;&gt;forecast -->
<g id="edge4" class="edge">
<title>db_params&#45;&gt;forecast</title>
<path fill="none" stroke="#60b060" stroke-opacity="0.376471" d="M93.39,-152.54C129.56,-166.35 183.21,-186.84 221.63,-201.51"/>
<polygon fill="#60b060" fill-opacity="0.376471" stroke="#60b060" stroke-opacity="0.376471" points="220.46,-204.81 231.05,-205.11 222.96,-198.27 220.46,-204.81"/>
<text text-anchor="middle" x="155.5" y="-190.5" font-family="Times,serif" font-style="italic" font-size="10.00" fill="#60b060">horizon</text>
</g>
<!-- db_params&#45;&gt;interact -->
<g id="edge7" class="edge">
<title>db_params&#45;&gt;interact</title>
<path fill="none" stroke="#60b060" stroke-opacity="0.376471" d="M103.22,-134.89C128.39,-134.31 159.45,-134.75 187,-138.5 200.11,-140.28 214.1,-143.53 226.74,-146.99"/>
<polygon fill="#60b060" fill-opacity="0.376471" stroke="#60b060" stroke-opacity="0.376471" points="103.07,-131.39 93.18,-135.18 103.28,-138.39 103.07,-131.39"/>
<text text-anchor="middle" x="155.5" y="-141.5" font-family="Times,serif" font-style="italic" font-size="10.00" fill="#60b060">alert thresh</text>
</g>
<!-- interact&#45;&gt;user -->
<g id="edge6" class="edge">
<title>interact&#45;&gt;user</title>
<path fill="none" stroke="#303030" stroke-width="2" d="M334.87,-160.5C343.94,-160.5 352.99,-160.5 361.27,-160.5"/>
<polygon fill="#303030" stroke="#303030" stroke-width="2" points="361.3,-164 371.3,-160.5 361.3,-157 361.3,-164"/>
</g>
</g>
</svg>
