<?xml version="1.0" encoding="UTF-8" standalone="no"?>
<!DOCTYPE svg PUBLIC "-//W3C//DTD SVG 1.1//EN"
 "http://www.w3.org/Graphics/SVG/1.1/DTD/svg11.dtd">
<!-- Generated by graphviz version 2.43.0 (0)
 -->
<!-- Title: D Pages: 1 -->
<svg width="573pt" height="248pt"
 viewBox="0.00 0.00 572.83 248.00" xmlns="http://www.w3.org/2000/svg" xmlns:xlink="http://www.w3.org/1999/xlink">
<g id="graph0" class="graph" transform="scale(1 1) rotate(0) translate(4 244)">
<title>D</title>
<polygon fill="white" stroke="transparent" points="-4,4 -4,-244 568.83,-244 568.83,4 -4,4"/>
<text text-anchor="middle" x="282.41" y="-6.8" font-family="Helvetica,sans-Serif" font-size="9.00" fill="#000060">&#45; img/filter&#45;dbs&#45;context &#45;</text>
<g id="clust1" class="cluster">
<title>cluster_0</title>
<polygon fill="none" stroke="black" stroke-dasharray="5,2" points="208.09,-44 208.09,-232 330.09,-232 330.09,-44 208.09,-44"/>
<text text-anchor="middle" x="269.09" y="-220.8" font-family="Helvetica,sans-Serif" font-size="9.00" fill="#000060">Computation results</text>
</g>
<g id="clust2" class="cluster">
<title>cluster_1</title>
<polygon fill="none" stroke="black" stroke-dasharray="5,2" points="414.85,-74 414.85,-198 556.83,-198 556.83,-74 414.85,-74"/>
<text text-anchor="middle" x="485.84" y="-186.8" font-family="Helvetica,sans-Serif" font-size="9.00" fill="#000060">Batch processing</text>
</g>
<!-- proc_flow -->
<g id="node1" class="node">
<title>proc_flow</title>
<ellipse fill="#eeeeee" stroke="black" cx="60.04" cy="-129" rx="60.09" ry="18"/>
<text text-anchor="middle" x="60.04" y="-126.5" font-family="Helvetica,sans-Serif" font-size="10.00">process data flow</text>
</g>
<!-- db_aggr -->
<g id="node2" class="node">
<title>db_aggr</title>
<polygon fill="black" stroke="transparent" points="226.09,-195 226.09,-199 312.09,-199 312.09,-195 226.09,-195"/>
<text text-anchor="start" x="228.09" y="-183" font-family="Helvetica,sans-Serif" font-size="10.00">Aggregated data</text>
<polygon fill="black" stroke="transparent" points="226.09,-172 226.09,-176 312.09,-176 312.09,-172 226.09,-172"/>
</g>
<!-- proc_flow&#45;&gt;db_aggr -->
<g id="edge1" class="edge">
<title>proc_flow&#45;&gt;db_aggr</title>
<path fill="none" stroke="#5050e0" stroke-width="2" d="M104.95,-141.09C131.54,-148.41 166.07,-157.92 196.52,-166.3"/>
<polygon fill="#5050e0" stroke="#5050e0" stroke-width="2" points="205.25,-172.33 215.82,-171.61 207.1,-165.58 205.25,-172.33"/>
<polygon fill="#5050e0" stroke="#5050e0" stroke-width="2" points="195.6,-169.68 206.18,-168.96 197.46,-162.93 195.6,-169.68"/>
</g>
<!-- db_params -->
<g id="node4" class="node">
<title>db_params</title>
<polygon fill="black" stroke="transparent" points="239.09,-81 239.09,-85 299.09,-85 299.09,-81 239.09,-81"/>
<text text-anchor="start" x="241.09" y="-69" font-family="Helvetica,sans-Serif" font-size="10.00">Parameters</text>
<polygon fill="black" stroke="transparent" points="239.09,-58 239.09,-62 299.09,-62 299.09,-58 239.09,-58"/>
</g>
<!-- proc_flow&#45;&gt;db_params -->
<g id="edge2" class="edge">
<title>proc_flow&#45;&gt;db_params</title>
<path fill="none" stroke="#60b060" stroke-opacity="0.376471" d="M114.72,-114.22C150.42,-104.4 196.49,-91.71 228.79,-82.82"/>
<polygon fill="#60b060" fill-opacity="0.376471" stroke="#60b060" stroke-opacity="0.376471" points="113.66,-110.88 104.95,-116.91 115.52,-117.63 113.66,-110.88"/>
<text text-anchor="middle" x="168.09" y="-110" font-family="Times,serif" font-style="italic" font-size="10.00" fill="#60b060">alert thresh</text>
</g>
<!-- forecast -->
<g id="node6" class="node">
<title>forecast</title>
<ellipse fill="#eeeeee" stroke="black" cx="485.84" cy="-154" rx="62.97" ry="18"/>
<text text-anchor="middle" x="485.84" y="-151.5" font-family="Helvetica,sans-Serif" font-size="10.00">compute forecasts</text>
</g>
<!-- db_aggr&#45;&gt;forecast -->
<g id="edge4" class="edge">
<title>db_aggr&#45;&gt;forecast</title>
<path fill="none" stroke="#5050e0" stroke-width="2" d="M322.38,-193.23C347.1,-195.21 376.86,-195.52 403.09,-190 417.99,-186.86 433.48,-180.84 446.92,-174.6"/>
<polygon fill="#5050e0" stroke="#5050e0" stroke-width="2" points="448.83,-177.57 456.31,-170.06 445.78,-171.27 448.83,-177.57"/>
</g>
<!-- interact -->
<g id="node7" class="node">
<title>interact</title>
<ellipse fill="#eeeeee" stroke="black" cx="485.84" cy="-46" rx="64.51" ry="18"/>
<text text-anchor="middle" x="485.84" y="-43.5" font-family="Helvetica,sans-Serif" font-size="10.00">handle interactions</text>
</g>
<!-- db_aggr&#45;&gt;interact -->
<g id="edge7" class="edge">
<title>db_aggr&#45;&gt;interact</title>
<path fill="none" stroke="#5050e0" stroke-width="2" d="M322.1,-180.35C350.16,-174.54 383.05,-162.79 403.09,-139 423.13,-115.21 394.7,-93.7 414.85,-70 417.61,-66.75 420.84,-63.94 424.35,-61.51"/>
<polygon fill="#5050e0" stroke="#5050e0" stroke-width="2" points="426.11,-64.54 433.01,-56.51 422.6,-58.48 426.11,-64.54"/>
</g>
<!-- db_fcast -->
<g id="node3" class="node">
<title>db_fcast</title>
<polygon fill="black" stroke="transparent" points="244.09,-138 244.09,-142 295.09,-142 295.09,-138 244.09,-138"/>
<text text-anchor="start" x="246.09" y="-126" font-family="Helvetica,sans-Serif" font-size="10.00">Forecasts</text>
<polygon fill="black" stroke="transparent" points="244.09,-115 244.09,-119 295.09,-119 295.09,-115 244.09,-115"/>
</g>
<!-- db_fcast&#45;&gt;forecast -->
<g id="edge6" class="edge">
<title>db_fcast&#45;&gt;forecast</title>
<path fill="none" stroke="maroon" stroke-width="2" d="M314.91,-136.45C323.26,-137.72 331.93,-138.97 340.09,-140 368.02,-143.54 399.07,-146.65 425.24,-149.04"/>
<polygon fill="maroon" stroke="maroon" stroke-width="2" points="315.34,-132.97 304.92,-134.89 314.26,-139.89 315.34,-132.97"/>
</g>
<!-- db_fcast&#45;&gt;interact -->
<g id="edge8" class="edge">
<title>db_fcast&#45;&gt;interact</title>
<path fill="none" stroke="maroon" stroke-width="2" d="M304.85,-135.33C334.45,-138.63 376.32,-138 403.09,-115 418.76,-101.53 400.79,-85.15 414.85,-70 417.8,-66.82 421.19,-64.07 424.85,-61.67"/>
<polygon fill="maroon" stroke="maroon" stroke-width="2" points="426.74,-64.63 433.8,-56.73 423.36,-58.5 426.74,-64.63"/>
</g>
<!-- optim -->
<g id="node5" class="node">
<title>optim</title>
<ellipse fill="#eeeeee" stroke="black" cx="485.84" cy="-100" rx="58.06" ry="18"/>
<text text-anchor="middle" x="485.84" y="-97.5" font-family="Helvetica,sans-Serif" font-size="10.00">optimize params</text>
</g>
<!-- db_params&#45;&gt;optim -->
<g id="edge3" class="edge">
<title>db_params&#45;&gt;optim</title>
<path fill="none" stroke="#60b060" stroke-opacity="0.376471" d="M319.18,-66.83C344.44,-65.29 375.61,-65.12 403.09,-70 412.39,-71.65 432.1,-78.84 449.84,-85.77"/>
<polygon fill="#60b060" fill-opacity="0.376471" stroke="#60b060" stroke-opacity="0.376471" points="318.83,-63.35 309.1,-67.54 319.32,-70.33 318.83,-63.35"/>
<text text-anchor="middle" x="371.59" y="-73" font-family="Times,serif" font-style="italic" font-size="10.00" fill="#60b060">new params</text>
</g>
<!-- db_params&#45;&gt;forecast -->
<g id="edge5" class="edge">
<title>db_params&#45;&gt;forecast</title>
<path fill="none" stroke="#60b060" stroke-opacity="0.376471" d="M309.48,-87.04C345.64,-100.85 399.29,-121.34 437.72,-136.01"/>
<polygon fill="#60b060" fill-opacity="0.376471" stroke="#60b060" stroke-opacity="0.376471" points="436.55,-139.31 447.14,-139.61 439.05,-132.77 436.55,-139.31"/>
<text text-anchor="middle" x="371.59" y="-125" font-family="Times,serif" font-style="italic" font-size="10.00" fill="#60b060">horizon</text>
</g>
<!-- db_params&#45;&gt;interact -->
<g id="edge9" class="edge">
<title>db_params&#45;&gt;interact</title>
<path fill="none" stroke="#60b060" stroke-opacity="0.376471" d="M309.51,-47.64C319.17,-42.84 329.72,-38.51 340.09,-36 370.81,-28.56 406.2,-30.82 434.3,-35.05"/>
<polygon fill="#60b060" fill-opacity="0.376471" stroke="#60b060" stroke-opacity="0.376471" points="307.78,-44.59 300.55,-52.34 311.03,-50.79 307.78,-44.59"/>
<text text-anchor="middle" x="371.59" y="-39" font-family="Times,serif" font-style="italic" font-size="10.00" fill="#60b060">alert thresh</text>
</g>
</g>
</svg>
