<?xml version="1.0" encoding="UTF-8" standalone="no"?>
<!DOCTYPE svg PUBLIC "-//W3C//DTD SVG 1.1//EN"
 "http://www.w3.org/Graphics/SVG/1.1/DTD/svg11.dtd">
<!-- Generated by graphviz version 2.43.0 (0)
 -->
<!-- Title: D Pages: 1 -->
<svg width="450pt" height="272pt"
 viewBox="0.00 0.00 449.51 271.50" xmlns="http://www.w3.org/2000/svg" xmlns:xlink="http://www.w3.org/1999/xlink">
<g id="graph0" class="graph" transform="scale(1 1) rotate(0) translate(4 267.5)">
<title>D</title>
<polygon fill="white" stroke="transparent" points="-4,4 -4,-267.5 445.51,-267.5 445.51,4 -4,4"/>
<text text-anchor="middle" x="220.75" y="-6.8" font-family="Helvetica,sans-Serif" font-size="9.00" fill="#000060">&#45; img/filter&#45;only&#45;after&#45;two&#45;not&#45;me &#45;</text>
<g id="clust1" class="cluster">
<title>cluster_0</title>
<polygon fill="none" stroke="black" stroke-dasharray="5,2" points="8,-112.5 8,-243.5 130,-243.5 130,-112.5 8,-112.5"/>
<text text-anchor="middle" x="69" y="-232.3" font-family="Helvetica,sans-Serif" font-size="9.00" fill="#000060">Computation results</text>
</g>
<g id="clust2" class="cluster">
<title>cluster_1</title>
<polygon fill="none" stroke="black" stroke-dasharray="5,2" points="214.77,-131.5 214.77,-255.5 356.74,-255.5 356.74,-131.5 214.77,-131.5"/>
<text text-anchor="middle" x="285.75" y="-244.3" font-family="Helvetica,sans-Serif" font-size="9.00" fill="#000060">Batch processing</text>
</g>
<!-- etl -->
<g id="node1" class="node">
<title>etl</title>
<ellipse fill="#eeeeee" stroke="black" cx="69" cy="-47.5" rx="27" ry="18"/>
<text text-anchor="middle" x="69" y="-45" font-family="Helvetica,sans-Serif" font-size="10.00">ETL</text>
</g>
<!-- db_raw -->
<g id="node4" class="node">
<title>db_raw</title>
<polygon fill="black" stroke="transparent" points="260.75,-56.5 260.75,-60.5 310.75,-60.5 310.75,-56.5 260.75,-56.5"/>
<text text-anchor="start" x="262.75" y="-44.5" font-family="Helvetica,sans-Serif" font-size="10.00">Raw data</text>
<polygon fill="black" stroke="transparent" points="260.75,-33.5 260.75,-37.5 310.75,-37.5 310.75,-33.5 260.75,-33.5"/>
</g>
<!-- etl&#45;&gt;db_raw -->
<g id="edge1" class="edge">
<title>etl&#45;&gt;db_raw</title>
<path fill="none" stroke="#5050e0" stroke-width="2" d="M96.33,-47.5C129.48,-47.5 187.28,-47.5 230.14,-47.5"/>
<polygon fill="#5050e0" stroke="#5050e0" stroke-width="2" points="240.4,-51 250.4,-47.5 240.4,-44 240.4,-51"/>
<polygon fill="#5050e0" stroke="#5050e0" stroke-width="2" points="230.4,-51 240.4,-47.5 230.4,-44 230.4,-51"/>
</g>
<!-- user -->
<g id="node2" class="node">
<title>user</title>
<polygon fill="none" stroke="black" points="441.51,-121.5 387.51,-121.5 387.51,-85.5 441.51,-85.5 441.51,-121.5"/>
<text text-anchor="middle" x="414.51" y="-101" font-family="Helvetica,sans-Serif" font-size="10.00">User</text>
</g>
<!-- db_aggr -->
<g id="node3" class="node">
<title>db_aggr</title>
<polygon fill="black" stroke="transparent" points="26,-206.5 26,-210.5 112,-210.5 112,-206.5 26,-206.5"/>
<text text-anchor="start" x="28" y="-194.5" font-family="Helvetica,sans-Serif" font-size="10.00">Aggregated data</text>
<polygon fill="black" stroke="transparent" points="26,-183.5 26,-187.5 112,-187.5 112,-183.5 26,-183.5"/>
</g>
<!-- forecast -->
<g id="node7" class="node">
<title>forecast</title>
<ellipse fill="#eeeeee" stroke="black" cx="285.75" cy="-211.5" rx="62.97" ry="18"/>
<text text-anchor="middle" x="285.75" y="-209" font-family="Helvetica,sans-Serif" font-size="10.00">compute forecasts</text>
</g>
<!-- db_aggr&#45;&gt;forecast -->
<g id="edge3" class="edge">
<title>db_aggr&#45;&gt;forecast</title>
<path fill="none" stroke="#5050e0" stroke-width="2" d="M122.27,-206.5C128.24,-207.3 134.24,-207.99 140,-208.5 163.56,-210.59 189.35,-211.54 212.55,-211.92"/>
<polygon fill="#5050e0" stroke="#5050e0" stroke-width="2" points="212.62,-215.42 222.67,-212.05 212.71,-208.42 212.62,-215.42"/>
</g>
<!-- interact -->
<g id="node8" class="node">
<title>interact</title>
<ellipse fill="#eeeeee" stroke="black" cx="285.75" cy="-103.5" rx="64.51" ry="18"/>
<text text-anchor="middle" x="285.75" y="-101" font-family="Helvetica,sans-Serif" font-size="10.00">handle interactions</text>
</g>
<!-- db_aggr&#45;&gt;interact -->
<g id="edge5" class="edge">
<title>db_aggr&#45;&gt;interact</title>
<path fill="none" stroke="#5050e0" stroke-width="2" d="M122.24,-205.54C149.5,-206.71 181.54,-202.87 203,-183.5 221.88,-166.46 197.92,-146.56 214.77,-127.5 217.59,-124.31 220.86,-121.54 224.41,-119.14"/>
<polygon fill="#5050e0" stroke="#5050e0" stroke-width="2" points="226.16,-122.16 233.12,-114.17 222.7,-116.08 226.16,-122.16"/>
</g>
<!-- db_params -->
<g id="node5" class="node">
<title>db_params</title>
<polygon fill="black" stroke="transparent" points="39,-149.5 39,-153.5 99,-153.5 99,-149.5 39,-149.5"/>
<text text-anchor="start" x="41" y="-137.5" font-family="Helvetica,sans-Serif" font-size="10.00">Parameters</text>
<polygon fill="black" stroke="transparent" points="39,-126.5 39,-130.5 99,-130.5 99,-126.5 39,-126.5"/>
</g>
<!-- optim -->
<g id="node6" class="node">
<title>optim</title>
<ellipse fill="#eeeeee" stroke="black" cx="285.75" cy="-157.5" rx="58.06" ry="18"/>
<text text-anchor="middle" x="285.75" y="-155" font-family="Helvetica,sans-Serif" font-size="10.00">optimize params</text>
</g>
<!-- db_params&#45;&gt;optim -->
<g id="edge2" class="edge">
<title>db_params&#45;&gt;optim</title>
<path fill="none" stroke="#60b060" stroke-opacity="0.376471" d="M119.29,-138.91C126.25,-138.74 133.3,-138.6 140,-138.5 168,-138.1 175.18,-135.31 203,-138.5 215.74,-139.96 229.38,-142.66 241.8,-145.58"/>
<polygon fill="#60b060" fill-opacity="0.376471" stroke="#60b060" stroke-opacity="0.376471" points="119.14,-135.42 109.24,-139.18 119.33,-142.41 119.14,-135.42"/>
<text text-anchor="middle" x="171.5" y="-141.5" font-family="Times,serif" font-style="italic" font-size="10.00" fill="#60b060">new params</text>
</g>
<!-- db_params&#45;&gt;forecast -->
<g id="edge4" class="edge">
<title>db_params&#45;&gt;forecast</title>
<path fill="none" stroke="#60b060" stroke-opacity="0.376471" d="M109.39,-153.52C144.4,-165.1 195.8,-182.09 233.91,-194.69"/>
<polygon fill="#60b060" fill-opacity="0.376471" stroke="#60b060" stroke-opacity="0.376471" points="233.19,-198.14 243.79,-197.96 235.39,-191.49 233.19,-198.14"/>
<text text-anchor="middle" x="171.5" y="-186.5" font-family="Times,serif" font-style="italic" font-size="10.00" fill="#60b060">horizon</text>
</g>
<!-- db_params&#45;&gt;interact -->
<g id="edge7" class="edge">
<title>db_params&#45;&gt;interact</title>
<path fill="none" stroke="#60b060" stroke-opacity="0.376471" d="M119.09,-126.24C126.07,-124.48 133.19,-122.84 140,-121.5 167.33,-116.12 197.9,-112.04 223.88,-109.14"/>
<polygon fill="#60b060" fill-opacity="0.376471" stroke="#60b060" stroke-opacity="0.376471" points="117.81,-122.95 109.01,-128.86 119.57,-129.73 117.81,-122.95"/>
<text text-anchor="middle" x="171.5" y="-124.5" font-family="Times,serif" font-style="italic" font-size="10.00" fill="#60b060">alert thresh</text>
</g>
<!-- interact&#45;&gt;user -->
<g id="edge6" class="edge">
<title>interact&#45;&gt;user</title>
<path fill="none" stroke="#303030" stroke-width="2" d="M350.87,-103.5C359.94,-103.5 368.99,-103.5 377.27,-103.5"/>
<polygon fill="#303030" stroke="#303030" stroke-width="2" points="377.3,-107 387.3,-103.5 377.3,-100 377.3,-107"/>
</g>
</g>
</svg>
