<?xml version="1.0" encoding="UTF-8" standalone="no"?>
<!DOCTYPE svg PUBLIC "-//W3C//DTD SVG 1.1//EN"
 "http://www.w3.org/Graphics/SVG/1.1/DTD/svg11.dtd">
<!-- Generated by graphviz version 2.43.0 (0)
 -->
<!-- Title: D Pages: 1 -->
<svg width="412pt" height="272pt"
 viewBox="0.00 0.00 412.38 271.50" xmlns="http://www.w3.org/2000/svg" xmlns:xlink="http://www.w3.org/1999/xlink">
<g id="graph0" class="graph" transform="scale(1 1) rotate(0) translate(4 267.5)">
<title>D</title>
<polygon fill="white" stroke="transparent" points="-4,4 -4,-267.5 408.38,-267.5 408.38,4 -4,4"/>
<text text-anchor="middle" x="202.19" y="-6.8" font-family="Helvetica,sans-Serif" font-size="9.00" fill="#000060">&#45; img/filter&#45;only&#45;after&#45;two&#45;not&#45;me &#45;</text>
<g id="clust1" class="cluster">
<title>cluster_0</title>
<polygon fill="none" stroke="black" stroke-dasharray="5,2" points="8,-112.5 8,-243.5 120,-243.5 120,-112.5 8,-112.5"/>
<text text-anchor="middle" x="64" y="-232.3" font-family="Helvetica,sans-Serif" font-size="9.00" fill="#000060">Computation results</text>
</g>
<g id="clust2" class="cluster">
<title>cluster_1</title>
<polygon fill="none" stroke="black" stroke-dasharray="5,2" points="190,-131.5 190,-255.5 321.38,-255.5 321.38,-131.5 190,-131.5"/>
<text text-anchor="middle" x="255.69" y="-244.3" font-family="Helvetica,sans-Serif" font-size="9.00" fill="#000060">Batch processing</text>
</g>
<!-- etl -->
<g id="node1" class="node">
<title>etl</title>
<ellipse fill="#eeeeee" stroke="black" cx="64" cy="-47.5" rx="27" ry="18"/>
<text text-anchor="middle" x="64" y="-45" font-family="Helvetica,sans-Serif" font-size="10.00">ETL</text>
</g>
<!-- db_raw -->
<g id="node4" class="node">
<title>db_raw</title>
<polygon fill="black" stroke="transparent" points="232.69,-56.5 232.69,-60.5 279.69,-60.5 279.69,-56.5 232.69,-56.5"/>
<text text-anchor="start" x="234.69" y="-44.5" font-family="Helvetica,sans-Serif" font-size="10.00">Raw data</text>
<polygon fill="black" stroke="transparent" points="232.69,-33.5 232.69,-37.5 279.69,-37.5 279.69,-33.5 232.69,-33.5"/>
</g>
<!-- etl&#45;&gt;db_raw -->
<g id="edge1" class="edge">
<title>etl&#45;&gt;db_raw</title>
<path fill="none" stroke="#5050e0" stroke-width="2" d="M91.38,-47.5C119.9,-47.5 166.12,-47.5 202.12,-47.5"/>
<polygon fill="#5050e0" stroke="#5050e0" stroke-width="2" points="212.19,-51 222.19,-47.5 212.19,-44 212.19,-51"/>
<polygon fill="#5050e0" stroke="#5050e0" stroke-width="2" points="202.19,-51 212.19,-47.5 202.19,-44 202.19,-51"/>
</g>
<!-- user -->
<g id="node2" class="node">
<title>user</title>
<polygon fill="none" stroke="black" points="404.38,-121.5 350.38,-121.5 350.38,-85.5 404.38,-85.5 404.38,-121.5"/>
<text text-anchor="middle" x="377.38" y="-101" font-family="Helvetica,sans-Serif" font-size="10.00">User</text>
</g>
<!-- db_aggr -->
<g id="node3" class="node">
<title>db_aggr</title>
<polygon fill="black" stroke="transparent" points="26,-206.5 26,-210.5 102,-210.5 102,-206.5 26,-206.5"/>
<text text-anchor="start" x="28" y="-194.5" font-family="Helvetica,sans-Serif" font-size="10.00">Aggregated data</text>
<polygon fill="black" stroke="transparent" points="26,-183.5 26,-187.5 102,-187.5 102,-183.5 26,-183.5"/>
</g>
<!-- forecast -->
<g id="node7" class="node">
<title>forecast</title>
<ellipse fill="#eeeeee" stroke="black" cx="255.69" cy="-211.5" rx="57.88" ry="18"/>
<text text-anchor="middle" x="255.69" y="-209" font-family="Helvetica,sans-Serif" font-size="10.00">compute forecasts</text>
</g>
<!-- db_aggr&#45;&gt;forecast -->
<g id="edge3" class="edge">
<title>db_aggr&#45;&gt;forecast</title>
<path fill="none" stroke="#5050e0" stroke-width="2" d="M112.11,-206.29C118.11,-207.17 124.19,-207.94 130,-208.5 148.64,-210.29 168.92,-211.22 187.6,-211.65"/>
<polygon fill="#5050e0" stroke="#5050e0" stroke-width="2" points="187.72,-215.16 197.79,-211.85 187.86,-208.16 187.72,-215.16"/>
</g>
<!-- interact -->
<g id="node8" class="node">
<title>interact</title>
<ellipse fill="#eeeeee" stroke="black" cx="255.69" cy="-103.5" rx="57.88" ry="18"/>
<text text-anchor="middle" x="255.69" y="-101" font-family="Helvetica,sans-Serif" font-size="10.00">handle interactions</text>
</g>
<!-- db_aggr&#45;&gt;interact -->
<g id="edge5" class="edge">
<title>db_aggr&#45;&gt;interact</title>
<path fill="none" stroke="#5050e0" stroke-width="2" d="M112.17,-203.87C135.44,-204.3 162.25,-200.29 180,-183.5 198.37,-166.13 173.79,-146.9 190,-127.5 192.77,-124.19 196.03,-121.34 199.6,-118.88"/>
<polygon fill="#5050e0" stroke="#5050e0" stroke-width="2" points="201.48,-121.84 208.4,-113.82 197.99,-115.77 201.48,-121.84"/>
</g>
<!-- db_params -->
<g id="node5" class="node">
<title>db_params</title>
<polygon fill="black" stroke="transparent" points="37,-149.5 37,-153.5 92,-153.5 92,-149.5 37,-149.5"/>
<text text-anchor="start" x="39" y="-137.5" font-family="Helvetica,sans-Serif" font-size="10.00">Parameters</text>
<polygon fill="black" stroke="transparent" points="37,-126.5 37,-130.5 92,-130.5 92,-126.5 37,-126.5"/>
</g>
<!-- optim -->
<g id="node6" class="node">
<title>optim</title>
<ellipse fill="#eeeeee" stroke="black" cx="255.69" cy="-157.5" rx="52.28" ry="18"/>
<text text-anchor="middle" x="255.69" y="-155" font-family="Helvetica,sans-Serif" font-size="10.00">optimize params</text>
</g>
<!-- db_params&#45;&gt;optim -->
<g id="edge2" class="edge">
<title>db_params&#45;&gt;optim</title>
<path fill="none" stroke="#60b060" stroke-opacity="0.376471" d="M111.9,-138.89C117.99,-138.73 124.14,-138.59 130,-138.5 152.22,-138.16 157.95,-135.74 180,-138.5 191.82,-139.98 204.44,-142.73 215.89,-145.68"/>
<polygon fill="#60b060" fill-opacity="0.376471" stroke="#60b060" stroke-opacity="0.376471" points="111.67,-135.39 101.78,-139.17 111.87,-142.39 111.67,-135.39"/>
<text text-anchor="middle" x="155" y="-141.5" font-family="Times,serif" font-style="italic" font-size="10.00" fill="#60b060">new params</text>
</g>
<!-- db_params&#45;&gt;forecast -->
<g id="edge4" class="edge">
<title>db_params&#45;&gt;forecast</title>
<path fill="none" stroke="#60b060" stroke-opacity="0.376471" d="M101.57,-154.19C132.05,-165.6 175.63,-181.91 208.5,-194.21"/>
<polygon fill="#60b060" fill-opacity="0.376471" stroke="#60b060" stroke-opacity="0.376471" points="207.31,-197.5 217.9,-197.73 209.77,-190.95 207.31,-197.5"/>
<text text-anchor="middle" x="155" y="-184.5" font-family="Times,serif" font-style="italic" font-size="10.00" fill="#60b060">horizon</text>
</g>
<!-- db_params&#45;&gt;interact -->
<g id="edge7" class="edge">
<title>db_params&#45;&gt;interact</title>
<path fill="none" stroke="#60b060" stroke-opacity="0.376471" d="M111.25,-126.12C117.52,-124.42 123.89,-122.83 130,-121.5 153.19,-116.46 179.12,-112.46 201.3,-109.52"/>
<polygon fill="#60b060" fill-opacity="0.376471" stroke="#60b060" stroke-opacity="0.376471" points="110.23,-122.77 101.55,-128.84 112.12,-129.51 110.23,-122.77"/>
<text text-anchor="middle" x="155" y="-124.5" font-family="Times,serif" font-style="italic" font-size="10.00" fill="#60b060">alert thresh</text>
</g>
<!-- interact&#45;&gt;user -->
<g id="edge6" class="edge">
<title>interact&#45;&gt;user</title>
<path fill="none" stroke="#303030" stroke-width="2" d="M313.38,-103.5C322.47,-103.5 331.66,-103.5 340.1,-103.5"/>
<polygon fill="#303030" stroke="#303030" stroke-width="2" points="340.34,-107 350.34,-103.5 340.34,-100 340.34,-107"/>
</g>
</g>
</svg>
