<?xml version="1.0" encoding="UTF-8" standalone="no"?>
<!DOCTYPE svg PUBLIC "-//W3C//DTD SVG 1.1//EN"
 "http://www.w3.org/Graphics/SVG/1.1/DTD/svg11.dtd">
<!-- Generated by graphviz version 2.43.0 (0)
 -->
<!-- Title: D Pages: 1 -->
<svg width="514pt" height="187pt"
 viewBox="0.00 0.00 514.05 187.00" xmlns="http://www.w3.org/2000/svg" xmlns:xlink="http://www.w3.org/1999/xlink">
<g id="graph0" class="graph" transform="scale(1 1) rotate(0) translate(4 183)">
<title>D</title>
<polygon fill="white" stroke="transparent" points="-4,4 -4,-183 510.05,-183 510.05,4 -4,4"/>
<text text-anchor="middle" x="253.02" y="-6.8" font-family="Helvetica,sans-Serif" font-size="9.00" fill="#000060">&#45; img/filter&#45;only&#45;after&#45;two &#45;</text>
<g id="clust1" class="cluster">
<title>cluster_0</title>
<polygon fill="none" stroke="black" stroke-dasharray="5,2" points="139.67,-70 139.67,-144 251.67,-144 251.67,-70 139.67,-70"/>
<text text-anchor="middle" x="195.67" y="-132.8" font-family="Helvetica,sans-Serif" font-size="9.00" fill="#000060">Computation results</text>
</g>
<g id="clust2" class="cluster">
<title>cluster_1</title>
<polygon fill="none" stroke="black" stroke-dasharray="5,2" points="291.67,-74 291.67,-144 423.05,-144 423.05,-74 291.67,-74"/>
<text text-anchor="middle" x="357.36" y="-132.8" font-family="Helvetica,sans-Serif" font-size="9.00" fill="#000060">Batch processing</text>
</g>
<!-- user -->
<g id="node1" class="node">
<title>user</title>
<polygon fill="none" stroke="black" points="506.05,-122 452.05,-122 452.05,-86 506.05,-86 506.05,-122"/>
<text text-anchor="middle" x="479.05" y="-101.5" font-family="Helvetica,sans-Serif" font-size="10.00">User</text>
</g>
<!-- proc_flow -->
<g id="node2" class="node">
<title>proc_flow</title>
<ellipse fill="#eeeeee" stroke="black" cx="55.33" cy="-130" rx="55.17" ry="18"/>
<text text-anchor="middle" x="55.33" y="-127.5" font-family="Helvetica,sans-Serif" font-size="10.00">process data flow</text>
</g>
<!-- proc_flow&#45;&gt;user -->
<g id="edge2" class="edge">
<title>proc_flow&#45;&gt;user</title>
<path fill="none" stroke="#ff4040" stroke-dasharray="5,2" d="M97.38,-141.82C166.74,-159.66 310.57,-187.46 423.05,-148 434.35,-144.03 445.06,-136.66 453.98,-129.06"/>
<polygon fill="#ff4040" stroke="#ff4040" points="456.58,-131.43 461.62,-122.11 451.87,-126.25 456.58,-131.43"/>
<text text-anchor="middle" x="271.67" y="-171" font-family="Times,serif" font-style="italic" font-size="10.00" fill="#ff4040">alert</text>
</g>
<!-- db_aggr -->
<g id="node3" class="node">
<title>db_aggr</title>
<polygon fill="black" stroke="transparent" points="157.67,-107 157.67,-111 233.67,-111 233.67,-107 157.67,-107"/>
<text text-anchor="start" x="159.67" y="-95" font-family="Helvetica,sans-Serif" font-size="10.00">Aggregated data</text>
<polygon fill="black" stroke="transparent" points="157.67,-84 157.67,-88 233.67,-88 233.67,-84 157.67,-84"/>
</g>
<!-- proc_flow&#45;&gt;db_aggr -->
<g id="edge1" class="edge">
<title>proc_flow&#45;&gt;db_aggr</title>
<path fill="none" stroke="#5050e0" stroke-width="2" d="M100.87,-119.7C109.45,-117.71 118.62,-115.59 127.73,-113.48"/>
<polygon fill="#5050e0" stroke="#5050e0" stroke-width="2" points="138.4,-114.61 147.36,-108.94 136.83,-107.79 138.4,-114.61"/>
<polygon fill="#5050e0" stroke="#5050e0" stroke-width="2" points="128.66,-116.86 137.62,-111.2 127.08,-110.04 128.66,-116.86"/>
</g>
<!-- forecast -->
<g id="node4" class="node">
<title>forecast</title>
<ellipse fill="#eeeeee" stroke="black" cx="357.36" cy="-100" rx="57.88" ry="18"/>
<text text-anchor="middle" x="357.36" y="-97.5" font-family="Helvetica,sans-Serif" font-size="10.00">compute forecasts</text>
</g>
<!-- db_aggr&#45;&gt;forecast -->
<g id="edge3" class="edge">
<title>db_aggr&#45;&gt;forecast</title>
<path fill="none" stroke="#5050e0" stroke-width="2" d="M243.72,-98.59C257.92,-98.77 273.8,-98.97 289.05,-99.16"/>
<polygon fill="#5050e0" stroke="#5050e0" stroke-width="2" points="289.44,-102.66 299.48,-99.29 289.53,-95.66 289.44,-102.66"/>
</g>
<!-- interact -->
<g id="node5" class="node">
<title>interact</title>
<ellipse fill="#eeeeee" stroke="black" cx="357.36" cy="-46" rx="57.88" ry="18"/>
<text text-anchor="middle" x="357.36" y="-43.5" font-family="Helvetica,sans-Serif" font-size="10.00">handle interactions</text>
</g>
<!-- db_aggr&#45;&gt;interact -->
<g id="edge4" class="edge">
<title>db_aggr&#45;&gt;interact</title>
<path fill="none" stroke="#5050e0" stroke-width="2" d="M243.72,-82.68C263.72,-76.17 287.05,-68.57 307.27,-61.99"/>
<polygon fill="#5050e0" stroke="#5050e0" stroke-width="2" points="308.49,-65.27 316.92,-58.84 306.32,-58.61 308.49,-65.27"/>
</g>
<!-- interact&#45;&gt;user -->
<g id="edge5" class="edge">
<title>interact&#45;&gt;user</title>
<path fill="none" stroke="#303030" stroke-width="2" d="M397.54,-59.11C406.08,-62.36 414.97,-66.06 423.05,-70 429.7,-73.25 436.58,-77.09 443.13,-80.99"/>
<polygon fill="#303030" stroke="#303030" stroke-width="2" points="441.44,-84.06 451.8,-86.3 445.1,-78.09 441.44,-84.06"/>
</g>
</g>
</svg>
