<?xml version="1.0" encoding="UTF-8" standalone="no"?>
<!DOCTYPE svg PUBLIC "-//W3C//DTD SVG 1.1//EN"
 "http://www.w3.org/Graphics/SVG/1.1/DTD/svg11.dtd">
<!-- Generated by graphviz version 2.43.0 (0)
 -->
<!-- Title: D Pages: 1 -->
<svg width="796pt" height="256pt"
 viewBox="0.00 0.00 795.59 256.00" xmlns="http://www.w3.org/2000/svg" xmlns:xlink="http://www.w3.org/1999/xlink">
<g id="graph0" class="graph" transform="scale(1 1) rotate(0) translate(4 252)">
<title>D</title>
<polygon fill="white" stroke="transparent" points="-4,4 -4,-252 791.59,-252 791.59,4 -4,4"/>
<text text-anchor="middle" x="393.8" y="-6.8" font-family="Helvetica,sans-Serif" font-size="9.00" fill="#000060">&#45; img/filter&#45;only&#45;after &#45;</text>
<g id="clust1" class="cluster">
<title>cluster_0</title>
<polygon fill="none" stroke="black" stroke-dasharray="5,2" points="315.09,-36 315.09,-224 437.09,-224 437.09,-36 315.09,-36"/>
<text text-anchor="middle" x="376.09" y="-212.8" font-family="Helvetica,sans-Serif" font-size="9.00" fill="#000060">Computation results</text>
</g>
<g id="clust2" class="cluster">
<title>cluster_1</title>
<polygon fill="none" stroke="black" stroke-dasharray="5,2" points="518.85,-123 518.85,-193 660.83,-193 660.83,-123 518.85,-123"/>
<text text-anchor="middle" x="589.84" y="-181.8" font-family="Helvetica,sans-Serif" font-size="9.00" fill="#000060">Batch processing</text>
</g>
<!-- user -->
<g id="node1" class="node">
<title>user</title>
<polygon fill="none" stroke="black" points="766.59,-223 712.59,-223 712.59,-187 766.59,-187 766.59,-223"/>
<text text-anchor="middle" x="739.59" y="-202.5" font-family="Helvetica,sans-Serif" font-size="10.00">User</text>
</g>
<!-- proc_flow -->
<g id="node2" class="node">
<title>proc_flow</title>
<ellipse fill="#eeeeee" stroke="black" cx="167.04" cy="-178" rx="60.09" ry="18"/>
<text text-anchor="middle" x="167.04" y="-175.5" font-family="Helvetica,sans-Serif" font-size="10.00">process data flow</text>
</g>
<!-- proc_flow&#45;&gt;user -->
<g id="edge4" class="edge">
<title>proc_flow&#45;&gt;user</title>
<path fill="none" stroke="#ff4040" stroke-dasharray="5,2" d="M201.4,-192.86C230.69,-205.05 274.78,-221.34 315.09,-228 456.69,-251.42 628.17,-225.84 701.95,-212.3"/>
<polygon fill="#ff4040" stroke="#ff4040" points="702.92,-215.68 712.11,-210.4 701.63,-208.8 702.92,-215.68"/>
<text text-anchor="middle" x="477.09" y="-240" font-family="Times,serif" font-style="italic" font-size="10.00" fill="#ff4040">alert</text>
</g>
<!-- db_aggr -->
<g id="node4" class="node">
<title>db_aggr</title>
<polygon fill="black" stroke="transparent" points="333.09,-187 333.09,-191 419.09,-191 419.09,-187 333.09,-187"/>
<text text-anchor="start" x="335.09" y="-175" font-family="Helvetica,sans-Serif" font-size="10.00">Aggregated data</text>
<polygon fill="black" stroke="transparent" points="333.09,-164 333.09,-168 419.09,-168 419.09,-164 333.09,-164"/>
</g>
<!-- proc_flow&#45;&gt;db_aggr -->
<g id="edge2" class="edge">
<title>proc_flow&#45;&gt;db_aggr</title>
<path fill="none" stroke="#5050e0" stroke-width="2" d="M227.1,-178C250.72,-178 278.16,-178 302.95,-178"/>
<polygon fill="#5050e0" stroke="#5050e0" stroke-width="2" points="313.01,-181.5 323.01,-178 313.01,-174.5 313.01,-181.5"/>
<polygon fill="#5050e0" stroke="#5050e0" stroke-width="2" points="303.01,-181.5 313.01,-178 303.01,-174.5 303.01,-181.5"/>
</g>
<!-- db_params -->
<g id="node7" class="node">
<title>db_params</title>
<polygon fill="black" stroke="transparent" points="346.09,-73 346.09,-77 406.09,-77 406.09,-73 346.09,-73"/>
<text text-anchor="start" x="348.09" y="-61" font-family="Helvetica,sans-Serif" font-size="10.00">Parameters</text>
<polygon fill="black" stroke="transparent" points="346.09,-50 346.09,-54 406.09,-54 406.09,-50 346.09,-50"/>
</g>
<!-- proc_flow&#45;&gt;db_params -->
<g id="edge3" class="edge">
<title>proc_flow&#45;&gt;db_params</title>
<path fill="none" stroke="#60b060" stroke-opacity="0.376471" d="M203.24,-156.67C232.77,-139.01 276.24,-113.58 315.09,-93 321.73,-89.48 328.87,-85.88 335.82,-82.46"/>
<polygon fill="#60b060" fill-opacity="0.376471" stroke="#60b060" stroke-opacity="0.376471" points="201.32,-153.74 194.54,-161.89 204.92,-159.75 201.32,-153.74"/>
<text text-anchor="middle" x="275.09" y="-134" font-family="Times,serif" font-style="italic" font-size="10.00" fill="#60b060">alert thresh</text>
</g>
<!-- ext -->
<g id="node3" class="node">
<title>ext</title>
<polygon fill="none" stroke="black" points="787.59,-111 691.59,-111 691.59,-75 787.59,-75 787.59,-111"/>
<text text-anchor="middle" x="739.59" y="-90.5" font-family="Helvetica,sans-Serif" font-size="10.00">External system</text>
</g>
<!-- forecast -->
<g id="node8" class="node">
<title>forecast</title>
<ellipse fill="#eeeeee" stroke="black" cx="589.84" cy="-149" rx="62.97" ry="18"/>
<text text-anchor="middle" x="589.84" y="-146.5" font-family="Helvetica,sans-Serif" font-size="10.00">compute forecasts</text>
</g>
<!-- db_aggr&#45;&gt;forecast -->
<g id="edge5" class="edge">
<title>db_aggr&#45;&gt;forecast</title>
<path fill="none" stroke="#5050e0" stroke-width="2" d="M429.12,-186.94C453.09,-189.49 481.76,-190.33 507.09,-185 521.99,-181.86 537.48,-175.84 550.92,-169.6"/>
<polygon fill="#5050e0" stroke="#5050e0" stroke-width="2" points="552.83,-172.57 560.31,-165.06 549.78,-166.27 552.83,-172.57"/>
</g>
<!-- interact -->
<g id="node9" class="node">
<title>interact</title>
<ellipse fill="#eeeeee" stroke="black" cx="589.84" cy="-93" rx="64.51" ry="18"/>
<text text-anchor="middle" x="589.84" y="-90.5" font-family="Helvetica,sans-Serif" font-size="10.00">handle interactions</text>
</g>
<!-- db_aggr&#45;&gt;interact -->
<g id="edge8" class="edge">
<title>db_aggr&#45;&gt;interact</title>
<path fill="none" stroke="#5050e0" stroke-width="2" d="M429.13,-166.88C454.18,-159.87 483.77,-149.04 507.09,-133 513.78,-128.39 512.21,-123.68 518.85,-119 523.67,-115.6 528.99,-112.59 534.47,-109.94"/>
<polygon fill="#5050e0" stroke="#5050e0" stroke-width="2" points="536.08,-113.06 543.8,-105.81 533.24,-106.66 536.08,-113.06"/>
</g>
<!-- db_fcast -->
<g id="node5" class="node">
<title>db_fcast</title>
<polygon fill="black" stroke="transparent" points="351.09,-130 351.09,-134 402.09,-134 402.09,-130 351.09,-130"/>
<text text-anchor="start" x="353.09" y="-118" font-family="Helvetica,sans-Serif" font-size="10.00">Forecasts</text>
<polygon fill="black" stroke="transparent" points="351.09,-107 351.09,-111 402.09,-111 402.09,-107 351.09,-107"/>
</g>
<!-- db_fcast&#45;&gt;forecast -->
<g id="edge7" class="edge">
<title>db_fcast&#45;&gt;forecast</title>
<path fill="none" stroke="maroon" stroke-width="2" d="M421.85,-130.64C430.21,-132.24 438.9,-133.78 447.09,-135 473.75,-138.97 503.4,-142.1 528.67,-144.38"/>
<polygon fill="maroon" stroke="maroon" stroke-width="2" points="422.35,-127.17 411.86,-128.66 420.99,-134.04 422.35,-127.17"/>
</g>
<!-- db_fcast&#45;&gt;interact -->
<g id="edge9" class="edge">
<title>db_fcast&#45;&gt;interact</title>
<path fill="none" stroke="maroon" stroke-width="2" d="M411.76,-111.41C422.96,-108.63 435.48,-105.85 447.09,-104 469.28,-100.47 493.62,-98.06 515.77,-96.42"/>
<polygon fill="maroon" stroke="maroon" stroke-width="2" points="516.05,-99.9 525.78,-95.71 515.56,-92.92 516.05,-99.9"/>
</g>
<!-- db_raw -->
<g id="node6" class="node">
<title>db_raw</title>
<polygon fill="black" stroke="transparent" points="10,-187 10,-191 60,-191 60,-187 10,-187"/>
<text text-anchor="start" x="12" y="-175" font-family="Helvetica,sans-Serif" font-size="10.00">Raw data</text>
<polygon fill="black" stroke="transparent" points="10,-164 10,-168 60,-168 60,-164 10,-164"/>
</g>
<!-- db_raw&#45;&gt;proc_flow -->
<g id="edge1" class="edge">
<title>db_raw&#45;&gt;proc_flow</title>
<path fill="none" stroke="#5050e0" stroke-width="2" d="M70.17,-178C75.46,-178 81.1,-178 86.91,-178"/>
<polygon fill="#5050e0" stroke="#5050e0" stroke-width="2" points="96.96,-181.5 106.96,-178 96.96,-174.5 96.96,-181.5"/>
<polygon fill="#5050e0" stroke="#5050e0" stroke-width="2" points="86.96,-181.5 96.96,-178 86.96,-174.5 86.96,-181.5"/>
</g>
<!-- db_params&#45;&gt;forecast -->
<g id="edge6" class="edge">
<title>db_params&#45;&gt;forecast</title>
<path fill="none" stroke="#60b060" stroke-opacity="0.376471" d="M416.12,-82.43C426.15,-87.01 436.97,-91.8 447.09,-96 477.56,-108.64 512.25,-121.64 539.68,-131.59"/>
<polygon fill="#60b060" fill-opacity="0.376471" stroke="#60b060" stroke-opacity="0.376471" points="538.85,-135.01 549.44,-135.12 541.22,-128.43 538.85,-135.01"/>
<text text-anchor="middle" x="477.09" y="-121" font-family="Times,serif" font-style="italic" font-size="10.00" fill="#60b060">horizon</text>
</g>
<!-- db_params&#45;&gt;interact -->
<g id="edge12" class="edge">
<title>db_params&#45;&gt;interact</title>
<path fill="none" stroke="#60b060" stroke-opacity="0.376471" d="M426.66,-70.79C457.99,-75.08 498.6,-80.64 531.34,-85.12"/>
<polygon fill="#60b060" fill-opacity="0.376471" stroke="#60b060" stroke-opacity="0.376471" points="426.8,-67.28 416.42,-69.39 425.85,-74.21 426.8,-67.28"/>
<text text-anchor="middle" x="477.09" y="-84" font-family="Times,serif" font-style="italic" font-size="10.00" fill="#60b060">alert thresh</text>
</g>
<!-- interact&#45;&gt;user -->
<g id="edge10" class="edge">
<title>interact&#45;&gt;user</title>
<path fill="none" stroke="#303030" stroke-width="2" d="M635.36,-105.87C644.19,-109.42 653.1,-113.76 660.83,-119 684.52,-135.06 705.89,-159.82 720.21,-178.65"/>
<polygon fill="#303030" stroke="#303030" stroke-width="2" points="717.5,-180.89 726.27,-186.84 723.13,-176.72 717.5,-180.89"/>
</g>
<!-- interact&#45;&gt;ext -->
<g id="edge11" class="edge">
<title>interact&#45;&gt;ext</title>
<path fill="none" stroke="#303030" stroke-width="2" d="M654.79,-93C663.64,-93 672.7,-93 681.42,-93"/>
<polygon fill="#303030" stroke="#303030" stroke-width="2" points="681.48,-96.5 691.48,-93 681.48,-89.5 681.48,-96.5"/>
</g>
</g>
</svg>
