<?xml version="1.0" encoding="UTF-8" standalone="no"?>
<!DOCTYPE svg PUBLIC "-//W3C//DTD SVG 1.1//EN"
 "http://www.w3.org/Graphics/SVG/1.1/DTD/svg11.dtd">
<!-- Generated by graphviz version 2.43.0 (0)
 -->
<!-- Title: D Pages: 1 -->
<svg width="435pt" height="75pt"
 viewBox="0.00 0.00 435.09 75.00" xmlns="http://www.w3.org/2000/svg" xmlns:xlink="http://www.w3.org/1999/xlink">
<g id="graph0" class="graph" transform="scale(1 1) rotate(0) translate(4 71)">
<title>D</title>
<polygon fill="white" stroke="transparent" points="-4,4 -4,-71 431.09,-71 431.09,4 -4,4"/>
<text text-anchor="middle" x="213.54" y="-6.8" font-family="Helvetica,sans-Serif" font-size="9.00" fill="#000060">&#45; img/filter&#45;only&#45;left &#45;</text>
<!-- ds -->
<g id="node1" class="node">
<title>ds</title>
<polygon fill="none" stroke="black" points="75,-65.5 0,-65.5 0,-29.5 75,-29.5 75,-65.5"/>
<text text-anchor="middle" x="37.5" y="-45" font-family="Helvetica,sans-Serif" font-size="10.00">Data source</text>
</g>
<!-- etl -->
<g id="node2" class="node">
<title>etl</title>
<ellipse fill="#eeeeee" stroke="black" cx="138" cy="-47.5" rx="27" ry="18"/>
<text text-anchor="middle" x="138" y="-45" font-family="Helvetica,sans-Serif" font-size="10.00">ETL</text>
</g>
<!-- ds&#45;&gt;etl -->
<g id="edge1" class="edge">
<title>ds&#45;&gt;etl</title>
<path fill="none" stroke="#5050e0" stroke-width="2" d="M75.18,-47.5C80.25,-47.5 85.52,-47.5 90.74,-47.5"/>
<polygon fill="#5050e0" stroke="#5050e0" stroke-width="2" points="100.75,-51 110.75,-47.5 100.75,-44 100.75,-51"/>
<polygon fill="#5050e0" stroke="#5050e0" stroke-width="2" points="90.75,-51 100.75,-47.5 90.75,-44 90.75,-51"/>
</g>
<!-- db_raw -->
<g id="node4" class="node">
<title>db_raw</title>
<polygon fill="black" stroke="transparent" points="211,-56.5 211,-60.5 261,-60.5 261,-56.5 211,-56.5"/>
<text text-anchor="start" x="213" y="-44.5" font-family="Helvetica,sans-Serif" font-size="10.00">Raw data</text>
<polygon fill="black" stroke="transparent" points="211,-33.5 211,-37.5 261,-37.5 261,-33.5 211,-33.5"/>
</g>
<!-- etl&#45;&gt;db_raw -->
<g id="edge2" class="edge">
<title>etl&#45;&gt;db_raw</title>
<path fill="none" stroke="#5050e0" stroke-width="2" d="M165.23,-47.5C170.13,-47.5 175.41,-47.5 180.79,-47.5"/>
<polygon fill="#5050e0" stroke="#5050e0" stroke-width="2" points="190.87,-51 200.87,-47.5 190.87,-44 190.87,-51"/>
<polygon fill="#5050e0" stroke="#5050e0" stroke-width="2" points="180.87,-51 190.87,-47.5 180.87,-44 180.87,-51"/>
</g>
<!-- proc_flow -->
<g id="node3" class="node">
<title>proc_flow</title>
<ellipse fill="#eeeeee" stroke="black" cx="367.04" cy="-47.5" rx="60.09" ry="18"/>
<text text-anchor="middle" x="367.04" y="-45" font-family="Helvetica,sans-Serif" font-size="10.00">process data flow</text>
</g>
<!-- db_raw&#45;&gt;proc_flow -->
<g id="edge3" class="edge">
<title>db_raw&#45;&gt;proc_flow</title>
<path fill="none" stroke="#5050e0" stroke-width="2" d="M271.24,-47.5C276.1,-47.5 281.25,-47.5 286.54,-47.5"/>
<polygon fill="#5050e0" stroke="#5050e0" stroke-width="2" points="296.68,-51 306.68,-47.5 296.68,-44 296.68,-51"/>
<polygon fill="#5050e0" stroke="#5050e0" stroke-width="2" points="286.68,-51 296.68,-47.5 286.68,-44 286.68,-51"/>
</g>
</g>
</svg>
