<?xml version="1.0" encoding="UTF-8" standalone="no"?>
<!DOCTYPE svg PUBLIC "-//W3C//DTD SVG 1.1//EN"
 "http://www.w3.org/Graphics/SVG/1.1/DTD/svg11.dtd">
<!-- Generated by graphviz version 2.43.0 (0)
 -->
<!-- Title: D Pages: 1 -->
<svg width="786pt" height="254pt"
 viewBox="0.00 0.00 786.05 254.00" xmlns="http://www.w3.org/2000/svg" xmlns:xlink="http://www.w3.org/1999/xlink">
<g id="graph0" class="graph" transform="scale(1 1) rotate(0) translate(4 250)">
<title>D</title>
<polygon fill="white" stroke="transparent" points="-4,4 -4,-250 782.05,-250 782.05,4 -4,4"/>
<text text-anchor="middle" x="389.02" y="-6.8" font-family="Helvetica,sans-Serif" font-size="9.00" fill="#000060">&#45; img/filter&#45;only&#45;two &#45;</text>
<g id="clust1" class="cluster">
<title>cluster_0</title>
<polygon fill="none" stroke="black" stroke-dasharray="5,2" points="381.67,-67 381.67,-198 493.67,-198 493.67,-67 381.67,-67"/>
<text text-anchor="middle" x="437.67" y="-186.8" font-family="Helvetica,sans-Serif" font-size="9.00" fill="#000060">Computation results</text>
</g>
<g id="clust2" class="cluster">
<title>cluster_1</title>
<polygon fill="none" stroke="black" stroke-dasharray="5,2" points="563.67,-74 563.67,-198 695.05,-198 695.05,-74 563.67,-74"/>
<text text-anchor="middle" x="629.36" y="-186.8" font-family="Helvetica,sans-Serif" font-size="9.00" fill="#000060">Batch processing</text>
</g>
<!-- etl -->
<g id="node1" class="node">
<title>etl</title>
<ellipse fill="#eeeeee" stroke="black" cx="27" cy="-152" rx="27" ry="18"/>
<text text-anchor="middle" x="27" y="-149.5" font-family="Helvetica,sans-Serif" font-size="10.00">ETL</text>
</g>
<!-- db_raw -->
<g id="node5" class="node">
<title>db_raw</title>
<polygon fill="black" stroke="transparent" points="101.5,-161 101.5,-165 148.5,-165 148.5,-161 101.5,-161"/>
<text text-anchor="start" x="103.5" y="-149" font-family="Helvetica,sans-Serif" font-size="10.00">Raw data</text>
<polygon fill="black" stroke="transparent" points="101.5,-138 101.5,-142 148.5,-142 148.5,-138 101.5,-138"/>
</g>
<!-- etl&#45;&gt;db_raw -->
<g id="edge1" class="edge">
<title>etl&#45;&gt;db_raw</title>
<path fill="none" stroke="#5050e0" stroke-width="2" d="M54.1,-152C59.34,-152 65.03,-152 70.81,-152"/>
<polygon fill="#5050e0" stroke="#5050e0" stroke-width="2" points="80.95,-155.5 90.95,-152 80.95,-148.5 80.95,-155.5"/>
<polygon fill="#5050e0" stroke="#5050e0" stroke-width="2" points="70.95,-155.5 80.95,-152 70.95,-148.5 70.95,-155.5"/>
</g>
<!-- user -->
<g id="node2" class="node">
<title>user</title>
<polygon fill="none" stroke="black" points="778.05,-149 724.05,-149 724.05,-113 778.05,-113 778.05,-149"/>
<text text-anchor="middle" x="751.05" y="-128.5" font-family="Helvetica,sans-Serif" font-size="10.00">User</text>
</g>
<!-- proc_flow -->
<g id="node3" class="node">
<title>proc_flow</title>
<ellipse fill="#eeeeee" stroke="black" cx="250.33" cy="-152" rx="55.17" ry="18"/>
<text text-anchor="middle" x="250.33" y="-149.5" font-family="Helvetica,sans-Serif" font-size="10.00">process data flow</text>
</g>
<!-- proc_flow&#45;&gt;user -->
<g id="edge5" class="edge">
<title>proc_flow&#45;&gt;user</title>
<path fill="none" stroke="#ff4040" stroke-dasharray="5,2" d="M281.22,-167.09C307.06,-179.24 345.8,-195.36 381.67,-202 518.62,-227.37 569.99,-263.31 695.05,-202 713.65,-192.88 727.77,-174.09 737.03,-158.13"/>
<polygon fill="#ff4040" stroke="#ff4040" points="740.21,-159.61 741.93,-149.15 734.07,-156.26 740.21,-159.61"/>
<text text-anchor="middle" x="528.67" y="-238" font-family="Times,serif" font-style="italic" font-size="10.00" fill="#ff4040">alert</text>
</g>
<!-- db_aggr -->
<g id="node4" class="node">
<title>db_aggr</title>
<polygon fill="black" stroke="transparent" points="399.67,-161 399.67,-165 475.67,-165 475.67,-161 399.67,-161"/>
<text text-anchor="start" x="401.67" y="-149" font-family="Helvetica,sans-Serif" font-size="10.00">Aggregated data</text>
<polygon fill="black" stroke="transparent" points="399.67,-138 399.67,-142 475.67,-142 475.67,-138 399.67,-138"/>
</g>
<!-- proc_flow&#45;&gt;db_aggr -->
<g id="edge3" class="edge">
<title>proc_flow&#45;&gt;db_aggr</title>
<path fill="none" stroke="#5050e0" stroke-width="2" d="M305.94,-152C325.8,-152 348.48,-152 369.32,-152"/>
<polygon fill="#5050e0" stroke="#5050e0" stroke-width="2" points="379.36,-155.5 389.36,-152 379.36,-148.5 379.36,-155.5"/>
<polygon fill="#5050e0" stroke="#5050e0" stroke-width="2" points="369.36,-155.5 379.36,-152 369.36,-148.5 369.36,-155.5"/>
</g>
<!-- db_params -->
<g id="node6" class="node">
<title>db_params</title>
<polygon fill="black" stroke="transparent" points="410.67,-104 410.67,-108 465.67,-108 465.67,-104 410.67,-104"/>
<text text-anchor="start" x="412.67" y="-92" font-family="Helvetica,sans-Serif" font-size="10.00">Parameters</text>
<polygon fill="black" stroke="transparent" points="410.67,-81 410.67,-85 465.67,-85 465.67,-81 410.67,-81"/>
</g>
<!-- proc_flow&#45;&gt;db_params -->
<g id="edge4" class="edge">
<title>proc_flow&#45;&gt;db_params</title>
<path fill="none" stroke="#60b060" stroke-opacity="0.376471" d="M300.91,-136.75C332.13,-127.15 371.76,-114.96 400.12,-106.24"/>
<polygon fill="#60b060" fill-opacity="0.376471" stroke="#60b060" stroke-opacity="0.376471" points="299.62,-133.49 291.09,-139.77 301.68,-140.18 299.62,-133.49"/>
<text text-anchor="middle" x="347.67" y="-131" font-family="Times,serif" font-style="italic" font-size="10.00" fill="#60b060">alert thresh</text>
</g>
<!-- forecast -->
<g id="node8" class="node">
<title>forecast</title>
<ellipse fill="#eeeeee" stroke="black" cx="629.36" cy="-154" rx="57.88" ry="18"/>
<text text-anchor="middle" x="629.36" y="-151.5" font-family="Helvetica,sans-Serif" font-size="10.00">compute forecasts</text>
</g>
<!-- db_aggr&#45;&gt;forecast -->
<g id="edge7" class="edge">
<title>db_aggr&#45;&gt;forecast</title>
<path fill="none" stroke="#5050e0" stroke-width="2" d="M485.86,-156.06C491.85,-156.45 497.9,-156.78 503.67,-157 522.65,-157.73 543.27,-157.61 562.17,-157.13"/>
<polygon fill="#5050e0" stroke="#5050e0" stroke-width="2" points="562.28,-160.63 572.17,-156.84 562.08,-153.63 562.28,-160.63"/>
</g>
<!-- interact -->
<g id="node9" class="node">
<title>interact</title>
<ellipse fill="#eeeeee" stroke="black" cx="629.36" cy="-46" rx="57.88" ry="18"/>
<text text-anchor="middle" x="629.36" y="-43.5" font-family="Helvetica,sans-Serif" font-size="10.00">handle interactions</text>
</g>
<!-- db_aggr&#45;&gt;interact -->
<g id="edge9" class="edge">
<title>db_aggr&#45;&gt;interact</title>
<path fill="none" stroke="#5050e0" stroke-width="2" d="M485.93,-155.75C509.36,-154.96 536.29,-149.59 553.67,-132 573.28,-112.14 545.95,-91.57 563.67,-70 566.29,-66.81 569.37,-64.05 572.75,-61.65"/>
<polygon fill="#5050e0" stroke="#5050e0" stroke-width="2" points="574.81,-64.5 581.66,-56.41 571.27,-58.46 574.81,-64.5"/>
</g>
<!-- db_raw&#45;&gt;proc_flow -->
<g id="edge2" class="edge">
<title>db_raw&#45;&gt;proc_flow</title>
<path fill="none" stroke="#5050e0" stroke-width="2" d="M158.04,-152C163.34,-152 169.03,-152 174.86,-152"/>
<polygon fill="#5050e0" stroke="#5050e0" stroke-width="2" points="184.99,-155.5 194.99,-152 184.99,-148.5 184.99,-155.5"/>
<polygon fill="#5050e0" stroke="#5050e0" stroke-width="2" points="174.99,-155.5 184.99,-152 174.99,-148.5 174.99,-155.5"/>
</g>
<!-- optim -->
<g id="node7" class="node">
<title>optim</title>
<ellipse fill="#eeeeee" stroke="black" cx="629.36" cy="-100" rx="52.28" ry="18"/>
<text text-anchor="middle" x="629.36" y="-97.5" font-family="Helvetica,sans-Serif" font-size="10.00">optimize params</text>
</g>
<!-- db_params&#45;&gt;optim -->
<g id="edge6" class="edge">
<title>db_params&#45;&gt;optim</title>
<path fill="none" stroke="#60b060" stroke-opacity="0.376471" d="M485.51,-88.54C491.61,-87.9 497.78,-87.36 503.67,-87 525.85,-85.64 531.53,-85.09 553.67,-87 563.5,-87.85 573.99,-89.32 583.89,-90.97"/>
<polygon fill="#60b060" fill-opacity="0.376471" stroke="#60b060" stroke-opacity="0.376471" points="484.92,-85.09 475.38,-89.69 485.71,-92.04 484.92,-85.09"/>
<text text-anchor="middle" x="528.67" y="-90" font-family="Times,serif" font-style="italic" font-size="10.00" fill="#60b060">new params</text>
</g>
<!-- db_params&#45;&gt;forecast -->
<g id="edge8" class="edge">
<title>db_params&#45;&gt;forecast</title>
<path fill="none" stroke="#60b060" stroke-opacity="0.376471" d="M475.24,-106.38C504.51,-115.48 545.87,-128.34 578.23,-138.41"/>
<polygon fill="#60b060" fill-opacity="0.376471" stroke="#60b060" stroke-opacity="0.376471" points="577.37,-141.81 587.96,-141.43 579.45,-135.12 577.37,-141.81"/>
<text text-anchor="middle" x="528.67" y="-132" font-family="Times,serif" font-style="italic" font-size="10.00" fill="#60b060">horizon</text>
</g>
<!-- db_params&#45;&gt;interact -->
<g id="edge11" class="edge">
<title>db_params&#45;&gt;interact</title>
<path fill="none" stroke="#60b060" stroke-opacity="0.376471" d="M485.02,-76.03C491.23,-73.83 497.57,-71.75 503.67,-70 527.51,-63.18 554.48,-57.72 577.22,-53.74"/>
<polygon fill="#60b060" fill-opacity="0.376471" stroke="#60b060" stroke-opacity="0.376471" points="483.58,-72.83 475.41,-79.57 486,-79.4 483.58,-72.83"/>
<text text-anchor="middle" x="528.67" y="-73" font-family="Times,serif" font-style="italic" font-size="10.00" fill="#60b060">alert thresh</text>
</g>
<!-- interact&#45;&gt;user -->
<g id="edge10" class="edge">
<title>interact&#45;&gt;user</title>
<path fill="none" stroke="#303030" stroke-width="2" d="M672.19,-58.14C680.13,-61.36 688.11,-65.29 695.05,-70 708.85,-79.37 721.53,-92.91 731.22,-104.86"/>
<polygon fill="#303030" stroke="#303030" stroke-width="2" points="728.52,-107.09 737.43,-112.81 734.03,-102.78 728.52,-107.09"/>
</g>
</g>
</svg>
