<?xml version="1.0" encoding="UTF-8" standalone="no"?>
<!DOCTYPE svg PUBLIC "-//W3C//DTD SVG 1.1//EN"
 "http://www.w3.org/Graphics/SVG/1.1/DTD/svg11.dtd">
<!-- Generated by graphviz version 2.43.0 (0)
 -->
<!-- Title: D Pages: 1 -->
<svg width="192pt" height="144pt"
 viewBox="0.00 0.00 192.00 144.00" xmlns="http://www.w3.org/2000/svg" xmlns:xlink="http://www.w3.org/1999/xlink">
<g id="graph0" class="graph" transform="scale(1 1) rotate(0) translate(4 140)">
<title>D</title>
<polygon fill="white" stroke="transparent" points="-4,4 -4,-140 188,-140 188,4 -4,4"/>
<text text-anchor="middle" x="92" y="-6.8" font-family="Helvetica,sans-Serif" font-size="9.00" fill="#000060">&#45; img/filter&#45;strict&#45;plain &#45;</text>
<!-- B -->
<g id="node1" class="node">
<title>B</title>
<ellipse fill="#eeeeee" stroke="black" cx="27" cy="-118" rx="27" ry="18"/>
<text text-anchor="middle" x="27" y="-115.5" font-family="Helvetica,sans-Serif" font-size="10.00">B</text>
</g>
<!-- C -->
<g id="node2" class="node">
<title>C</title>
<ellipse fill="#eeeeee" stroke="black" cx="157" cy="-82" rx="27" ry="18"/>
<text text-anchor="middle" x="157" y="-79.5" font-family="Helvetica,sans-Serif" font-size="10.00">C</text>
</g>
<!-- B&#45;&gt;C -->
<g id="edge1" class="edge">
<title>B&#45;&gt;C</title>
<path fill="none" stroke="gray" d="M52.08,-111.23C71.8,-105.68 99.93,-97.77 121.96,-91.57"/>
<polygon fill="gray" stroke="gray" points="122.92,-94.94 131.6,-88.86 121.02,-88.2 122.92,-94.94"/>
<text text-anchor="middle" x="92" y="-108" font-family="Times,serif" font-style="italic" font-size="10.00">path flow</text>
</g>
<!-- D -->
<g id="node3" class="node">
<title>D</title>
<ellipse fill="#eeeeee" stroke="black" cx="27" cy="-46" rx="27" ry="18"/>
<text text-anchor="middle" x="27" y="-43.5" font-family="Helvetica,sans-Serif" font-size="10.00">D</text>
</g>
<!-- B&#45;&gt;D -->
<g id="edge3" class="edge">
<title>B&#45;&gt;D</title>
<path fill="none" stroke="gray" d="M27,-99.59C27,-91.94 27,-82.89 27,-74.43"/>
<polygon fill="gray" stroke="gray" points="30.5,-74.17 27,-64.17 23.5,-74.17 30.5,-74.17"/>
<text text-anchor="middle" x="18.5" y="-79.5" font-family="Times,serif" font-style="italic" font-size="10.00">stray flow</text>
</g>
<!-- D&#45;&gt;C -->
<g id="edge2" class="edge">
<title>D&#45;&gt;C</title>
<path fill="none" stroke="gray" d="M52.08,-52.77C71.8,-58.32 99.93,-66.23 121.96,-72.43"/>
<polygon fill="gray" stroke="gray" points="121.02,-75.8 131.6,-75.14 122.92,-69.06 121.02,-75.8"/>
<text text-anchor="middle" x="92" y="-73" font-family="Times,serif" font-style="italic" font-size="10.00">path flow</text>
</g>
</g>
</svg>
