<?xml version="1.0" encoding="UTF-8" standalone="no"?>
<!DOCTYPE svg PUBLIC "-//W3C//DTD SVG 1.1//EN"
 "http://www.w3.org/Graphics/SVG/1.1/DTD/svg11.dtd">
<!-- Generated by graphviz version 2.43.0 (0)
 -->
<!-- Title: D Pages: 1 -->
<svg width="552pt" height="188pt"
 viewBox="0.00 0.00 551.59 188.00" xmlns="http://www.w3.org/2000/svg" xmlns:xlink="http://www.w3.org/1999/xlink">
<g id="graph0" class="graph" transform="scale(1 1) rotate(0) translate(4 184)">
<title>D</title>
<polygon fill="white" stroke="transparent" points="-4,4 -4,-184 547.59,-184 547.59,4 -4,4"/>
<text text-anchor="middle" x="271.8" y="-6.8" font-family="Helvetica,sans-Serif" font-size="9.00" fill="#000060">&#45; img/filter&#45;only&#45;after&#45;two &#45;</text>
<g id="clust1" class="cluster">
<title>cluster_0</title>
<polygon fill="none" stroke="black" stroke-dasharray="5,2" points="149.09,-70 149.09,-144 271.09,-144 271.09,-70 149.09,-70"/>
<text text-anchor="middle" x="210.09" y="-132.8" font-family="Helvetica,sans-Serif" font-size="9.00" fill="#000060">Computation results</text>
</g>
<g id="clust2" class="cluster">
<title>cluster_1</title>
<polygon fill="none" stroke="black" stroke-dasharray="5,2" points="316.85,-74 316.85,-144 458.83,-144 458.83,-74 316.85,-74"/>
<text text-anchor="middle" x="387.84" y="-132.8" font-family="Helvetica,sans-Serif" font-size="9.00" fill="#000060">Batch processing</text>
</g>
<!-- user -->
<g id="node1" class="node">
<title>user</title>
<polygon fill="none" stroke="black" points="543.59,-122 489.59,-122 489.59,-86 543.59,-86 543.59,-122"/>
<text text-anchor="middle" x="516.59" y="-101.5" font-family="Helvetica,sans-Serif" font-size="10.00">User</text>
</g>
<!-- proc_flow -->
<g id="node2" class="node">
<title>proc_flow</title>
<ellipse fill="#eeeeee" stroke="black" cx="60.04" cy="-130" rx="60.09" ry="18"/>
<text text-anchor="middle" x="60.04" y="-127.5" font-family="Helvetica,sans-Serif" font-size="10.00">process data flow</text>
</g>
<!-- proc_flow&#45;&gt;user -->
<g id="edge2" class="edge">
<title>proc_flow&#45;&gt;user</title>
<path fill="none" stroke="#ff4040" stroke-dasharray="5,2" d="M104.6,-142.12C179.39,-160.72 336.03,-190.02 458.83,-148 470.51,-144 481.64,-136.52 490.91,-128.84"/>
<polygon fill="#ff4040" stroke="#ff4040" points="493.34,-131.36 498.54,-122.12 488.72,-126.1 493.34,-131.36"/>
<text text-anchor="middle" x="293.09" y="-172" font-family="Times,serif" font-style="italic" font-size="10.00" fill="#ff4040">alert</text>
</g>
<!-- db_aggr -->
<g id="node3" class="node">
<title>db_aggr</title>
<polygon fill="black" stroke="transparent" points="167.09,-107 167.09,-111 253.09,-111 253.09,-107 167.09,-107"/>
<text text-anchor="start" x="169.09" y="-95" font-family="Helvetica,sans-Serif" font-size="10.00">Aggregated data</text>
<polygon fill="black" stroke="transparent" points="167.09,-84 167.09,-88 253.09,-88 253.09,-84 167.09,-84"/>
</g>
<!-- proc_flow&#45;&gt;db_aggr -->
<g id="edge1" class="edge">
<title>proc_flow&#45;&gt;db_aggr</title>
<path fill="none" stroke="#5050e0" stroke-width="2" d="M109.11,-119.61C118.06,-117.68 127.6,-115.61 137.09,-113.56"/>
<polygon fill="#5050e0" stroke="#5050e0" stroke-width="2" points="147.88,-114.81 156.92,-109.28 146.41,-107.97 147.88,-114.81"/>
<polygon fill="#5050e0" stroke="#5050e0" stroke-width="2" points="138.11,-116.92 147.15,-111.39 136.63,-110.08 138.11,-116.92"/>
</g>
<!-- forecast -->
<g id="node4" class="node">
<title>forecast</title>
<ellipse fill="#eeeeee" stroke="black" cx="387.84" cy="-100" rx="62.97" ry="18"/>
<text text-anchor="middle" x="387.84" y="-97.5" font-family="Helvetica,sans-Serif" font-size="10.00">compute forecasts</text>
</g>
<!-- db_aggr&#45;&gt;forecast -->
<g id="edge3" class="edge">
<title>db_aggr&#45;&gt;forecast</title>
<path fill="none" stroke="#5050e0" stroke-width="2" d="M263.34,-98.59C279.5,-98.78 297.59,-98.98 314.83,-99.18"/>
<polygon fill="#5050e0" stroke="#5050e0" stroke-width="2" points="314.83,-102.68 324.87,-99.29 314.91,-95.68 314.83,-102.68"/>
</g>
<!-- interact -->
<g id="node5" class="node">
<title>interact</title>
<ellipse fill="#eeeeee" stroke="black" cx="387.84" cy="-46" rx="64.51" ry="18"/>
<text text-anchor="middle" x="387.84" y="-43.5" font-family="Helvetica,sans-Serif" font-size="10.00">handle interactions</text>
</g>
<!-- db_aggr&#45;&gt;interact -->
<g id="edge4" class="edge">
<title>db_aggr&#45;&gt;interact</title>
<path fill="none" stroke="#5050e0" stroke-width="2" d="M263.34,-82.54C285.38,-76.02 311.01,-68.44 333.19,-61.87"/>
<polygon fill="#5050e0" stroke="#5050e0" stroke-width="2" points="334.2,-65.23 342.79,-59.03 332.21,-58.51 334.2,-65.23"/>
</g>
<!-- interact&#45;&gt;user -->
<g id="edge5" class="edge">
<title>interact&#45;&gt;user</title>
<path fill="none" stroke="#303030" stroke-width="2" d="M431.96,-59.2C440.98,-62.4 450.32,-66.05 458.83,-70 466.08,-73.37 473.58,-77.42 480.67,-81.53"/>
<polygon fill="#303030" stroke="#303030" stroke-width="2" points="478.99,-84.61 489.37,-86.73 482.58,-78.6 478.99,-84.61"/>
</g>
</g>
</svg>
