<?xml version="1.0" encoding="UTF-8" standalone="no"?>
<!DOCTYPE svg PUBLIC "-//W3C//DTD SVG 1.1//EN"
 "http://www.w3.org/Graphics/SVG/1.1/DTD/svg11.dtd">
<!-- Generated by graphviz version 2.43.0 (0)
 -->
<!-- Title: D Pages: 1 -->
<svg width="848pt" height="256pt"
 viewBox="0.00 0.00 847.59 256.00" xmlns="http://www.w3.org/2000/svg" xmlns:xlink="http://www.w3.org/1999/xlink">
<g id="graph0" class="graph" transform="scale(1 1) rotate(0) translate(4 252)">
<title>D</title>
<polygon fill="white" stroke="transparent" points="-4,4 -4,-252 843.59,-252 843.59,4 -4,4"/>
<text text-anchor="middle" x="419.8" y="-6.8" font-family="Helvetica,sans-Serif" font-size="9.00" fill="#000060">&#45; img/filter&#45;only&#45;two &#45;</text>
<g id="clust1" class="cluster">
<title>cluster_0</title>
<polygon fill="none" stroke="black" stroke-dasharray="5,2" points="406.09,-67 406.09,-198 528.09,-198 528.09,-67 406.09,-67"/>
<text text-anchor="middle" x="467.09" y="-186.8" font-family="Helvetica,sans-Serif" font-size="9.00" fill="#000060">Computation results</text>
</g>
<g id="clust2" class="cluster">
<title>cluster_1</title>
<polygon fill="none" stroke="black" stroke-dasharray="5,2" points="612.85,-74 612.85,-198 754.83,-198 754.83,-74 612.85,-74"/>
<text text-anchor="middle" x="683.84" y="-186.8" font-family="Helvetica,sans-Serif" font-size="9.00" fill="#000060">Batch processing</text>
</g>
<!-- etl -->
<g id="node1" class="node">
<title>etl</title>
<ellipse fill="#eeeeee" stroke="black" cx="27" cy="-152" rx="27" ry="18"/>
<text text-anchor="middle" x="27" y="-149.5" font-family="Helvetica,sans-Serif" font-size="10.00">ETL</text>
</g>
<!-- db_raw -->
<g id="node5" class="node">
<title>db_raw</title>
<polygon fill="black" stroke="transparent" points="101,-161 101,-165 151,-165 151,-161 101,-161"/>
<text text-anchor="start" x="103" y="-149" font-family="Helvetica,sans-Serif" font-size="10.00">Raw data</text>
<polygon fill="black" stroke="transparent" points="101,-138 101,-142 151,-142 151,-138 101,-138"/>
</g>
<!-- etl&#45;&gt;db_raw -->
<g id="edge1" class="edge">
<title>etl&#45;&gt;db_raw</title>
<path fill="none" stroke="#5050e0" stroke-width="2" d="M54.25,-152C59.33,-152 64.84,-152 70.45,-152"/>
<polygon fill="#5050e0" stroke="#5050e0" stroke-width="2" points="80.7,-155.5 90.7,-152 80.7,-148.5 80.7,-155.5"/>
<polygon fill="#5050e0" stroke="#5050e0" stroke-width="2" points="70.7,-155.5 80.7,-152 70.7,-148.5 70.7,-155.5"/>
</g>
<!-- user -->
<g id="node2" class="node">
<title>user</title>
<polygon fill="none" stroke="black" points="839.59,-149 785.59,-149 785.59,-113 839.59,-113 839.59,-149"/>
<text text-anchor="middle" x="812.59" y="-128.5" font-family="Helvetica,sans-Serif" font-size="10.00">User</text>
</g>
<!-- proc_flow -->
<g id="node3" class="node">
<title>proc_flow</title>
<ellipse fill="#eeeeee" stroke="black" cx="258.04" cy="-152" rx="60.09" ry="18"/>
<text text-anchor="middle" x="258.04" y="-149.5" font-family="Helvetica,sans-Serif" font-size="10.00">process data flow</text>
</g>
<!-- proc_flow&#45;&gt;user -->
<g id="edge5" class="edge">
<title>proc_flow&#45;&gt;user</title>
<path fill="none" stroke="#ff4040" stroke-dasharray="5,2" d="M292.4,-166.86C321.69,-179.05 365.78,-195.34 406.09,-202 559.01,-227.29 615.14,-269.16 754.83,-202 773.73,-192.91 788.31,-174.12 797.95,-158.15"/>
<polygon fill="#ff4040" stroke="#ff4040" points="801.16,-159.6 803.06,-149.17 795.08,-156.14 801.16,-159.6"/>
<text text-anchor="middle" x="569.59" y="-240" font-family="Times,serif" font-style="italic" font-size="10.00" fill="#ff4040">alert</text>
</g>
<!-- db_aggr -->
<g id="node4" class="node">
<title>db_aggr</title>
<polygon fill="black" stroke="transparent" points="424.09,-161 424.09,-165 510.09,-165 510.09,-161 424.09,-161"/>
<text text-anchor="start" x="426.09" y="-149" font-family="Helvetica,sans-Serif" font-size="10.00">Aggregated data</text>
<polygon fill="black" stroke="transparent" points="424.09,-138 424.09,-142 510.09,-142 510.09,-138 424.09,-138"/>
</g>
<!-- proc_flow&#45;&gt;db_aggr -->
<g id="edge3" class="edge">
<title>proc_flow&#45;&gt;db_aggr</title>
<path fill="none" stroke="#5050e0" stroke-width="2" d="M318.1,-152C341.72,-152 369.16,-152 393.95,-152"/>
<polygon fill="#5050e0" stroke="#5050e0" stroke-width="2" points="404.01,-155.5 414.01,-152 404.01,-148.5 404.01,-155.5"/>
<polygon fill="#5050e0" stroke="#5050e0" stroke-width="2" points="394.01,-155.5 404.01,-152 394.01,-148.5 394.01,-155.5"/>
</g>
<!-- db_params -->
<g id="node6" class="node">
<title>db_params</title>
<polygon fill="black" stroke="transparent" points="437.09,-104 437.09,-108 497.09,-108 497.09,-104 437.09,-104"/>
<text text-anchor="start" x="439.09" y="-92" font-family="Helvetica,sans-Serif" font-size="10.00">Parameters</text>
<polygon fill="black" stroke="transparent" points="437.09,-81 437.09,-85 497.09,-85 497.09,-81 437.09,-81"/>
</g>
<!-- proc_flow&#45;&gt;db_params -->
<g id="edge4" class="edge">
<title>proc_flow&#45;&gt;db_params</title>
<path fill="none" stroke="#60b060" stroke-opacity="0.376471" d="M312.72,-137.22C348.42,-127.4 394.49,-114.71 426.79,-105.82"/>
<polygon fill="#60b060" fill-opacity="0.376471" stroke="#60b060" stroke-opacity="0.376471" points="311.66,-133.88 302.95,-139.91 313.52,-140.63 311.66,-133.88"/>
<text text-anchor="middle" x="366.09" y="-133" font-family="Times,serif" font-style="italic" font-size="10.00" fill="#60b060">alert thresh</text>
</g>
<!-- forecast -->
<g id="node8" class="node">
<title>forecast</title>
<ellipse fill="#eeeeee" stroke="black" cx="683.84" cy="-154" rx="62.97" ry="18"/>
<text text-anchor="middle" x="683.84" y="-151.5" font-family="Helvetica,sans-Serif" font-size="10.00">compute forecasts</text>
</g>
<!-- db_aggr&#45;&gt;forecast -->
<g id="edge7" class="edge">
<title>db_aggr&#45;&gt;forecast</title>
<path fill="none" stroke="#5050e0" stroke-width="2" d="M520.43,-156.15C526.38,-156.5 532.36,-156.8 538.09,-157 561.94,-157.85 588.01,-157.66 611.37,-157.08"/>
<polygon fill="#5050e0" stroke="#5050e0" stroke-width="2" points="611.65,-160.57 621.55,-156.8 611.46,-153.57 611.65,-160.57"/>
</g>
<!-- interact -->
<g id="node9" class="node">
<title>interact</title>
<ellipse fill="#eeeeee" stroke="black" cx="683.84" cy="-46" rx="64.51" ry="18"/>
<text text-anchor="middle" x="683.84" y="-43.5" font-family="Helvetica,sans-Serif" font-size="10.00">handle interactions</text>
</g>
<!-- db_aggr&#45;&gt;interact -->
<g id="edge9" class="edge">
<title>db_aggr&#45;&gt;interact</title>
<path fill="none" stroke="#5050e0" stroke-width="2" d="M520.4,-157.55C547.85,-157.48 580.06,-152.24 601.09,-132 621.3,-112.55 594.49,-91.2 612.85,-70 615.64,-66.78 618.89,-63.99 622.42,-61.57"/>
<polygon fill="#5050e0" stroke="#5050e0" stroke-width="2" points="624.18,-64.6 631.11,-56.59 620.69,-58.53 624.18,-64.6"/>
</g>
<!-- db_raw&#45;&gt;proc_flow -->
<g id="edge2" class="edge">
<title>db_raw&#45;&gt;proc_flow</title>
<path fill="none" stroke="#5050e0" stroke-width="2" d="M161.17,-152C166.46,-152 172.1,-152 177.91,-152"/>
<polygon fill="#5050e0" stroke="#5050e0" stroke-width="2" points="187.96,-155.5 197.96,-152 187.96,-148.5 187.96,-155.5"/>
<polygon fill="#5050e0" stroke="#5050e0" stroke-width="2" points="177.96,-155.5 187.96,-152 177.96,-148.5 177.96,-155.5"/>
</g>
<!-- optim -->
<g id="node7" class="node">
<title>optim</title>
<ellipse fill="#eeeeee" stroke="black" cx="683.84" cy="-100" rx="58.06" ry="18"/>
<text text-anchor="middle" x="683.84" y="-97.5" font-family="Helvetica,sans-Serif" font-size="10.00">optimize params</text>
</g>
<!-- db_params&#45;&gt;optim -->
<g id="edge6" class="edge">
<title>db_params&#45;&gt;optim</title>
<path fill="none" stroke="#60b060" stroke-opacity="0.376471" d="M517.33,-88.66C524.28,-87.97 531.36,-87.38 538.09,-87 566.04,-85.41 573.17,-84.79 601.09,-87 611.55,-87.83 622.69,-89.24 633.27,-90.84"/>
<polygon fill="#60b060" fill-opacity="0.376471" stroke="#60b060" stroke-opacity="0.376471" points="516.84,-85.19 507.26,-89.73 517.58,-92.15 516.84,-85.19"/>
<text text-anchor="middle" x="569.59" y="-90" font-family="Times,serif" font-style="italic" font-size="10.00" fill="#60b060">new params</text>
</g>
<!-- db_params&#45;&gt;forecast -->
<g id="edge8" class="edge">
<title>db_params&#45;&gt;forecast</title>
<path fill="none" stroke="#60b060" stroke-opacity="0.376471" d="M507.48,-105.82C541.27,-115.11 590.32,-128.58 627.96,-138.92"/>
<polygon fill="#60b060" fill-opacity="0.376471" stroke="#60b060" stroke-opacity="0.376471" points="627.19,-142.34 637.76,-141.61 629.04,-135.59 627.19,-142.34"/>
<text text-anchor="middle" x="569.59" y="-134" font-family="Times,serif" font-style="italic" font-size="10.00" fill="#60b060">horizon</text>
</g>
<!-- db_params&#45;&gt;interact -->
<g id="edge11" class="edge">
<title>db_params&#45;&gt;interact</title>
<path fill="none" stroke="#60b060" stroke-opacity="0.376471" d="M516.81,-76.35C523.89,-74.01 531.13,-71.8 538.09,-70 566.07,-62.74 597.7,-57.2 624.23,-53.29"/>
<polygon fill="#60b060" fill-opacity="0.376471" stroke="#60b060" stroke-opacity="0.376471" points="515.64,-73.05 507.31,-79.6 517.91,-79.67 515.64,-73.05"/>
<text text-anchor="middle" x="569.59" y="-73" font-family="Times,serif" font-style="italic" font-size="10.00" fill="#60b060">alert thresh</text>
</g>
<!-- interact&#45;&gt;user -->
<g id="edge10" class="edge">
<title>interact&#45;&gt;user</title>
<path fill="none" stroke="#303030" stroke-width="2" d="M731.52,-58.41C739.62,-61.55 747.72,-65.38 754.83,-70 769.12,-79.28 782.28,-92.94 792.32,-104.98"/>
<polygon fill="#303030" stroke="#303030" stroke-width="2" points="789.76,-107.38 798.75,-112.98 795.22,-102.99 789.76,-107.38"/>
</g>
</g>
</svg>
