<?xml version="1.0" encoding="UTF-8" standalone="no"?>
<!DOCTYPE svg PUBLIC "-//W3C//DTD SVG 1.1//EN"
 "http://www.w3.org/Graphics/SVG/1.1/DTD/svg11.dtd">
<!-- Generated by graphviz version 2.43.0 (0)
 -->
<!-- Title: D Pages: 1 -->
<svg width="227pt" height="158pt"
 viewBox="0.00 0.00 227.00 158.00" xmlns="http://www.w3.org/2000/svg" xmlns:xlink="http://www.w3.org/1999/xlink">
<g id="graph0" class="graph" transform="scale(1 1) rotate(0) translate(4 154)">
<title>D</title>
<polygon fill="white" stroke="transparent" points="-4,4 -4,-154 223,-154 223,4 -4,4"/>
<text text-anchor="middle" x="109.5" y="-6.8" font-family="Helvetica,sans-Serif" font-size="9.00" fill="#000060">&#45; img/filter&#45;declared&#45;after &#45;</text>
<g id="clust1" class="cluster">
<title>cluster_0</title>
<polygon fill="none" stroke="black" stroke-dasharray="5,2" points="140,-36 140,-106 213,-106 213,-36 140,-36"/>
<text text-anchor="middle" x="176.5" y="-94.8" font-family="Helvetica,sans-Serif" font-size="9.00" fill="#000060">declared after</text>
</g>
<!-- A -->
<g id="node1" class="node">
<title>A</title>
<ellipse fill="#eeeeee" stroke="black" cx="27" cy="-97" rx="27" ry="18"/>
<text text-anchor="middle" x="27" y="-94.5" font-family="Helvetica,sans-Serif" font-size="10.00">A</text>
</g>
<!-- B -->
<g id="node2" class="node">
<title>B</title>
<ellipse fill="#eeeeee" stroke="black" cx="176" cy="-132" rx="27" ry="18"/>
<text text-anchor="middle" x="176" y="-129.5" font-family="Helvetica,sans-Serif" font-size="10.00">B</text>
</g>
<!-- A&#45;&gt;B -->
<g id="edge1" class="edge">
<title>A&#45;&gt;B</title>
<path fill="none" stroke="gray" d="M52.6,-102.86C76.67,-108.59 113.52,-117.36 140.5,-123.79"/>
<polygon fill="gray" stroke="gray" points="139.78,-127.21 150.32,-126.12 141.4,-120.4 139.78,-127.21"/>
</g>
<!-- Z -->
<g id="node3" class="node">
<title>Z</title>
<ellipse fill="#eeeeee" stroke="black" cx="176" cy="-62" rx="27" ry="18"/>
<text text-anchor="middle" x="176" y="-59.5" font-family="Helvetica,sans-Serif" font-size="10.00">Z</text>
</g>
<!-- A&#45;&gt;Z -->
<g id="edge2" class="edge">
<title>A&#45;&gt;Z</title>
<path fill="none" stroke="gray" d="M52.6,-91.14C76.67,-85.41 113.52,-76.64 140.5,-70.21"/>
<polygon fill="gray" stroke="gray" points="141.4,-73.6 150.32,-67.88 139.78,-66.79 141.4,-73.6"/>
<text text-anchor="middle" x="101" y="-88" font-family="Times,serif" font-style="italic" font-size="10.00">declared after</text>
</g>
</g>
</svg>
