<?xml version="1.0" encoding="UTF-8" standalone="no"?>
<!DOCTYPE svg PUBLIC "-//W3C//DTD SVG 1.1//EN"
 "http://www.w3.org/Graphics/SVG/1.1/DTD/svg11.dtd">
<!-- Generated by graphviz version 2.43.0 (0)
 -->
<!-- Title: D Pages: 1 -->
<svg width="315pt" height="219pt"
 viewBox="0.00 0.00 314.67 219.00" xmlns="http://www.w3.org/2000/svg" xmlns:xlink="http://www.w3.org/1999/xlink">
<g id="graph0" class="graph" transform="scale(1 1) rotate(0) translate(4 215)">
<title>D</title>
<polygon fill="white" stroke="transparent" points="-4,4 -4,-215 310.67,-215 310.67,4 -4,4"/>
<text text-anchor="middle" x="153.33" y="-6.8" font-family="Helvetica,sans-Serif" font-size="9.00" fill="#000060">&#45; img/filter&#45;only&#45;right &#45;</text>
<g id="clust1" class="cluster">
<title>cluster_0</title>
<polygon fill="none" stroke="black" stroke-dasharray="5,2" points="186.67,-36 186.67,-167 298.67,-167 298.67,-36 186.67,-36"/>
<text text-anchor="middle" x="242.67" y="-155.8" font-family="Helvetica,sans-Serif" font-size="9.00" fill="#000060">Computation results</text>
</g>
<!-- user -->
<g id="node1" class="node">
<title>user</title>
<polygon fill="none" stroke="black" points="269.67,-211 215.67,-211 215.67,-175 269.67,-175 269.67,-211"/>
<text text-anchor="middle" x="242.67" y="-190.5" font-family="Helvetica,sans-Serif" font-size="10.00">User</text>
</g>
<!-- proc_flow -->
<g id="node2" class="node">
<title>proc_flow</title>
<ellipse fill="#eeeeee" stroke="black" cx="55.33" cy="-121" rx="55.17" ry="18"/>
<text text-anchor="middle" x="55.33" y="-118.5" font-family="Helvetica,sans-Serif" font-size="10.00">process data flow</text>
</g>
<!-- proc_flow&#45;&gt;user -->
<g id="edge3" class="edge">
<title>proc_flow&#45;&gt;user</title>
<path fill="none" stroke="#ff4040" stroke-dasharray="5,2" d="M91.63,-134.71C124.37,-147.43 172.87,-166.27 205.79,-179.06"/>
<polygon fill="#ff4040" stroke="#ff4040" points="204.89,-182.47 215.48,-182.82 207.42,-175.94 204.89,-182.47"/>
<text text-anchor="middle" x="152.67" y="-170" font-family="Times,serif" font-style="italic" font-size="10.00" fill="#ff4040">alert</text>
</g>
<!-- db_aggr -->
<g id="node3" class="node">
<title>db_aggr</title>
<polygon fill="black" stroke="transparent" points="204.67,-130 204.67,-134 280.67,-134 280.67,-130 204.67,-130"/>
<text text-anchor="start" x="206.67" y="-118" font-family="Helvetica,sans-Serif" font-size="10.00">Aggregated data</text>
<polygon fill="black" stroke="transparent" points="204.67,-107 204.67,-111 280.67,-111 280.67,-107 204.67,-107"/>
</g>
<!-- proc_flow&#45;&gt;db_aggr -->
<g id="edge1" class="edge">
<title>proc_flow&#45;&gt;db_aggr</title>
<path fill="none" stroke="#5050e0" stroke-width="2" d="M110.94,-121C130.8,-121 153.48,-121 174.32,-121"/>
<polygon fill="#5050e0" stroke="#5050e0" stroke-width="2" points="184.36,-124.5 194.36,-121 184.36,-117.5 184.36,-124.5"/>
<polygon fill="#5050e0" stroke="#5050e0" stroke-width="2" points="174.36,-124.5 184.36,-121 174.36,-117.5 174.36,-124.5"/>
</g>
<!-- db_params -->
<g id="node4" class="node">
<title>db_params</title>
<polygon fill="black" stroke="transparent" points="215.67,-73 215.67,-77 270.67,-77 270.67,-73 215.67,-73"/>
<text text-anchor="start" x="217.67" y="-61" font-family="Helvetica,sans-Serif" font-size="10.00">Parameters</text>
<polygon fill="black" stroke="transparent" points="215.67,-50 215.67,-54 270.67,-54 270.67,-50 215.67,-50"/>
</g>
<!-- proc_flow&#45;&gt;db_params -->
<g id="edge2" class="edge">
<title>proc_flow&#45;&gt;db_params</title>
<path fill="none" stroke="#60b060" stroke-opacity="0.376471" d="M105.91,-105.75C137.13,-96.15 176.76,-83.96 205.12,-75.24"/>
<polygon fill="#60b060" fill-opacity="0.376471" stroke="#60b060" stroke-opacity="0.376471" points="104.62,-102.49 96.09,-108.77 106.68,-109.18 104.62,-102.49"/>
<text text-anchor="middle" x="152.67" y="-100" font-family="Times,serif" font-style="italic" font-size="10.00" fill="#60b060">alert thresh</text>
</g>
</g>
</svg>
