<?xml version="1.0" encoding="UTF-8" standalone="no"?>
<!DOCTYPE svg PUBLIC "-//W3C//DTD SVG 1.1//EN"
 "http://www.w3.org/Graphics/SVG/1.1/DTD/svg11.dtd">
<!-- Generated by graphviz version 2.43.0 (0)
 -->
<!-- Title: D Pages: 1 -->
<svg width="727pt" height="256pt"
 viewBox="0.00 0.00 727.05 256.00" xmlns="http://www.w3.org/2000/svg" xmlns:xlink="http://www.w3.org/1999/xlink">
<g id="graph0" class="graph" transform="scale(1 1) rotate(0) translate(4 252)">
<title>D</title>
<polygon fill="white" stroke="transparent" points="-4,4 -4,-252 723.05,-252 723.05,4 -4,4"/>
<text text-anchor="middle" x="359.52" y="-6.8" font-family="Helvetica,sans-Serif" font-size="9.00" fill="#000060">&#45; img/filter&#45;only&#45;after &#45;</text>
<g id="clust1" class="cluster">
<title>cluster_0</title>
<polygon fill="none" stroke="black" stroke-dasharray="5,2" points="290.67,-36 290.67,-224 402.67,-224 402.67,-36 290.67,-36"/>
<text text-anchor="middle" x="346.67" y="-212.8" font-family="Helvetica,sans-Serif" font-size="9.00" fill="#000060">Computation results</text>
</g>
<g id="clust2" class="cluster">
<title>cluster_1</title>
<polygon fill="none" stroke="black" stroke-dasharray="5,2" points="470.67,-123 470.67,-193 602.05,-193 602.05,-123 470.67,-123"/>
<text text-anchor="middle" x="536.36" y="-181.8" font-family="Helvetica,sans-Serif" font-size="9.00" fill="#000060">Batch processing</text>
</g>
<!-- user -->
<g id="node1" class="node">
<title>user</title>
<polygon fill="none" stroke="black" points="702.05,-223 648.05,-223 648.05,-187 702.05,-187 702.05,-223"/>
<text text-anchor="middle" x="675.05" y="-202.5" font-family="Helvetica,sans-Serif" font-size="10.00">User</text>
</g>
<!-- proc_flow -->
<g id="node2" class="node">
<title>proc_flow</title>
<ellipse fill="#eeeeee" stroke="black" cx="159.33" cy="-178" rx="55.17" ry="18"/>
<text text-anchor="middle" x="159.33" y="-175.5" font-family="Helvetica,sans-Serif" font-size="10.00">process data flow</text>
</g>
<!-- proc_flow&#45;&gt;user -->
<g id="edge4" class="edge">
<title>proc_flow&#45;&gt;user</title>
<path fill="none" stroke="#ff4040" stroke-dasharray="5,2" d="M190.22,-193.09C216.06,-205.24 254.8,-221.36 290.67,-228 416.64,-251.33 569.48,-226.69 637.89,-212.94"/>
<polygon fill="#ff4040" stroke="#ff4040" points="638.65,-216.35 647.75,-210.91 637.25,-209.5 638.65,-216.35"/>
<text text-anchor="middle" x="436.67" y="-240" font-family="Times,serif" font-style="italic" font-size="10.00" fill="#ff4040">alert</text>
</g>
<!-- db_aggr -->
<g id="node4" class="node">
<title>db_aggr</title>
<polygon fill="black" stroke="transparent" points="308.67,-187 308.67,-191 384.67,-191 384.67,-187 308.67,-187"/>
<text text-anchor="start" x="310.67" y="-175" font-family="Helvetica,sans-Serif" font-size="10.00">Aggregated data</text>
<polygon fill="black" stroke="transparent" points="308.67,-164 308.67,-168 384.67,-168 384.67,-164 308.67,-164"/>
</g>
<!-- proc_flow&#45;&gt;db_aggr -->
<g id="edge2" class="edge">
<title>proc_flow&#45;&gt;db_aggr</title>
<path fill="none" stroke="#5050e0" stroke-width="2" d="M214.94,-178C234.8,-178 257.48,-178 278.32,-178"/>
<polygon fill="#5050e0" stroke="#5050e0" stroke-width="2" points="288.36,-181.5 298.36,-178 288.36,-174.5 288.36,-181.5"/>
<polygon fill="#5050e0" stroke="#5050e0" stroke-width="2" points="278.36,-181.5 288.36,-178 278.36,-174.5 278.36,-181.5"/>
</g>
<!-- db_params -->
<g id="node7" class="node">
<title>db_params</title>
<polygon fill="black" stroke="transparent" points="319.67,-73 319.67,-77 374.67,-77 374.67,-73 319.67,-73"/>
<text text-anchor="start" x="321.67" y="-61" font-family="Helvetica,sans-Serif" font-size="10.00">Parameters</text>
<polygon fill="black" stroke="transparent" points="319.67,-50 319.67,-54 374.67,-54 374.67,-50 319.67,-50"/>
</g>
<!-- proc_flow&#45;&gt;db_params -->
<g id="edge3" class="edge">
<title>proc_flow&#45;&gt;db_params</title>
<path fill="none" stroke="#60b060" stroke-opacity="0.376471" d="M192.3,-155.96C218.37,-138.28 256.36,-113.18 290.67,-93 296.53,-89.55 302.84,-86.05 309.02,-82.72"/>
<polygon fill="#60b060" fill-opacity="0.376471" stroke="#60b060" stroke-opacity="0.376471" points="190.23,-153.14 183.94,-161.66 194.17,-158.92 190.23,-153.14"/>
<text text-anchor="middle" x="256.67" y="-132" font-family="Times,serif" font-style="italic" font-size="10.00" fill="#60b060">alert thresh</text>
</g>
<!-- ext -->
<g id="node3" class="node">
<title>ext</title>
<polygon fill="none" stroke="black" points="719.05,-111 631.05,-111 631.05,-75 719.05,-75 719.05,-111"/>
<text text-anchor="middle" x="675.05" y="-90.5" font-family="Helvetica,sans-Serif" font-size="10.00">External system</text>
</g>
<!-- forecast -->
<g id="node8" class="node">
<title>forecast</title>
<ellipse fill="#eeeeee" stroke="black" cx="536.36" cy="-149" rx="57.88" ry="18"/>
<text text-anchor="middle" x="536.36" y="-146.5" font-family="Helvetica,sans-Serif" font-size="10.00">compute forecasts</text>
</g>
<!-- db_aggr&#45;&gt;forecast -->
<g id="edge5" class="edge">
<title>db_aggr&#45;&gt;forecast</title>
<path fill="none" stroke="#5050e0" stroke-width="2" d="M394.89,-186.87C415.33,-189.19 439.4,-189.86 460.67,-185 474.31,-181.88 488.36,-175.94 500.55,-169.77"/>
<polygon fill="#5050e0" stroke="#5050e0" stroke-width="2" points="502.26,-172.82 509.46,-165.05 498.99,-166.64 502.26,-172.82"/>
</g>
<!-- interact -->
<g id="node9" class="node">
<title>interact</title>
<ellipse fill="#eeeeee" stroke="black" cx="536.36" cy="-93" rx="57.88" ry="18"/>
<text text-anchor="middle" x="536.36" y="-90.5" font-family="Helvetica,sans-Serif" font-size="10.00">handle interactions</text>
</g>
<!-- db_aggr&#45;&gt;interact -->
<g id="edge8" class="edge">
<title>db_aggr&#45;&gt;interact</title>
<path fill="none" stroke="#5050e0" stroke-width="2" d="M394.85,-164.12C416.2,-156.45 441,-145.5 460.67,-131 466.26,-126.88 465.06,-123.09 470.67,-119 475.37,-115.58 480.59,-112.52 485.96,-109.82"/>
<polygon fill="#5050e0" stroke="#5050e0" stroke-width="2" points="487.47,-112.98 495.08,-105.6 484.53,-106.62 487.47,-112.98"/>
</g>
<!-- db_fcast -->
<g id="node5" class="node">
<title>db_fcast</title>
<polygon fill="black" stroke="transparent" points="322.67,-130 322.67,-134 370.67,-134 370.67,-130 322.67,-130"/>
<text text-anchor="start" x="324.67" y="-118" font-family="Helvetica,sans-Serif" font-size="10.00">Forecasts</text>
<polygon fill="black" stroke="transparent" points="322.67,-107 322.67,-111 370.67,-111 370.67,-107 322.67,-107"/>
</g>
<!-- db_fcast&#45;&gt;forecast -->
<g id="edge7" class="edge">
<title>db_fcast&#45;&gt;forecast</title>
<path fill="none" stroke="maroon" stroke-width="2" d="M391.21,-131C398.36,-132.46 405.7,-133.86 412.67,-135 434.88,-138.65 459.51,-141.66 480.84,-143.94"/>
<polygon fill="maroon" stroke="maroon" stroke-width="2" points="391.46,-127.47 380.95,-128.83 390.01,-134.32 391.46,-127.47"/>
</g>
<!-- db_fcast&#45;&gt;interact -->
<g id="edge9" class="edge">
<title>db_fcast&#45;&gt;interact</title>
<path fill="none" stroke="maroon" stroke-width="2" d="M380.84,-111.19C390.98,-108.5 402.21,-105.82 412.67,-104 430.89,-100.82 450.8,-98.54 469.18,-96.9"/>
<polygon fill="maroon" stroke="maroon" stroke-width="2" points="469.54,-100.39 479.22,-96.06 468.96,-93.41 469.54,-100.39"/>
</g>
<!-- db_raw -->
<g id="node6" class="node">
<title>db_raw</title>
<polygon fill="black" stroke="transparent" points="10.5,-187 10.5,-191 57.5,-191 57.5,-187 10.5,-187"/>
<text text-anchor="start" x="12.5" y="-175" font-family="Helvetica,sans-Serif" font-size="10.00">Raw data</text>
<polygon fill="black" stroke="transparent" points="10.5,-164 10.5,-168 57.5,-168 57.5,-164 10.5,-164"/>
</g>
<!-- db_raw&#45;&gt;proc_flow -->
<g id="edge1" class="edge">
<title>db_raw&#45;&gt;proc_flow</title>
<path fill="none" stroke="#5050e0" stroke-width="2" d="M67.04,-178C72.34,-178 78.03,-178 83.86,-178"/>
<polygon fill="#5050e0" stroke="#5050e0" stroke-width="2" points="93.99,-181.5 103.99,-178 93.99,-174.5 93.99,-181.5"/>
<polygon fill="#5050e0" stroke="#5050e0" stroke-width="2" points="83.99,-181.5 93.99,-178 83.99,-174.5 83.99,-181.5"/>
</g>
<!-- db_params&#45;&gt;forecast -->
<g id="edge6" class="edge">
<title>db_params&#45;&gt;forecast</title>
<path fill="none" stroke="#60b060" stroke-opacity="0.376471" d="M384.3,-82.43C393.52,-86.96 403.42,-91.73 412.67,-96 438.68,-108.01 468.15,-120.77 491.68,-130.75"/>
<polygon fill="#60b060" fill-opacity="0.376471" stroke="#60b060" stroke-opacity="0.376471" points="490.47,-134.04 501.04,-134.72 493.2,-127.6 490.47,-134.04"/>
<text text-anchor="middle" x="436.67" y="-119" font-family="Times,serif" font-style="italic" font-size="10.00" fill="#60b060">horizon</text>
</g>
<!-- db_params&#45;&gt;interact -->
<g id="edge12" class="edge">
<title>db_params&#45;&gt;interact</title>
<path fill="none" stroke="#60b060" stroke-opacity="0.376471" d="M394.39,-71.22C421.71,-75.44 456.22,-80.77 484.26,-85.11"/>
<polygon fill="#60b060" fill-opacity="0.376471" stroke="#60b060" stroke-opacity="0.376471" points="394.72,-67.73 384.3,-69.66 393.65,-74.65 394.72,-67.73"/>
<text text-anchor="middle" x="436.67" y="-84" font-family="Times,serif" font-style="italic" font-size="10.00" fill="#60b060">alert thresh</text>
</g>
<!-- interact&#45;&gt;user -->
<g id="edge10" class="edge">
<title>interact&#45;&gt;user</title>
<path fill="none" stroke="#303030" stroke-width="2" d="M577.63,-105.61C586.11,-109.23 594.7,-113.67 602.05,-119 624.36,-135.2 644.01,-159.78 657.12,-178.52"/>
<polygon fill="#303030" stroke="#303030" stroke-width="2" points="654.33,-180.63 662.85,-186.93 660.11,-176.7 654.33,-180.63"/>
</g>
<!-- interact&#45;&gt;ext -->
<g id="edge11" class="edge">
<title>interact&#45;&gt;ext</title>
<path fill="none" stroke="#303030" stroke-width="2" d="M594.14,-93C603,-93 612.12,-93 620.89,-93"/>
<polygon fill="#303030" stroke="#303030" stroke-width="2" points="620.99,-96.5 630.99,-93 620.99,-89.5 620.99,-96.5"/>
</g>
</g>
</svg>
