<?xml version="1.0" encoding="UTF-8" standalone="no"?>
<!DOCTYPE svg PUBLIC "-//W3C//DTD SVG 1.1//EN"
 "http://www.w3.org/Graphics/SVG/1.1/DTD/svg11.dtd">
<!-- Generated by graphviz version 2.43.0 (0)
 -->
<!-- Title: D Pages: 1 -->
<svg width="502pt" height="229pt"
 viewBox="0.00 0.00 502.05 229.00" xmlns="http://www.w3.org/2000/svg" xmlns:xlink="http://www.w3.org/1999/xlink">
<g id="graph0" class="graph" transform="scale(1 1) rotate(0) translate(4 225)">
<title>D</title>
<polygon fill="white" stroke="transparent" points="-4,4 -4,-225 498.05,-225 498.05,4 -4,4"/>
<text text-anchor="middle" x="247.02" y="-6.8" font-family="Helvetica,sans-Serif" font-size="9.00" fill="#000060">&#45; img/filter&#45;replace &#45;</text>
<g id="clust1" class="cluster">
<title>cluster_0</title>
<polygon fill="none" stroke="black" stroke-dasharray="5,2" points="186.67,-52 186.67,-126 284.67,-126 284.67,-52 186.67,-52"/>
<text text-anchor="middle" x="235.67" y="-114.8" font-family="Helvetica,sans-Serif" font-size="9.00" fill="#000060">Computation results</text>
</g>
<g id="clust2" class="cluster">
<title>cluster_1</title>
<polygon fill="none" stroke="black" stroke-dasharray="5,2" points="354.67,-89 354.67,-213 486.05,-213 486.05,-89 354.67,-89"/>
<text text-anchor="middle" x="420.36" y="-201.8" font-family="Helvetica,sans-Serif" font-size="9.00" fill="#000060">Batch processing</text>
</g>
<!-- proc_flow -->
<g id="node1" class="node">
<title>proc_flow</title>
<ellipse fill="#eeeeee" stroke="black" cx="55.33" cy="-80" rx="55.17" ry="18"/>
<text text-anchor="middle" x="55.33" y="-77.5" font-family="Helvetica,sans-Serif" font-size="10.00">process data flow</text>
</g>
<!-- db_all -->
<g id="node5" class="node">
<title>db_all</title>
<polygon fill="black" stroke="transparent" points="216.67,-89 216.67,-93 254.67,-93 254.67,-89 216.67,-89"/>
<text text-anchor="start" x="218.67" y="-77" font-family="Helvetica,sans-Serif" font-size="10.00">All DBs</text>
<polygon fill="black" stroke="transparent" points="216.67,-66 216.67,-70 254.67,-70 254.67,-66 216.67,-66"/>
</g>
<!-- proc_flow&#45;&gt;db_all -->
<g id="edge1" class="edge">
<title>proc_flow&#45;&gt;db_all</title>
<path fill="none" stroke="#5050e0" stroke-width="2" d="M110.81,-80C134.84,-80 162.86,-80 186.16,-80"/>
<polygon fill="#5050e0" stroke="#5050e0" stroke-width="2" points="196.37,-83.5 206.37,-80 196.37,-76.5 196.37,-83.5"/>
<polygon fill="#5050e0" stroke="#5050e0" stroke-width="2" points="186.37,-83.5 196.37,-80 186.37,-76.5 186.37,-83.5"/>
</g>
<!-- proc_flow&#45;&gt;db_all -->
<g id="edge2" class="edge">
<title>proc_flow&#45;&gt;db_all</title>
<path fill="none" stroke="#60b060" stroke-opacity="0.376471" d="M111.57,-68.19C117.32,-67.29 123.1,-66.53 128.67,-66 149.9,-63.96 155.48,-63.48 176.67,-66 186.54,-67.17 197.17,-69.44 206.59,-71.81"/>
<polygon fill="#60b060" fill-opacity="0.376471" stroke="#60b060" stroke-opacity="0.376471" points="110.57,-64.81 101.29,-69.92 111.73,-71.71 110.57,-64.81"/>
<text text-anchor="middle" x="152.67" y="-69" font-family="Times,serif" font-style="italic" font-size="10.00" fill="#60b060">alert thresh</text>
</g>
<!-- optim -->
<g id="node2" class="node">
<title>optim</title>
<ellipse fill="#eeeeee" stroke="black" cx="420.36" cy="-169" rx="52.28" ry="18"/>
<text text-anchor="middle" x="420.36" y="-166.5" font-family="Helvetica,sans-Serif" font-size="10.00">optimize params</text>
</g>
<!-- forecast -->
<g id="node3" class="node">
<title>forecast</title>
<ellipse fill="#eeeeee" stroke="black" cx="420.36" cy="-115" rx="57.88" ry="18"/>
<text text-anchor="middle" x="420.36" y="-112.5" font-family="Helvetica,sans-Serif" font-size="10.00">compute forecasts</text>
</g>
<!-- interact -->
<g id="node4" class="node">
<title>interact</title>
<ellipse fill="#eeeeee" stroke="black" cx="420.36" cy="-46" rx="57.88" ry="18"/>
<text text-anchor="middle" x="420.36" y="-43.5" font-family="Helvetica,sans-Serif" font-size="10.00">handle interactions</text>
</g>
<!-- db_all&#45;&gt;optim -->
<g id="edge3" class="edge">
<title>db_all&#45;&gt;optim</title>
<path fill="none" stroke="#60b060" stroke-opacity="0.376471" d="M256.56,-107.98C266.64,-120.19 279.88,-133.61 294.67,-142 317.21,-154.79 345.19,-161.52 368.93,-165.07"/>
<polygon fill="#60b060" fill-opacity="0.376471" stroke="#60b060" stroke-opacity="0.376471" points="259.04,-105.48 250.1,-99.79 253.54,-109.81 259.04,-105.48"/>
<text text-anchor="middle" x="319.67" y="-163" font-family="Times,serif" font-style="italic" font-size="10.00" fill="#60b060">new params</text>
</g>
<!-- db_all&#45;&gt;forecast -->
<g id="edge4" class="edge">
<title>db_all&#45;&gt;forecast</title>
<path fill="none" stroke="#5050e0" stroke-width="2" d="M255.36,-99.71C265.87,-109.33 279.84,-119.92 294.67,-125 317.39,-132.78 343.74,-131.97 366.35,-128.55"/>
<polygon fill="#5050e0" stroke="#5050e0" stroke-width="2" points="367.19,-131.95 376.45,-126.81 366,-125.06 367.19,-131.95"/>
</g>
<!-- db_all&#45;&gt;forecast -->
<g id="edge5" class="edge">
<title>db_all&#45;&gt;forecast</title>
<path fill="none" stroke="#60b060" stroke-opacity="0.376471" d="M264.81,-85.39C290.28,-90.27 328.61,-97.61 360.72,-103.77"/>
<polygon fill="#60b060" fill-opacity="0.376471" stroke="#60b060" stroke-opacity="0.376471" points="360.42,-107.27 370.9,-105.72 361.74,-100.4 360.42,-107.27"/>
<text text-anchor="middle" x="319.67" y="-103" font-family="Times,serif" font-style="italic" font-size="10.00" fill="#60b060">horizon</text>
</g>
<!-- db_all&#45;&gt;forecast -->
<g id="edge6" class="edge">
<title>db_all&#45;&gt;forecast</title>
<path fill="none" stroke="maroon" stroke-width="2" d="M274.86,-83.58C295.62,-85.87 321.69,-89.31 344.67,-94 355.89,-96.29 367.89,-99.38 378.92,-102.48"/>
<polygon fill="maroon" stroke="maroon" stroke-width="2" points="275.14,-80.09 264.82,-82.52 274.4,-87.05 275.14,-80.09"/>
</g>
<!-- db_all&#45;&gt;interact -->
<g id="edge7" class="edge">
<title>db_all&#45;&gt;interact</title>
<path fill="none" stroke="#5050e0" stroke-width="2" d="M264.69,-66.15C274.2,-63.85 284.9,-61.83 294.67,-60 313.56,-56.47 334.07,-52.67 352.89,-49.55"/>
<polygon fill="#5050e0" stroke="#5050e0" stroke-width="2" points="353.55,-52.99 362.86,-47.95 352.43,-46.08 353.55,-52.99"/>
</g>
<!-- db_all&#45;&gt;interact -->
<g id="edge8" class="edge">
<title>db_all&#45;&gt;interact</title>
<path fill="none" stroke="maroon" stroke-width="2" d="M264.69,-83.17C274.2,-81.85 284.9,-79.83 294.67,-78 320.98,-73.08 350.44,-67.64 374.11,-62.32"/>
<polygon fill="maroon" stroke="maroon" stroke-width="2" points="374.93,-65.73 383.88,-60.06 373.34,-58.91 374.93,-65.73"/>
</g>
<!-- db_all&#45;&gt;interact -->
<g id="edge9" class="edge">
<title>db_all&#45;&gt;interact</title>
<path fill="none" stroke="#60b060" stroke-opacity="0.376471" d="M272.11,-55.32C279.28,-51.47 286.99,-48.09 294.67,-46 317.54,-39.79 343.66,-38.89 366.07,-39.9"/>
<polygon fill="#60b060" fill-opacity="0.376471" stroke="#60b060" stroke-opacity="0.376471" points="270.26,-52.35 263.35,-60.38 273.76,-58.41 270.26,-52.35"/>
<text text-anchor="middle" x="319.67" y="-49" font-family="Times,serif" font-style="italic" font-size="10.00" fill="#60b060">alert thresh</text>
</g>
</g>
</svg>
