<?xml version="1.0" encoding="UTF-8" standalone="no"?>
<!DOCTYPE svg PUBLIC "-//W3C//DTD SVG 1.1//EN"
 "http://www.w3.org/Graphics/SVG/1.1/DTD/svg11.dtd">
<!-- Generated by graphviz version 2.43.0 (0)
 -->
<!-- Title: D Pages: 1 -->
<svg width="418pt" height="75pt"
 viewBox="0.00 0.00 417.67 75.00" xmlns="http://www.w3.org/2000/svg" xmlns:xlink="http://www.w3.org/1999/xlink">
<g id="graph0" class="graph" transform="scale(1 1) rotate(0) translate(4 71)">
<title>D</title>
<polygon fill="white" stroke="transparent" points="-4,4 -4,-71 413.67,-71 413.67,4 -4,4"/>
<text text-anchor="middle" x="204.83" y="-6.8" font-family="Helvetica,sans-Serif" font-size="9.00" fill="#000060">&#45; img/filter&#45;only&#45;left &#45;</text>
<!-- ds -->
<g id="node1" class="node">
<title>ds</title>
<polygon fill="none" stroke="black" points="70,-65.5 0,-65.5 0,-29.5 70,-29.5 70,-65.5"/>
<text text-anchor="middle" x="35" y="-45" font-family="Helvetica,sans-Serif" font-size="10.00">Data source</text>
</g>
<!-- etl -->
<g id="node2" class="node">
<title>etl</title>
<ellipse fill="#eeeeee" stroke="black" cx="133" cy="-47.5" rx="27" ry="18"/>
<text text-anchor="middle" x="133" y="-45" font-family="Helvetica,sans-Serif" font-size="10.00">ETL</text>
</g>
<!-- ds&#45;&gt;etl -->
<g id="edge1" class="edge">
<title>ds&#45;&gt;etl</title>
<path fill="none" stroke="#5050e0" stroke-width="2" d="M70.12,-47.5C75.16,-47.5 80.44,-47.5 85.68,-47.5"/>
<polygon fill="#5050e0" stroke="#5050e0" stroke-width="2" points="95.84,-51 105.84,-47.5 95.84,-44 95.84,-51"/>
<polygon fill="#5050e0" stroke="#5050e0" stroke-width="2" points="85.84,-51 95.84,-47.5 85.84,-44 85.84,-51"/>
</g>
<!-- db_raw -->
<g id="node4" class="node">
<title>db_raw</title>
<polygon fill="black" stroke="transparent" points="206.5,-56.5 206.5,-60.5 253.5,-60.5 253.5,-56.5 206.5,-56.5"/>
<text text-anchor="start" x="208.5" y="-44.5" font-family="Helvetica,sans-Serif" font-size="10.00">Raw data</text>
<polygon fill="black" stroke="transparent" points="206.5,-33.5 206.5,-37.5 253.5,-37.5 253.5,-33.5 206.5,-33.5"/>
</g>
<!-- etl&#45;&gt;db_raw -->
<g id="edge2" class="edge">
<title>etl&#45;&gt;db_raw</title>
<path fill="none" stroke="#5050e0" stroke-width="2" d="M160.07,-47.5C164.99,-47.5 170.29,-47.5 175.68,-47.5"/>
<polygon fill="#5050e0" stroke="#5050e0" stroke-width="2" points="185.76,-51 195.76,-47.5 185.76,-44 185.76,-51"/>
<polygon fill="#5050e0" stroke="#5050e0" stroke-width="2" points="175.76,-51 185.76,-47.5 175.76,-44 175.76,-51"/>
</g>
<!-- proc_flow -->
<g id="node3" class="node">
<title>proc_flow</title>
<ellipse fill="#eeeeee" stroke="black" cx="354.33" cy="-47.5" rx="55.17" ry="18"/>
<text text-anchor="middle" x="354.33" y="-45" font-family="Helvetica,sans-Serif" font-size="10.00">process data flow</text>
</g>
<!-- db_raw&#45;&gt;proc_flow -->
<g id="edge3" class="edge">
<title>db_raw&#45;&gt;proc_flow</title>
<path fill="none" stroke="#5050e0" stroke-width="2" d="M263.09,-47.5C267.97,-47.5 273.16,-47.5 278.49,-47.5"/>
<polygon fill="#5050e0" stroke="#5050e0" stroke-width="2" points="288.73,-51 298.73,-47.5 288.73,-44 288.73,-51"/>
<polygon fill="#5050e0" stroke="#5050e0" stroke-width="2" points="278.73,-51 288.73,-47.5 278.73,-44 278.73,-51"/>
</g>
</g>
</svg>
