<?xml version="1.0" encoding="UTF-8" standalone="no"?>
<!DOCTYPE svg PUBLIC "-//W3C//DTD SVG 1.1//EN"
 "http://www.w3.org/Graphics/SVG/1.1/DTD/svg11.dtd">
<!-- Generated by graphviz version 2.43.0 (0)
 -->
<!-- Title: D Pages: 1 -->
<svg width="559pt" height="229pt"
 viewBox="0.00 0.00 558.83 229.00" xmlns="http://www.w3.org/2000/svg" xmlns:xlink="http://www.w3.org/1999/xlink">
<g id="graph0" class="graph" transform="scale(1 1) rotate(0) translate(4 225)">
<title>D</title>
<polygon fill="white" stroke="transparent" points="-4,4 -4,-225 554.83,-225 554.83,4 -4,4"/>
<text text-anchor="middle" x="275.41" y="-6.8" font-family="Helvetica,sans-Serif" font-size="9.00" fill="#000060">&#45; img/filter&#45;replace &#45;</text>
<g id="clust1" class="cluster">
<title>cluster_0</title>
<polygon fill="none" stroke="black" stroke-dasharray="5,2" points="208.09,-52 208.09,-126 316.09,-126 316.09,-52 208.09,-52"/>
<text text-anchor="middle" x="262.09" y="-114.8" font-family="Helvetica,sans-Serif" font-size="9.00" fill="#000060">Computation results</text>
</g>
<g id="clust2" class="cluster">
<title>cluster_1</title>
<polygon fill="none" stroke="black" stroke-dasharray="5,2" points="400.85,-89 400.85,-213 542.83,-213 542.83,-89 400.85,-89"/>
<text text-anchor="middle" x="471.84" y="-201.8" font-family="Helvetica,sans-Serif" font-size="9.00" fill="#000060">Batch processing</text>
</g>
<!-- proc_flow -->
<g id="node1" class="node">
<title>proc_flow</title>
<ellipse fill="#eeeeee" stroke="black" cx="60.04" cy="-80" rx="60.09" ry="18"/>
<text text-anchor="middle" x="60.04" y="-77.5" font-family="Helvetica,sans-Serif" font-size="10.00">process data flow</text>
</g>
<!-- db_all -->
<g id="node5" class="node">
<title>db_all</title>
<polygon fill="black" stroke="transparent" points="242.09,-89 242.09,-93 282.09,-93 282.09,-89 242.09,-89"/>
<text text-anchor="start" x="244.09" y="-77" font-family="Helvetica,sans-Serif" font-size="10.00">All DBs</text>
<polygon fill="black" stroke="transparent" points="242.09,-66 242.09,-70 282.09,-70 282.09,-66 242.09,-66"/>
</g>
<!-- proc_flow&#45;&gt;db_all -->
<g id="edge1" class="edge">
<title>proc_flow&#45;&gt;db_all</title>
<path fill="none" stroke="#5050e0" stroke-width="2" d="M120.25,-80C149.49,-80 184.34,-80 212.05,-80"/>
<polygon fill="#5050e0" stroke="#5050e0" stroke-width="2" points="222.08,-83.5 232.08,-80 222.08,-76.5 222.08,-83.5"/>
<polygon fill="#5050e0" stroke="#5050e0" stroke-width="2" points="212.08,-83.5 222.08,-80 212.08,-76.5 212.08,-83.5"/>
</g>
<!-- proc_flow&#45;&gt;db_all -->
<g id="edge2" class="edge">
<title>proc_flow&#45;&gt;db_all</title>
<path fill="none" stroke="#60b060" stroke-opacity="0.376471" d="M119.97,-68.18C126.07,-67.29 132.19,-66.53 138.09,-66 164.65,-63.61 171.58,-63.09 198.09,-66 209.22,-67.22 221.27,-69.63 231.82,-72.1"/>
<polygon fill="#60b060" fill-opacity="0.376471" stroke="#60b060" stroke-opacity="0.376471" points="119.11,-64.77 109.77,-69.78 120.19,-71.68 119.11,-64.77"/>
<text text-anchor="middle" x="168.09" y="-69" font-family="Times,serif" font-style="italic" font-size="10.00" fill="#60b060">alert thresh</text>
</g>
<!-- optim -->
<g id="node2" class="node">
<title>optim</title>
<ellipse fill="#eeeeee" stroke="black" cx="471.84" cy="-169" rx="58.06" ry="18"/>
<text text-anchor="middle" x="471.84" y="-166.5" font-family="Helvetica,sans-Serif" font-size="10.00">optimize params</text>
</g>
<!-- forecast -->
<g id="node3" class="node">
<title>forecast</title>
<ellipse fill="#eeeeee" stroke="black" cx="471.84" cy="-115" rx="62.97" ry="18"/>
<text text-anchor="middle" x="471.84" y="-112.5" font-family="Helvetica,sans-Serif" font-size="10.00">compute forecasts</text>
</g>
<!-- interact -->
<g id="node4" class="node">
<title>interact</title>
<ellipse fill="#eeeeee" stroke="black" cx="471.84" cy="-46" rx="64.51" ry="18"/>
<text text-anchor="middle" x="471.84" y="-43.5" font-family="Helvetica,sans-Serif" font-size="10.00">handle interactions</text>
</g>
<!-- db_all&#45;&gt;optim -->
<g id="edge3" class="edge">
<title>db_all&#45;&gt;optim</title>
<path fill="none" stroke="#60b060" stroke-opacity="0.376471" d="M284.47,-107.54C295.57,-119.96 310.13,-133.67 326.09,-142 353.06,-156.07 386.23,-162.9 414.02,-166.17"/>
<polygon fill="#60b060" fill-opacity="0.376471" stroke="#60b060" stroke-opacity="0.376471" points="286.87,-104.96 277.7,-99.64 281.55,-109.51 286.87,-104.96"/>
<text text-anchor="middle" x="357.59" y="-164" font-family="Times,serif" font-style="italic" font-size="10.00" fill="#60b060">new params</text>
</g>
<!-- db_all&#45;&gt;forecast -->
<g id="edge4" class="edge">
<title>db_all&#45;&gt;forecast</title>
<path fill="none" stroke="#5050e0" stroke-width="2" d="M283.68,-99.73C295.18,-109.37 310.34,-119.95 326.09,-125 354.17,-134 386.83,-132.68 414.01,-128.59"/>
<polygon fill="#5050e0" stroke="#5050e0" stroke-width="2" points="414.85,-132 424.14,-126.91 413.7,-125.1 414.85,-132"/>
</g>
<!-- db_all&#45;&gt;forecast -->
<g id="edge5" class="edge">
<title>db_all&#45;&gt;forecast</title>
<path fill="none" stroke="#60b060" stroke-opacity="0.376471" d="M292.25,-85.15C302.89,-87.01 315.03,-89.12 326.09,-91 352.46,-95.49 381.56,-100.33 406.71,-104.49"/>
<polygon fill="#60b060" fill-opacity="0.376471" stroke="#60b060" stroke-opacity="0.376471" points="406.42,-107.99 416.86,-106.16 407.56,-101.08 406.42,-107.99"/>
<text text-anchor="middle" x="357.59" y="-104" font-family="Times,serif" font-style="italic" font-size="10.00" fill="#60b060">horizon</text>
</g>
<!-- db_all&#45;&gt;forecast -->
<g id="edge6" class="edge">
<title>db_all&#45;&gt;forecast</title>
<path fill="none" stroke="maroon" stroke-width="2" d="M302.46,-82.94C327.41,-85.16 360.29,-88.73 389.09,-94 401.34,-96.24 414.47,-99.31 426.54,-102.41"/>
<polygon fill="maroon" stroke="maroon" stroke-width="2" points="302.54,-79.43 292.28,-82.07 301.95,-86.41 302.54,-79.43"/>
</g>
<!-- db_all&#45;&gt;interact -->
<g id="edge7" class="edge">
<title>db_all&#45;&gt;interact</title>
<path fill="none" stroke="#5050e0" stroke-width="2" d="M292.24,-66.37C302.89,-63.95 315.03,-61.84 326.09,-60 349.15,-56.15 374.31,-52.11 397.09,-48.91"/>
<polygon fill="#5050e0" stroke="#5050e0" stroke-width="2" points="397.6,-52.37 407.03,-47.55 396.65,-45.44 397.6,-52.37"/>
</g>
<!-- db_all&#45;&gt;interact -->
<g id="edge8" class="edge">
<title>db_all&#45;&gt;interact</title>
<path fill="none" stroke="maroon" stroke-width="2" d="M292.24,-83.26C302.89,-81.95 315.03,-79.84 326.09,-78 357.38,-72.78 392.53,-67.19 420.36,-61.79"/>
<polygon fill="maroon" stroke="maroon" stroke-width="2" points="421.14,-65.2 430.26,-59.81 419.76,-58.34 421.14,-65.2"/>
</g>
<!-- db_all&#45;&gt;interact -->
<g id="edge9" class="edge">
<title>db_all&#45;&gt;interact</title>
<path fill="none" stroke="#60b060" stroke-opacity="0.376471" d="M300.2,-55.37C308.41,-51.09 317.29,-47.28 326.09,-45 353.82,-37.81 385.56,-37.23 412.24,-38.78"/>
<polygon fill="#60b060" fill-opacity="0.376471" stroke="#60b060" stroke-opacity="0.376471" points="298.3,-52.42 291.27,-60.35 301.7,-58.54 298.3,-52.42"/>
<text text-anchor="middle" x="357.59" y="-48" font-family="Times,serif" font-style="italic" font-size="10.00" fill="#60b060">alert thresh</text>
</g>
</g>
</svg>
