<?xml version="1.0" encoding="UTF-8" standalone="no"?>
<!DOCTYPE svg PUBLIC "-//W3C//DTD SVG 1.1//EN"
 "http://www.w3.org/Graphics/SVG/1.1/DTD/svg11.dtd">
<!-- Generated by graphviz version 2.43.0 (0)
 -->
<!-- Title: D Pages: 1 -->
<svg width="396pt" height="246pt"
 viewBox="0.00 0.00 396.38 245.50" xmlns="http://www.w3.org/2000/svg" xmlns:xlink="http://www.w3.org/1999/xlink">
<g id="graph0" class="graph" transform="scale(1 1) rotate(0) translate(4 241.5)">
<title>D</title>
<polygon fill="white" stroke="transparent" points="-4,4 -4,-241.5 392.38,-241.5 392.38,4 -4,4"/>
<text text-anchor="middle" x="194.19" y="-6.8" font-family="Helvetica,sans-Serif" font-size="9.00" fill="#000060">&#45; img/filter&#45;only&#45;no&#45;frames &#45;</text>
<!-- etl -->
<g id="node1" class="node">
<title>etl</title>
<ellipse fill="#eeeeee" stroke="black" cx="48" cy="-47.5" rx="27" ry="18"/>
<text text-anchor="middle" x="48" y="-45" font-family="Helvetica,sans-Serif" font-size="10.00">ETL</text>
</g>
<!-- db_raw -->
<g id="node4" class="node">
<title>db_raw</title>
<polygon fill="black" stroke="transparent" points="216.69,-56.5 216.69,-60.5 263.69,-60.5 263.69,-56.5 216.69,-56.5"/>
<text text-anchor="start" x="218.69" y="-44.5" font-family="Helvetica,sans-Serif" font-size="10.00">Raw data</text>
<polygon fill="black" stroke="transparent" points="216.69,-33.5 216.69,-37.5 263.69,-37.5 263.69,-33.5 216.69,-33.5"/>
</g>
<!-- etl&#45;&gt;db_raw -->
<g id="edge1" class="edge">
<title>etl&#45;&gt;db_raw</title>
<path fill="none" stroke="#5050e0" stroke-width="2" d="M75.38,-47.5C103.9,-47.5 150.12,-47.5 186.12,-47.5"/>
<polygon fill="#5050e0" stroke="#5050e0" stroke-width="2" points="196.19,-51 206.19,-47.5 196.19,-44 196.19,-51"/>
<polygon fill="#5050e0" stroke="#5050e0" stroke-width="2" points="186.19,-51 196.19,-47.5 186.19,-44 186.19,-51"/>
</g>
<!-- user -->
<g id="node2" class="node">
<title>user</title>
<polygon fill="none" stroke="black" points="388.38,-178.5 334.38,-178.5 334.38,-142.5 388.38,-142.5 388.38,-178.5"/>
<text text-anchor="middle" x="361.38" y="-158" font-family="Helvetica,sans-Serif" font-size="10.00">User</text>
</g>
<!-- db_aggr -->
<g id="node3" class="node">
<title>db_aggr</title>
<polygon fill="black" stroke="transparent" points="10,-218.5 10,-222.5 86,-222.5 86,-218.5 10,-218.5"/>
<text text-anchor="start" x="12" y="-206.5" font-family="Helvetica,sans-Serif" font-size="10.00">Aggregated data</text>
<polygon fill="black" stroke="transparent" points="10,-195.5 10,-199.5 86,-199.5 86,-195.5 10,-195.5"/>
</g>
<!-- forecast -->
<g id="node7" class="node">
<title>forecast</title>
<ellipse fill="#eeeeee" stroke="black" cx="239.69" cy="-219.5" rx="57.88" ry="18"/>
<text text-anchor="middle" x="239.69" y="-217" font-family="Helvetica,sans-Serif" font-size="10.00">compute forecasts</text>
</g>
<!-- db_aggr&#45;&gt;forecast -->
<g id="edge3" class="edge">
<title>db_aggr&#45;&gt;forecast</title>
<path fill="none" stroke="#5050e0" stroke-width="2" d="M96.38,-212C119.33,-213.21 147.28,-214.68 172.32,-216"/>
<polygon fill="#5050e0" stroke="#5050e0" stroke-width="2" points="172.31,-219.51 182.48,-216.54 172.68,-212.52 172.31,-219.51"/>
</g>
<!-- interact -->
<g id="node8" class="node">
<title>interact</title>
<ellipse fill="#eeeeee" stroke="black" cx="239.69" cy="-160.5" rx="57.88" ry="18"/>
<text text-anchor="middle" x="239.69" y="-158" font-family="Helvetica,sans-Serif" font-size="10.00">handle interactions</text>
</g>
<!-- db_aggr&#45;&gt;interact -->
<g id="edge5" class="edge">
<title>db_aggr&#45;&gt;interact</title>
<path fill="none" stroke="#5050e0" stroke-width="2" d="M96.2,-199.68C117.07,-195.12 141.85,-189.41 164,-183.5 172.2,-181.31 180.85,-178.82 189.24,-176.31"/>
<polygon fill="#5050e0" stroke="#5050e0" stroke-width="2" points="190.38,-179.62 198.93,-173.36 188.34,-172.92 190.38,-179.62"/>
</g>
<!-- db_params -->
<g id="node5" class="node">
<title>db_params</title>
<polygon fill="black" stroke="transparent" points="21,-146.5 21,-150.5 76,-150.5 76,-146.5 21,-146.5"/>
<text text-anchor="start" x="23" y="-134.5" font-family="Helvetica,sans-Serif" font-size="10.00">Parameters</text>
<polygon fill="black" stroke="transparent" points="21,-123.5 21,-127.5 76,-127.5 76,-123.5 21,-123.5"/>
</g>
<!-- optim -->
<g id="node6" class="node">
<title>optim</title>
<ellipse fill="#eeeeee" stroke="black" cx="239.69" cy="-103.5" rx="52.28" ry="18"/>
<text text-anchor="middle" x="239.69" y="-101" font-family="Helvetica,sans-Serif" font-size="10.00">optimize params</text>
</g>
<!-- db_params&#45;&gt;optim -->
<g id="edge2" class="edge">
<title>db_params&#45;&gt;optim</title>
<path fill="none" stroke="#60b060" stroke-opacity="0.376471" d="M95.26,-123.82C101.53,-122.22 107.9,-120.73 114,-119.5 138.5,-114.56 166.02,-110.84 188.97,-108.24"/>
<polygon fill="#60b060" fill-opacity="0.376471" stroke="#60b060" stroke-opacity="0.376471" points="94.33,-120.45 85.56,-126.39 96.12,-127.21 94.33,-120.45"/>
<text text-anchor="middle" x="139" y="-122.5" font-family="Times,serif" font-style="italic" font-size="10.00" fill="#60b060">new params</text>
</g>
<!-- db_params&#45;&gt;forecast -->
<g id="edge4" class="edge">
<title>db_params&#45;&gt;forecast</title>
<path fill="none" stroke="#60b060" stroke-opacity="0.376471" d="M85.57,-153.31C117.03,-166.91 162.44,-186.54 195.64,-200.89"/>
<polygon fill="#60b060" fill-opacity="0.376471" stroke="#60b060" stroke-opacity="0.376471" points="194.52,-204.22 205.09,-204.98 197.3,-197.8 194.52,-204.22"/>
<text text-anchor="middle" x="139" y="-188.5" font-family="Times,serif" font-style="italic" font-size="10.00" fill="#60b060">horizon</text>
</g>
<!-- db_params&#45;&gt;interact -->
<g id="edge7" class="edge">
<title>db_params&#45;&gt;interact</title>
<path fill="none" stroke="#60b060" stroke-opacity="0.376471" d="M95.95,-134.98C116.89,-134.6 141.78,-135.2 164,-138.5 176.17,-140.31 189.12,-143.61 200.77,-147.12"/>
<polygon fill="#60b060" fill-opacity="0.376471" stroke="#60b060" stroke-opacity="0.376471" points="95.62,-131.48 85.72,-135.24 95.8,-138.48 95.62,-131.48"/>
<text text-anchor="middle" x="139" y="-141.5" font-family="Times,serif" font-style="italic" font-size="10.00" fill="#60b060">alert thresh</text>
</g>
<!-- interact&#45;&gt;user -->
<g id="edge6" class="edge">
<title>interact&#45;&gt;user</title>
<path fill="none" stroke="#303030" stroke-width="2" d="M297.38,-160.5C306.47,-160.5 315.66,-160.5 324.1,-160.5"/>
<polygon fill="#303030" stroke="#303030" stroke-width="2" points="324.34,-164 334.34,-160.5 324.34,-157 324.34,-164"/>
</g>
</g>
</svg>
