<?xml version="1.0" encoding="UTF-8" standalone="no"?>
<!DOCTYPE svg PUBLIC "-//W3C//DTD SVG 1.1//EN"
 "http://www.w3.org/Graphics/SVG/1.1/DTD/svg11.dtd">
<!-- Generated by graphviz version 2.43.0 (0)
 -->
<!-- Title: D Pages: 1 -->
<svg width="168pt" height="186pt"
 viewBox="0.00 0.00 168.00 186.00" xmlns="http://www.w3.org/2000/svg" xmlns:xlink="http://www.w3.org/1999/xlink">
<g id="graph0" class="graph" transform="scale(1 1) rotate(0) translate(4 182)">
<title>D</title>
<polygon fill="white" stroke="transparent" points="-4,4 -4,-182 164,-182 164,4 -4,4"/>
<text text-anchor="middle" x="80" y="-6.8" font-family="Helvetica,sans-Serif" font-size="9.00" fill="#000060">&#45; img/frame&#45;blue &#45;</text>
<g id="clust1" class="cluster">
<title>cluster_0</title>
<polygon fill="none" stroke="blue" points="8,-36 8,-170 78,-170 78,-36 8,-36"/>
<text text-anchor="middle" x="43" y="-158.8" font-family="Helvetica,sans-Serif" font-size="9.00" fill="blue">A blue</text>
<text text-anchor="middle" x="43" y="-148.8" font-family="Helvetica,sans-Serif" font-size="9.00" fill="blue">solid frame</text>
</g>
<!-- P1 -->
<g id="node1" class="node">
<title>P1</title>
<ellipse fill="#eeeeee" stroke="black" cx="43" cy="-116" rx="27" ry="18"/>
<text text-anchor="middle" x="43" y="-113.5" font-family="Helvetica,sans-Serif" font-size="10.00">P1</text>
</g>
<!-- P3 -->
<g id="node3" class="node">
<title>P3</title>
<ellipse fill="#eeeeee" stroke="black" cx="133" cy="-89" rx="27" ry="18"/>
<text text-anchor="middle" x="133" y="-86.5" font-family="Helvetica,sans-Serif" font-size="10.00">P3</text>
</g>
<!-- P1&#45;&gt;P3 -->
<g id="edge1" class="edge">
<title>P1&#45;&gt;P3</title>
<path fill="none" stroke="gray" d="M68.05,-108.62C77.44,-105.74 88.36,-102.39 98.5,-99.28"/>
<polygon fill="gray" stroke="gray" points="99.75,-102.55 108.29,-96.28 97.7,-95.86 99.75,-102.55"/>
</g>
<!-- P2 -->
<g id="node2" class="node">
<title>P2</title>
<ellipse fill="#eeeeee" stroke="black" cx="43" cy="-62" rx="27" ry="18"/>
<text text-anchor="middle" x="43" y="-59.5" font-family="Helvetica,sans-Serif" font-size="10.00">P2</text>
</g>
<!-- P3&#45;&gt;P2 -->
<g id="edge2" class="edge">
<title>P3&#45;&gt;P2</title>
<path fill="none" stroke="gray" d="M108.29,-81.72C98.94,-78.86 88.02,-75.51 77.86,-72.39"/>
<polygon fill="gray" stroke="gray" points="78.63,-68.97 68.05,-69.38 76.58,-75.66 78.63,-68.97"/>
</g>
</g>
</svg>
