<?xml version="1.0" encoding="UTF-8" standalone="no"?>
<!DOCTYPE svg PUBLIC "-//W3C//DTD SVG 1.1//EN"
 "http://www.w3.org/Graphics/SVG/1.1/DTD/svg11.dtd">
<!-- Generated by graphviz version 2.43.0 (0)
 -->
<!-- Title: D Pages: 1 -->
<svg width="232pt" height="257pt"
 viewBox="0.00 0.00 231.58 256.50" xmlns="http://www.w3.org/2000/svg" xmlns:xlink="http://www.w3.org/1999/xlink">
<g id="graph0" class="graph" transform="scale(1 1) rotate(0) translate(4 252.5)">
<title>D</title>
<polygon fill="white" stroke="transparent" points="-4,4 -4,-252.5 227.58,-252.5 227.58,4 -4,4"/>
<text text-anchor="middle" x="111.79" y="-6.8" font-family="Helvetica,sans-Serif" font-size="9.00" fill="#000060">&#45; img/items&#45;unlabelled &#45;</text>
<!-- Process -->
<g id="node1" class="node">
<title>Process</title>
<ellipse fill="#eeeeee" stroke="black" cx="31.79" cy="-64.5" rx="31.58" ry="18"/>
<text text-anchor="middle" x="31.79" y="-62" font-family="Helvetica,sans-Serif" font-size="10.00">Process</text>
</g>
<!-- Channel -->
<g id="node4" class="node">
<title>Channel</title>
<polygon fill="black" stroke="transparent" points="159.58,-50.5 159.58,-78.5 163.58,-78.5 163.58,-50.5 159.58,-50.5"/>
<text text-anchor="start" x="141.58" y="-38.5" font-family="Helvetica,sans-Serif" font-size="10.00">Channel</text>
</g>
<!-- Process&#45;&gt;Channel -->
<g id="edge1" class="edge">
<title>Process&#45;&gt;Channel:c</title>
<path fill="none" stroke="gray" d="M63.72,-64.5C91.37,-64.5 130.35,-64.5 149.32,-64.5"/>
<polygon fill="gray" stroke="gray" points="149.53,-68 159.53,-64.5 149.53,-61 149.53,-68"/>
</g>
<!-- Entity -->
<g id="node2" class="node">
<title>Entity</title>
<polygon fill="none" stroke="black" points="58.79,-136.5 4.79,-136.5 4.79,-100.5 58.79,-100.5 58.79,-136.5"/>
<text text-anchor="middle" x="31.79" y="-116" font-family="Helvetica,sans-Serif" font-size="10.00">Entity</text>
</g>
<!-- Store -->
<g id="node3" class="node">
<title>Store</title>
<polygon fill="black" stroke="transparent" points="16.79,-183.5 16.79,-187.5 46.79,-187.5 46.79,-183.5 16.79,-183.5"/>
<text text-anchor="start" x="18.79" y="-171.5" font-family="Helvetica,sans-Serif" font-size="10.00">Store</text>
<polygon fill="black" stroke="transparent" points="16.79,-160.5 16.79,-164.5 46.79,-164.5 46.79,-160.5 16.79,-160.5"/>
</g>
<!-- Point -->
<g id="node5" class="node">
<title>Point</title>
<text text-anchor="middle" x="31.79" y="-228" font-family="Helvetica,sans-Serif" font-size="10.00">Point</text>
</g>
</g>
</svg>
