<?xml version="1.0" encoding="UTF-8" standalone="no"?>
<!DOCTYPE svg PUBLIC "-//W3C//DTD SVG 1.1//EN"
 "http://www.w3.org/Graphics/SVG/1.1/DTD/svg11.dtd">
<!-- Generated by graphviz version 2.43.0 (0)
 -->
<!-- Title: D Pages: 1 -->
<svg width="152pt" height="126pt"
 viewBox="0.00 0.00 152.00 126.00" xmlns="http://www.w3.org/2000/svg" xmlns:xlink="http://www.w3.org/1999/xlink">
<g id="graph0" class="graph" transform="scale(1 1) rotate(0) translate(4 122)">
<title>D</title>
<polygon fill="white" stroke="transparent" points="-4,4 -4,-122 148,-122 148,4 -4,4"/>
<text text-anchor="middle" x="72" y="-6.8" font-family="Helvetica,sans-Serif" font-size="9.00" fill="#000060">&#45; img/neighborhood &#45;</text>
<!-- A -->
<g id="node1" class="node">
<title>A</title>
<ellipse fill="#eeeeee" stroke="black" cx="27" cy="-100" rx="27" ry="18"/>
<text text-anchor="middle" x="27" y="-97.5" font-family="Helvetica,sans-Serif" font-size="10.00">A</text>
</g>
<!-- B -->
<g id="node2" class="node">
<title>B</title>
<ellipse fill="#eeeeee" stroke="black" cx="117" cy="-73" rx="27" ry="18"/>
<text text-anchor="middle" x="117" y="-70.5" font-family="Helvetica,sans-Serif" font-size="10.00">B</text>
</g>
<!-- A&#45;&gt;B -->
<g id="edge1" class="edge">
<title>A&#45;&gt;B</title>
<path fill="none" stroke="gray" d="M52.05,-92.62C61.44,-89.74 72.36,-86.39 82.5,-83.28"/>
<polygon fill="gray" stroke="gray" points="83.75,-86.55 92.29,-80.28 81.7,-79.86 83.75,-86.55"/>
</g>
<!-- C -->
<g id="node3" class="node">
<title>C</title>
<ellipse fill="#eeeeee" stroke="black" cx="27" cy="-46" rx="27" ry="18"/>
<text text-anchor="middle" x="27" y="-43.5" font-family="Helvetica,sans-Serif" font-size="10.00">C</text>
</g>
<!-- C&#45;&gt;B -->
<g id="edge2" class="edge">
<title>C&#45;&gt;B</title>
<path fill="none" stroke="gray" d="M61.86,-56.39C72.02,-59.51 82.94,-62.86 92.29,-65.72"/>
<polygon fill="gray" stroke="gray" points="62.63,-52.97 52.05,-53.38 60.58,-59.66 62.63,-52.97"/>
</g>
</g>
</svg>
