<?xml version="1.0" encoding="UTF-8" standalone="no"?>
<!DOCTYPE svg PUBLIC "-//W3C//DTD SVG 1.1//EN"
 "http://www.w3.org/Graphics/SVG/1.1/DTD/svg11.dtd">
<!-- Generated by graphviz version 2.43.0 (0)
 -->
<!-- Title: D Pages: 1 -->
<svg width="198pt" height="126pt"
 viewBox="0.00 0.00 198.00 126.00" xmlns="http://www.w3.org/2000/svg" xmlns:xlink="http://www.w3.org/1999/xlink">
<g id="graph0" class="graph" transform="scale(1 1) rotate(0) translate(4 122)">
<title>D</title>
<polygon fill="white" stroke="transparent" points="-4,4 -4,-122 194,-122 194,4 -4,4"/>
<text text-anchor="middle" x="95" y="-6.8" font-family="Helvetica,sans-Serif" font-size="9.00" fill="#000060">&#45; img/nested&#45;include &#45;</text>
<!-- P1 -->
<g id="node1" class="node">
<title>P1</title>
<ellipse fill="#eeeeee" stroke="black" cx="27" cy="-100" rx="27" ry="18"/>
<text text-anchor="middle" x="27" y="-97.5" font-family="Helvetica,sans-Serif" font-size="10.00">P1</text>
</g>
<!-- P3 -->
<g id="node3" class="node">
<title>P3</title>
<ellipse fill="#eeeeee" stroke="black" cx="163" cy="-73" rx="27" ry="18"/>
<text text-anchor="middle" x="163" y="-70.5" font-family="Helvetica,sans-Serif" font-size="10.00">P3</text>
</g>
<!-- P1&#45;&gt;P3 -->
<g id="edge1" class="edge">
<title>P1&#45;&gt;P3</title>
<path fill="none" stroke="gray" d="M53.2,-94.92C73.98,-90.74 103.68,-84.75 126.8,-80.09"/>
<polygon fill="gray" stroke="gray" points="127.8,-83.46 136.91,-78.06 126.41,-76.6 127.8,-83.46"/>
<text text-anchor="middle" x="95" y="-93" font-family="Times,serif" font-style="italic" font-size="10.00">connection</text>
</g>
<!-- P2 -->
<g id="node2" class="node">
<title>P2</title>
<ellipse fill="#eeeeee" stroke="black" cx="27" cy="-46" rx="27" ry="18"/>
<text text-anchor="middle" x="27" y="-43.5" font-family="Helvetica,sans-Serif" font-size="10.00">P2</text>
</g>
<!-- P2&#45;&gt;P3 -->
<g id="edge2" class="edge">
<title>P2&#45;&gt;P3</title>
<path fill="none" stroke="gray" d="M53.2,-51.08C73.98,-55.26 103.68,-61.25 126.8,-65.91"/>
<polygon fill="gray" stroke="gray" points="126.41,-69.4 136.91,-67.94 127.8,-62.54 126.41,-69.4"/>
<text text-anchor="middle" x="95" y="-66" font-family="Times,serif" font-style="italic" font-size="10.00">connection</text>
</g>
</g>
</svg>
