<?xml version="1.0" encoding="UTF-8" standalone="no"?>
<!DOCTYPE svg PUBLIC "-//W3C//DTD SVG 1.1//EN"
 "http://www.w3.org/Graphics/SVG/1.1/DTD/svg11.dtd">
<!-- Generated by graphviz version 2.43.0 (0)
 -->
<!-- Title: D Pages: 1 -->
<svg width="303pt" height="47pt"
 viewBox="0.00 0.00 303.00 47.00" xmlns="http://www.w3.org/2000/svg" xmlns:xlink="http://www.w3.org/1999/xlink">
<g id="graph0" class="graph" transform="scale(1 1) rotate(0) translate(4 43)">
<title>D</title>
<polygon fill="white" stroke="transparent" points="-4,4 -4,-43 299,-43 299,4 -4,4"/>
<!-- User -->
<g id="node1" class="node">
<title>User</title>
<polygon fill="none" stroke="black" points="54,-37.5 0,-37.5 0,-1.5 54,-1.5 54,-37.5"/>
<text text-anchor="middle" x="27" y="-17" font-family="Helvetica,sans-Serif" font-size="10.00">User</text>
</g>
<!-- App -->
<g id="node2" class="node">
<title>App</title>
<ellipse fill="#eeeeee" stroke="black" cx="154" cy="-19.5" rx="27" ry="18"/>
<text text-anchor="middle" x="154" y="-17" font-family="Helvetica,sans-Serif" font-size="10.00">App</text>
</g>
<!-- User&#45;&gt;App -->
<g id="edge1" class="edge">
<title>User&#45;&gt;App</title>
<path fill="none" stroke="gray" d="M54.2,-19.5C72.37,-19.5 96.8,-19.5 116.82,-19.5"/>
<polygon fill="gray" stroke="gray" points="116.83,-23 126.83,-19.5 116.83,-16 116.83,-23"/>
<text text-anchor="middle" x="90.5" y="-22.5" font-family="Times,serif" font-style="italic" font-size="10.00">request</text>
</g>
<!-- App&#45;&gt;User -->
<g id="edge4" class="edge">
<title>App&#45;&gt;User</title>
<path fill="none" stroke="gray" d="M130.53,-10.26C123.73,-7.89 116.17,-5.69 109,-4.5 92.78,-1.81 88.22,-1.81 72,-4.5 69.33,-4.94 66.61,-5.53 63.88,-6.21"/>
<polygon fill="gray" stroke="gray" points="62.8,-2.88 54.16,-9.02 64.74,-9.6 62.8,-2.88"/>
<text text-anchor="middle" x="90.5" y="-7.5" font-family="Times,serif" font-style="italic" font-size="10.00">response</text>
</g>
<!-- DB -->
<g id="node3" class="node">
<title>DB</title>
<polygon fill="black" stroke="transparent" points="259,-28.5 259,-32.5 278,-32.5 278,-28.5 259,-28.5"/>
<text text-anchor="start" x="261" y="-16.5" font-family="Helvetica,sans-Serif" font-size="10.00">DB</text>
<polygon fill="black" stroke="transparent" points="259,-5.5 259,-9.5 278,-9.5 278,-5.5 259,-5.5"/>
</g>
<!-- App&#45;&gt;DB -->
<g id="edge2" class="edge">
<title>App&#45;&gt;DB</title>
<path fill="none" stroke="gray" d="M181.26,-19.5C196,-19.5 214.62,-19.5 230.74,-19.5"/>
<polygon fill="gray" stroke="gray" points="230.91,-23 240.91,-19.5 230.91,-16 230.91,-23"/>
<text text-anchor="middle" x="211" y="-22.5" font-family="Times,serif" font-style="italic" font-size="10.00">query</text>
</g>
<!-- DB&#45;&gt;App -->
<g id="edge3" class="edge">
<title>DB&#45;&gt;App</title>
<path fill="none" stroke="gray" d="M240.84,-9.02C235.05,-7.14 228.89,-5.48 223,-4.5 212.48,-2.76 209.52,-2.76 199,-4.5 195.08,-5.15 191.04,-6.1 187.08,-7.22"/>
<polygon fill="gray" stroke="gray" points="185.95,-3.91 177.47,-10.26 188.06,-10.58 185.95,-3.91"/>
<text text-anchor="middle" x="211" y="-7.5" font-family="Times,serif" font-style="italic" font-size="10.00">result</text>
</g>
</g>
</svg>
