<?xml version="1.0" encoding="UTF-8" standalone="no"?>
<!DOCTYPE svg PUBLIC "-//W3C//DTD SVG 1.1//EN"
 "http://www.w3.org/Graphics/SVG/1.1/DTD/svg11.dtd">
<!-- Generated by graphviz version 2.43.0 (0)
 -->
<!-- Title: D Pages: 1 -->
<svg width="303pt" height="75pt"
 viewBox="0.00 0.00 303.00 75.00" xmlns="http://www.w3.org/2000/svg" xmlns:xlink="http://www.w3.org/1999/xlink">
<g id="graph0" class="graph" transform="scale(1 1) rotate(0) translate(4 71)">
<title>D</title>
<polygon fill="white" stroke="transparent" points="-4,4 -4,-71 299,-71 299,4 -4,4"/>
<text text-anchor="middle" x="147.5" y="-6.8" font-family="Helvetica,sans-Serif" font-size="9.00" fill="#000060">&#45; doc/img/quick&#45;start &#45;</text>
<!-- User -->
<g id="node1" class="node">
<title>User</title>
<polygon fill="none" stroke="black" points="54,-65.5 0,-65.5 0,-29.5 54,-29.5 54,-65.5"/>
<text text-anchor="middle" x="27" y="-45" font-family="Helvetica,sans-Serif" font-size="10.00">User</text>
</g>
<!-- App -->
<g id="node2" class="node">
<title>App</title>
<ellipse fill="#eeeeee" stroke="black" cx="154" cy="-47.5" rx="27" ry="18"/>
<text text-anchor="middle" x="154" y="-45" font-family="Helvetica,sans-Serif" font-size="10.00">App</text>
</g>
<!-- User&#45;&gt;App -->
<g id="edge1" class="edge">
<title>User&#45;&gt;App</title>
<path fill="none" stroke="gray" d="M54.2,-47.5C72.37,-47.5 96.8,-47.5 116.82,-47.5"/>
<polygon fill="gray" stroke="gray" points="116.83,-51 126.83,-47.5 116.83,-44 116.83,-51"/>
<text text-anchor="middle" x="90.5" y="-50.5" font-family="Times,serif" font-style="italic" font-size="10.00">request</text>
</g>
<!-- App&#45;&gt;User -->
<g id="edge4" class="edge">
<title>App&#45;&gt;User</title>
<path fill="none" stroke="gray" d="M130.53,-38.26C123.73,-35.89 116.17,-33.69 109,-32.5 92.78,-29.81 88.22,-29.81 72,-32.5 69.33,-32.94 66.61,-33.53 63.88,-34.21"/>
<polygon fill="gray" stroke="gray" points="62.8,-30.88 54.16,-37.02 64.74,-37.6 62.8,-30.88"/>
<text text-anchor="middle" x="90.5" y="-35.5" font-family="Times,serif" font-style="italic" font-size="10.00">response</text>
</g>
<!-- DB -->
<g id="node3" class="node">
<title>DB</title>
<polygon fill="black" stroke="transparent" points="259,-56.5 259,-60.5 278,-60.5 278,-56.5 259,-56.5"/>
<text text-anchor="start" x="261" y="-44.5" font-family="Helvetica,sans-Serif" font-size="10.00">DB</text>
<polygon fill="black" stroke="transparent" points="259,-33.5 259,-37.5 278,-37.5 278,-33.5 259,-33.5"/>
</g>
<!-- App&#45;&gt;DB -->
<g id="edge2" class="edge">
<title>App&#45;&gt;DB</title>
<path fill="none" stroke="gray" d="M181.26,-47.5C196,-47.5 214.62,-47.5 230.74,-47.5"/>
<polygon fill="gray" stroke="gray" points="230.91,-51 240.91,-47.5 230.91,-44 230.91,-51"/>
<text text-anchor="middle" x="211" y="-50.5" font-family="Times,serif" font-style="italic" font-size="10.00">query</text>
</g>
<!-- DB&#45;&gt;App -->
<g id="edge3" class="edge">
<title>DB&#45;&gt;App</title>
<path fill="none" stroke="gray" d="M240.84,-37.02C235.05,-35.14 228.89,-33.48 223,-32.5 212.48,-30.76 209.52,-30.76 199,-32.5 195.08,-33.15 191.04,-34.1 187.08,-35.22"/>
<polygon fill="gray" stroke="gray" points="185.95,-31.91 177.47,-38.26 188.06,-38.58 185.95,-31.91"/>
<text text-anchor="middle" x="211" y="-35.5" font-family="Times,serif" font-style="italic" font-size="10.00">result</text>
</g>
</g>
</svg>
