<?xml version="1.0" encoding="UTF-8" standalone="no"?>
<!DOCTYPE svg PUBLIC "-//W3C//DTD SVG 1.1//EN"
 "http://www.w3.org/Graphics/SVG/1.1/DTD/svg11.dtd">
<!-- Generated by graphviz version 2.43.0 (0)
 -->
<!-- Title: D Pages: 1 -->
<svg width="450pt" height="129pt"
 viewBox="0.00 0.00 450.00 129.00" xmlns="http://www.w3.org/2000/svg" xmlns:xlink="http://www.w3.org/1999/xlink">
<g id="graph0" class="graph" transform="scale(1 1) rotate(0) translate(4 125)">
<title>D</title>
<polygon fill="white" stroke="transparent" points="-4,4 -4,-125 446,-125 446,4 -4,4"/>
<text text-anchor="middle" x="221" y="-6.8" font-family="Helvetica,sans-Serif" font-size="9.00" fill="#000060">&#45; img/realtime &#45;</text>
<!-- Clock -->
<g id="node1" class="node">
<title>Clock</title>
<polygon fill="none" stroke="black" points="54,-121 0,-121 0,-85 54,-85 54,-121"/>
<text text-anchor="middle" x="27" y="-100.5" font-family="Helvetica,sans-Serif" font-size="10.00">Clock</text>
</g>
<!-- Timer -->
<g id="node5" class="node">
<title>Timer</title>
<ellipse fill="#eeeeee" stroke="black" stroke-dasharray="5,2" cx="144" cy="-103" rx="27" ry="18"/>
<text text-anchor="middle" x="144" y="-100.5" font-family="Helvetica,sans-Serif" font-size="10.00">Timer</text>
</g>
<!-- Clock&#45;&gt;Timer -->
<g id="edge4" class="edge">
<title>Clock&#45;&gt;Timer</title>
<path fill="none" stroke="gray" stroke-dasharray="5,2" d="M54.1,-103C69.57,-103 89.43,-103 106.44,-103"/>
<polygon fill="gray" stroke="gray" points="106.61,-106.5 116.61,-103 106.61,-99.5 106.61,-106.5"/>
<text text-anchor="middle" x="80" y="-106" font-family="Times,serif" font-style="italic" font-size="10.00">tick</text>
</g>
<!-- Button -->
<g id="node2" class="node">
<title>Button</title>
<polygon fill="none" stroke="black" points="442,-121 388,-121 388,-85 442,-85 442,-121"/>
<text text-anchor="middle" x="415" y="-100.5" font-family="Helvetica,sans-Serif" font-size="10.00">Button</text>
</g>
<!-- Lamp -->
<g id="node3" class="node">
<title>Lamp</title>
<polygon fill="none" stroke="black" points="442,-64 388,-64 388,-28 442,-28 442,-64"/>
<text text-anchor="middle" x="415" y="-43.5" font-family="Helvetica,sans-Serif" font-size="10.00">Lamp</text>
</g>
<!-- Power -->
<g id="node4" class="node">
<title>Power</title>
<polygon fill="none" stroke="black" points="182,-64 106,-64 106,-28 182,-28 182,-64"/>
<text text-anchor="middle" x="144" y="-43.5" font-family="Helvetica,sans-Serif" font-size="10.00">Power supply</text>
</g>
<!-- Driver -->
<g id="node6" class="node">
<title>Driver</title>
<ellipse fill="#eeeeee" stroke="black" cx="285" cy="-49" rx="27" ry="18"/>
<text text-anchor="middle" x="285" y="-46.5" font-family="Helvetica,sans-Serif" font-size="10.00">Driver</text>
</g>
<!-- Power&#45;&gt;Driver -->
<g id="edge6" class="edge">
<title>Power&#45;&gt;Driver</title>
<path fill="none" stroke="gray" d="M182,-46.09C196.14,-46.19 212.7,-46.37 237.94,-47.06"/>
<polygon fill="gray" stroke="gray" points="247.85,-50.86 257.95,-47.67 248.06,-43.87 247.85,-50.86"/>
<polygon fill="gray" stroke="gray" points="237.85,-50.56 247.95,-47.36 238.06,-43.57 237.85,-50.56"/>
<text text-anchor="middle" x="220" y="-50" font-family="Times,serif" font-style="italic" font-size="10.00">voltage</text>
</g>
<!-- Timer&#45;&gt;Button -->
<g id="edge2" class="edge">
<title>Timer&#45;&gt;Button</title>
<path fill="none" stroke="gray" stroke-dasharray="5,2" d="M181.62,-103C236.64,-103 339.32,-103 387.61,-103"/>
<polygon fill="gray" stroke="gray" points="181.28,-99.5 171.28,-103 181.28,-106.5 181.28,-99.5"/>
<text text-anchor="middle" x="285" y="-106" font-family="Times,serif" font-style="italic" font-size="10.00">reset</text>
</g>
<!-- Timer&#45;&gt;Driver -->
<g id="edge3" class="edge">
<title>Timer&#45;&gt;Driver</title>
<path fill="none" stroke="gray" stroke-dasharray="5,2" d="M167.44,-93.92C177.4,-89.92 189.27,-85.19 200,-81 216.93,-74.39 235.85,-67.17 251.44,-61.26"/>
<polygon fill="gray" stroke="gray" points="253.03,-64.4 261.14,-57.59 250.55,-57.85 253.03,-64.4"/>
<text text-anchor="middle" x="220" y="-84" font-family="Times,serif" font-style="italic" font-size="10.00">switch off</text>
</g>
<!-- Driver&#45;&gt;Button -->
<g id="edge1" class="edge">
<title>Driver&#45;&gt;Button</title>
<path fill="none" stroke="gray" stroke-dasharray="5,2" d="M319.15,-60.76C334.73,-66.51 353.47,-73.74 370,-81 375.79,-83.54 381.9,-86.45 387.68,-89.31"/>
<polygon fill="gray" stroke="gray" points="320.02,-57.35 309.43,-57.21 317.62,-63.93 320.02,-57.35"/>
<text text-anchor="middle" x="350" y="-84" font-family="Times,serif" font-style="italic" font-size="10.00">switch on</text>
</g>
<!-- Driver&#45;&gt;Lamp -->
<g id="edge5" class="edge">
<title>Driver&#45;&gt;Lamp</title>
<path fill="none" stroke="gray" d="M312.05,-47.67C317.95,-47.41 324.19,-47.17 330,-47 345.6,-46.55 362.84,-46.3 377.62,-46.17"/>
<polygon fill="gray" stroke="gray" points="377.92,-49.67 387.89,-46.09 377.86,-42.67 377.92,-49.67"/>
<text text-anchor="middle" x="350" y="-50" font-family="Times,serif" font-style="italic" font-size="10.00">voltage</text>
</g>
</g>
</svg>
