<?xml version="1.0" encoding="UTF-8" standalone="no"?>
<!DOCTYPE svg PUBLIC "-//W3C//DTD SVG 1.1//EN"
 "http://www.w3.org/Graphics/SVG/1.1/DTD/svg11.dtd">
<!-- Generated by graphviz version 2.43.0 (0)
 -->
<!-- Title: D Pages: 1 -->
<svg width="109pt" height="290pt"
 viewBox="0.00 0.00 109.00 289.63" xmlns="http://www.w3.org/2000/svg" xmlns:xlink="http://www.w3.org/1999/xlink">
<g id="graph0" class="graph" transform="scale(1 1) rotate(0) translate(4 285.63)">
<title>D</title>
<polygon fill="white" stroke="transparent" points="-4,4 -4,-285.63 105,-285.63 105,4 -4,4"/>
<text text-anchor="middle" x="50.5" y="-6.8" font-family="Helvetica,sans-Serif" font-size="9.00" fill="#000060">&#45; img/wrapping&#45;3 &#45;</text>
<!-- P1 -->
<g id="node1" class="node">
<title>P1</title>
<ellipse fill="#eeeeee" stroke="black" cx="50.5" cy="-244.87" rx="41.02" ry="36.54"/>
<text text-anchor="middle" x="50.5" y="-258.87" font-family="Helvetica,sans-Serif" font-size="10.00">Do this</text>
<text text-anchor="middle" x="50.5" y="-247.87" font-family="Helvetica,sans-Serif" font-size="10.00">and this</text>
<text text-anchor="middle" x="50.5" y="-236.87" font-family="Helvetica,sans-Serif" font-size="10.00">and also</text>
<text text-anchor="middle" x="50.5" y="-225.87" font-family="Helvetica,sans-Serif" font-size="10.00">this</text>
</g>
<!-- P2 -->
<g id="node2" class="node">
<title>P2</title>
<ellipse fill="#eeeeee" stroke="black" cx="50.5" cy="-72.55" rx="41.02" ry="44.6"/>
<text text-anchor="middle" x="50.5" y="-92.05" font-family="Helvetica,sans-Serif" font-size="10.00">Do</text>
<text text-anchor="middle" x="50.5" y="-81.05" font-family="Helvetica,sans-Serif" font-size="10.00"> that</text>
<text text-anchor="middle" x="50.5" y="-70.05" font-family="Helvetica,sans-Serif" font-size="10.00">and that</text>
<text text-anchor="middle" x="50.5" y="-59.05" font-family="Helvetica,sans-Serif" font-size="10.00">and also</text>
<text text-anchor="middle" x="50.5" y="-48.05" font-family="Helvetica,sans-Serif" font-size="10.00">that</text>
</g>
<!-- P1&#45;&gt;P2 -->
<g id="edge1" class="edge">
<title>P1&#45;&gt;P2</title>
<path fill="none" stroke="gray" d="M32.8,-211.68C29.78,-204.75 27.1,-197.33 25.5,-190.1 20.22,-166.23 20.81,-159.09 25.5,-135.1 26.32,-130.89 27.43,-126.62 28.73,-122.37"/>
<polygon fill="gray" stroke="gray" points="32.15,-123.18 32.04,-112.59 25.52,-120.93 32.15,-123.18"/>
<text text-anchor="middle" x="40.5" y="-182.1" font-family="Times,serif" font-style="italic" font-size="10.00">result</text>
<text text-anchor="middle" x="40.5" y="-171.1" font-family="Times,serif" font-style="italic" font-size="10.00">of</text>
<text text-anchor="middle" x="40.5" y="-160.1" font-family="Times,serif" font-style="italic" font-size="10.00">doing</text>
<text text-anchor="middle" x="40.5" y="-149.1" font-family="Times,serif" font-style="italic" font-size="10.00">all</text>
<text text-anchor="middle" x="40.5" y="-138.1" font-family="Times,serif" font-style="italic" font-size="10.00">this</text>
</g>
<!-- P2&#45;&gt;P1 -->
<g id="edge2" class="edge">
<title>P2&#45;&gt;P1</title>
<path fill="none" stroke="gray" d="M54.46,-116.9C54.89,-123 55.26,-129.2 55.5,-135.1 56.49,-159.52 56.63,-165.68 55.5,-190.1 55.38,-192.64 55.23,-195.24 55.06,-197.87"/>
<polygon fill="gray" stroke="gray" points="51.56,-197.8 54.3,-208.03 58.54,-198.32 51.56,-197.8"/>
<text text-anchor="middle" x="70.5" y="-182.1" font-family="Times,serif" font-style="italic" font-size="10.00">result</text>
<text text-anchor="middle" x="70.5" y="-171.1" font-family="Times,serif" font-style="italic" font-size="10.00">of</text>
<text text-anchor="middle" x="70.5" y="-160.1" font-family="Times,serif" font-style="italic" font-size="10.00">doing</text>
<text text-anchor="middle" x="70.5" y="-149.1" font-family="Times,serif" font-style="italic" font-size="10.00">all</text>
<text text-anchor="middle" x="70.5" y="-138.1" font-family="Times,serif" font-style="italic" font-size="10.00">that</text>
</g>
</g>
</svg>
