<?xml version="1.0" encoding="UTF-8" standalone="no"?>
<!DOCTYPE svg PUBLIC "-//W3C//DTD SVG 1.1//EN"
 "http://www.w3.org/Graphics/SVG/1.1/DTD/svg11.dtd">
<!-- Generated by graphviz version 2.43.0 (0)
 -->
<!-- Title: D Pages: 1 -->
<svg width="99pt" height="290pt"
 viewBox="0.00 0.00 99.00 289.63" xmlns="http://www.w3.org/2000/svg" xmlns:xlink="http://www.w3.org/1999/xlink">
<g id="graph0" class="graph" transform="scale(1 1) rotate(0) translate(4 285.63)">
<title>D</title>
<polygon fill="white" stroke="transparent" points="-4,4 -4,-285.63 95,-285.63 95,4 -4,4"/>
<text text-anchor="middle" x="45.5" y="-6.8" font-family="Helvetica,sans-Serif" font-size="9.00" fill="#000060">&#45; img/wrapping&#45;3 &#45;</text>
<!-- P1 -->
<g id="node1" class="node">
<title>P1</title>
<ellipse fill="#eeeeee" stroke="black" cx="45.5" cy="-244.87" rx="37.45" ry="36.54"/>
<text text-anchor="middle" x="45.5" y="-258.87" font-family="Helvetica,sans-Serif" font-size="10.00">Do this</text>
<text text-anchor="middle" x="45.5" y="-247.87" font-family="Helvetica,sans-Serif" font-size="10.00">and this</text>
<text text-anchor="middle" x="45.5" y="-236.87" font-family="Helvetica,sans-Serif" font-size="10.00">and also</text>
<text text-anchor="middle" x="45.5" y="-225.87" font-family="Helvetica,sans-Serif" font-size="10.00">this</text>
</g>
<!-- P2 -->
<g id="node2" class="node">
<title>P2</title>
<ellipse fill="#eeeeee" stroke="black" cx="45.5" cy="-72.55" rx="37.45" ry="44.6"/>
<text text-anchor="middle" x="45.5" y="-92.05" font-family="Helvetica,sans-Serif" font-size="10.00">Do</text>
<text text-anchor="middle" x="45.5" y="-81.05" font-family="Helvetica,sans-Serif" font-size="10.00"> that</text>
<text text-anchor="middle" x="45.5" y="-70.05" font-family="Helvetica,sans-Serif" font-size="10.00">and that</text>
<text text-anchor="middle" x="45.5" y="-59.05" font-family="Helvetica,sans-Serif" font-size="10.00">and also</text>
<text text-anchor="middle" x="45.5" y="-48.05" font-family="Helvetica,sans-Serif" font-size="10.00">that</text>
</g>
<!-- P1&#45;&gt;P2 -->
<g id="edge1" class="edge">
<title>P1&#45;&gt;P2</title>
<path fill="none" stroke="gray" d="M29.21,-211.56C26.43,-204.64 23.97,-197.26 22.5,-190.1 17.59,-166.15 18.15,-159.15 22.5,-135.1 23.29,-130.75 24.36,-126.31 25.62,-121.9"/>
<polygon fill="gray" stroke="gray" points="28.96,-122.95 28.62,-112.36 22.28,-120.84 28.96,-122.95"/>
<text text-anchor="middle" x="35" y="-182.1" font-family="Times,serif" font-style="italic" font-size="10.00">result</text>
<text text-anchor="middle" x="35" y="-171.1" font-family="Times,serif" font-style="italic" font-size="10.00">of</text>
<text text-anchor="middle" x="35" y="-160.1" font-family="Times,serif" font-style="italic" font-size="10.00">doing</text>
<text text-anchor="middle" x="35" y="-149.1" font-family="Times,serif" font-style="italic" font-size="10.00">all</text>
<text text-anchor="middle" x="35" y="-138.1" font-family="Times,serif" font-style="italic" font-size="10.00">this</text>
</g>
<!-- P2&#45;&gt;P1 -->
<g id="edge2" class="edge">
<title>P2&#45;&gt;P1</title>
<path fill="none" stroke="gray" d="M47.1,-117.25C47.26,-123.25 47.41,-129.32 47.5,-135.1 47.9,-159.54 47.95,-165.66 47.5,-190.1 47.45,-192.63 47.39,-195.23 47.32,-197.85"/>
<polygon fill="gray" stroke="gray" points="43.82,-197.91 47.02,-208.01 50.82,-198.12 43.82,-197.91"/>
<text text-anchor="middle" x="60" y="-182.1" font-family="Times,serif" font-style="italic" font-size="10.00">result</text>
<text text-anchor="middle" x="60" y="-171.1" font-family="Times,serif" font-style="italic" font-size="10.00">of</text>
<text text-anchor="middle" x="60" y="-160.1" font-family="Times,serif" font-style="italic" font-size="10.00">doing</text>
<text text-anchor="middle" x="60" y="-149.1" font-family="Times,serif" font-style="italic" font-size="10.00">all</text>
<text text-anchor="middle" x="60" y="-138.1" font-family="Times,serif" font-style="italic" font-size="10.00">that</text>
</g>
</g>
</svg>
