<?xml version="1.0" encoding="UTF-8" standalone="no"?>
<!DOCTYPE svg PUBLIC "-//W3C//DTD SVG 1.1//EN"
 "http://www.w3.org/Graphics/SVG/1.1/DTD/svg11.dtd">
<!-- Generated by graphviz version 2.43.0 (0)
 -->
<!-- Title: D Pages: 1 -->
<svg width="207pt" height="172pt"
 viewBox="0.00 0.00 206.75 172.43" xmlns="http://www.w3.org/2000/svg" xmlns:xlink="http://www.w3.org/1999/xlink">
<g id="graph0" class="graph" transform="scale(1 1) rotate(0) translate(4 168.43)">
<title>D</title>
<polygon fill="white" stroke="transparent" points="-4,4 -4,-168.43 202.75,-168.43 202.75,4 -4,4"/>
<text text-anchor="middle" x="99.38" y="-6.8" font-family="Helvetica,sans-Serif" font-size="9.00" fill="#000060">&#45; img/wrapping&#45;2 &#45;</text>
<!-- P1 -->
<g id="node1" class="node">
<title>P1</title>
<ellipse fill="#eeeeee" stroke="black" cx="94.75" cy="-146.43" rx="84.54" ry="18"/>
<text text-anchor="middle" x="94.75" y="-143.93" font-family="Helvetica,sans-Serif" font-size="10.00">Do this and this and also this</text>
</g>
<!-- P2 -->
<g id="node2" class="node">
<title>P2</title>
<ellipse fill="#eeeeee" stroke="black" cx="94.75" cy="-49.21" rx="94.51" ry="21.43"/>
<text text-anchor="middle" x="94.75" y="-52.21" font-family="Helvetica,sans-Serif" font-size="10.00">Do</text>
<text text-anchor="middle" x="94.75" y="-41.21" font-family="Helvetica,sans-Serif" font-size="10.00"> that and that and also that</text>
</g>
<!-- P1&#45;&gt;P2 -->
<g id="edge1" class="edge">
<title>P1&#45;&gt;P2</title>
<path fill="none" stroke="gray" d="M58.33,-130.11C50.51,-125.04 43.25,-118.55 38.75,-110.43 34.01,-101.87 34.19,-97.07 38.75,-88.43 41.33,-83.55 44.84,-79.17 48.86,-75.29"/>
<polygon fill="gray" stroke="gray" points="51.15,-77.93 56.54,-68.8 46.64,-72.58 51.15,-77.93"/>
<text text-anchor="middle" x="84.25" y="-96.93" font-family="Times,serif" font-style="italic" font-size="10.00">result of doing all this</text>
</g>
<!-- P2&#45;&gt;P1 -->
<g id="edge2" class="edge">
<title>P2&#45;&gt;P1</title>
<path fill="none" stroke="gray" d="M117.94,-70.05C122.75,-75.47 127.14,-81.72 129.75,-88.43 133.3,-97.54 133.49,-101.39 129.75,-110.43 128.12,-114.36 125.82,-118.08 123.16,-121.52"/>
<polygon fill="gray" stroke="gray" points="120.51,-119.23 116.45,-129.02 125.72,-123.9 120.51,-119.23"/>
<text text-anchor="middle" x="165.25" y="-102.43" font-family="Times,serif" font-style="italic" font-size="10.00">result</text>
<text text-anchor="middle" x="165.25" y="-91.43" font-family="Times,serif" font-style="italic" font-size="10.00">of doing all that</text>
</g>
</g>
</svg>
