<?xml version="1.0" encoding="UTF-8" standalone="no"?>
<!DOCTYPE svg PUBLIC "-//W3C//DTD SVG 1.1//EN"
 "http://www.w3.org/Graphics/SVG/1.1/DTD/svg11.dtd">
<!-- Generated by graphviz version 2.43.0 (0)
 -->
<!-- Title: D Pages: 1 -->
<svg width="155pt" height="205pt"
 viewBox="0.00 0.00 155.08 205.41" xmlns="http://www.w3.org/2000/svg" xmlns:xlink="http://www.w3.org/1999/xlink">
<g id="graph0" class="graph" transform="scale(1 1) rotate(0) translate(4 201.41)">
<title>D</title>
<polygon fill="white" stroke="transparent" points="-4,4 -4,-201.41 151.08,-201.41 151.08,4 -4,4"/>
<text text-anchor="middle" x="73.54" y="-6.8" font-family="Helvetica,sans-Serif" font-size="9.00" fill="#000060">&#45; img/wrapping&#45;1 &#45;</text>
<!-- P1 -->
<g id="node1" class="node">
<title>P1</title>
<ellipse fill="#eeeeee" stroke="black" cx="73.54" cy="-176.2" rx="73.58" ry="21.43"/>
<text text-anchor="middle" x="73.54" y="-179.2" font-family="Helvetica,sans-Serif" font-size="10.00">Do this and this and</text>
<text text-anchor="middle" x="73.54" y="-168.2" font-family="Helvetica,sans-Serif" font-size="10.00">also this</text>
</g>
<!-- P2 -->
<g id="node2" class="node">
<title>P2</title>
<ellipse fill="#eeeeee" stroke="black" cx="73.54" cy="-56.99" rx="65.52" ry="28.98"/>
<text text-anchor="middle" x="73.54" y="-65.49" font-family="Helvetica,sans-Serif" font-size="10.00">Do</text>
<text text-anchor="middle" x="73.54" y="-54.49" font-family="Helvetica,sans-Serif" font-size="10.00"> that and that and</text>
<text text-anchor="middle" x="73.54" y="-43.49" font-family="Helvetica,sans-Serif" font-size="10.00">also that</text>
</g>
<!-- P1&#45;&gt;P2 -->
<g id="edge1" class="edge">
<title>P1&#45;&gt;P2</title>
<path fill="none" stroke="gray" d="M48.79,-156.06C43.42,-150.54 38.47,-144.07 35.54,-136.98 29.95,-123.42 30.58,-117.78 35.54,-103.98 37,-99.93 38.99,-95.97 41.3,-92.2"/>
<polygon fill="gray" stroke="gray" points="44.34,-93.95 47.16,-83.74 38.59,-89.96 44.34,-93.95"/>
<text text-anchor="middle" x="63.04" y="-123.48" font-family="Times,serif" font-style="italic" font-size="10.00">result of</text>
<text text-anchor="middle" x="63.04" y="-112.48" font-family="Times,serif" font-style="italic" font-size="10.00">doing all this</text>
</g>
<!-- P2&#45;&gt;P1 -->
<g id="edge2" class="edge">
<title>P2&#45;&gt;P1</title>
<path fill="none" stroke="gray" d="M85.59,-85.76C87.64,-91.67 89.46,-97.95 90.54,-103.98 93.12,-118.42 93.59,-122.64 90.54,-136.98 89.93,-139.85 89.09,-142.76 88.11,-145.62"/>
<polygon fill="gray" stroke="gray" points="84.79,-144.52 84.36,-155.1 91.29,-147.1 84.79,-144.52"/>
<text text-anchor="middle" x="117.04" y="-128.98" font-family="Times,serif" font-style="italic" font-size="10.00">result</text>
<text text-anchor="middle" x="117.04" y="-117.98" font-family="Times,serif" font-style="italic" font-size="10.00">of doing all</text>
<text text-anchor="middle" x="117.04" y="-106.98" font-family="Times,serif" font-style="italic" font-size="10.00">that</text>
</g>
</g>
</svg>
