<?xml version="1.0" encoding="UTF-8" standalone="no"?>
<!DOCTYPE svg PUBLIC "-//W3C//DTD SVG 1.1//EN"
 "http://www.w3.org/Graphics/SVG/1.1/DTD/svg11.dtd">
<!-- Generated by graphviz version 2.43.0 (0)
 -->
<!-- Title: D Pages: 1 -->
<svg width="243pt" height="172pt"
 viewBox="0.00 0.00 243.36 172.43" xmlns="http://www.w3.org/2000/svg" xmlns:xlink="http://www.w3.org/1999/xlink">
<g id="graph0" class="graph" transform="scale(1 1) rotate(0) translate(4 168.43)">
<title>D</title>
<polygon fill="white" stroke="transparent" points="-4,4 -4,-168.43 239.36,-168.43 239.36,4 -4,4"/>
<text text-anchor="middle" x="117.68" y="-6.8" font-family="Helvetica,sans-Serif" font-size="9.00" fill="#000060">&#45; img/wrapping&#45;2 &#45;</text>
<!-- P1 -->
<g id="node1" class="node">
<title>P1</title>
<ellipse fill="#eeeeee" stroke="black" cx="105.36" cy="-146.43" rx="93.02" ry="18"/>
<text text-anchor="middle" x="105.36" y="-143.93" font-family="Helvetica,sans-Serif" font-size="10.00">Do this and this and also this</text>
</g>
<!-- P2 -->
<g id="node2" class="node">
<title>P2</title>
<ellipse fill="#eeeeee" stroke="black" cx="105.36" cy="-49.21" rx="105.22" ry="21.43"/>
<text text-anchor="middle" x="105.36" y="-52.21" font-family="Helvetica,sans-Serif" font-size="10.00">Do</text>
<text text-anchor="middle" x="105.36" y="-41.21" font-family="Helvetica,sans-Serif" font-size="10.00"> that and that and also that</text>
</g>
<!-- P1&#45;&gt;P2 -->
<g id="edge1" class="edge">
<title>P1&#45;&gt;P2</title>
<path fill="none" stroke="gray" d="M61.23,-130.57C52.53,-125.56 44.51,-118.98 39.36,-110.43 34.32,-102.05 34.48,-96.9 39.36,-88.43 42.37,-83.21 46.39,-78.64 50.97,-74.65"/>
<polygon fill="gray" stroke="gray" points="53.27,-77.3 59.13,-68.48 49.04,-71.72 53.27,-77.3"/>
<text text-anchor="middle" x="95.36" y="-96.93" font-family="Times,serif" font-style="italic" font-size="10.00">result of doing all this</text>
</g>
<!-- P2&#45;&gt;P1 -->
<g id="edge2" class="edge">
<title>P2&#45;&gt;P1</title>
<path fill="none" stroke="gray" d="M136.63,-69.73C142.59,-75.01 148.01,-81.28 151.36,-88.43 155.51,-97.28 155.7,-101.67 151.36,-110.43 149.19,-114.8 146.18,-118.78 142.73,-122.36"/>
<polygon fill="gray" stroke="gray" points="140.29,-119.85 135.16,-129.12 144.95,-125.07 140.29,-119.85"/>
<text text-anchor="middle" x="194.86" y="-102.43" font-family="Times,serif" font-style="italic" font-size="10.00">result</text>
<text text-anchor="middle" x="194.86" y="-91.43" font-family="Times,serif" font-style="italic" font-size="10.00">of doing all that</text>
</g>
</g>
</svg>
