<?xml version="1.0" encoding="UTF-8" standalone="no"?>
<!DOCTYPE svg PUBLIC "-//W3C//DTD SVG 1.1//EN"
 "http://www.w3.org/Graphics/SVG/1.1/DTD/svg11.dtd">
<!-- Generated by graphviz version 2.43.0 (0)
 -->
<!-- Title: D Pages: 1 -->
<svg width="172pt" height="205pt"
 viewBox="0.00 0.00 171.61 205.41" xmlns="http://www.w3.org/2000/svg" xmlns:xlink="http://www.w3.org/1999/xlink">
<g id="graph0" class="graph" transform="scale(1 1) rotate(0) translate(4 201.41)">
<title>D</title>
<polygon fill="white" stroke="transparent" points="-4,4 -4,-201.41 167.61,-201.41 167.61,4 -4,4"/>
<text text-anchor="middle" x="81.81" y="-6.8" font-family="Helvetica,sans-Serif" font-size="9.00" fill="#000060">&#45; img/wrapping&#45;1 &#45;</text>
<!-- P1 -->
<g id="node1" class="node">
<title>P1</title>
<ellipse fill="#eeeeee" stroke="black" cx="80.61" cy="-176.2" rx="80.72" ry="21.43"/>
<text text-anchor="middle" x="80.61" y="-179.2" font-family="Helvetica,sans-Serif" font-size="10.00">Do this and this and</text>
<text text-anchor="middle" x="80.61" y="-168.2" font-family="Helvetica,sans-Serif" font-size="10.00">also this</text>
</g>
<!-- P2 -->
<g id="node2" class="node">
<title>P2</title>
<ellipse fill="#eeeeee" stroke="black" cx="80.61" cy="-56.99" rx="73.58" ry="28.98"/>
<text text-anchor="middle" x="80.61" y="-65.49" font-family="Helvetica,sans-Serif" font-size="10.00">Do</text>
<text text-anchor="middle" x="80.61" y="-54.49" font-family="Helvetica,sans-Serif" font-size="10.00"> that and that and</text>
<text text-anchor="middle" x="80.61" y="-43.49" font-family="Helvetica,sans-Serif" font-size="10.00">also that</text>
</g>
<!-- P1&#45;&gt;P2 -->
<g id="edge1" class="edge">
<title>P1&#45;&gt;P2</title>
<path fill="none" stroke="gray" d="M51.58,-156.29C45.52,-150.84 39.97,-144.35 36.61,-136.98 30.52,-123.64 31.15,-117.59 36.61,-103.98 38.32,-99.71 40.64,-95.62 43.33,-91.75"/>
<polygon fill="gray" stroke="gray" points="46.25,-93.69 49.69,-83.67 40.75,-89.36 46.25,-93.69"/>
<text text-anchor="middle" x="70.11" y="-123.48" font-family="Times,serif" font-style="italic" font-size="10.00">result of</text>
<text text-anchor="middle" x="70.11" y="-112.48" font-family="Times,serif" font-style="italic" font-size="10.00">doing all this</text>
</g>
<!-- P2&#45;&gt;P1 -->
<g id="edge2" class="edge">
<title>P2&#45;&gt;P1</title>
<path fill="none" stroke="gray" d="M96.89,-85.42C99.67,-91.35 102.13,-97.73 103.61,-103.98 106.98,-118.26 107.53,-122.85 103.61,-136.98 102.77,-140.02 101.61,-143.05 100.26,-146.01"/>
<polygon fill="gray" stroke="gray" points="97.03,-144.64 95.45,-155.11 103.22,-147.91 97.03,-144.64"/>
<text text-anchor="middle" x="134.61" y="-128.98" font-family="Times,serif" font-style="italic" font-size="10.00">result</text>
<text text-anchor="middle" x="134.61" y="-117.98" font-family="Times,serif" font-style="italic" font-size="10.00">of doing all</text>
<text text-anchor="middle" x="134.61" y="-106.98" font-family="Times,serif" font-style="italic" font-size="10.00">that</text>
</g>
</g>
</svg>
