<?xml version="1.0" encoding="UTF-8" standalone="no"?>
<!DOCTYPE svg PUBLIC "-//W3C//DTD SVG 1.1//EN"
 "http://www.w3.org/Graphics/SVG/1.1/DTD/svg11.dtd">
<!-- Generated by graphviz version 2.43.0 (0)
 -->
<!-- Title: D Pages: 1 -->
<svg width="588pt" height="201pt"
 viewBox="0.00 0.00 587.52 200.50" xmlns="http://www.w3.org/2000/svg" xmlns:xlink="http://www.w3.org/1999/xlink">
<g id="graph0" class="graph" transform="scale(1 1) rotate(0) translate(4 196.5)">
<title>D</title>
<polygon fill="white" stroke="transparent" points="-4,4 -4,-196.5 583.52,-196.5 583.52,4 -4,4"/>
<!-- Acquire -->
<g id="node1" class="node">
<title>Acquire</title>
<ellipse fill="#eeeeee" stroke="black" cx="195.8" cy="-117" rx="41.59" ry="18"/>
<text text-anchor="middle" x="195.8" y="-114.5" font-family="Helvetica,sans-Serif" font-size="10.00">Acquire data</text>
</g>
<!-- Compute -->
<g id="node2" class="node">
<title>Compute</title>
<ellipse fill="#eeeeee" stroke="black" cx="355.56" cy="-151" rx="32.93" ry="18"/>
<text text-anchor="middle" x="355.56" y="-148.5" font-family="Helvetica,sans-Serif" font-size="10.00">Compute</text>
</g>
<!-- Acquire&#45;&gt;Compute -->
<g id="edge6" class="edge">
<title>Acquire&#45;&gt;Compute</title>
<path fill="none" stroke="gray" d="M233.38,-124.89C257.71,-130.13 289.64,-137.01 314.62,-142.39"/>
<polygon fill="gray" stroke="gray" points="314,-145.84 324.51,-144.52 315.47,-139 314,-145.84"/>
<text text-anchor="middle" x="280.09" y="-143" font-family="Times,serif" font-style="italic" font-size="10.00">raw records</text>
</g>
<!-- API -->
<g id="node6" class="node">
<title>API</title>
<polygon fill="black" stroke="transparent" points="515.52,-137 515.52,-165 519.52,-165 519.52,-137 515.52,-137"/>
<text text-anchor="start" x="509.02" y="-125" font-family="Helvetica,sans-Serif" font-size="10.00">API</text>
</g>
<!-- Compute&#45;&gt;API -->
<g id="edge8" class="edge">
<title>Compute&#45;&gt;API:c</title>
<path fill="none" stroke="gray" d="M388.54,-151C424.48,-151 480.94,-151 505.02,-151"/>
<polygon fill="gray" stroke="gray" points="505.35,-154.5 515.35,-151 505.35,-147.5 505.35,-154.5"/>
<text text-anchor="middle" x="422.02" y="-154" font-family="Times,serif" font-style="italic" font-size="10.00">records</text>
</g>
<!-- Control -->
<g id="node3" class="node">
<title>Control</title>
<ellipse fill="#eeeeee" stroke="black" stroke-dasharray="5,2" cx="195.8" cy="-45" rx="28.01" ry="18"/>
<text text-anchor="middle" x="195.8" y="-42.5" font-family="Helvetica,sans-Serif" font-size="10.00">Control</text>
</g>
<!-- Control&#45;&gt;Acquire -->
<g id="edge4" class="edge">
<title>Control&#45;&gt;Acquire</title>
<path fill="none" stroke="gray" stroke-dasharray="5,2" d="M195.8,-63.17C195.8,-70.87 195.8,-80.03 195.8,-88.58"/>
<polygon fill="gray" stroke="gray" points="192.3,-88.59 195.8,-98.59 199.3,-88.59 192.3,-88.59"/>
<text text-anchor="middle" x="187.3" y="-78.5" font-family="Times,serif" font-style="italic" font-size="10.00">sampling</text>
</g>
<!-- __star_1__ -->
<g id="node8" class="node">
<title>__star_1__</title>
<text text-anchor="middle" x="355.56" y="-69.5" font-family="Times,serif" font-style="italic" font-size="10.00">enable</text>
</g>
<!-- Control&#45;&gt;__star_1__ -->
<g id="edge2" class="edge">
<title>Control&#45;&gt;__star_1__</title>
<path fill="none" stroke="gray" stroke-dasharray="5,2" d="M233.37,-51.26C262.43,-56.23 302.38,-63.07 328.33,-67.51"/>
<polygon fill="gray" stroke="gray" points="233.65,-47.76 223.2,-49.52 232.47,-54.66 233.65,-47.76"/>
</g>
<!-- __star_2__ -->
<g id="node9" class="node">
<title>__star_2__</title>
<text text-anchor="middle" x="355.56" y="-15.5" font-family="Times,serif" font-style="italic" font-size="10.00">disable</text>
</g>
<!-- Control&#45;&gt;__star_2__ -->
<g id="edge3" class="edge">
<title>Control&#45;&gt;__star_2__</title>
<path fill="none" stroke="gray" stroke-dasharray="5,2" d="M233.37,-38.74C262.43,-33.77 302.38,-26.93 328.33,-22.49"/>
<polygon fill="gray" stroke="gray" points="232.47,-35.34 223.2,-40.48 233.65,-42.24 232.47,-35.34"/>
</g>
<!-- Device -->
<g id="node4" class="node">
<title>Device</title>
<polygon fill="none" stroke="black" points="54,-135 0,-135 0,-99 54,-99 54,-135"/>
<text text-anchor="middle" x="27" y="-114.5" font-family="Helvetica,sans-Serif" font-size="10.00">Device</text>
</g>
<!-- Device&#45;&gt;Acquire -->
<g id="edge5" class="edge">
<title>Device&#45;&gt;Acquire</title>
<path fill="none" stroke="gray" d="M54.06,-117C75.38,-117 106.39,-117 133.88,-117"/>
<polygon fill="gray" stroke="gray" points="143.99,-120.5 153.99,-117 143.99,-113.5 143.99,-120.5"/>
<polygon fill="gray" stroke="gray" points="133.99,-120.5 143.99,-117 133.99,-113.5 133.99,-120.5"/>
<text text-anchor="middle" x="104" y="-131" font-family="Times,serif" font-style="italic" font-size="10.00">continuous raw</text>
<text text-anchor="middle" x="104" y="-120" font-family="Times,serif" font-style="italic" font-size="10.00">data</text>
</g>
<!-- Config -->
<g id="node5" class="node">
<title>Config</title>
<polygon fill="black" stroke="transparent" points="164.8,-182 164.8,-186 226.8,-186 226.8,-182 164.8,-182"/>
<text text-anchor="start" x="166.8" y="-170" font-family="Helvetica,sans-Serif" font-size="10.00">Configuration</text>
<polygon fill="black" stroke="transparent" points="164.8,-159 164.8,-163 226.8,-163 226.8,-159 164.8,-159"/>
</g>
<!-- Config&#45;&gt;Compute -->
<g id="edge7" class="edge">
<title>Config&#45;&gt;Compute</title>
<path fill="none" stroke="gray" d="M247.08,-165.99C268.41,-163.01 292.96,-159.59 313.21,-156.77"/>
<polygon fill="gray" stroke="gray" points="246.43,-162.54 237.01,-167.39 247.4,-169.48 246.43,-162.54"/>
<polygon fill="gray" stroke="gray" points="313.95,-160.2 323.37,-155.35 312.98,-153.26 313.95,-160.2"/>
<text text-anchor="middle" x="280.09" y="-167" font-family="Times,serif" font-style="italic" font-size="10.00">parameters</text>
</g>
<!-- __star_0__ -->
<g id="node7" class="node">
<title>__star_0__</title>
<text text-anchor="middle" x="27" y="-42.5" font-family="Times,serif" font-style="italic" font-size="10.00">clock</text>
</g>
<!-- __star_0__&#45;&gt;Control -->
<g id="edge1" class="edge">
<title>__star_0__&#45;&gt;Control</title>
<path fill="none" stroke="gray" stroke-dasharray="5,2" d="M54.06,-45C81.8,-45 125.95,-45 157.4,-45"/>
<polygon fill="gray" stroke="gray" points="157.53,-48.5 167.53,-45 157.53,-41.5 157.53,-48.5"/>
</g>
</g>
</svg>
